<svg width="256" height="231" viewBox="0 0 256 231" fill="none" xmlns="http://www.w3.org/2000/svg">
<path d="M226.49 68.5383C235.977 68.5383 243.667 60.801 243.667 51.2565C243.667 41.7121 235.977 33.9747 226.49 33.9747C217.002 33.9747 209.312 41.7121 209.312 51.2565C209.312 60.801 217.002 68.5383 226.49 68.5383Z" fill="url(#paint0_linear)"/>
<path d="M131.646 107.943L166.193 65.1397C163.981 63.7796 161.693 62.5484 159.341 61.4525C142.37 53.4452 123.018 52.1855 105.163 57.9256L122.627 106.533C125.706 106.045 128.86 106.539 131.646 107.943Z" fill="#4B5A6B"/>
<path d="M131.646 107.943L166.193 65.1397C163.981 63.7796 161.693 62.5484 159.341 61.4525C142.37 53.4452 123.018 52.1855 105.163 57.9256L122.627 106.533C125.706 106.045 128.86 106.539 131.646 107.943Z" fill="url(#paint1_linear)"/>
<path d="M89.9302 182.649H119.091L89.9302 174.858V182.649Z" fill="#6F7B89"/>
<path d="M155.613 182.65H165.907V178.866L155.613 182.65Z" fill="#6F7B89"/>
<path d="M154.912 89.0582L136.396 111.919L154.912 89.0582Z" fill="#939CA6"/>
<path d="M127.918 199.514C112.307 199.305 97.1928 205.03 85.5956 215.546C80.9328 219.908 77.0425 225.036 74.0908 230.711H89.0056C92.386 224.649 97.1195 219.458 102.834 215.55C108.548 211.642 115.086 209.122 121.933 208.189C128.78 207.257 135.749 207.937 142.291 210.176C148.832 212.415 154.767 216.152 159.628 221.093C162.408 223.962 164.789 227.198 166.703 230.711H181.745C176.445 221.075 168.631 213.077 159.145 207.579C149.66 202.082 138.863 199.293 127.918 199.514Z" fill="white"/>
<path d="M189.329 208.556L176.996 203.041L174.191 189.511C174.154 189.344 174.061 189.196 173.927 189.09C173.794 188.985 173.628 188.929 173.458 188.934H82.3759C82.1993 188.935 82.0285 188.996 81.8899 189.107C81.7516 189.217 81.6534 189.37 81.611 189.543L78.8065 203.041L66.4731 208.556C57.8366 212.403 52.1001 219.778 49.0088 231H67.0787C70.5189 223.537 75.3679 216.819 81.3561 211.217C94.0882 199.587 110.721 193.23 127.917 193.422C152.616 193.422 177.506 206.247 188.787 231H206.793C203.702 219.778 197.966 212.339 189.329 208.556Z" fill="white"/>
<path d="M127.918 214.456C121.763 214.464 115.702 215.966 110.248 218.835C104.794 221.704 100.109 225.856 96.5903 230.936H159.309C158.082 229.124 156.707 227.419 155.198 225.838C151.635 222.206 147.386 219.328 142.701 217.373C138.016 215.418 132.99 214.426 127.918 214.456Z" fill="white"/>
<path d="M90.6308 151.741L99.0442 153.986L87.2845 121.538C86.4406 119.196 85.0418 117.095 83.2094 115.419C81.3769 113.743 79.1658 112.542 76.7676 111.919L56.5625 106.533C52.9007 117.909 51.9941 130.001 53.9174 141.802L90.6308 151.741Z" fill="white"/>
<path d="M93.1474 119.357L106.405 155.941L134.259 163.379C137.269 164.175 140.447 164.029 143.373 162.963L166.702 154.626L173.745 152.061C174.421 151.821 175.113 151.628 175.816 151.484C177.202 151.107 178.622 150.871 180.055 150.779C182.202 150.697 184.35 150.935 186.429 151.484L198.443 154.69C199.534 151.546 200.418 148.333 201.089 145.072L138.019 128.207C136.311 131.647 133.357 134.297 129.765 135.613C126.965 136.65 123.921 136.824 121.021 136.116C118.121 135.407 115.497 133.847 113.481 131.633C111.465 129.419 110.149 126.653 109.701 123.685C109.252 120.717 109.691 117.681 110.962 114.965C112.194 112.318 114.165 110.09 116.635 108.552L99.107 60.1055C90.0313 63.827 81.7832 69.3302 74.8449 76.2939C67.9067 83.258 62.4172 91.543 58.6968 100.665L78.3601 105.827C81.7303 106.707 84.8372 108.399 87.4135 110.756C89.9895 113.113 91.9571 116.065 93.1474 119.357Z" fill="white"/>
<path d="M175.721 157.833L145.541 168.894C144.423 169.298 143.271 169.598 142.099 169.792C141.865 169.808 141.631 169.808 141.398 169.792C140.468 169.925 139.532 170.011 138.593 170.049H138.243C137.828 170.049 137.446 170.049 137.032 170.049H135.693C134.865 169.92 134.036 169.76 133.207 169.568H132.793H132.474L103.473 161.84H103.123L55.542 149.015C56.5672 152.885 57.8882 156.669 59.4938 160.334L130.626 179.347C136.769 180.984 143.263 180.693 149.238 178.513L191.815 162.899C193.193 162.315 194.415 161.414 195.384 160.269L184.708 157.448C181.744 156.642 178.606 156.777 175.721 157.833Z" fill="white"/>
<path d="M124.73 130.291C129.623 130.291 133.59 126.301 133.59 121.378C133.59 116.455 129.623 112.464 124.73 112.464C119.837 112.464 115.871 116.455 115.871 121.378C115.871 126.301 119.837 130.291 124.73 130.291Z" fill="white"/>
<path d="M127.917 208.171C120.004 208.135 112.224 210.226 105.383 214.228C98.5421 218.231 92.8878 223.998 89.0049 230.936H96.5898C99.8137 226.308 104.006 222.447 108.873 219.625C113.74 216.804 119.162 215.089 124.759 214.604C130.355 214.118 135.989 214.871 141.265 216.813C146.54 218.754 151.329 221.834 155.293 225.838C156.802 227.419 158.177 229.124 159.404 230.936H166.702C162.863 223.989 157.237 218.209 150.412 214.203C143.588 210.197 135.818 208.114 127.917 208.171Z" fill="#4B5A6B"/>
<path d="M127.919 193.358C110.723 193.166 94.0901 199.523 81.358 211.153C75.3698 216.755 70.5209 223.473 67.0806 230.936H74.0918C77.0432 225.261 80.9338 220.132 85.5966 215.77C97.1938 205.255 112.308 199.53 127.919 199.739C138.864 199.518 149.661 202.306 159.146 207.804C168.632 213.301 176.446 221.3 181.746 230.936H188.789C177.508 206.184 152.618 193.358 127.919 193.358Z" fill="#4B5A6B"/>
<path d="M241.149 69.5964C245.859 65.7209 248.887 60.1529 249.591 54.0713C250.292 47.9896 248.616 41.8714 244.913 37.0126C241.209 32.1538 235.772 28.9356 229.752 28.0394C223.732 27.1432 217.601 28.6395 212.658 32.2113L212.116 32.6281C199.244 21.3203 184.252 12.7209 168.023 7.33744C151.794 1.95393 134.658 -0.104647 117.626 1.28318C100.593 2.67101 84.0099 7.47714 68.8538 15.4179C53.6974 23.3587 40.276 34.2732 29.3809 47.5177C18.4857 60.7618 10.3377 76.0676 5.41806 92.5318C0.49809 108.996 -1.0941 126.284 0.735518 143.377C2.56513 160.47 7.77926 177.022 16.07 192.054C24.3611 207.087 35.5613 220.297 49.0091 230.904C52.1961 219.778 57.8369 212.404 66.4735 208.46L78.8069 202.945L81.6114 189.447C81.6538 189.274 81.7519 189.121 81.8902 189.011C82.0289 188.9 82.1997 188.84 82.3762 188.838H173.459C173.628 188.833 173.794 188.889 173.928 188.994C174.062 189.099 174.155 189.248 174.192 189.415L176.996 202.945L189.329 208.46C197.966 212.308 203.702 219.682 206.794 230.904C230.466 212.378 246.888 186.048 253.17 156.545C259.455 127.042 255.197 96.254 241.149 69.5964ZM139.773 122.147C139.872 120.109 139.568 118.071 138.88 116.151C138.301 114.597 137.46 113.155 136.395 111.887L154.911 89.0264C156.355 91.3096 158.189 93.3176 160.328 94.958L173.65 101.178C174.113 101.492 174.5 101.908 174.783 102.392C175.065 102.877 175.236 103.42 175.281 103.98C175.327 104.541 175.247 105.104 175.048 105.629C174.848 106.154 174.534 106.627 174.128 107.014L169.634 111.406L174.319 117.049C174.645 117.441 174.849 117.92 174.906 118.428C174.963 118.935 174.869 119.448 174.638 119.903L172.343 124.231L175.02 123.205C175.654 122.948 176.362 122.948 176.996 123.205C177.307 123.347 177.586 123.551 177.816 123.804C178.046 124.058 178.222 124.356 178.335 124.68L180.406 130.676C180.667 131.442 180.88 132.224 181.043 133.016L139.773 122.147ZM159.34 61.4524C161.693 62.5483 163.981 63.7796 166.192 65.1397L131.646 107.943C128.859 106.539 125.706 106.045 122.627 106.533L105.099 58.0859C122.954 52.2787 142.331 53.4813 159.34 61.4524ZM133.59 121.378C133.59 123.148 133.068 124.879 132.089 126.351C131.111 127.823 129.721 128.969 128.094 129.645C126.467 130.322 124.678 130.497 122.952 130.149C121.226 129.801 119.642 128.946 118.4 127.692C117.158 126.437 116.313 124.84 115.974 123.103C115.635 121.366 115.815 119.566 116.493 117.932C117.171 116.298 118.316 114.903 119.782 113.924C121.248 112.945 122.971 112.426 124.73 112.432C125.897 112.432 127.051 112.664 128.128 113.114C129.205 113.564 130.183 114.223 131.006 115.054C131.83 115.885 132.481 116.872 132.925 117.957C133.368 119.042 133.594 120.204 133.59 121.378ZM56.5622 106.533L76.7673 111.855C79.1654 112.477 81.3765 113.679 83.209 115.355C85.0418 117.031 86.4405 119.131 87.2841 121.474L99.0439 153.985L90.6304 151.741L53.917 141.802C51.9937 130.001 52.9007 117.909 56.5622 106.533ZM89.8974 182.65V174.858L119.09 182.65H89.8974ZM165.906 182.65H155.612L165.906 178.866V182.65ZM191.656 162.739L149.079 178.353C143.104 180.533 136.61 180.824 130.467 179.187L59.3348 160.174C57.7292 156.509 56.4082 152.725 55.383 148.855L102.964 161.68H103.314L132.315 169.408H132.634H133.048C133.877 169.6 134.706 169.76 135.534 169.889H136.873C137.287 169.889 137.669 169.889 138.084 169.889H138.434C139.373 169.851 140.309 169.765 141.239 169.632C141.472 169.648 141.707 169.648 141.94 169.632C143.112 169.438 144.264 169.138 145.382 168.734L175.721 157.833C178.606 156.777 181.745 156.643 184.708 157.448L195.385 160.27C194.353 161.377 193.075 162.223 191.656 162.739ZM198.317 154.627L186.302 151.42C184.223 150.871 182.076 150.633 179.928 150.715C178.495 150.807 177.075 151.043 175.689 151.42C174.986 151.564 174.294 151.757 173.618 151.998L166.702 154.627L143.533 163.123C140.608 164.19 137.428 164.335 134.419 163.54L106.565 156.102L93.148 119.358C91.9622 116.059 89.9962 113.101 87.4202 110.738C84.8439 108.375 81.7344 106.679 78.3607 105.795L58.6974 100.633C62.4286 91.5023 67.9331 83.2118 74.8882 76.2475C81.8434 69.2828 90.1096 63.7844 99.2032 60.0737L116.731 108.521C113.801 110.361 111.588 113.158 110.462 116.444C109.337 119.731 109.367 123.306 110.549 126.572C111.221 128.446 112.255 130.167 113.591 131.637C114.927 133.107 116.539 134.296 118.335 135.136C120.13 135.977 122.072 136.452 124.051 136.534C126.029 136.615 128.004 136.303 129.861 135.613C133.417 134.276 136.334 131.628 138.02 128.207L200.962 145.008C200.291 148.269 199.407 151.482 198.317 154.627ZM236.56 65.2679C232.869 67.7544 228.366 68.7092 223.994 67.933C219.621 67.157 215.714 64.7097 213.091 61.1033C210.471 57.4965 209.337 53.01 209.927 48.5815C210.516 44.153 212.785 40.1256 216.259 37.3413L216.769 37.0527C219.583 35.1039 222.913 34.0536 226.33 34.0388C228.809 34.0266 231.263 34.5573 233.523 35.5942C235.779 36.6308 237.783 38.1486 239.399 40.0426C241.015 41.9365 242.204 44.1613 242.879 46.5625C243.555 48.964 243.705 51.4845 243.316 53.9498C242.704 57.8204 240.792 61.3627 237.898 63.9854C237.548 64.3381 237.133 64.8511 236.623 65.2038L236.56 65.2679Z" fill="#4B5A6B"/>
<path d="M171.419 68.6345L154.911 89.0585C156.358 91.3301 158.192 93.327 160.328 94.958L173.65 101.178C174.113 101.492 174.5 101.907 174.782 102.392C175.065 102.877 175.235 103.42 175.281 103.98C175.327 104.541 175.247 105.104 175.048 105.629C174.848 106.154 174.533 106.627 174.128 107.014L169.634 111.406L174.319 117.049C174.645 117.441 174.849 117.92 174.906 118.428C174.963 118.935 174.869 119.448 174.638 119.903L172.343 124.231L175.02 123.205C175.654 122.948 176.362 122.948 176.996 123.205C177.307 123.347 177.586 123.551 177.816 123.804C178.046 124.058 178.222 124.356 178.335 124.68L180.406 130.676C180.667 131.442 180.88 132.224 181.043 133.016L202.141 138.659C203.684 125.293 201.649 111.753 196.248 99.4423C190.847 87.1312 182.275 76.4953 171.419 68.6345Z" fill="url(#paint2_linear)"/>
<path d="M180.247 130.772L178.176 124.776C178.064 124.452 177.888 124.154 177.657 123.9C177.427 123.647 177.148 123.443 176.837 123.301C176.204 123.044 175.495 123.044 174.862 123.301L172.185 124.327L174.479 119.999C174.711 119.544 174.804 119.031 174.747 118.524C174.691 118.016 174.486 117.537 174.16 117.145L169.476 111.502L173.969 107.11C174.375 106.723 174.689 106.25 174.889 105.725C175.089 105.2 175.169 104.637 175.123 104.076C175.077 103.516 174.906 102.973 174.624 102.488C174.342 102.003 173.955 101.588 173.491 101.274L160.329 94.9578C158.25 93.3126 156.47 91.3164 155.071 89.0582L136.555 111.919C137.56 113.189 138.347 114.619 138.881 116.151C139.565 118.061 139.868 120.087 139.773 122.115L180.885 133.08C180.72 132.298 180.507 131.527 180.247 130.772Z" fill="#939CA6"/>
<defs>
<linearGradient id="paint0_linear" x1="209.312" y1="51.2565" x2="243.667" y2="51.2565" gradientUnits="userSpaceOnUse">
<stop stop-color="#A9995D"/>
<stop offset="1" stop-color="#D9C393"/>
</linearGradient>
<linearGradient id="paint1_linear" x1="4112.98" y1="1397.81" x2="5282.93" y2="1397.81" gradientUnits="userSpaceOnUse">
<stop stop-color="#A9995D"/>
<stop offset="1" stop-color="#D9C393"/>
</linearGradient>
<linearGradient id="paint2_linear" x1="158.098" y1="82.0367" x2="208.531" y2="132.166" gradientUnits="userSpaceOnUse">
<stop stop-color="#4B5A6B"/>
<stop offset="0.75" stop-color="#6D7987"/>
</linearGradient>
</defs>
</svg>
