<?xml version="1.0" standalone="no"?>
<!DOCTYPE svg PUBLIC "-//W3C//DTD SVG 20010904//EN"
 "http://www.w3.org/TR/2001/REC-SVG-20010904/DTD/svg10.dtd">
<svg version="1.0" xmlns="http://www.w3.org/2000/svg"
 width="700.000000pt" height="700.000000pt" viewBox="0 0 700.000000 700.000000"
 preserveAspectRatio="xMidYMid meet">
<metadata>
Created by potrace 1.11, written by Peter Selinger 2001-2013
</metadata>
<g transform="translate(0.000000,700.000000) scale(0.100000,-0.100000)"
fill="#000000" stroke="none">
<path d="M3278 6996 c-1 -2 -41 -6 -88 -10 -87 -7 -105 -9 -225 -27 -116 -18
-123 -19 -192 -35 -339 -77 -525 -142 -808 -280 -216 -105 -319 -167 -500
-297 -502 -362 -913 -861 -1147 -1390 -27 -62 -53 -121 -58 -132 -46 -95 -150
-427 -176 -560 -2 -11 -10 -54 -19 -95 -29 -147 -36 -199 -52 -370 -15 -164
-8 -592 12 -711 2 -13 6 -46 9 -74 47 -408 239 -952 466 -1318 30 -48 60 -95
65 -105 38 -67 251 -347 320 -418 191 -201 293 -297 445 -419 92 -74 370 -265
386 -265 4 0 15 -6 23 -14 29 -25 304 -161 431 -213 165 -67 424 -150 563
-179 92 -19 211 -41 272 -49 22 -2 56 -7 75 -10 187 -26 697 -27 838 0 16 3
104 15 147 20 107 14 349 73 515 126 208 67 455 176 639 281 46 26 86 48 88
48 2 0 9 5 16 10 7 6 62 43 122 83 253 168 492 376 678 592 33 39 63 72 67 75
4 3 44 55 90 115 151 199 264 382 369 599 34 69 61 128 61 130 0 3 11 29 24
58 57 127 151 421 182 573 17 81 54 301 59 350 4 33 9 71 11 85 9 47 11 525 3
605 -15 165 -21 220 -24 225 -2 3 -6 30 -10 60 -3 30 -10 71 -15 90 -5 19 -12
51 -15 70 -27 159 -116 442 -207 655 -208 487 -549 953 -938 1279 -47 39 -87
74 -90 77 -13 17 -248 183 -341 241 -114 72 -337 190 -439 233 -36 15 -80 34
-98 42 -122 53 -422 144 -587 178 -44 9 -89 19 -100 21 -11 2 -38 6 -60 9 -22
3 -51 7 -65 10 -13 2 -52 7 -86 11 -33 3 -74 8 -90 10 -33 5 -540 14 -546 10z
m437 -650 c169 -12 361 -45 532 -92 103 -27 273 -83 288 -94 6 -3 33 -15 60
-25 188 -68 496 -252 699 -416 48 -39 91 -67 95 -61 9 14 108 62 165 79 101
31 242 21 351 -25 131 -55 255 -194 290 -327 5 -16 10 -37 12 -45 11 -41 8
-181 -4 -230 -21 -79 -76 -179 -130 -234 l-46 -47 51 -107 c128 -273 218 -563
248 -807 3 -22 7 -50 10 -62 17 -83 24 -427 11 -593 -6 -82 -27 -233 -42 -307
-3 -13 -7 -35 -10 -50 -18 -87 -69 -265 -109 -375 -145 -398 -370 -751 -671
-1051 -93 -92 -238 -217 -252 -217 -6 0 -13 14 -17 31 -10 51 -84 199 -128
257 -83 110 -148 155 -364 251 l-161 72 -31 151 c-17 83 -35 154 -40 157 -18
11 -2041 6 -2051 -4 -5 -6 -21 -68 -35 -140 -15 -71 -29 -138 -32 -148 -6 -18
-28 -29 -197 -102 -55 -24 -104 -48 -110 -54 -6 -6 -15 -11 -20 -11 -12 0 -85
-52 -123 -87 -78 -73 -147 -182 -192 -307 l-28 -76 -63 53 c-84 69 -285 268
-342 337 -24 30 -54 66 -66 80 -12 14 -32 40 -45 58 -139 197 -125 175 -220
342 -116 206 -231 505 -284 745 -54 238 -72 419 -68 680 1 99 5 203 9 230 3
28 8 67 10 88 2 21 9 63 14 95 6 31 13 73 16 92 3 19 8 43 11 52 3 9 6 25 8
35 15 74 85 308 111 368 7 17 23 55 35 85 208 513 596 984 1065 1292 330 217
747 381 1100 432 22 3 51 8 65 11 36 8 90 13 200 21 52 4 96 7 97 8 5 4 247
-2 328 -8z m-65 -4270 c306 -27 627 -161 849 -354 91 -80 158 -153 222 -242
57 -79 129 -203 129 -220 0 -6 -33 -10 -74 -10 l-74 0 -23 38 c-170 280 -458
505 -759 594 -69 20 -76 22 -155 38 -107 21 -310 28 -430 15 -262 -29 -515
-134 -720 -298 -120 -97 -208 -199 -286 -329 l-34 -58 -78 0 -79 0 42 78 c110
204 281 387 482 515 202 129 465 218 693 234 44 3 81 6 82 7 4 3 144 -2 213
-8z m50 -342 c192 -42 341 -120 484 -254 64 -60 133 -146 160 -197 l17 -33
-79 0 -78 0 -58 67 c-173 200 -422 308 -680 296 -131 -6 -219 -29 -343 -89
-120 -57 -199 -121 -304 -247 -23 -27 -27 -28 -107 -25 l-83 3 51 73 c90 128
235 255 365 320 51 25 201 78 246 87 19 3 63 9 99 12 36 3 66 6 67 7 9 7 183
-7 243 -20z"/>
<path d="M5569 5596 c-126 -51 -201 -132 -238 -253 -81 -268 158 -533 435
-482 161 30 295 175 310 336 16 164 -67 313 -214 384 -55 26 -80 32 -152 35
-71 3 -94 -1 -141 -20z"/>
<path d="M3397 5164 c-1 -1 -33 -5 -72 -8 -38 -4 -83 -9 -100 -12 -41 -7 -228
-54 -233 -58 -3 -3 55 -167 164 -461 24 -66 84 -230 133 -365 l89 -244 59 -3
c32 -1 78 -9 102 -18 43 -15 43 -15 64 12 12 15 85 104 162 199 77 94 183 224
235 289 52 65 100 123 105 129 6 6 22 27 37 48 15 20 33 42 41 50 7 7 30 35
52 63 43 53 62 77 94 114 11 13 18 27 16 32 -18 28 -315 155 -421 180 -27 6
-53 12 -59 13 -13 3 -71 14 -110 21 -75 13 -348 28 -358 19z"/>
<path d="M2738 4986 c-159 -81 -279 -167 -409 -296 -159 -157 -236 -262 -330
-449 -42 -84 -46 -97 -31 -103 9 -3 123 -34 252 -68 262 -68 313 -91 396 -177
61 -64 86 -113 160 -314 103 -283 195 -533 221 -602 25 -63 28 -68 67 -78 54
-14 210 -56 431 -115 258 -69 241 -71 615 65 168 62 314 116 325 121 56 26
158 53 220 57 58 4 93 -1 210 -31 77 -19 154 -40 171 -45 29 -8 31 -7 44 28
15 40 50 174 47 177 -2 2 -611 164 -635 169 -9 2 -91 23 -182 48 -91 24 -246
66 -345 92 -99 26 -193 51 -209 56 -16 5 -30 8 -31 7 -8 -18 -66 -88 -85 -105
-62 -53 -161 -84 -248 -76 -61 5 -157 51 -204 98 -21 20 -50 62 -65 93 -24 49
-28 69 -28 142 0 73 4 93 28 142 15 31 50 78 76 103 l48 46 -149 412 c-83 227
-156 426 -164 444 -8 17 -14 36 -14 42 0 6 -6 25 -14 43 -8 18 -23 54 -33 80
-10 27 -20 48 -23 48 -3 0 -53 -24 -112 -54z"/>
<path d="M4374 4729 c-55 -67 -103 -127 -109 -133 -5 -6 -37 -45 -70 -86 -32
-41 -65 -81 -72 -88 -21 -22 -15 -37 35 -93 41 -46 69 -63 209 -131 103 -49
166 -85 174 -99 21 -40 5 -83 -55 -139 -31 -29 -56 -56 -56 -59 0 -3 27 -39
60 -79 64 -79 64 -77 23 -156 l-26 -49 24 7 c13 5 38 10 56 13 37 6 45 -6 88
-134 l28 -82 51 -15 c28 -8 105 -29 171 -46 66 -17 145 -38 175 -46 70 -18 67
-19 75 15 8 39 9 251 0 331 -44 430 -255 834 -575 1105 -47 39 -90 74 -96 78
-7 4 -51 -41 -110 -114z"/>
<path d="M1882 3933 c-12 -43 -24 -96 -27 -118 -4 -22 -8 -51 -11 -65 -25
-145 -21 -487 6 -514 12 -12 52 -23 455 -132 409 -110 539 -143 542 -140 2 2
-53 158 -123 347 -69 189 -128 353 -132 364 -12 43 -74 126 -119 160 -53 38
-95 53 -353 120 -96 24 -184 47 -196 51 -18 5 -23 -3 -42 -73z"/>
<path d="M3355 3864 c-157 -57 -167 -284 -16 -359 50 -26 130 -26 178 -1 119
61 142 225 45 318 -57 55 -130 70 -207 42z"/>
<path d="M1885 3049 c4 -13 20 -62 37 -109 16 -47 32 -92 35 -101 5 -19 -2
-17 348 -109 149 -40 293 -78 320 -85 194 -53 283 -77 301 -80 12 -3 162 -43
335 -89 328 -88 405 -104 485 -100 128 5 140 8 549 159 160 59 326 120 370
135 230 80 347 132 332 147 -3 2 -65 20 -138 39 -209 55 -162 65 -859 -186
-147 -54 -213 -67 -305 -64 -77 3 -104 9 -510 118 -55 15 -107 29 -115 31 -8
2 -53 13 -100 25 -47 12 -92 23 -100 25 -8 2 -64 17 -125 33 -60 17 -272 74
-470 127 -198 54 -368 100 -379 103 -15 4 -17 1 -11 -19z"/>
<path d="M2650 2407 l0 -85 316 -1 c174 0 315 2 313 3 -2 2 -58 18 -124 36
-66 17 -178 47 -250 67 -124 33 -166 44 -227 59 l-28 6 0 -85z"/>
<path d="M4250 2370 c-135 -50 -135 -48 -15 -47 l110 2 1 38 c1 22 -3 37 -10
36 -6 -1 -45 -14 -86 -29z"/>
</g>
</svg>
