<svg viewBox="0 0 104 12" fill="#fff" xmlns="http://www.w3.org/2000/svg"><path d="M3.282 9c-.684 0-1.218-.138-1.602-.414-.38-.276-.618-.702-.714-1.278-.016-.176.02-.308.108-.396.088-.088.216-.132.384-.132s.29.04.366.12c.08.08.134.204.162.372.06.276.188.466.384.57.2.1.504.15.912.15H5.01c.516 0 .866-.092 1.05-.276.188-.188.282-.536.282-1.044 0-.516-.096-.868-.288-1.056-.192-.192-.54-.288-1.044-.288H3.522c-.756 0-1.318-.184-1.686-.552-.364-.372-.546-.936-.546-1.692 0-.752.18-1.31.54-1.674.364-.364.924-.546 1.68-.546h1.428c.636 0 1.134.13 1.494.39.364.26.594.658.69 1.194.024.172-.008.304-.096.396-.088.088-.22.132-.396.132-.16 0-.28-.042-.36-.126a.66.66 0 01-.156-.366c-.064-.236-.186-.396-.366-.48-.18-.088-.45-.132-.81-.132H3.51c-.48 0-.802.086-.966.258-.164.168-.246.486-.246.954 0 .472.084.796.252.972.168.176.492.264.972.264H5.01c.788 0 1.374.192 1.758.576.388.384.582.976.582 1.776 0 .796-.192 1.384-.576 1.764C6.39 8.812 5.802 9 5.01 9H3.282zm8.147 0c-.672 0-1.172-.164-1.5-.492-.328-.328-.492-.828-.492-1.5s.162-1.172.486-1.5c.328-.328.83-.492 1.506-.492h2.538c-.024-.42-.134-.706-.33-.858-.196-.156-.532-.234-1.008-.234h-.696c-.4 0-.698.028-.894.084-.196.052-.334.148-.414.288-.072.168-.146.284-.222.348-.076.064-.19.096-.342.096a.549.549 0 01-.396-.138c-.096-.096-.124-.222-.084-.378.12-.452.37-.782.75-.99.384-.212.918-.318 1.602-.318h.696c.8 0 1.392.192 1.776.576.384.384.576.976.576 1.776v3.228c0 .336-.168.504-.504.504-.336 0-.504-.168-.504-.504v-.27C13.545 8.742 12.92 9 12.1 9h-.672zm0-1.008h.672c.296 0 .574-.026.834-.078.26-.056.482-.156.666-.3a1.03 1.03 0 00.372-.618v-.972h-2.544c-.396 0-.66.066-.792.198-.128.132-.192.394-.192.786 0 .396.064.66.192.792.132.128.396.192.792.192zM18.093 9c-.336 0-.504-.168-.504-.504V3.924h-.444c-.336 0-.504-.168-.504-.504 0-.336.168-.504.504-.504h.444v-.048c0-.788.19-1.37.57-1.746.38-.38.962-.57 1.746-.57.288 0 .432.168.432.504 0 .336-.144.504-.432.504-.504 0-.848.09-1.032.27-.184.18-.276.526-.276 1.038v.048h1.236c.336 0 .504.168.504.504 0 .336-.168.504-.504.504h-1.236v4.572c0 .336-.168.504-.504.504zm4.254-2.628v.288c0 .516.094.868.282 1.056.188.184.542.276 1.062.276h.984c.408 0 .71-.038.906-.114a.629.629 0 00.39-.402.836.836 0 01.18-.348c.08-.08.2-.12.36-.12.168 0 .296.044.384.132.088.088.116.216.084.384-.088.496-.324.866-.708 1.11-.384.244-.916.366-1.596.366h-.984c-.796 0-1.388-.192-1.776-.576-.384-.384-.576-.972-.576-1.764V5.268c0-.812.192-1.408.576-1.788.388-.384.98-.572 1.776-.564h.984c.8 0 1.392.192 1.776.576.384.38.576.972.576 1.776v.6c0 .336-.168.504-.504.504h-4.176zm1.344-2.448c-.52-.008-.874.082-1.062.27-.188.188-.282.546-.282 1.074v.096h3.672v-.096c0-.524-.094-.878-.282-1.062-.184-.188-.538-.282-1.062-.282h-.984zM31.566 9c-.792 0-1.376-.188-1.752-.564-.376-.376-.564-.956-.564-1.74V3.924h-.588c-.336 0-.504-.168-.504-.504 0-.336.168-.504.504-.504h.588V2.04c0-.336.168-.504.504-.504.336 0 .504.168.504.504v.876h1.38c.336 0 .504.168.504.504 0 .336-.168.504-.504.504h-1.38v2.772c0 .508.092.852.276 1.032.184.176.528.264 1.032.264.156 0 .278.04.366.12.092.08.138.208.138.384 0 .336-.168.504-.504.504zm4.067 2.4c-.58 0-1.014-.146-1.302-.438-.284-.288-.426-.722-.426-1.302 0-.336.168-.504.504-.504.336 0 .504.168.504.504 0 .3.044.496.132.588.092.096.288.144.588.144h2.328c.296 0 .49-.048.582-.144.092-.092.138-.288.138-.588V8.136c-.24.36-.52.594-.84.702-.316.108-.66.162-1.032.162h-.588c-.792 0-1.376-.188-1.752-.564-.376-.376-.564-.956-.564-1.74V3.42c0-.336.168-.504.504-.504.336 0 .504.168.504.504v3.276c0 .504.09.846.27 1.026.184.18.53.27 1.038.27h.588c.656 0 1.132-.106 1.428-.318.296-.216.444-.542.444-.978V3.42c0-.336.168-.504.504-.504.336 0 .504.168.504.504v6.24c0 .58-.144 1.014-.432 1.302-.288.292-.72.438-1.296.438h-2.328zM42.686 9c-.336 0-.504-.168-.504-.504V1.368c0-.336.168-.504.504-.504h2.808c.732 0 1.292.196 1.68.588.392.388.588.948.588 1.68v.36c0 .732-.196 1.294-.588 1.686-.388.388-.948.582-1.68.582H43.19v2.736c0 .336-.168.504-.504.504zm.504-4.248h2.304c.456 0 .78-.096.972-.288.192-.192.288-.516.288-.972v-.36c0-.452-.096-.774-.288-.966-.192-.196-.516-.294-.972-.294H43.19v2.88zM51.353 9c-.612 0-1.068-.15-1.368-.45-.296-.304-.444-.762-.444-1.374v-6.12c0-.336.168-.504.504-.504.336 0 .504.168.504.504v6.12c0 .324.052.542.156.654.108.108.324.162.648.162.344 0 .516.168.516.504.012.336-.16.504-.516.504zm3.939 0c-.672 0-1.172-.164-1.5-.492-.328-.328-.492-.828-.492-1.5s.162-1.172.486-1.5c.328-.328.83-.492 1.506-.492h2.538c-.024-.42-.134-.706-.33-.858-.196-.156-.532-.234-1.008-.234h-.696c-.4 0-.698.028-.894.084-.196.052-.334.148-.414.288-.072.168-.146.284-.222.348-.076.064-.19.096-.342.096a.549.549 0 01-.396-.138c-.096-.096-.124-.222-.084-.378.12-.452.37-.782.75-.99.384-.212.918-.318 1.602-.318h.696c.8 0 1.392.192 1.776.576.384.384.576.976.576 1.776v3.228c0 .336-.168.504-.504.504-.336 0-.504-.168-.504-.504v-.27c-.428.516-1.052.774-1.872.774h-.672zm0-1.008h.672c.296 0 .574-.026.834-.078.26-.056.482-.156.666-.3a1.03 1.03 0 00.372-.618v-.972h-2.544c-.396 0-.66.066-.792.198-.128.132-.192.394-.192.786 0 .396.064.66.192.792.132.128.396.192.792.192zM61.729 9c-.336 0-.504-.168-.504-.504V3.42c0-.336.168-.504.504-.504.336 0 .504.168.504.504v.198c.424-.468 1.048-.702 1.872-.702h.336c.8 0 1.392.192 1.776.576.384.384.576.976.576 1.776v3.228c0 .336-.168.504-.504.504-.336 0-.504-.168-.504-.504V5.268c0-.524-.096-.878-.288-1.062-.188-.188-.54-.282-1.056-.282h-.336c-.48 0-.898.056-1.254.168-.356.108-.562.28-.618.516v3.888c0 .336-.168.504-.504.504zm8.869 0c-.508 0-.91-.104-1.206-.312-.296-.212-.486-.528-.57-.948-.028-.168.004-.3.096-.396a.535.535 0 01.396-.144c.164 0 .282.042.354.126.076.08.138.202.186.366.048.12.128.2.24.24.116.04.284.06.504.06h1.968c.312 0 .522-.05.63-.15.108-.104.162-.318.162-.642 0-.32-.054-.532-.162-.636-.108-.104-.318-.156-.63-.156h-1.932c-.576 0-1.01-.146-1.302-.438-.292-.292-.438-.726-.438-1.302 0-.588.142-1.026.426-1.314.288-.292.726-.438 1.314-.438h1.872c.94 0 1.496.396 1.668 1.188.032.168 0 .298-.096.39a.549.549 0 01-.396.138c-.156 0-.272-.04-.348-.12a.89.89 0 01-.18-.348.364.364 0 00-.222-.192 1.429 1.429 0 00-.426-.048h-1.872c-.304 0-.502.046-.594.138-.092.092-.138.294-.138.606 0 .288.048.482.144.582.1.1.296.15.588.15h1.932c.6 0 1.05.15 1.35.45.3.3.45.75.45 1.35 0 .604-.15 1.056-.45 1.356-.3.296-.75.444-1.35.444h-1.968zm6.148 0c-.32 0-.48-.16-.48-.48v-.3c0-.312.16-.468.48-.468h.288c.304 0 .456.156.456.468v.3c0 .32-.152.48-.456.48h-.288zm5.058 0c-.796 0-1.388-.192-1.776-.576-.384-.388-.576-.98-.576-1.776V5.256c0-.8.19-1.392.57-1.776.384-.384.978-.572 1.782-.564h.984c.596 0 1.064.1 1.404.3.344.2.564.508.66.924.036.168.006.298-.09.39-.092.092-.226.138-.402.138-.156 0-.27-.04-.342-.12a1.181 1.181 0 01-.198-.336c-.06-.108-.17-.182-.33-.222-.16-.044-.394-.066-.702-.066h-.984c-.516-.008-.87.082-1.062.27-.188.184-.282.538-.282 1.062v1.392c0 .52.094.874.282 1.062.192.188.546.282 1.062.282h.984c.308 0 .542-.02.702-.06.16-.044.27-.12.33-.228a1.07 1.07 0 01.198-.342c.076-.076.194-.114.354-.114.168 0 .298.046.39.138.096.092.126.222.09.39-.096.412-.316.72-.66.924-.34.2-.808.3-1.404.3h-.984zm7.207 0c-.796 0-1.388-.192-1.776-.576-.384-.384-.576-.972-.576-1.764V5.268c0-.804.192-1.396.576-1.776.388-.384.98-.576 1.776-.576h.984c.8 0 1.392.192 1.776.576.384.384.576.976.576 1.776v1.38c0 .796-.192 1.388-.576 1.776-.384.384-.976.576-1.776.576h-.984zm-1.344-2.34c0 .516.094.868.282 1.056.188.184.542.276 1.062.276h.984c.524 0 .878-.094 1.062-.282.188-.188.282-.542.282-1.062v-1.38c0-.524-.094-.878-.282-1.062-.184-.188-.538-.282-1.062-.282h-.984c-.348 0-.62.04-.816.12a.707.707 0 00-.408.408c-.08.192-.12.464-.12.816V6.66zm13.546-3.744c.756 0 1.298.178 1.626.534.332.356.498.946.498 1.77v3.276c0 .336-.168.504-.504.504-.336 0-.504-.168-.504-.504V5.22c0-.456-.088-.786-.264-.99-.172-.204-.456-.306-.852-.306h-.492c-.456 0-.782.102-.978.306-.196.204-.294.534-.294.99v3.276c0 .336-.168.504-.504.504-.336 0-.504-.168-.504-.504V5.22c0-.456-.088-.786-.264-.99-.172-.204-.456-.306-.852-.306h-.492c-.456 0-.782.102-.978.306-.196.204-.294.534-.294.99v3.276c0 .336-.168.504-.504.504-.336 0-.504-.168-.504-.504V3.42c0-.336.168-.504.504-.504.336 0 .504.168.504.504v.276c.212-.276.444-.474.696-.594.256-.124.56-.186.912-.186h.156c.496 0 .886.07 1.17.21.284.136.5.358.648.666.212-.316.436-.54.672-.672.24-.136.542-.204.906-.204h.492z"/></svg>