<svg width="837" height="731" viewBox="0 0 837 731" fill="none" xmlns="http://www.w3.org/2000/svg">
<path fill-rule="evenodd" clip-rule="evenodd" d="M672.165 336.415C672.172 336.408 672.178 336.402 672.185 336.396C673.152 335.428 674.022 334.4 674.796 333.324H634.323L637.395 336.395C637.401 336.402 637.407 336.408 637.414 336.415H672.165ZM669.902 338.415H639.677C641.289 339.674 643.021 340.704 644.83 341.506H664.749C666.558 340.704 668.29 339.674 669.902 338.415ZM657.036 343.506H652.543C654.037 343.642 655.542 343.642 657.036 343.506ZM572.025 341.506C571.355 340.432 570.596 339.398 569.744 338.415H500.255L503.346 341.506H572.025ZM505.346 343.506H573.146C573.663 344.539 574.103 345.602 574.465 346.684H508.524L505.346 343.506ZM390.258 341.506C396.117 339.167 402.686 339.17 408.521 341.506H390.258ZM386.321 343.506H412.443C413.868 344.404 415.22 345.464 416.472 346.684H382.27C383.531 345.463 384.89 344.404 386.321 343.506ZM59.2949 341.506L56.2041 338.415H1.08008C0.914062 339.439 0.8125 340.471 0.776367 341.506H59.2949ZM0.787598 343.506H61.2949L64.4736 346.684H1.14111C0.954102 345.632 0.836426 344.57 0.787598 343.506ZM1.58301 348.684C1.86035 349.732 2.20801 350.764 2.62646 351.775H69.5645L66.4736 348.684H1.58301ZM380.415 348.684C379.598 349.669 378.869 350.703 378.229 351.775H421.564L418.475 348.684H380.415ZM510.524 348.684L513.615 351.775H575.585C575.47 350.737 575.288 349.704 575.041 348.684H510.524ZM575.725 353.775H515.615L518.706 356.866H575.621C575.72 355.838 575.755 354.806 575.725 353.775ZM575.346 358.866H520.706L523.885 362.045H574.552C574.888 361.001 575.152 359.938 575.346 358.866ZM573.811 364.045H525.885L528.976 367.135H572.242C572.842 366.135 573.365 365.102 573.811 364.045ZM570.904 369.135H530.976L533.732 371.892C533.845 372.005 533.958 372.116 534.072 372.226H568.183C568.297 372.116 568.41 372.005 568.522 371.892C569.396 371.019 570.189 370.097 570.904 369.135ZM565.829 374.226H536.426C538.208 375.559 540.129 376.618 542.132 377.405H560.123C562.126 376.618 564.047 375.559 565.829 374.226ZM447.194 377.405L444.016 374.226H376.819C377.296 375.316 377.856 376.379 378.499 377.405H447.194ZM379.896 379.405H449.194L452.286 382.496H382.706L381.975 381.764C381.223 381.012 380.53 380.224 379.896 379.405ZM230.344 377.405C225.616 375.945 220.536 375.945 215.809 377.405H230.344ZM211.127 379.405H235.025C236.559 380.259 238.021 381.289 239.381 382.496H206.771C208.132 381.289 209.594 380.259 211.127 379.405ZM95.1943 377.405L92.0151 374.226H22.436L25.6147 377.405H95.1943ZM27.6147 379.405H97.1943L100.285 382.496H30.7061L27.6147 379.405ZM32.7061 384.496L35.7969 387.587H105.376L102.285 384.496H32.7061ZM204.759 384.496C203.878 385.477 203.09 386.511 202.394 387.587H244.535L241.443 384.496H204.759ZM384.706 384.496L387.798 387.587H457.377L454.286 384.496H384.706ZM459.377 389.587H389.798L392.976 392.765H462.555L459.377 389.587ZM464.555 394.765H394.976L398.066 397.856H467.646L464.555 394.765ZM588.484 399.856H605.669C607.693 400.61 609.64 401.641 611.449 402.947H582.704C584.514 401.641 586.46 400.61 588.484 399.856ZM469.646 399.856H400.066L403.157 402.947H472.736L469.646 399.856ZM474.736 404.947H405.157L408.336 408.126H477.915L474.736 404.947ZM479.915 410.126H410.336L413.427 413.216H483.006L479.915 410.126ZM574.459 413.216C574.913 412.158 575.446 411.125 576.056 410.126H619.074L622.165 413.216H574.459ZM485.006 415.216H415.427L418.518 418.307H488.097L485.006 415.216ZM572.903 418.307C573.102 417.264 573.368 416.231 573.702 415.216H624.165L627.256 418.307H572.903ZM490.097 420.307H420.518L423.696 423.486H493.275L490.097 420.307ZM572.476 423.486C572.451 422.425 572.495 421.363 572.607 420.307H629.256L632.435 423.486H572.476ZM495.275 425.486H425.696L428.787 428.577H498.366L495.275 425.486ZM573.127 428.577C572.887 427.557 572.712 426.524 572.604 425.486H634.435L637.525 428.577H573.127ZM500.366 430.577H430.787L433.878 433.668H503.457L500.366 430.577ZM574.939 433.668C574.45 432.661 574.032 431.628 573.688 430.577H639.525L642.616 433.668H574.939ZM505.457 435.668H435.878L439.057 438.846H508.636L505.457 435.668ZM578.328 438.846C577.468 437.835 576.701 436.772 576.03 435.668H644.616L647.794 438.846H578.328ZM510.636 440.846H441.057L444.147 443.937H513.727L510.636 440.846ZM583.307 443.937L580.216 440.846H649.794L652.886 443.937H583.307ZM515.727 445.937H446.147L449.238 449.028H518.817L515.727 445.937ZM588.397 449.028L585.307 445.937H654.886L657.977 449.028H588.397ZM520.817 451.028H451.238L454.417 454.207H523.996L520.817 451.028ZM593.577 454.207L590.397 451.028H659.977L663.155 454.207H593.577ZM525.996 456.207H456.417L459.507 459.297H529.086L525.996 456.207ZM598.667 459.297L595.577 456.207H665.155L668.245 459.297H598.667ZM531.086 461.297H461.507L464.598 464.388H534.177L531.086 461.297ZM603.758 464.388L600.667 461.297H670.245L673.336 464.388H603.758ZM536.177 466.388H466.598L469.777 469.567H539.356L536.177 466.388ZM608.937 469.567L605.758 466.388H675.336L678.516 469.567H608.937ZM541.356 471.567H471.777L474.868 474.658H544.447L541.356 471.567ZM613.857 474.658C613.344 474.031 612.794 473.424 612.209 472.839L610.937 471.567H680.516L681.08 472.132C681.883 472.935 682.619 473.779 683.288 474.658H613.857ZM546.447 476.658H476.868L479.959 479.749H549.538L546.447 476.658ZM617.079 479.749C616.578 478.687 615.997 477.654 615.336 476.658H684.659C685.274 477.657 685.811 478.69 686.27 479.749H617.079ZM551.538 481.749H481.959L485.137 484.927H554.716L551.538 481.749ZM618.844 484.927C618.607 483.852 618.298 482.79 617.915 481.749H687.034C687.382 482.792 687.657 483.854 687.86 484.927H618.844ZM556.716 486.927H487.137L490.229 490.018H559.807L556.716 486.927ZM619.42 490.018C619.411 488.985 619.338 487.952 619.199 486.927H688.156C688.265 487.954 688.309 488.986 688.288 490.018H619.42ZM561.807 492.018H492.229L495.319 495.109H564.898L561.807 492.018ZM618.936 495.109C619.142 494.087 619.281 493.054 619.356 492.018H688.167C688.062 493.056 687.891 494.089 687.653 495.109H618.936ZM566.898 497.109H497.319L500.498 500.288H570.077L566.898 497.109ZM617.276 500.288C617.741 499.251 618.131 498.188 618.444 497.109H687.099C686.749 498.191 686.322 499.253 685.818 500.288H617.276ZM572.077 502.288H502.486C503.415 503.265 504.248 504.299 504.985 505.378H575.167L572.077 502.288ZM614.204 505.378C614.979 504.39 615.667 503.356 616.269 502.288H684.726C684.073 503.36 683.331 504.394 682.5 505.378H614.204ZM577.167 507.378H506.215C506.767 508.381 507.244 509.414 507.646 510.469H580.814C579.62 509.64 578.482 508.693 577.418 507.629L577.167 507.378ZM608.812 510.469C610.007 509.64 611.145 508.693 612.209 507.629C612.292 507.546 612.374 507.462 612.456 507.378H680.636C679.707 508.355 678.874 509.389 678.137 510.469H608.812ZM584.266 512.469C590.924 515.632 598.703 515.632 605.361 512.469H676.906C676.339 513.5 675.851 514.562 675.442 515.648H508.993C508.836 514.577 508.608 513.515 508.311 512.469H584.266ZM441.101 510.469L438.01 507.378H381.964C381.832 508.404 381.766 509.436 381.763 510.469H441.101ZM381.839 512.469H443.101L446.279 515.648H382.299C382.076 514.597 381.923 513.535 381.839 512.469ZM301.254 510.469C300.898 509.455 300.611 508.422 300.393 507.378H133.064C132.584 508.438 132.024 509.471 131.385 510.469H301.254ZM129.958 512.469H302.057C302.552 513.56 303.13 514.623 303.793 515.648H126.95C127.321 515.318 127.685 514.976 128.041 514.62C128.729 513.932 129.368 513.213 129.958 512.469ZM89.1001 510.469L86.0088 507.378H16.4292L19.52 510.469H89.1001ZM21.52 512.469H91.1001L93.251 514.62C93.6069 514.976 93.9707 515.318 94.3423 515.648H24.6987L21.52 512.469ZM26.6987 517.648L29.79 520.739H103.381C101.122 520.042 98.9438 519.011 96.9214 517.648H26.6987ZM124.371 517.648C122.348 519.011 120.17 520.042 117.911 520.739H308.108L307.08 519.711C306.419 519.05 305.804 518.361 305.233 517.648H124.371ZM382.812 517.648C383.129 518.698 383.518 519.731 383.978 520.739H451.371L448.279 517.648H382.812ZM509.203 517.648C509.269 518.677 509.271 519.71 509.207 520.739H674.129C674.281 519.698 674.501 518.666 674.787 517.648H509.203ZM673.919 522.739H509.002C508.853 523.779 508.636 524.812 508.353 525.83H673.915C673.852 524.801 673.854 523.768 673.919 522.739ZM674.12 527.83H507.703C507.298 528.915 506.814 529.977 506.251 531.008H674.793C674.498 529.962 674.273 528.9 674.12 527.83ZM675.451 533.008H505.029C504.297 534.087 503.47 535.121 502.547 536.099H676.871C676.323 535.096 675.85 534.063 675.451 533.008ZM678.092 538.099H500.427C498.963 539.326 497.391 540.357 495.745 541.19H680.574C679.651 540.212 678.824 539.178 678.092 538.099ZM682.559 543.19H490.243C486.564 544.047 482.729 544.047 479.05 543.19H404.242L407.421 546.369H685.738L682.559 543.19ZM687.738 548.369H409.421L412.511 551.459H690.828L687.738 548.369ZM692.828 553.459H414.511L417.602 556.55H695.919L692.828 553.459ZM697.919 558.55H419.602L422.781 561.729H701.098L697.919 558.55ZM703.098 563.729H424.781L427.872 566.82H706.189L703.098 563.729ZM708.189 568.82H429.872L432.963 571.911H711.28L708.189 568.82ZM713.28 573.911H434.963L438.141 577.089H716.458L713.28 573.911ZM718.458 579.089H440.141L443.232 582.18H721.549L718.458 579.089ZM723.549 584.18H445.232L448.323 587.271H726.64L723.549 584.18ZM728.64 589.271H450.323L453.502 592.45H731.819L728.64 589.271ZM733.819 594.45H455.502L458.592 597.54H647.358C652.737 595.604 658.654 595.604 664.033 597.54H736.909L733.819 594.45ZM738.909 599.54H668.266C669.721 600.407 671.106 601.437 672.396 602.631H742L738.909 599.54ZM744 604.631H674.422L677.601 607.81H747.18L744 604.631ZM749.18 609.81H679.601L682.691 612.901H752.271L749.18 609.81ZM754.271 614.901H684.691L687.87 618.079H757.448L754.271 614.901ZM759.448 620.079H689.87L692.961 623.17H762.54L759.448 620.079ZM764.54 625.17H694.961L698.052 628.261H767.631L764.54 625.17ZM769.631 630.261H700.052L703.23 633.44H772.809L769.631 630.261ZM774.809 635.44H705.23L708.321 638.531H777.9L774.809 635.44ZM779.9 640.531H710.321L713.412 643.621H782.991L779.9 640.531ZM784.991 645.621H715.412L718.591 648.8H788.17L784.991 645.621ZM790.17 650.8H720.591L723.682 653.891H793.261L790.17 650.8ZM795.261 655.891H725.682L728.772 658.982H798.352L795.261 655.891ZM800.352 660.982H730.772L733.863 664.073H803.442L800.352 660.982ZM805.442 666.073H735.863L739.042 669.251H808.621L805.442 666.073ZM810.621 671.251H741.042L744.133 674.342H813.712L810.621 671.251ZM815.712 676.342H746.133L749.224 679.433H818.803L815.712 676.342ZM820.803 681.433H751.224L754.402 684.612H823.981L820.803 681.433ZM825.981 686.612H756.402L759.493 689.703H829.072L825.981 686.612ZM830.883 691.703H761.493L764.584 694.793H833.021C832.396 693.723 831.684 692.689 830.883 691.703ZM834.067 696.793H766.584L769.763 699.972H835.287C834.957 698.891 834.55 697.829 834.067 696.793ZM835.807 701.972H771.763L774.854 705.063H836.271C836.182 704.026 836.027 702.993 835.807 701.972ZM836.361 707.063H776.854L779.944 710.154H836.181C836.306 709.127 836.366 708.095 836.361 707.063ZM835.854 712.154H781.944L785.123 715.333H834.973C835.339 714.29 835.633 713.228 835.854 712.154ZM834.17 717.333H787.123L790.213 720.423H832.489C833.129 719.426 833.689 718.393 834.17 717.333ZM831.062 722.423H792.213L794.359 724.569C794.686 724.895 795.019 725.21 795.357 725.514H828.15C828.489 725.21 828.822 724.895 829.148 724.569C829.835 723.882 830.473 723.165 831.062 722.423ZM825.601 727.514H797.907C799.969 728.922 802.194 729.981 804.505 730.693H819.003C821.313 729.981 823.539 728.922 825.601 727.514ZM678.136 725.514C679.971 724.718 681.729 723.688 683.366 722.423H653.339C654.976 723.688 656.734 724.718 658.569 725.514H678.136ZM669.469 727.514H667.236C667.979 727.547 668.726 727.547 669.469 727.514ZM651.056 720.423H685.649C685.682 720.391 685.715 720.358 685.747 720.326C686.691 719.382 687.543 718.38 688.302 717.333H647.965L650.959 720.327C650.991 720.359 651.023 720.391 651.056 720.423ZM645.965 715.333H689.607C690.209 714.304 690.73 713.241 691.17 712.154H642.785L645.965 715.333ZM640.785 710.154H691.879C692.19 709.137 692.436 708.104 692.612 707.063H637.694L640.785 710.154ZM635.694 705.063H692.868C692.957 704.035 692.981 703.002 692.941 701.972H632.604L635.694 705.063ZM455.727 701.972C455.538 702.173 455.345 702.372 455.148 702.569C454.229 703.488 453.256 704.319 452.239 705.063H423.269C422.252 704.319 421.278 703.488 420.359 702.569L419.762 701.972H455.727ZM630.604 699.972H692.782C692.653 698.903 692.454 697.841 692.185 696.793H627.426L630.604 699.972ZM459.447 696.793C458.857 697.892 458.179 698.955 457.41 699.972H417.762L414.584 696.793H459.447ZM625.426 694.793H691.578C691.209 693.74 690.768 692.708 690.251 691.703H622.335L625.426 694.793ZM461.481 691.703C461.193 692.75 460.835 693.783 460.406 694.793H412.584L409.493 691.703H461.481ZM620.335 689.703H689.101C688.412 688.627 687.633 687.593 686.761 686.612H617.243L620.335 689.703ZM462.318 686.612C462.258 687.647 462.133 688.68 461.942 689.703H407.493L404.401 686.612H462.318ZM615.243 684.612H684.822L681.644 681.433H612.064L615.243 684.612ZM462.075 681.433C462.236 682.486 462.33 683.548 462.354 684.612H402.401L399.224 681.433H462.075ZM610.064 679.433H679.644L676.553 676.342H606.974L610.064 679.433ZM460.725 676.342C461.114 677.354 461.434 678.387 461.684 679.433H397.224L394.132 676.342H460.725ZM604.974 674.342H674.553L671.462 671.251H601.883L604.974 674.342ZM458.041 671.251C458.726 672.246 459.329 673.279 459.851 674.342H392.132L389.041 671.251H458.041ZM599.883 669.251H669.462L666.283 666.073H596.704L599.883 669.251ZM453.442 666.073L455.148 667.779C455.625 668.256 456.078 668.747 456.508 669.251H387.041L383.862 666.073H453.442ZM594.704 664.073H664.283L661.192 660.982H591.613L594.704 664.073ZM448.352 660.982L451.442 664.073H381.862L378.771 660.982H448.352ZM589.613 658.982H659.192L656.102 655.891H586.522L589.613 658.982ZM443.26 655.891L446.352 658.982H376.771L373.681 655.891H443.26ZM584.522 653.891H654.102L651.011 650.8H581.432L584.522 653.891ZM438.169 650.8L441.26 653.891H371.681L368.59 650.8H438.169ZM528.71 648.8H513.698C511.437 648.076 509.258 647.017 507.24 645.621H535.168C533.15 647.017 530.972 648.076 528.71 648.8ZM579.432 648.8H649.011L645.832 645.621H576.253L579.432 648.8ZM574.253 643.621H643.832L640.741 640.531H570.838C571.726 641.204 572.578 641.947 573.389 642.757L574.253 643.621ZM567.747 638.531C560.439 634.549 551.548 634.549 544.24 638.531H499.583L496.492 635.44H635.999C636.692 636.363 637.46 637.249 638.301 638.09L638.741 638.531H567.747ZM634.646 633.44C634.021 632.413 633.48 631.35 633.021 630.261H491.313L494.492 633.44H634.646ZM420.809 633.44L417.631 630.261H348.051L351.229 633.44H420.809ZM281.65 633.44L278.472 630.261H208.892L212.07 633.44H281.65ZM214.07 635.44H283.65L286.741 638.531H217.161L214.07 635.44ZM219.161 640.531L222.252 643.621H291.832L288.741 640.531H219.161ZM358.32 640.531L361.411 643.621H430.991L427.9 640.531H358.32ZM425.9 638.531L422.809 635.44H353.229L356.32 638.531H425.9ZM501.583 640.531H541.149C540.262 641.204 539.409 641.947 538.599 642.757C538.301 643.054 537.998 643.342 537.689 643.621H504.719C504.41 643.342 504.107 643.054 503.81 642.757L501.583 640.531ZM432.991 645.621L436.169 648.8H366.59L363.411 645.621H432.991ZM293.832 645.621H224.252L227.431 648.8H297.01L293.832 645.621ZM299.01 650.8H229.431L232.521 653.891H302.101L299.01 650.8ZM304.101 655.891H234.521L237.612 658.982H307.191L304.101 655.891ZM309.191 660.982H239.612L242.703 664.073H312.267C312.097 663.892 311.924 663.714 311.747 663.537L309.191 660.982ZM313.962 666.073H244.703L247.882 669.251H316.013C315.419 668.153 314.735 667.09 313.962 666.073ZM316.979 671.251H249.882L252.973 674.342H318.063C317.772 673.294 317.411 672.261 316.979 671.251ZM318.529 676.342H254.973L258.063 679.433H318.914C318.852 678.397 318.723 677.365 318.529 676.342ZM318.955 681.433H260.063L263.241 684.612H318.685C318.844 683.558 318.934 682.496 318.955 681.433ZM318.298 686.612H265.241L268.333 689.703H317.347C317.732 688.69 318.051 687.657 318.298 686.612ZM316.48 691.703H270.333L273.424 694.793H314.682C315.362 693.799 315.962 692.765 316.48 691.703ZM313.157 696.793H275.424L276.957 698.327C277.541 698.911 278.146 699.459 278.771 699.972H309.932C310.557 699.459 311.163 698.91 311.747 698.326C312.243 697.83 312.713 697.319 313.157 696.793ZM307.112 701.972H281.591C284.071 703.481 286.761 704.511 289.525 705.063H299.179C301.943 704.511 304.632 703.481 307.112 701.972ZM426.505 707.063C433.545 710.688 441.961 710.688 449.002 707.063H426.505ZM206.892 628.261H276.472L273.381 625.17H203.801L206.892 628.261ZM201.801 623.17H271.381L268.29 620.079H198.684C198.922 620.3 199.156 620.526 199.388 620.757L201.801 623.17ZM165.303 620.079C165.064 620.3 164.83 620.526 164.599 620.757C163.713 621.643 162.776 622.448 161.799 623.17H132.609C131.631 622.448 130.695 621.643 129.809 620.757L129.131 620.079H165.303ZM196.224 618.079H266.29L264.301 616.09C263.914 615.703 263.542 615.306 263.187 614.901H190.06C192.221 615.65 194.298 616.709 196.224 618.079ZM173.927 614.901C171.766 615.65 169.688 616.709 167.763 618.079H127.131L123.953 614.901H173.927ZM121.953 612.901H261.605C260.9 611.908 260.279 610.874 259.739 609.81H118.862L121.953 612.901ZM116.862 607.81H258.835C258.42 606.77 258.079 605.708 257.812 604.631H113.683L116.862 607.81ZM111.683 602.631H257.403C257.238 601.607 257.138 600.574 257.103 599.54H108.592L111.683 602.631ZM106.592 597.54H257.115C257.164 596.505 257.276 595.473 257.455 594.45H103.501L106.592 597.54ZM101.501 592.45H257.892C258.174 591.372 258.53 590.31 258.961 589.271H98.3228L101.501 592.45ZM96.3228 587.271H259.898C260.458 586.205 261.102 585.172 261.829 584.18H93.2314L96.3228 587.271ZM91.2314 582.18H263.463C263.733 581.881 264.013 581.588 264.301 581.3C265.105 580.496 265.951 579.759 266.832 579.089H88.1406L91.2314 582.18ZM86.1406 577.089H269.916C277.237 573.088 286.153 573.088 293.475 577.089H364.458L361.28 573.911H82.9624L86.1406 577.089ZM80.9624 571.911H359.28L356.189 568.82H77.8716L80.9624 571.911ZM75.8716 566.82H354.189L351.098 563.729H72.7803L75.8716 566.82ZM70.7803 561.729H349.098L345.919 558.55H67.6016L70.7803 561.729ZM65.6016 556.55H343.919L340.828 553.459H62.5103L65.6016 556.55ZM60.5103 551.459H338.828L335.738 548.369H57.4204L60.5103 551.459ZM55.4204 546.369H333.738L330.559 543.19H52.2412L55.4204 546.369ZM50.2412 541.19H328.559L325.468 538.099H47.1504L50.2412 541.19ZM45.1504 536.099H323.468L320.377 533.008H42.0591L45.1504 536.099ZM40.0591 531.008H318.377L315.199 527.83H36.8809L40.0591 531.008ZM34.8809 525.83H313.199L310.108 522.739H31.79L34.8809 525.83ZM385.005 522.739C385.618 523.809 386.317 524.842 387.104 525.83H456.462L453.371 522.739H385.005ZM458.462 527.83H388.882C388.912 527.861 388.943 527.892 388.975 527.923L392.06 531.008H461.64L458.462 527.83ZM463.64 533.008H394.06L397.15 536.099H466.73L463.64 533.008ZM468.866 538.099H399.15L402.241 541.19H473.548C471.902 540.357 470.33 539.326 468.866 538.099ZM366.458 579.089H296.559C297.439 579.759 298.285 580.496 299.09 581.3L299.97 582.18H369.549L366.458 579.089ZM371.549 584.18H301.97L305.061 587.271H374.64L371.549 584.18ZM376.64 589.271H307.061L310.239 592.45H379.819L376.64 589.271ZM381.819 594.45H312.239L315.33 597.54H384.909L381.819 594.45ZM386.909 599.54H317.33L320.421 602.631H390L386.909 599.54ZM392 604.631H322.421L325.6 607.81H395.18L392 604.631ZM468.862 607.81L465.684 604.631H637.063C636.19 605.641 635.413 606.704 634.731 607.81H468.862ZM397.18 609.81H327.6L330.69 612.901H400.271L397.18 609.81ZM473.953 612.901L470.862 609.81H633.624C633.127 610.816 632.703 611.849 632.353 612.901H473.953ZM402.271 614.901H332.69L335.869 618.079H405.448L402.271 614.901ZM479.132 618.079L475.953 614.901H631.778C631.524 615.949 631.341 617.011 631.228 618.079H479.132ZM407.448 620.079H337.869L340.96 623.17H410.54L407.448 620.079ZM484.223 623.17L481.132 620.079H631.097C631.071 621.111 631.109 622.143 631.213 623.17H484.223ZM412.54 625.17H342.96L346.051 628.261H415.631L412.54 625.17ZM489.313 628.261L486.223 625.17H631.497C631.689 626.213 631.949 627.245 632.277 628.261H489.313ZM638.996 602.631H463.684L460.592 599.54H643.125C641.67 600.407 640.285 601.437 638.996 602.631ZM158.607 625.17H135.8C142.924 628.903 151.484 628.903 158.607 625.17ZM14.4453 505.378H84.0088L80.9189 502.288H11.9702C12.7002 503.367 13.5254 504.401 14.4453 505.378ZM10.752 500.288H78.9189L75.7397 497.109H9.30322C9.70703 498.194 10.1899 499.257 10.752 500.288ZM8.65576 495.109H73.7397L70.6489 492.018H8.00977C8.1582 493.058 8.37354 494.091 8.65576 495.109ZM7.80713 490.018H68.6489L65.5581 486.927H7.81396C7.74707 487.956 7.74512 488.989 7.80713 490.018ZM8.02588 484.927H63.5581L60.3799 481.749H8.71143C8.41211 482.795 8.18359 483.857 8.02588 484.927ZM9.37793 479.749H58.3799L55.2891 476.658H10.8125C10.2588 477.661 9.78076 478.694 9.37793 479.749ZM12.0454 474.658H53.2891L50.1978 471.567H14.5508C13.6201 472.544 12.7847 473.578 12.0454 474.658ZM16.6929 469.567H48.0454C46.5068 468.291 44.8496 467.231 43.1147 466.388H21.6235C19.8887 467.231 18.2314 468.291 16.6929 469.567ZM27.5864 464.388H37.1514C33.9956 463.764 30.7422 463.764 27.5864 464.388ZM114.598 466.388L117.777 469.567H187.355L184.177 466.388H114.598ZM182.177 464.388H112.598L109.507 461.297H179.086L182.177 464.388ZM245.352 466.388C245.431 467.446 245.441 468.508 245.384 469.567H314.209C314.297 468.509 314.315 467.447 314.267 466.388H245.352ZM314.093 464.388H245.119C244.955 463.347 244.724 462.314 244.425 461.297H313.493C313.76 462.316 313.96 463.348 314.093 464.388ZM312.879 459.297C312.506 458.244 312.059 457.211 311.537 456.207H242.282C242.845 457.209 243.332 458.242 243.743 459.297H312.879ZM177.086 459.297L173.996 456.207H104.417L107.507 459.297H177.086ZM102.417 454.207H171.996L168.816 451.028H99.2378L102.417 454.207ZM97.2378 449.028H166.816L163.726 445.937H94.147L97.2378 449.028ZM92.147 443.937H161.726L158.635 440.846H89.0557L92.147 443.937ZM87.0557 438.846H156.635L153.457 435.668H83.8779L87.0557 438.846ZM81.8779 433.668H151.457L148.366 430.577H78.7871L81.8779 433.668ZM76.7871 428.577H146.366L143.275 425.486H73.6958L76.7871 428.577ZM71.6958 423.486H141.275L138.096 420.307H68.5171L71.6958 423.486ZM66.5171 418.307H136.096L133.005 415.216H63.4258L66.5171 418.307ZM61.4258 413.216H131.005L127.915 410.126H58.3359L61.4258 413.216ZM56.3359 408.126H125.915L122.736 404.947H53.1567L56.3359 408.126ZM51.1567 402.947H120.736L117.645 399.856H48.0659L51.1567 402.947ZM46.0659 397.856H115.645L112.554 394.765H42.9751L46.0659 397.856ZM40.9751 392.765H110.554L107.376 389.587H37.7969L40.9751 392.765ZM201.23 389.587C200.694 390.619 200.235 391.682 199.855 392.765H249.713L246.535 389.587H201.23ZM251.713 394.765H199.248C198.985 395.784 198.789 396.817 198.659 397.856H254.804L251.713 394.765ZM256.804 399.856H198.491C198.447 400.886 198.467 401.919 198.552 402.947H259.895L256.804 399.856ZM261.895 404.947H198.8C198.978 406.019 199.226 407.081 199.545 408.126H265.073L261.895 404.947ZM267.073 410.126H200.253C200.68 411.182 201.183 412.215 201.762 413.216H270.164L267.073 410.126ZM272.164 415.216H203.053C203.83 416.301 204.706 417.337 205.682 418.312L275.255 418.307L272.164 415.216ZM277.255 420.307H207.677L210.855 423.486H280.434L277.255 420.307ZM282.434 425.486H212.855L215.946 428.577H285.524L282.434 425.486ZM287.524 430.577H217.946L221.037 433.668H290.616L287.524 430.577ZM292.616 435.668H223.037L226.215 438.846H295.794L292.616 435.668ZM297.794 440.846H228.215L231.306 443.937H300.885L297.794 440.846ZM302.885 445.937H233.306L236.396 449.028H305.976L302.885 445.937ZM307.933 451.028H238.395C239.375 452.029 240.253 453.093 241.028 454.207H310.375C309.659 453.099 308.845 452.035 307.933 451.028ZM313.96 471.567H245.194C245.053 472.607 244.844 473.639 244.569 474.658H313.24C313.548 473.641 313.787 472.608 313.96 471.567ZM312.539 476.658H243.937C243.553 477.712 243.095 478.745 242.562 479.749H311.044C311.618 478.747 312.117 477.714 312.539 476.658ZM309.764 481.749H241.376C240.645 482.858 239.813 483.922 238.884 484.927L307.08 484.922C308.078 483.924 308.973 482.862 309.764 481.749ZM305.28 486.927H236.808C235.387 488.146 233.86 489.176 232.262 490.018H303.16C303.779 488.948 304.486 487.914 305.28 486.927ZM302.124 492.018H227.134C222.996 493.115 218.63 493.115 214.492 492.018H134.698C134.918 493.039 135.073 494.072 135.162 495.109H300.944C301.266 494.059 301.659 493.026 302.124 492.018ZM387.198 495.109C387.749 494.427 388.341 493.767 388.975 493.133C389.362 492.746 389.759 492.374 390.164 492.018H422.575C422.98 492.374 423.377 492.746 423.765 493.133L425.74 495.109H387.198ZM300.424 497.109H135.253C135.258 498.171 135.194 499.233 135.062 500.288H299.951C300.039 499.221 300.197 498.159 300.424 497.109ZM383.991 500.288C384.491 499.196 385.075 498.133 385.744 497.109H427.74L430.92 500.288H383.991ZM299.868 502.288H134.729C134.51 503.332 134.223 504.364 133.867 505.378H300.059C299.931 504.352 299.868 503.32 299.868 502.288ZM382.306 505.378C382.528 504.334 382.819 503.302 383.18 502.288H432.92L436.01 505.378H382.306ZM419.964 490.018H392.775C394.847 488.64 397.08 487.61 399.394 486.927H413.346C415.659 487.61 417.893 488.64 419.964 490.018ZM134.177 490.018H209.364C207.766 489.176 206.239 488.146 204.818 486.927H132.998C133.462 487.935 133.855 488.968 134.177 490.018ZM131.96 484.927H202.716L199.538 481.749H129.771C130.593 482.762 131.323 483.825 131.96 484.927ZM127.959 479.749H197.538L194.447 476.658H124.868L127.959 479.749ZM122.868 474.658H192.447L189.355 471.567H119.777L122.868 474.658ZM617.074 408.126H577.416C578.101 407.219 578.855 406.349 579.682 405.523C579.878 405.327 580.076 405.135 580.277 404.947H613.876C614.077 405.135 614.275 405.327 614.472 405.523L617.074 408.126ZM20.436 372.226H90.0151L86.9243 369.135H17.3447L20.436 372.226ZM15.3447 367.135H84.9243L81.8345 364.045H12.2549L15.3447 367.135ZM10.2549 362.045H79.8345L76.6553 358.866H7.11914C7.39502 359.171 7.68018 359.47 7.97412 359.764L10.2549 362.045ZM5.48877 356.866H74.6553L71.5645 353.775H3.56201C4.12061 354.841 4.76318 355.874 5.48877 356.866ZM377.156 353.775C376.675 354.782 376.267 355.815 375.931 356.866H426.656L423.564 353.775H377.156ZM428.656 358.866H375.383C375.143 359.915 374.972 360.978 374.871 362.045H431.835L428.656 358.866ZM433.835 364.045H374.764C374.75 365.076 374.802 366.109 374.917 367.135H436.925L433.835 364.045ZM438.925 369.135H375.226C375.431 370.178 375.705 371.211 376.047 372.226H442.016L438.925 369.135ZM1.49023 336.415H54.2041L51.1133 333.324H2.48047C2.08057 334.336 1.75049 335.368 1.49023 336.415ZM3.37695 331.324H49.1133L45.9346 328.145H5.29199C4.56641 329.166 3.92822 330.229 3.37695 331.324ZM6.87549 326.145H43.9346L42.6929 324.903C42.0308 324.241 41.3394 323.625 40.623 323.054H10.1294C9.3833 323.645 8.66357 324.285 7.97412 324.974C7.59277 325.355 7.22656 325.746 6.87549 326.145ZM13.0698 321.054H37.6973C34.8682 319.41 31.7764 318.379 28.6157 317.964H22.1729C19.0112 318.379 15.9121 319.409 13.0698 321.054ZM479.804 317.964L482.895 321.054H557.229C556.963 320.036 556.764 319.003 556.631 317.964H479.804ZM556.457 315.964H477.804L474.625 312.785H556.516C556.428 313.842 556.408 314.904 556.457 315.964ZM616.963 315.964H679.21C679.077 314.895 678.875 313.833 678.602 312.785H613.784L616.963 315.964ZM618.963 317.964H679.376C679.419 318.994 679.397 320.026 679.312 321.054H622.054L618.963 317.964ZM624.054 323.054H679.062C678.889 324.096 678.647 325.129 678.34 326.145H627.145L624.054 323.054ZM557.843 323.054H484.895L487.985 326.145H559.186C558.664 325.141 558.216 324.108 557.843 323.054ZM560.347 328.145H489.985L493.164 331.324H562.787C561.875 330.317 561.062 329.254 560.347 328.145ZM632.323 331.324H676.09C676.687 330.295 677.203 329.233 677.639 328.145H629.145L632.323 331.324ZM564.744 333.324H495.164L498.255 336.415H567.835L564.744 333.324ZM611.784 310.785H677.988C677.615 309.732 677.169 308.699 676.648 307.694H608.693L611.784 310.785ZM556.764 310.785C556.937 309.743 557.177 308.711 557.484 307.694H469.534L472.625 310.785H556.764ZM467.534 305.694H558.186C558.608 304.638 559.106 303.605 559.682 302.603H464.443L467.534 305.694ZM462.443 300.603H560.963C561.732 299.521 562.6 298.486 563.565 297.512H459.353L462.443 300.603ZM457.353 295.512H565.801C567.441 294.214 569.209 293.154 571.057 292.334H454.174L457.353 295.512ZM452.174 290.334H578.686C580.251 290.184 581.827 290.184 583.393 290.334H660.912L659.951 289.373C659.27 288.691 658.637 287.98 658.052 287.243H449.083L452.174 290.334ZM447.083 285.243H656.621C655.98 284.246 655.419 283.212 654.938 282.152H443.992L447.083 285.243ZM441.992 280.152H654.133C653.766 279.109 653.472 278.047 653.25 276.973H438.775C439.061 277.233 439.341 277.501 439.616 277.776L441.992 280.152ZM405.668 276.973C405.383 277.233 405.103 277.501 404.827 277.776C403.956 278.647 403.037 279.439 402.078 280.152H372.787C371.828 279.439 370.908 278.647 370.037 277.776L369.234 276.973H405.668ZM436.274 274.973H652.921C652.796 273.947 652.735 272.915 652.739 271.883H430.179C432.312 272.611 434.366 273.641 436.274 274.973ZM414.266 271.883C412.132 272.611 410.078 273.641 408.17 274.973H367.234L364.144 271.883H414.266ZM362.144 269.883H652.828C652.916 268.845 653.07 267.813 653.29 266.792H359.053L362.144 269.883ZM357.053 264.792H653.809C654.138 263.711 654.544 262.649 655.025 261.613H353.874L357.053 264.792ZM351.874 259.613H656.07C656.694 258.542 657.406 257.509 658.205 256.522H348.783L351.874 259.613ZM346.783 254.522H660.012C661.005 253.522 661.896 252.458 662.683 251.344H343.604L346.783 254.522ZM341.604 249.344H556.681C553.769 248.84 550.93 247.81 548.316 246.253H338.514L341.604 249.344ZM336.514 244.253H545.447C544.771 243.707 544.118 243.12 543.49 242.492L542.161 241.162H333.424L336.514 244.253ZM331.424 239.162H540.161L536.982 235.984H328.245L331.424 239.162ZM326.245 233.984H534.982L531.891 230.892H323.153L326.245 233.984ZM321.153 228.892H529.891L526.8 225.802H318.062L321.153 228.892ZM316.062 223.802H524.8L521.622 220.624H312.885L316.062 223.802ZM310.885 218.624H519.622L516.531 215.533H307.794L310.885 218.624ZM305.794 213.533H514.531L511.44 210.441H302.703L305.794 213.533ZM300.703 208.441H509.44L506.262 205.263H297.524L300.703 208.441ZM295.524 203.263H504.262L501.17 200.171H292.433L295.524 203.263ZM290.433 198.171H499.17L496.08 195.082H287.343L290.433 198.171ZM285.344 193.082H494.08L490.901 189.902H282.164L285.344 193.082ZM280.164 187.902H488.901L485.811 184.812H277.073L280.164 187.902ZM275.073 182.812H483.811L480.72 179.721H271.982L275.073 182.812ZM269.982 177.721H478.72L475.541 174.542H266.805L269.982 177.721ZM264.805 172.542H473.541L470.45 169.452H262.164C262.931 170.515 263.793 171.531 264.75 172.488L264.805 172.542ZM260.865 167.452H468.45L465.359 164.36H259.346C259.775 165.417 260.282 166.45 260.865 167.452ZM258.632 162.36H463.359L460.181 159.182H257.878C258.058 160.253 258.31 161.315 258.632 162.36ZM257.626 157.182H458.181L455.314 154.315C455.24 154.241 455.166 154.166 455.093 154.091H257.558C257.516 155.121 257.539 156.154 257.626 157.182ZM257.721 152.091H318.277C315.928 151.417 313.659 150.387 311.555 149H258.301C258.041 150.02 257.848 151.052 257.721 152.091ZM258.902 147H308.924C308.496 146.628 308.078 146.238 307.671 145.83L305.662 143.822H260.269C259.735 144.854 259.279 145.917 258.902 147ZM261.424 141.822H303.662L300.571 138.73H263.774C262.898 139.712 262.115 140.746 261.424 141.822ZM265.773 136.73H298.516C297.167 135.526 295.719 134.496 294.199 133.64H270.09C268.57 134.496 267.122 135.526 265.773 136.73ZM274.688 131.64H289.601C284.757 130.102 279.532 130.102 274.688 131.64ZM349.118 133.64C348.893 134.684 348.599 135.717 348.236 136.73H448.103C448.11 135.698 448.184 134.665 448.321 133.64H349.118ZM448.674 131.64H349.465C349.603 130.585 349.673 129.523 349.673 128.461H449.599C449.218 129.503 448.909 130.565 448.674 131.64ZM504.218 133.64L507.309 136.73H642.978C642.614 135.678 642.177 134.645 641.666 133.64H504.218ZM640.528 131.64H502.218L499.04 128.461H638.135C639.029 129.469 639.828 130.533 640.528 131.64ZM636.198 126.461L633.107 123.371H493.949L497.04 126.461H636.198ZM450.433 126.461C450.932 125.4 451.511 124.367 452.17 123.371H349.148C349.362 124.392 349.511 125.425 349.594 126.461H450.433ZM348.641 121.371H453.645C454.164 120.735 454.722 120.119 455.314 119.526C455.75 119.091 456.197 118.675 456.655 118.28H347.483C347.94 119.288 348.326 120.321 348.641 121.371ZM346.463 116.28H459.314C461.566 114.813 464.005 113.754 466.525 113.101H344.306C345.116 114.115 345.836 115.178 346.463 116.28ZM342.521 111.101H620.837L617.746 108.01H339.431L342.461 111.04C342.481 111.06 342.501 111.08 342.521 111.101ZM337.431 106.01H615.746L612.656 102.919H334.34L337.431 106.01ZM332.34 100.919H610.656L607.478 97.7405H329.161L332.34 100.919ZM327.161 95.7405H401.684C399.17 95.1128 396.734 94.0825 394.48 92.6494H324.07L327.161 95.7405ZM322.07 90.6494H391.767C391.25 90.2117 390.748 89.749 390.261 89.262L388.558 87.5586H318.979L322.07 90.6494ZM316.979 85.5586H386.558L383.379 82.3804H313.801L316.979 85.5586ZM311.801 80.3804H381.379L378.288 77.2896H308.71L311.801 80.3804ZM306.71 75.2896H376.288L373.197 72.1985H303.619L306.71 75.2896ZM301.619 70.1985H371.197L368.019 67.0195H298.456C298.626 67.1992 298.798 67.3772 298.974 67.553L301.619 70.1985ZM296.76 65.0195H366.019L362.928 61.9287H294.757C295.34 62.9961 296.007 64.0298 296.76 65.0195ZM293.78 59.9287H360.928L357.837 56.8384H292.683C292.978 57.8867 293.344 58.9192 293.78 59.9287ZM292.209 54.8384H355.837L352.658 51.6597H291.807C291.871 52.7251 292.006 53.7871 292.209 54.8384ZM291.767 49.6597H350.658L347.567 46.5684H292.023C291.873 47.5933 291.787 48.626 291.767 49.6597ZM292.402 44.5684H345.567L342.477 41.4775H293.34C292.958 42.4902 292.646 43.5229 292.402 44.5684ZM294.197 39.4775H340.477L337.299 36.2996H296.037C295.338 37.3215 294.725 38.384 294.197 39.4775ZM297.561 34.2996H335.299L333.763 32.7639C333.213 32.2141 332.644 31.6956 332.057 31.2085H300.68C300.093 31.6956 299.523 32.2141 298.974 32.7639C298.477 33.2605 298.006 33.7729 297.561 34.2996ZM303.461 29.2085H329.275C326.883 27.73 324.293 26.6997 321.626 26.1177H311.11C308.443 26.6997 305.854 27.73 303.461 29.2085ZM405.907 26.1177C405.949 27.1523 406.056 28.1848 406.228 29.2085H469.366L466.275 26.1177H405.907ZM464.275 24.1177H405.908C405.952 23.0532 406.063 21.9912 406.245 20.9385H461.097L464.275 24.1177ZM511.59 26.1177C509.975 26.9565 508.433 27.9868 506.997 29.2085H538.832C537.396 27.9868 535.854 26.9565 534.239 26.1177H511.59ZM516.844 24.1177H528.985C525.005 23.1064 520.824 23.1064 516.844 24.1177ZM540.946 31.2085H504.859C503.576 32.4011 502.197 33.4314 500.749 34.2996H544.037L540.946 31.2085ZM546.037 36.2996H496.551C491.118 38.2788 485.131 38.2788 479.698 36.2996H408.568C409.128 37.3953 409.774 38.458 410.509 39.4775H549.215L546.037 36.2996ZM551.215 41.4775H412.114C412.431 41.8328 412.76 42.1812 413.101 42.522L415.147 44.5684H554.306L551.215 41.4775ZM556.306 46.5684H417.147L420.238 49.6597H559.397L556.306 46.5684ZM561.396 51.6597H422.238L425.051 54.4719C425.172 54.5933 425.292 54.7153 425.41 54.8384H564.575L561.396 51.6597ZM566.575 56.8384H427.136C427.901 57.8271 428.581 58.8606 429.175 59.9287H569.666L566.575 56.8384ZM571.666 61.9287H430.171C430.617 62.9377 430.991 63.9707 431.295 65.0195H574.757L571.666 61.9287ZM576.757 67.0195H431.783C431.994 68.0706 432.135 69.1326 432.207 70.1985H579.936L576.757 67.0195ZM581.936 72.1985H432.262C432.248 73.2317 432.169 74.2642 432.025 75.2896H585.026L581.936 72.1985ZM587.026 77.2896H431.661C431.426 78.3345 431.12 79.3672 430.747 80.3804H590.117L587.026 77.2896ZM592.117 82.3804H429.907C429.391 83.4731 428.788 84.5359 428.101 85.5586H595.296L592.117 82.3804ZM597.296 87.5586H426.604C426.118 88.1443 425.6 88.7129 425.051 89.262C424.563 89.749 424.062 90.2117 423.545 90.6494H600.386L597.296 87.5586ZM602.386 92.6494H420.831C418.577 94.0825 416.142 95.1128 413.628 95.7405H605.478L602.386 92.6494ZM407.658 34.2996H475.5C474.052 33.4314 472.673 32.4011 471.39 31.2085H406.648C406.915 32.2554 407.252 33.2881 407.658 34.2996ZM459.097 18.9385L456.006 15.8477H407.701C407.289 16.8586 406.947 17.8914 406.676 18.9385H459.097ZM408.623 13.8477H454.006L450.916 10.7576H410.522C409.807 11.7498 409.173 12.783 408.623 13.8477ZM412.131 8.75757H448.916L447.891 7.73193C447.109 6.95068 446.289 6.23291 445.436 5.57861H415.556C414.702 6.23291 413.882 6.95068 413.101 7.73193C412.766 8.06689 412.442 8.40894 412.131 8.75757ZM418.61 3.57861H442.381C435.004 -0.499512 425.987 -0.499512 418.61 3.57861ZM622.837 113.101H478.894C481.414 113.754 483.853 114.813 486.104 116.28H626.016L622.837 113.101ZM628.016 118.28H488.764C489.222 118.675 489.669 119.091 490.104 119.526L491.949 121.371H631.107L628.016 118.28ZM643.574 138.73H509.309L512.399 141.822H644.147C644.022 140.782 643.832 139.75 643.574 138.73ZM644.306 143.822H514.399L517.579 147H644.224C644.319 145.943 644.347 144.881 644.306 143.822ZM643.959 149H519.579L522.669 152.091H643.213C643.529 151.074 643.777 150.042 643.959 149ZM642.494 154.091H524.669L527.76 157.182H640.966C641.552 156.181 642.062 155.148 642.494 154.091ZM639.659 159.182H529.76L532.938 162.36H636.919C636.983 162.295 637.047 162.229 637.112 162.165C638.054 161.223 638.902 160.225 639.659 159.182ZM635.16 164.36H534.938L538.03 167.452H633.083C633.688 166.382 634.381 165.349 635.16 164.36ZM632.068 169.452H540.03L543.121 172.542H630.918C631.229 171.493 631.613 170.46 632.068 169.452ZM630.414 174.542H545.121L548.299 177.721H629.968C630.047 176.655 630.196 175.593 630.414 174.542ZM629.899 179.721H550.299L553.39 182.812H630.114C629.978 181.786 629.906 180.753 629.899 179.721ZM630.464 184.812H555.39L558.48 187.902H631.354C630.988 186.889 630.691 185.856 630.464 184.812ZM632.176 189.902H560.48L563.66 193.082H633.949C633.273 192.058 632.683 190.995 632.176 189.902ZM635.419 195.082H565.66L568.75 198.171H638.329L637.111 196.954C636.51 196.352 635.945 195.727 635.419 195.082ZM640.329 200.171H570.75L573.841 203.263H643.42L640.329 200.171ZM645.42 205.263H575.841L578.28 207.702C578.523 207.945 578.76 208.191 578.99 208.441H648.599L645.42 205.263ZM650.599 210.441H580.648C581.386 211.432 582.039 212.466 582.608 213.533H653.69L650.599 210.441ZM655.69 215.533H583.562C583.988 216.543 584.344 217.576 584.629 218.624H658.781L655.69 215.533ZM660.744 220.624H585.085C585.278 221.675 585.403 222.737 585.459 223.802H663.203C662.482 222.693 661.662 221.63 660.744 220.624ZM664.373 225.802H585.483C585.454 226.836 585.359 227.868 585.2 228.892H665.727C665.35 227.839 664.898 226.806 664.373 225.802ZM666.348 230.892H584.803C584.55 231.938 584.228 232.971 583.836 233.984H666.955C666.819 232.944 666.617 231.911 666.348 230.892ZM667.135 235.984H582.956C582.415 237.078 581.788 238.141 581.074 239.162H667.085C667.17 238.105 667.187 237.043 667.135 235.984ZM666.842 241.162H579.517C579.124 241.617 578.712 242.06 578.28 242.492C577.652 243.12 576.999 243.707 576.324 244.253H666.131C666.436 243.236 666.672 242.204 666.842 241.162ZM665.438 246.253H573.455C570.842 247.81 568.003 248.84 565.092 249.344H663.953C664.523 248.342 665.019 247.309 665.438 246.253ZM453.34 152.091C452.563 151.103 451.873 150.069 451.27 149H338.576C336.472 150.387 334.203 151.417 331.854 152.091H453.34ZM341.208 147H450.258C449.792 145.964 449.401 144.901 449.087 143.822H344.264C343.706 144.515 343.104 145.186 342.461 145.83C342.054 146.238 341.636 146.628 341.208 147ZM345.713 141.822H448.594C448.387 140.8 448.245 139.767 448.169 138.73H347.419C346.93 139.791 346.361 140.825 345.713 141.822ZM398.907 282.152H375.958C383.119 285.934 391.746 285.934 398.907 282.152ZM662.912 292.334H591.021C592.868 293.154 594.636 294.214 596.276 295.512H666.091L662.912 292.334ZM668.091 297.512H598.512L601.603 300.603H671.182L668.091 297.512ZM603.603 302.603H673.129C674.008 303.584 674.794 304.618 675.488 305.694H606.693L603.603 302.603Z" fill="#4B5A6B"/>
<circle cx="301.412" cy="357.255" r="9.5" fill="#E5743C"/>
<circle cx="552.412" cy="446.255" r="9.5" fill="#A9995D"/>
<circle cx="287.412" cy="322.255" r="4.5" fill="#99A9BD"/>
<circle cx="464.412" cy="342.255" r="4.5" fill="#99A9BD"/>
<circle cx="368.412" cy="539.255" r="4.5" fill="#99A9BD"/>
<circle cx="599.412" cy="335.255" r="4.5" fill="#658F61"/>
<circle cx="360.412" cy="435.255" r="29.5" fill="#187BBC"/>
<path d="M328.209 323.317H325.939C324.804 323.317 324.047 322.358 324.047 321.399V319.097C324.047 318.33 323.48 317.755 322.723 317.755C321.966 317.755 321.399 318.33 321.399 319.097V321.59C321.399 322.741 320.453 323.508 319.507 323.508H317.236C316.48 323.317 315.912 323.892 315.912 324.659C315.912 325.426 316.48 326.001 317.236 326.001H319.696C320.831 326.001 321.588 326.96 321.588 327.919V330.412C321.588 331.18 322.155 331.755 322.912 331.755C323.669 331.755 324.236 331.18 324.236 330.412V327.919C324.236 326.769 325.182 326.001 326.128 326.001H328.588C329.345 326.001 329.912 325.426 329.912 324.659C329.912 323.892 328.966 323.317 328.209 323.317Z" fill="white"/>
<path d="M540.995 416.147H536.97C535.245 416.147 533.712 414.613 533.712 412.888V408.863C533.712 407.713 532.754 406.755 531.604 406.755C530.454 406.755 529.495 407.713 529.495 408.863V412.888C529.495 414.613 527.962 416.147 526.237 416.147H522.02C520.87 416.147 519.912 417.105 519.912 418.255C519.912 419.405 520.87 420.363 522.02 420.363H526.045C527.77 420.363 529.304 421.897 529.304 423.622V427.647C529.304 428.797 530.262 429.755 531.412 429.755C532.562 429.755 533.52 428.797 533.52 427.647V423.622C533.52 421.897 535.054 420.363 536.779 420.363H540.804C541.954 420.363 542.912 419.405 542.912 418.255C542.912 417.105 542.145 416.147 540.995 416.147Z" fill="white"/>
</svg>
