<svg width="154" height="45" viewBox="0 0 154 45" fill="none" xmlns="http://www.w3.org/2000/svg">
<path d="M76.9725 12.6423C75.1436 12.6423 73.7475 13.1142 72.7965 14.0457C71.8455 14.9772 71.3699 16.3805 71.3699 18.2435C71.3699 20.1064 71.8455 21.5036 72.7965 22.4412C73.7475 23.3788 75.1375 23.8507 76.9725 23.8507C78.8075 23.8507 80.2035 23.3788 81.1546 22.4412C82.1056 21.5036 82.5811 20.1003 82.5811 18.2435C82.5811 16.3866 82.1056 14.9833 81.1546 14.0457C80.2035 13.1081 78.8075 12.6423 76.9725 12.6423ZM79.6 19.7816C79.5001 20.1652 79.3122 20.5199 79.0513 20.8173C78.8124 21.0844 78.5074 21.2831 78.1674 21.3933C77.3915 21.6384 76.5595 21.6384 75.7837 21.3933C75.4436 21.2831 75.1386 21.0844 74.8997 20.8173C74.6388 20.5199 74.4509 20.1652 74.3511 19.7816C74.2138 19.2788 74.1501 18.7586 74.1621 18.2373C74.1501 17.7161 74.2138 17.1958 74.3511 16.693C74.4522 16.31 74.6399 15.9555 74.8997 15.6574C75.1386 15.3903 75.4436 15.1915 75.7837 15.0813C76.5607 14.8442 77.3903 14.8442 78.1674 15.0813C78.5074 15.1915 78.8124 15.3903 79.0513 15.6574C79.3111 15.9555 79.4989 16.31 79.6 16.693C79.7373 17.1958 79.8009 17.7161 79.789 18.2373C79.8009 18.7586 79.7373 19.2788 79.6 19.7816Z" fill="#A9995D"/>
<path d="M62.5607 20.8602L60.4514 12.82H56.062V23.6668H58.6042V15.2345L60.9391 23.6668H64.0604L66.4014 15.2345V23.6668H69.0655V12.82H64.6762L62.5607 20.8602Z" fill="#A9995D"/>
<path d="M90.0065 12.6423C88.1776 12.6423 86.7754 13.1142 85.8305 14.0457C84.8855 14.9772 84.4039 16.3805 84.4039 18.2435C84.4039 20.1064 84.8794 21.5036 85.8305 22.4412C86.7815 23.3788 88.1715 23.8507 90.0065 23.8507C91.8415 23.8507 93.2315 23.3788 94.1825 22.4412C95.1335 21.5036 95.6151 20.1003 95.6151 18.2435C95.6151 16.3866 95.1396 14.9833 94.1825 14.0457C93.2254 13.1081 91.8415 12.6423 90.0065 12.6423ZM92.6645 19.7816C92.5646 20.1652 92.3767 20.5199 92.1158 20.8173C91.8758 21.083 91.5712 21.2815 91.2318 21.3933C90.4539 21.6385 89.62 21.6385 88.8421 21.3933C88.5035 21.28 88.1992 21.0818 87.9581 20.8173C87.7014 20.5179 87.5159 20.1637 87.4155 19.7816C87.2783 19.2788 87.2146 18.7586 87.2265 18.2373C87.2146 17.7161 87.2783 17.1958 87.4155 16.693C87.5171 16.3114 87.7025 15.9575 87.9581 15.6574C88.1992 15.3929 88.5035 15.1946 88.8421 15.0813C89.6212 14.8444 90.4527 14.8444 91.2318 15.0813C91.5712 15.1931 91.8758 15.3916 92.1158 15.6574C92.3756 15.9555 92.5634 16.31 92.6645 16.693C92.7988 17.1964 92.8624 17.7162 92.8535 18.2373C92.8624 18.7584 92.7988 19.2782 92.6645 19.7816Z" fill="#A9995D"/>
<path d="M105.168 20.1738L101.364 12.82H97.9196V23.6668H100.456V16.1537L104.351 23.6668H107.698V12.82H105.168V20.1738Z" fill="#A9995D"/>
<path d="M151.043 21.4056C150.622 21.4124 150.202 21.3775 149.787 21.3014C149.465 21.2477 149.157 21.1311 148.879 20.9582C148.63 20.8057 148.421 20.5956 148.269 20.3454C148.111 20.0432 148.005 19.7156 147.958 19.3771H153.665V17.0913H147.958C148.007 16.7498 148.117 16.4198 148.282 16.117C148.431 15.8648 148.64 15.6541 148.891 15.5042C149.168 15.337 149.474 15.2266 149.793 15.1794C150.196 15.1102 150.604 15.0773 151.013 15.0813H153.811V12.82H150.464C148.627 12.82 147.27 13.2633 146.392 14.1498C145.514 15.0364 145.081 16.4009 145.093 18.2434C145.093 20.09 145.534 21.4546 146.416 22.337C147.294 23.2195 148.653 23.6668 150.488 23.6668H153.994V21.4056H151.043Z" fill="#A9995D"/>
<path d="M139.93 17.0913H137.912C137.638 17.1088 137.368 17.0162 137.162 16.834C136.994 16.6174 136.904 16.3505 136.905 16.0761C136.906 15.8016 136.998 15.5355 137.168 15.3203C137.374 15.1381 137.644 15.0455 137.918 15.0629H142.758V12.82H137.351C136.912 12.784 136.47 12.8364 136.051 12.9743C135.632 13.1121 135.245 13.3326 134.912 13.6228C134.625 13.9582 134.406 14.3474 134.269 14.7681C134.132 15.1889 134.079 15.6327 134.114 16.0741C134.047 16.9651 134.334 17.8463 134.912 18.5253C135.242 18.8209 135.629 19.0461 136.048 19.1872C136.467 19.3284 136.91 19.3825 137.351 19.3465H139.405C139.544 19.3261 139.685 19.3384 139.819 19.3826C139.952 19.4267 140.073 19.5014 140.172 19.6007C140.271 19.7 140.346 19.8212 140.391 19.9547C140.436 20.0882 140.449 20.2304 140.429 20.3699C140.45 20.5099 140.438 20.6527 140.393 20.787C140.349 20.9214 140.274 21.0434 140.175 21.1435C140.075 21.2435 139.954 21.3188 139.82 21.3632C139.687 21.4077 139.545 21.4201 139.405 21.3994H134.412V23.6607H139.936C140.377 23.6906 140.819 23.6323 141.238 23.4892C141.656 23.3462 142.043 23.1212 142.374 22.8273C142.67 22.496 142.896 22.1082 143.04 21.6871C143.183 21.2659 143.241 20.82 143.209 20.376C143.241 19.932 143.183 19.4861 143.04 19.065C142.896 18.6438 142.67 18.2561 142.374 17.9248C142.042 17.6301 141.655 17.4047 141.235 17.2616C140.815 17.1185 140.372 17.0607 139.93 17.0913Z" fill="#A9995D"/>
<path d="M125.67 12.82L121.512 23.6668H124.396L125.109 21.5588H129.279L129.992 23.6668H132.943L128.785 12.82H125.67ZM125.859 19.3342L127.188 15.3693L128.523 19.3342H125.859Z" fill="#A9995D"/>
<path d="M119.629 18.7827C119.435 18.5906 119.208 18.4367 118.958 18.3292C118.774 18.2479 118.582 18.1863 118.385 18.1454C118.516 18.1139 118.643 18.0665 118.763 18.0044C118.957 17.9129 119.131 17.7838 119.275 17.6245C119.465 17.412 119.616 17.1672 119.72 16.9014C119.864 16.5286 119.93 16.1303 119.915 15.7309C119.923 15.3018 119.849 14.8753 119.696 14.4746C119.564 14.1278 119.355 13.8156 119.086 13.5615C118.803 13.3083 118.468 13.1201 118.105 13.01C117.691 12.8779 117.258 12.8137 116.824 12.82H110.49V23.6668H117.154C117.602 23.6701 118.049 23.6124 118.483 23.4952C118.85 23.3968 119.193 23.2214 119.488 22.9805C119.777 22.7429 120.003 22.4378 120.147 22.0919C120.456 21.2873 120.456 20.3962 120.147 19.5916C120.024 19.2928 119.848 19.0188 119.629 18.7827ZM113.16 15.0445H116.087C116.376 15.0208 116.664 15.1084 116.891 15.2897C116.988 15.3944 117.061 15.5185 117.106 15.6537C117.151 15.7889 117.167 15.9321 117.154 16.0741C117.167 16.216 117.151 16.3593 117.106 16.4945C117.061 16.6297 116.988 16.7537 116.891 16.8585C116.662 17.037 116.376 17.1243 116.087 17.1036H113.16V15.0445ZM116.568 21.4484H113.16V19.3159H116.568C116.711 19.2962 116.856 19.3102 116.992 19.3567C117.129 19.4032 117.252 19.481 117.353 19.5839C117.454 19.6868 117.53 19.8119 117.575 19.9494C117.62 20.0869 117.632 20.233 117.611 20.376C117.634 20.52 117.624 20.6675 117.58 20.8066C117.536 20.9457 117.46 21.0725 117.359 21.1769C117.258 21.2812 117.133 21.3602 116.996 21.4073C116.858 21.4545 116.712 21.4686 116.568 21.4484Z" fill="#A9995D"/>
<path d="M58.9029 34.8691C58.7042 34.8256 58.5222 34.7257 58.3785 34.5812C58.2347 34.4367 58.1353 34.2537 58.0921 34.054C58.028 33.7894 57.9993 33.5174 58.0067 33.2451V28.6981H56.0864V33.5086C56.0864 35.5738 57.1167 36.5727 59.165 36.5727H61.8596V34.9304H59.7076C59.4378 34.9459 59.1672 34.9253 58.9029 34.8691Z" fill="#4B5A6B"/>
<path d="M66.2246 28.6981L63.1765 36.6033H65.2797L65.7979 35.0652H68.8461L69.3643 36.6033H71.5163L68.4681 28.6981H66.2246ZM66.3588 33.4474L67.3342 30.561L68.2791 33.4474H66.3588Z" fill="#4B5A6B"/>
<path d="M88.7202 32.4178C88.4779 32.2015 88.1951 32.0359 87.8884 31.9307C87.5817 31.8254 87.2573 31.7827 86.9339 31.805H85.4647C85.3667 31.8123 85.2681 31.7997 85.175 31.7682C85.0818 31.7366 84.9958 31.6866 84.9221 31.6212C84.8 31.4647 84.7337 31.2716 84.7337 31.0727C84.7337 30.8738 84.8 30.6807 84.9221 30.5242C84.9958 30.4588 85.0818 30.4088 85.175 30.3772C85.2681 30.3457 85.3667 30.3331 85.4647 30.3404H89.0067V28.698H85.0685C84.7471 28.6774 84.425 28.7209 84.1205 28.8261C83.816 28.9313 83.5352 29.096 83.2944 29.3109C82.8738 29.8046 82.6654 30.446 82.7153 31.0941C82.6669 31.7458 82.8748 32.3905 83.2944 32.8897C83.5352 33.1045 83.816 33.2692 84.1205 33.3744C84.425 33.4796 84.7471 33.5231 85.0685 33.5025H86.5682C86.6795 33.4677 86.7974 33.4597 86.9123 33.4791C87.0273 33.4986 87.1361 33.5449 87.23 33.6144C87.3238 33.6839 87.4001 33.7746 87.4527 33.8791C87.5053 33.9837 87.5327 34.0992 87.5327 34.2164C87.5327 34.3336 87.5053 34.4491 87.4527 34.5537C87.4001 34.6583 87.3238 34.749 87.23 34.8185C87.1361 34.8879 87.0273 34.9343 86.9123 34.9537C86.7974 34.9731 86.6795 34.9651 86.5682 34.9304H82.9103V36.5788H86.9339C87.2576 36.6232 87.5871 36.5919 87.8968 36.4873C88.2064 36.3827 88.4879 36.2076 88.7192 35.9757C88.9505 35.7438 89.1254 35.4614 89.2302 35.1504C89.3351 34.8393 89.3671 34.5082 89.3237 34.1827C89.3453 33.8629 89.3031 33.5421 89.1994 33.2389C89.0958 32.9358 88.9328 32.6566 88.7202 32.4178Z" fill="#4B5A6B"/>
<path d="M80.0511 33.0429C79.9074 32.9069 79.7427 32.7951 79.5634 32.712C79.4281 32.6543 79.2871 32.6111 79.1428 32.5833C79.2374 32.5576 79.3292 32.5227 79.4171 32.4791C79.5599 32.4133 79.6868 32.3171 79.789 32.1972C79.9309 32.0441 80.0426 31.8652 80.1182 31.6702C80.2198 31.3982 80.2675 31.1088 80.2584 30.8184C80.2638 30.5067 80.21 30.1968 80.0999 29.9053C79.9959 29.6503 79.8361 29.422 79.6324 29.2375C79.4288 29.0529 79.1864 28.9167 78.9233 28.839C78.6218 28.7428 78.3069 28.6952 77.9906 28.6981H73.3939V36.6034H78.271C78.5981 36.6057 78.924 36.5645 79.2403 36.4808C79.5121 36.4083 79.7656 36.2788 79.9841 36.1008C80.1884 35.9356 80.353 35.7261 80.4657 35.488C80.5869 35.1951 80.645 34.8798 80.6364 34.5627C80.646 34.256 80.5899 33.9509 80.4718 33.668C80.3727 33.4344 80.2299 33.2222 80.0511 33.0429ZM75.3326 30.322H77.4663C77.6847 30.2996 77.9033 30.3633 78.0759 30.4997C78.1986 30.6641 78.2649 30.8641 78.2649 31.0696C78.2649 31.2752 78.1986 31.4751 78.0759 31.6396C77.9033 31.776 77.6847 31.8397 77.4663 31.8173H75.3326V30.322ZM77.8199 34.9794H75.3326V33.4351H77.8199C78.0236 33.4351 78.219 33.5165 78.363 33.6613C78.5071 33.8061 78.588 34.0025 78.588 34.2073C78.588 34.412 78.5071 34.6084 78.363 34.7532C78.219 34.898 78.0236 34.9794 77.8199 34.9794Z" fill="#4B5A6B"/>
<path d="M43.3511 12.961C45.1659 12.961 46.6371 11.4822 46.6371 9.65792C46.6371 7.83369 45.1659 6.35486 43.3511 6.35486C41.5363 6.35486 40.0652 7.83369 40.0652 9.65792C40.0652 11.4822 41.5363 12.961 43.3511 12.961Z" fill="url(#paint0_linear)"/>
<path d="M25.1961 20.4925L31.8229 12.3114C31.389 12.0518 30.9413 11.8166 30.4817 11.6067C27.2352 10.0762 23.5334 9.83545 20.1179 10.9326L23.483 20.2228C24.0681 20.1319 24.6668 20.2261 25.1961 20.4925Z" fill="#4B5A6B"/>
<path d="M25.1961 20.4925L31.8229 12.3114C31.389 12.0518 30.9413 11.8166 30.4817 11.6067C27.2352 10.0762 23.5334 9.83545 20.1179 10.9326L23.483 20.2228C24.0681 20.1319 24.6668 20.2261 25.1961 20.4925Z" fill="url(#paint1_linear)"/>
<path d="M17.2282 34.771H22.8064L17.2282 33.2819V34.771Z" fill="#6F7B89"/>
<path d="M29.7928 34.771H31.7619V34.0479L29.7928 34.771Z" fill="#6F7B89"/>
<path d="M29.6587 16.883L26.1167 21.2524L29.6587 16.883Z" fill="#939CA6"/>
<path d="M24.5011 37.9944C21.513 37.9541 18.6198 39.0483 16.3991 41.0585C15.5089 41.8937 14.7649 42.8736 14.1983 43.9571H17.0697C17.7163 42.7983 18.6218 41.8063 19.7149 41.0593C20.808 40.3123 22.0587 39.8307 23.3685 39.6524C24.6783 39.4742 26.0114 39.6042 27.2627 40.0322C28.514 40.4601 29.6493 41.1744 30.5792 42.1187C31.1112 42.6684 31.5683 43.2866 31.9387 43.9571H34.8101C33.7958 42.113 32.2992 40.5827 30.4822 39.5317C28.6652 38.4808 26.597 37.9492 24.5011 37.9944Z" fill="white"/>
<path d="M36.2489 39.7226L33.8835 38.6685L33.347 36.0825C33.3399 36.0506 33.3221 36.0222 33.2965 36.0021C33.271 35.9819 33.2392 35.9714 33.2068 35.9721H15.7834C15.7504 35.9728 15.7186 35.9847 15.6931 36.0058C15.6677 36.0269 15.6501 36.0561 15.6432 36.0886L15.1067 38.6685L12.7413 39.7226C11.0892 40.4579 9.99187 41.8674 9.40662 44.0123H12.8572C13.5152 42.5859 14.4428 41.3018 15.5883 40.2312C18.0257 38.0073 21.2097 36.7923 24.5012 36.8301C29.2259 36.8301 33.981 39.2813 36.1391 44.0123H39.5836C39.0166 41.8674 37.901 40.4457 36.2489 39.7226Z" fill="white"/>
<path d="M24.5012 40.8501C23.3208 40.8487 22.1576 41.1345 21.1108 41.683C20.0641 42.2315 19.165 43.0264 18.4902 44H30.4817C30.243 43.6551 29.978 43.3293 29.6892 43.0256C29.0119 42.3343 28.2042 41.7858 27.3133 41.4122C26.4225 41.0387 25.4664 40.8476 24.5012 40.8501Z" fill="white"/>
<path d="M17.3624 28.8635L18.9718 29.2925L16.7283 23.0908C16.5659 22.6426 16.2973 22.241 15.9457 21.9206C15.5941 21.6003 15.1701 21.3709 14.7104 21.2524L10.8454 20.2228C10.1531 22.3992 9.98795 24.7103 10.3637 26.9638L17.3624 28.8635Z" fill="white"/>
<path d="M17.85 22.6741L20.38 29.6663L25.7082 31.088C26.2778 31.2366 26.8785 31.211 27.4335 31.0145L31.8839 29.415L33.2311 28.9248C33.3605 28.8787 33.4929 28.8419 33.6274 28.8145C33.8925 28.7423 34.1641 28.6972 34.4382 28.6797C34.849 28.6646 35.2598 28.7101 35.6575 28.8145L37.9497 29.4273C38.1584 28.8263 38.3274 28.2122 38.4557 27.5889L26.4459 24.3655C26.12 25.0214 25.5575 25.5276 24.873 25.7811C24.5563 25.8963 24.2223 25.9564 23.8854 25.9588C23.2945 25.9574 22.7183 25.774 22.2343 25.4332C21.7503 25.0924 21.3819 24.6107 21.1787 24.0529C20.9526 23.4287 20.9468 22.7453 21.1621 22.1173C21.3774 21.4892 21.8008 20.9546 22.3613 20.6028L19.0084 11.3432C17.267 12.051 15.6843 13.1021 14.3536 14.4346C13.0228 15.767 11.9709 17.3538 11.2599 19.1014L15.0152 20.088C15.6606 20.2564 16.2557 20.5797 16.7495 21.0301C17.2432 21.4805 17.6209 22.0447 17.85 22.6741Z" fill="white"/>
<path d="M33.6396 30.0279L27.8664 32.1421C27.653 32.2207 27.4325 32.2782 27.208 32.3137C27.1633 32.317 27.1185 32.317 27.0738 32.3137C26.896 32.3394 26.7169 32.3557 26.5374 32.3627H26.4581H26.2264H25.9704C25.8119 32.3627 25.6534 32.3075 25.501 32.2708H25.4156H25.3486L19.807 30.7939H19.7399L10.6381 28.3426C10.8314 29.0831 11.0842 29.8065 11.394 30.5059L24.995 34.1092C26.1681 34.4221 27.4084 34.3665 28.5492 33.9499L36.6939 30.9655C36.9653 30.8669 37.2098 30.7053 37.4072 30.4936L35.3588 29.9543C34.7918 29.8004 34.1915 29.8261 33.6396 30.0279Z" fill="white"/>
<path d="M23.8855 24.7638C24.8215 24.7638 25.5802 24.001 25.5802 23.0602C25.5802 22.1193 24.8215 21.3565 23.8855 21.3565C22.9495 21.3565 22.1907 22.1193 22.1907 23.0602C22.1907 24.001 22.9495 24.7638 23.8855 24.7638Z" fill="white"/>
<path d="M24.5012 39.649C22.9902 39.6481 21.5061 40.0504 20.2004 40.8149C18.8948 41.5793 17.8144 42.6784 17.0697 44H18.5084C19.1211 43.1111 19.9212 42.369 20.8518 41.8265C21.7824 41.284 22.8206 40.9545 23.8923 40.8615C24.9641 40.7684 26.0431 40.9141 27.0524 41.2882C28.0618 41.6623 28.9766 42.2555 29.7318 43.0256C30.006 43.3309 30.2566 43.6566 30.4817 44H31.896C31.5257 43.3295 31.0685 42.7113 30.5365 42.1616C29.7472 41.3605 28.8069 40.7257 27.7706 40.2943C26.7343 39.8629 25.6228 39.6435 24.5012 39.649Z" fill="#4B5A6B"/>
<path d="M24.5012 36.8178C21.2096 36.7801 18.0257 37.995 15.5883 40.2189C14.4428 41.2895 13.5152 42.5737 12.8571 44H14.1983C14.7649 42.9165 15.5089 41.9366 16.3991 41.1014C18.6198 39.0912 21.513 37.997 24.5012 38.0373C26.5939 37.9955 28.6583 38.5287 30.4718 39.5794C32.2852 40.6302 33.7789 42.1587 34.7918 44H36.1391C33.981 39.2691 29.2197 36.8178 24.5012 36.8178Z" fill="#4B5A6B"/>
<path d="M46.1554 13.1632C47.0567 12.4225 47.6358 11.3583 47.7702 10.1959C47.9045 9.03351 47.5835 7.86418 46.8752 6.93551C46.1668 6.00684 45.1268 5.39174 43.9751 5.22045C42.8235 5.04917 41.6508 5.33514 40.7053 6.01782L40.6077 6.09749C38.1455 3.93624 35.2775 2.29264 32.1731 1.26369C29.0686 0.234747 25.7906 -0.158708 22.5324 0.106547C19.2743 0.371802 16.102 1.29039 13.2027 2.80811C10.3034 4.32583 7.73599 6.41194 5.65183 8.94332C3.56767 11.4747 2.00904 14.4001 1.06791 17.5468C0.126776 20.6936 -0.17779 23.9979 0.172185 27.2649C0.522159 30.5319 1.51958 33.6954 3.1056 36.5686C4.69161 39.4418 6.83409 41.9665 9.40659 43.9939C10.0162 41.8674 11.0892 40.4579 12.7413 39.7042L15.1067 38.6501L15.6432 36.0702C15.65 36.0377 15.6676 36.0086 15.6931 35.9874C15.7185 35.9663 15.7504 35.9544 15.7834 35.9538H33.2068C33.2392 35.953 33.2709 35.9635 33.2965 35.9837C33.3221 36.0038 33.3399 36.0322 33.347 36.0641L33.8835 38.6501L36.2488 39.7042C37.901 40.4395 38.9983 41.849 39.5835 43.9939C44.1118 40.453 47.2532 35.4206 48.4552 29.7816C49.6572 24.1427 48.8429 18.2583 46.1554 13.1632ZM26.7629 23.2072C26.7818 22.8177 26.7238 22.4282 26.5922 22.0613C26.4813 21.7642 26.3205 21.4885 26.1167 21.2462L29.6587 16.8769C29.9266 17.3102 30.2693 17.6921 30.6707 18.0044L33.219 19.1933C33.3055 19.2557 33.3775 19.3363 33.4301 19.4294C33.4828 19.5225 33.5147 19.6259 33.5238 19.7326C33.5326 19.839 33.5174 19.9461 33.4794 20.0458C33.4414 20.1455 33.3816 20.2353 33.3043 20.3086L32.4447 21.1482L33.347 22.2267C33.4077 22.3025 33.4452 22.3944 33.4549 22.4913C33.4646 22.5881 33.4462 22.6857 33.4018 22.7721L32.9629 23.5994L33.4811 23.4033C33.6024 23.3543 33.7378 23.3543 33.8591 23.4033C33.9761 23.4605 34.0659 23.5618 34.109 23.6852L34.5053 24.8312C34.5552 24.9776 34.5959 25.127 34.6272 25.2785L26.7629 23.2072ZM30.4817 11.6067C30.933 11.8174 31.3726 12.0526 31.7985 12.3114L25.1961 20.4925C24.6668 20.2261 24.0681 20.1319 23.4831 20.2228L20.1179 10.9326C23.5334 9.83546 27.2353 10.0762 30.4817 11.6067ZM25.6046 23.0602C25.6046 23.3986 25.5047 23.7294 25.3175 24.0107C25.1304 24.292 24.8644 24.5111 24.5532 24.6403C24.2421 24.7696 23.8998 24.8031 23.5696 24.7366C23.2395 24.6701 22.9365 24.5067 22.6989 24.267C22.4612 24.0272 22.2997 23.722 22.2348 23.3899C22.1698 23.0579 22.2044 22.7139 22.3341 22.4016C22.4637 22.0893 22.6827 21.8227 22.9632 21.6356C23.2437 21.4484 23.5732 21.3492 23.9098 21.3504C24.1331 21.3496 24.3544 21.3933 24.5608 21.479C24.7671 21.5647 24.9546 21.6907 25.1122 21.8497C25.2698 22.0088 25.3945 22.1976 25.479 22.4054C25.5635 22.6131 25.6062 22.8357 25.6046 23.0602ZM10.8453 20.2228L14.7104 21.2401C15.1701 21.3587 15.594 21.588 15.9456 21.9084C16.2972 22.2287 16.5659 22.6304 16.7283 23.0785L18.9718 29.2925L17.3623 28.8635L10.3637 26.9638C9.98793 24.7103 10.153 22.3992 10.8453 20.2228ZM17.2282 34.771V33.2819L22.8064 34.771H17.2282ZM31.7619 34.771H29.7928L31.7619 34.0479V34.771ZM36.6878 30.9655L28.543 33.9499C27.4023 34.3665 26.162 34.4221 24.9889 34.1092L11.3818 30.4752C11.072 29.7759 10.8192 29.0524 10.6259 28.312L19.7277 30.7632H19.7948L25.3364 32.2401H25.4034H25.4888C25.6412 32.2769 25.7997 32.3075 25.9582 32.332H26.2142H26.4459H26.513C26.6925 32.3251 26.8716 32.3087 27.0494 32.283C27.0941 32.2864 27.1389 32.2864 27.1836 32.283C27.4081 32.2475 27.6286 32.1901 27.842 32.1114L33.6396 30.0278C34.1915 29.8261 34.7918 29.8004 35.3588 29.9543L37.4011 30.4936C37.2037 30.7052 36.9592 30.8669 36.6878 30.9655ZM37.9619 29.415L35.6697 28.8022C35.272 28.6978 34.8612 28.6524 34.4504 28.6674C34.1763 28.6849 33.9047 28.7301 33.6396 28.8022C33.5051 28.8296 33.3727 28.8665 33.2433 28.9125L31.8838 29.415L27.4335 31.0145C26.8717 31.218 26.2617 31.2458 25.6839 31.0941L20.3556 29.6724L17.85 22.6741C17.6217 22.0435 17.2444 21.4782 16.7506 21.0266C16.2568 20.5751 15.6613 20.2509 15.0152 20.0819L11.2599 19.0953C11.9716 17.3488 13.0238 15.7632 14.3545 14.4318C15.6853 13.1005 17.2676 12.0503 19.0084 11.3432L22.3613 20.6028C21.8008 20.9546 21.3774 21.4892 21.1621 22.1173C20.9468 22.7453 20.9526 23.4287 21.1787 24.0529C21.3819 24.6107 21.7503 25.0924 22.2343 25.4332C22.7182 25.774 23.2945 25.9574 23.8854 25.9588C24.2223 25.9564 24.5563 25.8963 24.873 25.7811C25.5575 25.5276 26.12 25.0214 26.4459 24.3655L38.4679 27.5766C38.3396 28.1999 38.1706 28.8141 37.9619 29.415ZM45.2775 12.3359C44.9289 12.5918 44.5335 12.7762 44.114 12.8785C43.6944 12.9808 43.2589 12.9991 42.8324 12.9322C42.4058 12.8654 41.9966 12.7147 41.6279 12.4888C41.2593 12.263 40.9385 11.9663 40.6839 11.6159C40.4294 11.2654 40.2459 10.868 40.1441 10.4462C40.0424 10.0245 40.0242 9.58675 40.0907 9.15797C40.1572 8.72919 40.3071 8.31778 40.5318 7.94723C40.7565 7.57667 41.0516 7.25424 41.4003 6.99832L41.4917 6.94317C42.0299 6.57068 42.6672 6.36993 43.3206 6.36713C43.838 6.36565 44.3483 6.48698 44.8102 6.72126C45.2721 6.95553 45.6724 7.29612 45.9786 7.71531C46.4571 8.37037 46.6765 9.18073 46.5943 9.9892C46.5121 10.7977 46.1341 11.5466 45.5336 12.0908C45.4561 12.1724 45.3747 12.2501 45.2897 12.3237L45.2775 12.3359Z" fill="#4B5A6B"/>
<path d="M32.8166 12.9794L29.6587 16.883C29.9266 17.3164 30.2693 17.6982 30.6707 18.0106L33.219 19.1994C33.3055 19.2619 33.3775 19.3424 33.4302 19.4355C33.4828 19.5286 33.5147 19.632 33.5238 19.7387C33.5326 19.8451 33.5174 19.9522 33.4794 20.0519C33.4414 20.1516 33.3816 20.2415 33.3043 20.3147L32.4447 21.1543L33.347 22.2329C33.4077 22.3087 33.4452 22.4006 33.4549 22.4974C33.4647 22.5942 33.4462 22.6918 33.4019 22.7783L32.9629 23.6056L33.4811 23.4095C33.6024 23.3604 33.7378 23.3604 33.8591 23.4095C33.9761 23.4666 34.0659 23.568 34.109 23.6913L34.5053 24.8373C34.5552 24.9837 34.5959 25.1331 34.6272 25.2847L38.663 26.3632C38.9634 23.811 38.5798 21.2245 37.5519 18.8714C36.524 16.5183 34.8892 14.4841 32.8166 12.9794Z" fill="url(#paint2_linear)"/>
<path d="M34.5053 24.8557L34.1395 23.7098C34.0964 23.5864 34.0065 23.4851 33.8895 23.4279C33.7683 23.3788 33.6328 23.3788 33.5116 23.4279L32.9934 23.624L33.4323 22.7967C33.4767 22.7102 33.4951 22.6126 33.4854 22.5158C33.4756 22.419 33.4381 22.3271 33.3774 22.2513L32.4752 21.1727L33.3348 20.3332C33.412 20.2599 33.4719 20.17 33.5099 20.0703C33.5479 19.9706 33.563 19.8635 33.5542 19.7571C33.5452 19.6504 33.5132 19.547 33.4606 19.4539C33.408 19.3608 33.3359 19.2803 33.2494 19.2178L30.7011 18.029C30.2998 17.7166 29.9571 17.3348 29.6891 16.9014L26.1472 21.2708C26.3378 21.5079 26.4881 21.775 26.5922 22.0613C26.723 22.4263 26.781 22.8136 26.7629 23.2011L34.6272 25.2969C34.5956 25.1475 34.5549 25.0001 34.5053 24.8557Z" fill="#939CA6"/>
<defs>
<linearGradient id="paint0_linear" x1="40.0652" y1="9.65792" x2="46.6371" y2="9.65792" gradientUnits="userSpaceOnUse">
<stop stop-color="#A9995D"/>
<stop offset="1" stop-color="#D9C393"/>
</linearGradient>
<linearGradient id="paint1_linear" x1="406.617" y1="267.024" x2="631.119" y2="267.024" gradientUnits="userSpaceOnUse">
<stop stop-color="#A9995D"/>
<stop offset="1" stop-color="#D9C393"/>
</linearGradient>
<linearGradient id="paint2_linear" x1="30.2683" y1="15.5409" x2="39.9077" y2="25.1304" gradientUnits="userSpaceOnUse">
<stop stop-color="#4B5A6B"/>
<stop offset="0.75" stop-color="#6D7987"/>
</linearGradient>
</defs>
</svg>
