<svg width="597" height="24" viewBox="0 0 597 24" fill="none" xmlns="http://www.w3.org/2000/svg">
<g clip-path="url(#clip0)">
<path d="M586.3 16.4C589.5 15.6 592.8 14.2 596.5 11.7C592.8 9.2 589.5 7.8 586.3 7V16.4Z" fill="white"/>
<path d="M0 10.2H538.4V6.4L533.6 3.8C530.7 2.3 527.6 2 524.6 3.1L513.7 7.1H0V10.2Z" fill="#A9995D"/>
<path d="M533.6 19.6L538.4 17V13.2H0V16.3H513.7L524.6 20.3C527.6 21.4 530.7 21.1 533.6 19.6Z" fill="#A9995D"/>
<path d="M578.2 6.20001H561.2V17.3H578.2C579.9 17.3 581.6 17.2 583.3 17V6.50001C581.6 6.20001 579.9 6.20001 578.2 6.20001Z" fill="white"/>
<path d="M558.2 6.2L538.7 0V1.1L546 7.1V9.5L541.4 8V15.4L546 13.9V16.3L538.7 22.3V23.4L558.2 17.2V6.2Z" fill="white"/>
</g>
<defs>
<clipPath id="clip0">
<rect width="596.5" height="23.4" fill="white"/>
</clipPath>
</defs>
</svg>
