<svg fill="none" height="1080" stroke="#141a1f" stroke-linejoin="round" stroke-miterlimit="10" stroke-width="2" width="1921" xmlns="http://www.w3.org/2000/svg"><path d="m657.6 534.7h-8.6v20.2h8.6zm228.2-13.8h-22.3v7h22.3zm16 0h-9v7h9zm29.5 0h-22.5v7h22.5zm-930.4-507.6h51.1c1.3 0 2.4 1.1 2.4 2.4v91.2c0 1.3-1.1 2.4-2.4 2.4h-51.1m110.3 4c12.371 0 22.4-10.029 22.4-22.4s-10.029-22.4-22.4-22.4-22.4 10.029-22.4 22.4 10.029 22.4 22.4 22.4z"/><path d="m111.2 125.7c19.22 0 34.8-15.581 34.8-34.8 0-19.22-15.58-34.8-34.8-34.8s-34.8 15.58-34.8 34.8c0 19.219 15.58 34.8 34.8 34.8zm664.1 143.1c12.372 0 22.4-10.029 22.4-22.4s-10.028-22.4-22.4-22.4c-12.371 0-22.4 10.029-22.4 22.4s10.029 22.4 22.4 22.4z"/><path d="m775.3 281.2c19.219 0 34.8-15.581 34.8-34.8 0-19.22-15.581-34.8-34.8-34.8-19.22 0-34.8 15.58-34.8 34.8 0 19.219 15.58 34.8 34.8 34.8zm-122.1 201.9c12.371 0 22.4-10.029 22.4-22.4s-10.029-22.4-22.4-22.4-22.4 10.029-22.4 22.4 10.029 22.4 22.4 22.4z"/><path d="m653.2 495.5c19.22 0 34.8-15.58 34.8-34.8 0-19.219-15.58-34.8-34.8-34.8-19.219 0-34.8 15.581-34.8 34.8 0 19.22 15.581 34.8 34.8 34.8zm-616.9-386.2v34.4c0 1.3 1.1 2.4 2.4 2.4h82.6c.6 0 1.3.3 1.7.7l25.5 25.5c.5.5.7 1.1.7 1.7v27m-123.8 0h-8.5v-19.4c0-1.3 1.1-2.4 2.4-2.4h3.7c1.3 0 2.4 1.1 2.4 2.4zm19.2 0h-8.6v-19.4c0-1.3 1.1-2.4 2.4-2.4h3.7c1.3 0 2.4 1.1 2.4 2.4v19.4zm19.1 0h-8.5v-19.4c0-1.3 1.1-2.4 2.4-2.4h3.7c1.3 0 2.4 1.1 2.4 2.4zm498.1-200.5v13.4c0 1.3-1.1 2.4-2.4 2.4h-3.7c-1.3 0-2.4-1.1-2.4-2.4v-13.4m-10.6 0v13.4c0 1.3-1.1 2.4-2.4 2.4h-3.7c-1.3 0-2.4-1.1-2.4-2.4v-13.4m-10.6 0v13.4c0 1.3-1.1 2.4-2.4 2.4h-3.7c-1.3 0-2.4-1.1-2.4-2.4v-13.4m-360.1 34.8c0 1.3-1.1 2.4-2.4 2.4h-82.7c-1.3 0-2.4-1.1-2.4-2.4v-19.6c0-1.3 1.1-2.4 2.4-2.4h82.7c1.3 0 2.4 1.1 2.4 2.4zm-111.8-6.8a4.1 4.1 0 1 0 0-8.2 4.1 4.1 0 0 0 0 8.2zm0 73.8a4.1 4.1 0 1 0 0-8.2 4.1 4.1 0 0 0 0 8.2zm201.1-20.9a4.1 4.1 0 1 0 0-8.2 4.1 4.1 0 0 0 0 8.2zm-40.5 135.2a4.1 4.1 0 1 0 0-8.2 4.1 4.1 0 0 0 0 8.2zm0 26.5a4.1 4.1 0 1 0 0-8.2 4.1 4.1 0 0 0 0 8.2zm94.5-26.5a4.1 4.1 0 1 0 0-8.2 4.1 4.1 0 0 0 0 8.2zm0 26.5a4.1 4.1 0 1 0 0-8.2 4.1 4.1 0 0 0 0 8.2zm-86.4 89.1a4.1 4.1 0 1 0 0-8.2 4.1 4.1 0 0 0 0 8.2zm0 14.3a4.1 4.1 0 1 0 0-8.2 4.1 4.1 0 0 0 0 8.2zm0 36.1a4.1 4.1 0 1 0 0-8.2 4.1 4.1 0 0 0 0 8.2zm0 14.3a4.1 4.1 0 1 0 0-8.2 4.1 4.1 0 0 0 0 8.2zm-31 26a4.1 4.1 0 1 0 0-8.2 4.1 4.1 0 0 0 0 8.2zm0 83.8a4.1 4.1 0 1 0 0-8.2 4.1 4.1 0 0 0 0 8.2zm151 23.4a4.1 4.1 0 1 0 0-8.2 4.1 4.1 0 0 0 0 8.2zm0 107.3a4.1 4.1 0 1 0 0-8.2 4.1 4.1 0 0 0 0 8.2zm-320.5-214.5a4.1 4.1 0 1 0 0-8.2 4.1 4.1 0 0 0 0 8.2zm169.5 214.5a4.1 4.1 0 1 0 0-8.2 4.1 4.1 0 0 0 0 8.2zm-169.5 0a4.1 4.1 0 1 0 0-8.2 4.1 4.1 0 0 0 0 8.2zm385.9-473.1a4.1 4.1 0 1 0 0-8.2 4.1 4.1 0 0 0 0 8.2zm0 26.5a4.1 4.1 0 1 0 0-8.2 4.1 4.1 0 0 0 0 8.2zm73.6-26.5a4.1 4.1 0 1 0 0-8.2 4.1 4.1 0 0 0 0 8.2zm644.5 484.1c2.26 0 4.1-1.836 4.1-4.1s-1.84-4.1-4.1-4.1-4.1 1.836-4.1 4.1 1.84 4.1 4.1 4.1zm0-37.9c2.26 0 4.1-1.836 4.1-4.1s-1.84-4.1-4.1-4.1-4.1 1.836-4.1 4.1 1.84 4.1 4.1 4.1zm79 37.9c2.26 0 4.1-1.836 4.1-4.1s-1.84-4.1-4.1-4.1-4.1 1.836-4.1 4.1 1.84 4.1 4.1 4.1zm0-37.9c2.26 0 4.1-1.836 4.1-4.1s-1.84-4.1-4.1-4.1-4.1 1.836-4.1 4.1 1.84 4.1 4.1 4.1zm-920.9-529.1a4.1 4.1 0 1 0 0-8.2 4.1 4.1 0 0 0 0 8.2zm505.9 82.6a4.1 4.1 0 1 0 0-8.2 4.1 4.1 0 0 0 0 8.2zm-28.4 0a4.1 4.1 0 1 0 0-8.2 4.1 4.1 0 0 0 0 8.2zm-98.9 48.7a4.1 4.1 0 1 0 0-8.2 4.1 4.1 0 0 0 0 8.2zm0-48.7a4.1 4.1 0 1 0 0-8.2 4.1 4.1 0 0 0 0 8.2zm197.2 0a4.1 4.1 0 1 0 0-8.2 4.1 4.1 0 0 0 0 8.2zm-530.1-82.6a4.1 4.1 0 1 0 0-8.2 4.1 4.1 0 0 0 0 8.2z"/><path d="m148.7 20.5h-22.3v10h22.3zm-17.6 10v-4.3m4.3 4.3v-5.6m4.4 5.6v-4.9m4.3 4.9v-7.6m-143.2 178.1h191.7v-107.7c0-1.3 1.1-2.4 2.4-2.4h136.5c1.3 0 2.4-1.1 2.4-2.4v-20.5c0-.6.3-1.2.7-1.7l29-29.3c.4-.5.7-1.1.7-1.7v-35.3"/><path d="m229.6 0v36.7c0 .6.3 1.3.7 1.7l27.9 27.9c.5.5.7 1.1.7 1.7v22.9m15.2-90.9c0 12.6 10.2 22.9 22.9 22.9s22.8-10.3 22.8-22.9"/><path d="m258.7 0c0 13.1 6.6 24.7 16.6 31.5v13.9h6.1v-7.7h5.8v4.3h19.4v-4.3h5.8v7.7h6.1v-13.9c10-6.9 16.6-18.4 16.6-31.5"/><path d="m287.3 37.7h-5.8v13.3h5.8zm25.1 0h-5.8v13.3h5.8z"/><path d="m306.6 42.1h-19.4v4.7h19.4zm-273.324 301.684v-5.8h-13.3v5.8zm-.016 25.184v-5.8h-13.3v5.8z"/><path d="m28.969 363.176v-19.4h-4.7v19.4zm335.231-352.876h-14.6v14.6h14.6zm-10.1 5.1h5.7m-5.7 4.3h5.7m-106.3 8.3h-12.3l6.1-6.2zm0-9.8h-12.3l6.1-6.1zm0 19.5h-12.3l6.1-6.1zm173.5 551.1v-17.9l9 9zm-210.8-532.4c0 1.3-1.1 2.4-2.4 2.4h-19.1c-1.3 0-2.4-1.1-2.4-2.4v-40.7c0-1.3 1.1-2.4 2.4-2.4h19.1c1.3 0 2.4 1.1 2.4 2.4z"/><path d="m192.3 20.5h12v21.6l12.3 12.2m-12.3-18.1 12.3 12.3m-12.3-18.3 12.3 12.3m-13.6 5.6h-5.7v5.7h5.7zm-10.5 110.1h-25.9c-1.3 0-2.4-1.1-2.4-2.4v-7.5c0-1.3 1.1-2.4 2.4-2.4h25.9zm117 42.8h-117v49.4h117zm-45.4-20.2h-10v20.1h10zm24.7-89.9v12.2c0 4.1-3.3 7.4-7.4 7.4h-10c-9.6 0-17.4 7.8-17.4 17.4v46.7h10v-46.7c0-4.1 3.3-7.4 7.4-7.4h10c9.6 0 17.4-7.8 17.4-17.4v-12.2zm-58.8 61.1c4.1 0 7.4 3.3 7.4 7.4v15.2h10v-15.2c0-9.6-7.8-17.4-17.4-17.4h-10c-4.1 0-7.4-3.3-7.4-7.4v-43.7h-10v43.8c0 9.6 7.8 17.4 17.4 17.4h10zm17.3 28.8h-10v20.1h10z"/><path d="m268.6 174.6h-35.7v6.3h35.7zm164.4 157.6c0 4.1-3.3 7.4-7.4 7.4h-27.2v10h27.2c9.6 0 17.4-7.8 17.4-17.4v-5c0-4.1 3.3-7.4 7.4-7.4h33.8v-10h-33.8c-9.6 0-17.4 7.8-17.4 17.4zm-40.9 7.4h-18.1v10h18.1z"/><path d="m398.49 370.854v-35.7h-6.3v35.7zm-164.09-238.554c6.076 0 11-4.925 11-11s-4.924-11-11-11c-6.075 0-11 4.925-11 11s4.925 11 11 11zm-10-6.3h19.9m-8.7-5.6 4.2-3.4"/><path d="m234.4 122.8a1.5 1.5 0 1 0 0-3 1.5 1.5 0 0 0 0 3z"/><path d="m223.4 102.1v19.2c0-6.1 4.9-11 11-11s11 4.9 11 11v-19.2z"/><path d="m231.9 90.9h-5v11.2h5zm9.901 0h-5v11.2h5zm-13.101 15.6h11.5m224.6 244.1c6.075 0 11-4.925 11-11s-4.925-11-11-11-11 4.925-11 11 4.925 11 11 11zm-10-6.3h19.9"/><path d="m464.8 341.1a1.5 1.5 0 1 0 -.001-3.001 1.5 1.5 0 0 0 .001 3.001zm-.5-3-1.5-5.2m603.4-141.7c7.46 0 13.5-6.044 13.5-13.5s-6.04-13.5-13.5-13.5-13.5 6.044-13.5 13.5 6.04 13.5 13.5 13.5zm-12.3-7.7h24.4"/><path d="m1066.2 179.6a1.9 1.9 0 1 0 0-3.8 1.9 1.9 0 0 0 0 3.8zm-.6-3.7-1.9-6.4m-1021.4 835.1c10.383 0 18.8-8.417 18.8-18.8s-8.417-18.8-18.8-18.8-18.8 8.417-18.8 18.8 8.417 18.8 18.8 18.8zm-17-10.8h33.8"/><path d="m42.3 988.4a2.6 2.6 0 1 0 0-5.2 2.6 2.6 0 0 0 0 5.2zm-.7-5.1-2.7-8.9m57.4 30.2c10.383 0 18.8-8.417 18.8-18.8s-8.417-18.8-18.8-18.8-18.8 8.417-18.8 18.8 8.417 18.8 18.8 18.8zm-17-10.8h33.8"/><path d="m96.3 988.4a2.6 2.6 0 1 0 0-5.2 2.6 2.6 0 0 0 0 5.2zm1.8-4.5 6.6-6.5m45.5 27.2c10.383 0 18.8-8.417 18.8-18.8s-8.417-18.8-18.8-18.8-18.8 8.417-18.8 18.8 8.417 18.8 18.8 18.8zm-17-10.8h33.8"/><path d="m150.201 988.4a2.6 2.6 0 1 0 0-5.2 2.6 2.6 0 0 0 0 5.2zm-2.401-3.7-8.4-3.8m213.554-593.177h5v-11.2h-5zm0-43.257h5v-11.2h-5zm-27.416 43.257h5v-11.2h-5zm0-43.257h5v-11.2h-5zm16.263 55.434c6.2 0 11.1-5 11.1-11.1v-56.5c0-6.2-5-11.1-11.1-11.1s-11.1 5-11.1 11.1v56.5c-.1 6.1 4.9 11.1 11.1 11.1z"/><path d="m330.667 339.512h22.3v-6.3h-22.3zm0 48.265h22.3v-6.3h-22.3zm-330.667 175.323h86c10.6 0 19.3-8.6 19.3-19.3 0-10.6-8.6-19.3-19.3-19.3h-86"/><path d="m56.365 524.444v38.6h13.8v-38.6zm-56.365 86.956h86c10.6 0 19.3-8.6 19.3-19.3 0-10.6-8.6-19.3-19.3-19.3h-86"/><path d="m56.322 572.787v38.6h13.8v-38.6zm249.357-392.023h5v-11.2h-5zm0-29.257h5v-11.2h-5zm-27.416 29.257h5v-11.2h-5zm0-29.257h5v-11.2h-5zm16.236 41.493c6.2 0 11.1-5 11.1-11.1v-42.5c0-6.2-5-11.1-11.1-11.1s-11.1 5-11.1 11.1v42.5c0 6.1 4.9 11.1 11.1 11.1z"/><path d="m283.292 146.553h22.3v-6.3h-22.3zm0 34.265h22.3v-6.3h-22.3zm26.408-89.918v26.6c0 .7.3 1.4.9 1.9l23.6 18.6c.6.5.9 1.2.9 1.9v61.1h48.9v-201m-56.6 276.6-12 23.2h8.9l12-23.2zm17.7 0-12 23.2h8.9l12-23.2zm17.7 0-12 23.2h8.9l12-23.2zm17.7 0-12 23.2h8.9l12-23.2zm17.7 0-12 23.2h8.9l12-23.2zm-3.3-52.3 12-23.3h-8.9l-12 23.3z"/><path d="m377.2 224.3 12-23.3h-8.9l-12 23.3zm-17.7 0 12-23.3h-8.9l-12 23.3zm-17.7 0 12-23.3h-8.9l-12 23.3zm-17.7 0 12-23.3h-8.9l-12 23.3z"/><path d="m412.8 223.9-.2.4h-8.9l9.1-17.5v-5.8h-103.3 8.9l-8.9 17.2v58.7l.2-.3h8.9l-9.1 17.5v5.7h94.4l8.9-17.1z"/><path d="m309.7 276.6-.2.3v17.2l9.1-17.5zm94.2 23.2h8.9v-17.1zm8.7-75.5.2-.4v-17.1l-9.1 17.5zm-103.1-23.3v17.2l8.9-17.2zm-87.2 336-30-15.2v11.2l30 15.2zm0 22.4-30-15.2v11.2l30 15.2zm0 22.4-30-15.2v11.2l30 15.2zm0 22.4-30-15.2v11.2l30 15.2zm0 22.4-30-15.2v11.2l30 15.2zm67.5-4.2 29.9 15.2v-11.2l-29.9-15.2zm0-22.4 29.9 15.2v-11.2l-29.9-15.2zm0-22.4 29.9 15.2v-11.2l-29.9-15.2zm0-22.4 29.9 15.2v-11.2l-29.9-15.2zm0-22.4 29.9 15.2v-11.2l-29.9-15.2z"/><path d="m290.2 645.1-.4-.3v-11.2l22.5 11.5h7.5v-130.7h-.1v11.2l-22.1-11.2h-75.8l.5.2v11.2l-22.6-11.4h-7.4v119.4l22.1 11.3z"/><path d="m222.3 514.6-.5-.2h-22.1l22.6 11.4zm-30 119.2v11.3h22.1zm97.5 11 .4.3h22.1l-22.5-11.5zm29.9-130.4h-22.1l22.1 11.2zm462.399-390.6-11.4 22.1h8.4l11.5-22.1zm16.901 0-11.5 22.1h8.5l11.4-22.1zm16.899 0-11.5 22.1h8.5l11.4-22.1zm16.801 0-11.4 22.1h8.4l11.5-22.1zm16.899 0-11.4 22.1h8.4l11.5-22.1zm-3.199-29.9 11.5-22.2h-8.5l-11.4 22.2zm-16.8 0 11.4-22.2h-8.4l-11.5 22.2zm-16.9 0 11.4-22.2h-8.4l-11.4 22.2zm-16.901 0 11.5-22.2h-8.5l-11.4 22.2zm-16.899 0 11.5-22.2h-8.5l-11.4 22.2z"/><path d="m863.5 93.6-.2.3h-8.4l8.6-16.7v-5.5h-98.4 8.4l-8.4 16.4v36l.1-.3h8.5l-8.6 16.7v5.4h89.9l8.5-16.3z"/><path d="m765.2 123.8-.1.3v16.4l8.6-16.7zm89.8 22.1h8.5v-16.3zm8.299-52 .2-.3v-16.4l-8.6 16.7zm-98.199-22.2v16.4l8.4-16.4zm215.9 974.8 19.5-37.8h-14.3l-19.5 37.8zm-28.7 0 19.5-37.8h-14.4l-19.5 37.8zm-28.799 0 19.5-37.8h-14.4l-19.5 37.8zm-28.701 0 19.5-37.8h-14.4l-19.5 37.8zm-28.799 0 19.5-37.8h-14.4l-19.5 37.8zm-138.4-37.8-19.5 37.8h14.4l19.5-37.8z"/><path d="m866.001 1046.5 19.5-37.8h-14.4l-19.5 37.8zm-28.701 0 19.5-37.8h-14.4l-19.5 37.8zm-28.799 0 19.5-37.8h-14.4l-19.5 37.8zm-28.701 0 19.4-37.8h-14.3l-19.5 37.8zm-28.799 0 19.5-37.8h-14.4l-19.5 37.8zm-138.4-37.8-19.5 37.8h14.4l19.5-37.8zm28.7 0-19.5 37.8h14.4l19.5-37.8zm28.8 0-19.5 37.8h14.4l19.5-37.8zm28.699 0-19.4 37.8h14.3l19.5-37.8zm28.801 0-19.5 37.8h14.4l19.5-37.8zm-140.201 0v21l10.8-21zm418.8 16.8-10.8 21h10.8zm-1005.3-725.7h191.4v107.3h-191.4m308.6-107.3h-308.6m177.5-55.4h-41v41h41zm-33.7 7.3 8.6 8.6m9.1 9.1 8.6 8.6m0-26.3-8.6 8.6m-9.1 9.1-8.6 8.6m-89.7-1.3c-1.5 1.8-1.8 4.4-.8 6.5 1 2.2 3.2 3.5 5.6 3.5h58.6c3.4 0 6.2-2.8 6.2-6.2v-60.4c0-3.4-2.8-6.2-6.2-6.2h-8.9c-1.8 0-3.6.8-4.8 2.2zm27-52.5c1.5-1.8 1.8-4.4.8-6.5s-3.2-3.5-5.6-3.5h-58.6c-3.4 0-6.2 2.8-6.2 6.2v60.4c0 3.4 2.8 6.2 6.2 6.2h8.9c1.8 0 3.6-.8 4.8-2.2zm325.8-164.7c-1.8-1.5-4.4-1.8-6.5-.8-2.2 1-3.5 3.2-3.5 5.6v58.6c0 3.4 2.8 6.2 6.2 6.2h60.4c3.4 0 6.2-2.8 6.2-6.2v-8.9c0-1.8-.8-3.6-2.2-4.8zm52.5 27c1.8 1.5 4.4 1.8 6.5.8s3.5-3.2 3.5-5.6v-58.6c0-3.4-2.8-6.2-6.2-6.2h-60.4c-3.4 0-6.2 2.8-6.2 6.2v8.9c0 1.8.8 3.6 2.2 4.8zm294.599 299.5c-2.9-2.4-6.9-2.9-10.2-1.3s-5.5 5-5.5 8.7v91.7c0 5.3 4.3 9.6 9.6 9.6h94.4c5.3 0 9.6-4.3 9.6-9.6v-14c0-2.9-1.3-5.6-3.5-7.4zm82.101 42.2c2.9 2.4 6.9 2.9 10.2 1.3s5.5-5 5.5-8.7v-91.7c0-5.3-4.3-9.6-9.6-9.6h-94.4c-5.3 0-9.6 4.3-9.6 9.6v14c0 2.9 1.3 5.6 3.5 7.4zm133.6-42.2c2.9-2.4 6.9-2.9 10.2-1.3s5.5 5 5.5 8.7v91.7c0 5.3-4.3 9.6-9.6 9.6h-94.4c-5.3 0-9.6-4.3-9.6-9.6v-14c0-2.9 1.3-5.6 3.5-7.4zm-82.1 42.2c-2.9 2.4-6.9 2.9-10.2 1.3s-5.5-5-5.5-8.7v-91.7c0-5.3 4.3-9.6 9.6-9.6h94.4c5.3 0 9.6 4.3 9.6 9.6v14c0 2.9-1.3 5.6-3.5 7.4zm-718.4-214.1h-32.7v18h32.7zm8.3 0h-8.3v18h8.3z"/><path d="m146.8 218.2h-4.6v9.1h4.6zm9.2 0h-4.6v9.1h4.6zm9.201 0h-4.6v9.1h4.6z"/><path d="m146.8 223.6h-4.6v3.7h4.6zm9.2 0h-4.6v3.7h4.6zm9.201 0h-4.6v3.7h4.6zm-94.201 152.8c12.647 0 22.9-10.253 22.9-22.9s-10.253-22.9-22.9-22.9c-12.648 0-22.9 10.253-22.9 22.9s10.252 22.9 22.9 22.9z"/><path d="m101 363.4v-19.9h6.9c-4.4-16.3-19.3-28.3-36.9-28.3-13.1 0-24.7 6.6-31.5 16.6h-14v6.1h7.7v5.8h-4.3v19.4h4.3v5.8h-7.7v6.1h13.9c6.9 10 18.5 16.6 31.5 16.6 17.7 0 32.5-12 36.9-28.3h-6.8z"/><path d="m93.4 356.2h-14v-5.5h14m23-7.2h-15.4v19.7h15.4zm150.193 532.391h6.3v-14.4h-6.3zm-27.153 0h6.3v-14.4h-6.3z"/><path d="m245.716 871.191h20.9v-5h-20.9zm10.484 70.009c13.641 0 24.7-11.059 24.7-24.7s-11.059-24.7-24.7-24.7-24.7 11.059-24.7 24.7 11.059 24.7 24.7 24.7z"/><path d="m245.4 963.9h21.5v-7.5c17.6-4.7 30.5-20.8 30.5-39.8 0-14.1-7.1-26.6-17.9-34v-15h-6.6v8.3h-6.3v-4.7h-20.9v4.7h-6.3v-8.3h-6.6v15c-10.8 7.4-17.9 19.9-17.9 34 0 19.1 12.9 35.1 30.5 39.8z"/><path d="m253.2 940.8v-15.2h5.9v15.2m711.047-662.55v-18h-7.7v18zm21.753 4.15c7.29 0 13.2-5.91 13.2-13.2s-5.91-13.2-13.2-13.2-13.2 5.91-13.2 13.2 5.91 13.2 13.2 13.2z"/><path d="m1009.3 275v-11.5h4c-2.5-9.4-11.1-16.4-21.4-16.4-7.6 0-14.3 3.8-18.3 9.6h-8v3.5h4.5v17.9h-4.5v3.5h8c4 5.8 10.7 9.6 18.3 9.6 10.2 0 18.8-6.9 21.4-16.4h-4z"/><path d="m1004.9 271.8h-13v-5.1h13m13.3-3.3h-8.9v11.4h8.9zm-468.246 328.518v7.4h16.9v-7.4zm.056-31.955v7.4h16.9v-7.4z"/><path d="m555.531 567.441v24.6h5.9v-24.6zm-53.431 41.259c16.016 0 29-12.984 29-29s-12.984-29-29-29c-16.017 0-29 12.984-29 29s12.983 29 29 29z"/><path d="m464.1 567.1v25.3h-8.8c5.6 20.7 24.4 35.9 46.9 35.9 16.6 0 31.3-8.4 40-21.1h17.6v-7.8h-9.8v-7.4h5.5v-24.6h-5.5v-7.4h9.8v-7.8h-17.6c-8.7-12.7-23.4-21.1-40-21.1-22.4 0-41.3 15.2-46.9 35.9h8.8z"/><path d="m473.6 576.2h17.9v7h-17.9m-29.167 9.158h19.6v-25h-19.6zm1407.567-147.058h-27.6l13.8-13.8zm-27.6 25h27.6l-13.8 13.8zm66.15 2.671h11.3v-26.1h-11.3zm30.35-8.571h-19v-9.1h19m0 46.7c-24.7 0-44.7 20-44.7 44.7s20 44.7 44.7 44.7"/><path d="m1920.9 464.4h-19v8.5h-11.3v-15.1h-12v27.2c-19.6 13.5-32.5 36.1-32.5 61.7 0 34.6 23.5 63.6 55.3 72.2m8.7-28.3v-27.5h10.8m-1742.5-248.3h-41v10.1h41zm0 16.8h-41v10.1h41zm0 16.8h-41v10.1h41zm0 16.8h-41v10.1h41zm0 16.8h-41v10.1h41zm117.4-117.1h-34.2v20.4h34.2zm0 6.8h-34.2m34.2-6.8h-34.2m34.2 13.5h-34.2m34.2 6.8h-34.2m20.5.1v-20.5m6.9 20.5v-20.5m-13.7 20.5v-20.5m-6.9 20.5v-20.5m115.6-264.8v145.9h100.1v-145.9m-71.3 299.8h71.3v-153.9h-100.1m100.1 153.9h-291.8v214.5h291.8z"/><path d="m309.4 321.8h-86.7v26.9h86.7z"/><path d="m222.7 341.8h11.3c.6 0 1.1-.2 1.5-.6l7.4-7.4c.9-.9 2.2-.9 3.1 0l3.4 3.4c.9.9 2.2.9 3.1 0l1.6-1.6c.9-.9 2.2-.9 3.1 0l4.9 4.9c.9.9 2.2.9 3.1 0l10.1-10.1c.9-.9 2.2-.9 3.1 0l2.6 2.6c.9.9 2.2.9 3.1 0l1.9-1.9c.9-.9 2.2-.9 3.1 0l8 8c.4.4 1 .6 1.5.6h10.8m-7.1-13.8h3.7m-3.7 4.9h3.7m-3.7 4.9h3.7m-69.1 36.5h-13.5v26.9h13.5zm18.9 0h-13.5v26.9h13.5zm53.6 0h-48.1v26.9h48.1zm-48.1 20.6h48.1"/><path d="m285.4 390.3a2.3 2.3 0 1 0 0-4.6 2.3 2.3 0 0 0 0 4.6zm1.9-3.5 11.1-7.1m117.6 27.4h-42v-107.3h110.1v107.3h-58.1m212-261.2h-153.9v153.9h153.9z"/><path d="m561.1 278.5c30.707 0 55.6-24.893 55.6-55.6s-24.893-55.6-55.6-55.6-55.6 24.893-55.6 55.6 24.893 55.6 55.6 55.6z"/><path d="m561.1 262.2c21.705 0 39.3-17.595 39.3-39.3s-17.595-39.3-39.3-39.3-39.3 17.595-39.3 39.3 17.595 39.3 39.3 39.3zm49.8-45.3h-5.2v11.9h5.2zm-94.4 0h-5.2v11.9h5.2zm84.061 37.007-3.677-3.676-8.415 8.414 3.677 3.677zm-66.852-66.736-3.677-3.677-8.414 8.415 3.677 3.676zm-3.626 75.194 3.677-3.677-8.415-8.415-3.677 3.677zm66.709-66.825 3.677-3.676-8.415-8.415-3.677 3.677zm-35.692-16.24a3.8 3.8 0 1 0 0-7.6 3.8 3.8 0 0 0 0 7.6zm0 94.8a3.8 3.8 0 1 0 0-7.6 3.8 3.8 0 0 0 0 7.6zm-55.4-45.9h-10.7v-10.6h10.7m110.8 0h10.6v10.6h-10.6m11.5-63-9.2-9.3-5.6 5.7-4.8-4.9v18.9h18.8l-4.8-4.8zm-9.2 124.6 9.2-9.2-5.6-5.6 4.8-4.8h-18.8v18.8l4.8-4.8zm-124.5-9.2 9.2 9.2 5.6-5.6 4.9 4.8v-18.8h-18.9l4.8 4.8zm9.2-124.7-9.2 9.3 5.6 5.6-4.8 4.8h18.9v-18.9l-4.9 4.9zm1295.3 141c0 5.3-4.3 9.6-9.6 9.6h-164.6c-5.3 0-9.6-4.3-9.6-9.6v-174.2h183.9v174.2z"/><path d="m1706.8 281c36.67 0 66.4-29.728 66.4-66.4s-29.73-66.4-66.4-66.4-66.4 29.728-66.4 66.4 29.73 66.4 66.4 66.4z"/><path d="m1706.8 261.6c25.96 0 47-21.043 47-47s-21.04-47-47-47-47 21.043-47 47 21.04 47 47 47zm59.6-54.1h-6.2v14.2h6.2zm-112.9 0h-6.2v14.2h6.2zm100.4 44.124-4.38-4.384-10.04 10.041 4.38 4.384zm-79.78-79.806-4.38-4.384-10.04 10.041 4.38 4.384zm-4.29 89.815 4.38-4.384-10.04-10.041-4.38 4.384zm79.78-79.758 4.39-4.385-10.04-10.04-4.39 4.384zm-42.81-19.375a4.6 4.6 0 1 0 0-9.2 4.6 4.6 0 0 0 0 9.2zm0 113.4a4.6 4.6 0 1 0 -.001-9.201 4.6 4.6 0 0 0 .001 9.201zm-66.1-54.9h-12.8v-12.8h12.8m132.3 0h12.8v12.8h-12.8m13.8-75.4-11-11-6.7 6.7-5.7-5.7v22.5h22.5l-5.8-5.8zm-11 149 11-11-6.7-6.7 5.8-5.8h-22.5v22.5l5.7-5.7zm-148.7-11 11 11 6.7-6.7 5.7 5.7v-22.5h-22.5l5.8 5.8zm11-149-11 11 6.7 6.7-5.8 5.8h22.5v-22.5l-5.7 5.7zm-1637.2 510.5h191.6v192.5h-192.5"/><path d="m96.4 810.7c38.384 0 69.5-31.116 69.5-69.5s-31.116-69.5-69.5-69.5-69.5 31.116-69.5 69.5 31.116 69.5 69.5 69.5z"/><path d="m96.4 790.4c27.173 0 49.2-22.028 49.2-49.2s-22.027-49.2-49.2-49.2c-27.172 0-49.2 22.028-49.2 49.2s22.028 49.2 49.2 49.2zm7.426 13.101v-6.5h-14.9v6.5zm-.035-118.135v-6.5h-14.9v6.5zm-46.179 105.146 4.596-4.597-10.536-10.535-4.596 4.596zm83.464-83.515 4.596-4.596-10.536-10.536-4.596 4.597zm-94.006-4.577 4.597 4.596 10.536-10.535-4.596-4.597zm83.466 83.514 4.596 4.596 10.536-10.535-4.597-4.597zm25.164-39.934a4.8 4.8 0 1 0 0-9.6 4.8 4.8 0 0 0 0 9.6zm-118.7 0a4.8 4.8 0 1 0 0-9.6 4.8 4.8 0 0 0 0 9.6zm52.7-74.1v-13.3h13.3v13.3m0 138.6v13.3h-13.3v-13.3m78.9 14.4 11.5-11.5-7-7 6-6h-23.6v23.5l6.1-6zm-156-11.5 11.6 11.5 7-7 6 6v-23.5h-23.6l6 6zm11.6-155.7-11.6 11.5 7 7-6 6h23.6v-23.5l-6 6zm155.9 11.5-11.5-11.5-7 7-6.1-6v23.5h23.6l-6-6zm239.7 338.4h16.3v-9.9h8.5l-16.7-16.7-16.6 16.7h8.5zm708.2 27.2c41.97 0 76-34.03 76-76 0-41.974-34.03-76-76-76s-76 34.026-76 76c0 41.97 34.03 76 76 76z"/><path d="m1128 1012.6c29.71 0 53.8-24.087 53.8-53.8s-24.09-53.8-53.8-53.8-53.8 24.087-53.8 53.8 24.09 53.8 53.8 53.8zm-68.09-45.642h7.1v-16.3h-7.1zm129.14 0h7.1v-16.3h-7.1zm-114.9-50.591 5.02 5.021 11.52-11.526-5.02-5.02zm91.33 91.383 5.02 5.02 11.53-11.52-5.02-5.023zm4.95-102.841-5.02 5.02 11.52 11.526 5.02-5.021zm-91.34 91.284-5.02 5.017 11.53 11.53 5.02-5.02zm48.91 32.807c2.93 0 5.3-2.37 5.3-5.3s-2.37-5.3-5.3-5.3-5.3 2.37-5.3 5.3 2.37 5.3 5.3 5.3zm0-129.8c2.93 0 5.3-2.373 5.3-5.3s-2.37-5.3-5.3-5.3-5.3 2.373-5.3 5.3 2.37 5.3 5.3 5.3zm75.8 52.3h14.6v14.6h-14.6m-151.5 0h-14.6v-14.6h14.6m-15.8 86.2 12.6 12.6 7.7-7.6 6.5 6.5v-25.7h-25.7l6.6 6.6zm12.6-170.5-12.6 12.6 7.7 7.7-6.6 6.6h25.7v-25.8l-6.5 6.6zm170.3 12.6-12.6-12.6-7.7 7.7-6.6-6.6v25.8h25.8l-6.6-6.6zm-12.6 170.5 12.6-12.6-7.7-7.6 6.6-6.6h-25.8v25.7l6.6-6.5zm-568.8-827.5h81.1l46.1-45.6v-31.3m-281.1 261.2h235v-184.3m287.1 77h-287.1v214.5h287.1z"/><path d="m863.4 0v299.8h-144.3m-306.4 0h-38.7v14.2h38.7zm-20.6 56.6h-18.1v10h18.1zm79.8 30.7c-4.1 0-7.4-3.3-7.4-7.4v-6c0-9.6-7.8-17.4-17.4-17.4h-48.7v10h17.6v55.8h10v-55.8h21.1c4.1 0 7.4 3.3 7.4 7.4v6c0 9.6 7.8 17.4 17.4 17.4h12.2v-10zm115.5-68.1h-76.1v68.9h76.1z"/><path d="m528.1 319h-7.3v20.5h7.3zm16.6 0h-7.3v20.5h7.3zm16.3 48.3h-23.6v20.5h23.6zm.4-48.3h-7.3v20.5h7.3zm16.6 0h-7.3v20.5h7.3zm16.5 15h-7.1v14h7.1zm0 25.1h-7.1v14h7.1zm61.7-18.7c-2 2-4.6 3.1-7.4 3.1h-54.3v-5h54.3c1.5 0 2.9-.6 3.9-1.6l22.3-22.3c1-1 1.6-2.4 1.6-3.9v-24.2c0-5.8 4.7-10.5 10.5-10.5h32v5h-32c-3 0-5.5 2.5-5.5 5.5v24.2c0 2.8-1.1 5.5-3.1 7.4zm62.9 49h-42.9c-2.8 0-5.5-1.1-7.4-3.1l-16.1-16.1c-1-1-2.4-1.6-3.9-1.6h-54.3v-5h54.3c2.8 0 5.5 1.1 7.4 3.1l16.1 16.1c1 1 2.4 1.6 3.9 1.6h42.9zm-693.92 125.188h76.099v-68.9h-76.1v68.9z"/><path d="m84.403 514.621h7.3v-20.5h-7.3zm-16.603 0h7.3v-20.5h-7.3zm-16.292-48.366h23.6v-20.5h-23.6zm-.412 48.366h7.3v-20.5h-7.3zm-16.603 0h7.3v-20.5h-7.3zm-16.429-15.003h7.1v-14h-7.1zm0-25.133h7.1v-14h-7.1zm-17.164 15.615h17.1v5h-17.1m0-30.1h17.1v5h-17.1m702.9-231.6h-50.5v21.8h50.5zm15.3 90.2h-26v38.8h26zm-60.3-84.7h39.5m-39.5 5.5h39.5m-39.5 5.4h39.5m-60.3-168.9h7.7c-3.2-4.4-5.8-9.2-7.7-14.4zm109-68.4h-7.7c3.2 4.4 5.8 9.2 7.7 14.4zm-109 0v14.4c1.9-5.2 4.5-10.1 7.7-14.4zm109 68.4v-14.4c-1.9 5.2-4.5 10.1-7.7 14.4z"/><path d="m645.8 85.9h8c-8.1-9.1-13-21.1-13-34.2s4.9-25.1 13-34.2h-8c-3.2 4.4-5.8 9.2-7.7 14.4v39.5c1.8 5.3 4.4 10.1 7.7 14.5zm98.4-34.2c0 13.1-4.9 25.1-13 34.2h8c3.2-4.4 5.8-9.2 7.7-14.4v-39.6c-1.9-5.2-4.5-10.1-7.7-14.4h-8c8.1 9.1 13 21.1 13 34.2z"/><path d="m647 51.7c0-13.6 6-25.9 15.5-34.2h-8.8c-8.1 9.1-13 21.1-13 34.2s4.9 25.1 13 34.2h8.8c-9.5-8.3-15.5-20.6-15.5-34.2zm91 0c0 13.6-6 25.9-15.5 34.2h8.8c8.1-9.1 13-21.1 13-34.2s-4.9-25.1-13-34.2h-8.8c9.4 8.3 15.5 20.6 15.5 34.2z"/><path d="m738 51.7c0-13.6-6-25.9-15.5-34.2h-10.7c11.9 6.7 20 19.5 20 34.2s-8.1 27.5-20 34.2h10.7c9.4-8.3 15.5-20.6 15.5-34.2zm-84.8 0c0-14.7 8.1-27.5 20-34.2h-10.7c-9.5 8.3-15.5 20.6-15.5 34.2s6 25.9 15.5 34.2h10.7c-11.9-6.7-20-19.5-20-34.2z"/><path d="m653.2 51.7c0 14.7 8.1 27.5 20 34.2h38.4c11.9-6.7 20-19.5 20-34.2s-8.1-27.5-20-34.2h-38.4c-11.9 6.7-20 19.5-20 34.2zm72.3 0c0 18.2-14.8 33-33 33s-33-14.8-33-33 14.8-33 33-33 33 14.8 33 33z"/><path d="m659.5 51.7c0 18.2 14.8 33 33 33s33-14.8 33-33-14.8-33-33-33-33 14.8-33 33z"/><path d="m713 51.7c0 11.4-9.2 20.6-20.6 20.6s-20.6-9.2-20.6-20.6 9.2-20.6 20.6-20.6 20.6 9.2 20.6 20.6zm52.1 20v-71.7m-99.4 92.6h-27.7v9.7h27.7zm40.7 0h-27.7v9.7h27.7zm40.6 0h-27.7v9.7h27.7zm-75.1-40.9h41.1m-20.5-24.7v49.4m-17.4-35.4h34.8m-34.8 21.4h34.8m686.7 691.7h9c-3.7-5.1-6.8-10.7-9-16.8zm126.4-79.4h-9c3.7 5.1 6.8 10.7 9 16.8zm-126.4 0v16.8c2.2-6 5.2-11.7 9-16.8zm126.4 79.4v-16.8c-2.2 6-5.2 11.7-9 16.8z"/><path d="m1414.9 674.7h-9.3c-3.7 5.1-6.8 10.7-9 16.8v45.9c2.2 6 5.2 11.7 9 16.8h9.3m89.9-.1h9.3c3.7-5.1 6.8-10.7 9-16.8v-45.9c-2.2-6-5.2-11.7-9-16.8h-9.3"/><path d="m1414.9 754.1h10.2c-11-9.7-18-23.9-18-39.7s7-30 18-39.7h-10.2m89.9 0h-10.2c11 9.7 18 23.9 18 39.7s-7 30-18 39.7h10.2"/><path d="m1482.1 754.1h12.4c11-9.7 18-23.9 18-39.7s-7-30-18-39.7h-12.4m-44.6 0h-12.4c-11 9.7-18 23.9-18 39.7s7 30 18 39.7h12.4m44.6-79.4h-44.6m0 79.4h44.6z"/><path d="m1497.5 707.3c-3.3-17.7-18.9-31.1-37.6-31.1-21.2 0-38.3 17.1-38.3 38.3s17.1 38.3 38.3 38.3c18.7 0 34.3-13.4 37.6-31.1"/><path d="m1476.7 731.3c-9.3 9.3-24.4 9.3-33.7 0s-9.3-24.4 0-33.7 24.4-9.3 33.7 0 9.3 24.4 0 33.7zm-48 30.5h-32.1v11.3h32.1zm47.2 0h-32.1v11.3h32.1zm47.1 0h-32.1v11.3h32.1zm-80-64.2 33.7 33.7m3.4-37.1-40.5 40.5m14.7-43.4 28.6 28.6m-46.2-11 28.6 28.6m-845-658.8h-121.7v53.4h121.7z"/><path d="m522.6 125.5a4.8 4.8 0 1 0 0-9.6 4.8 4.8 0 0 0 0 9.6zm24.599 0a4.8 4.8 0 1 0 0-9.6 4.8 4.8 0 0 0 0 9.6zm24.601 0a4.8 4.8 0 1 0 0-9.6 4.8 4.8 0 0 0 0 9.6zm24.6 0a4.8 4.8 0 1 0 0-9.6 4.8 4.8 0 0 0 0 9.6zm-73.8-15.3a4.8 4.8 0 1 0 0-9.6 4.8 4.8 0 0 0 0 9.6zm24.599 0a4.8 4.8 0 1 0 0-9.6 4.8 4.8 0 0 0 0 9.6zm24.601 0a4.8 4.8 0 1 0 0-9.6 4.8 4.8 0 0 0 0 9.6zm24.6 0a4.8 4.8 0 1 0 0-9.6 4.8 4.8 0 0 0 0 9.6zm-73.8-15.3a4.8 4.8 0 1 0 0-9.6 4.8 4.8 0 0 0 0 9.6zm24.599 0a4.8 4.8 0 1 0 0-9.6 4.8 4.8 0 0 0 0 9.6zm24.601 0a4.8 4.8 0 1 0 0-9.6 4.8 4.8 0 0 0 0 9.6zm24.6 0a4.8 4.8 0 1 0 0-9.6 4.8 4.8 0 0 0 0 9.6zm217.9-40.9c9.997 0 18.1-8.104 18.1-18.1s-8.103-18.1-18.1-18.1c-9.996 0-18.1 8.104-18.1 18.1s8.104 18.1 18.1 18.1z"/><path d="m814.3 42.3a6.4 6.4 0 1 0 0-12.8 6.4 6.4 0 0 0 0 12.8zm0-24.5v8.3m0 19.5v8.3m18-18h-8.3m-19.5 0h-8.3m603 844.3c10 0 18.1-8.104 18.1-18.1s-8.1-18.1-18.1-18.1-18.1 8.104-18.1 18.1 8.1 18.1 18.1 18.1z"/><path d="m1399.2 868.5c3.53 0 6.4-2.865 6.4-6.4s-2.87-6.4-6.4-6.4-6.4 2.865-6.4 6.4 2.87 6.4 6.4 6.4zm18.1-6.4h-8.3m-19.5 0h-8.3m18 18.1v-8.4m0-19.4v-8.4m-900.6-844v63.1h50.7l37.2-37.1h33.8v-26m-356.2 488.4h-37.5v-38.4c0-2.4 1.9-4.3 4.3-4.3h28.9c2.4 0 4.3 1.9 4.3 4.3zm55.3 0h-37.4v-38.4c0-2.4 1.9-4.3 4.3-4.3h28.9c2.4 0 4.3 1.9 4.3 4.3v38.4z"/><path d="m208.1 422.1v75.6h18.6v-47.7c0-2.4 1.9-4.3 4.3-4.3h28.9c2.4 0 4.3 1.9 4.3 4.3v47.8h17.8v-47.8c0-2.4 1.9-4.3 4.3-4.3h28.9c2.4 0 4.3 1.9 4.3 4.3v47.8h148.9v-75.6h-260.3zm27.9 23.6v42.7m9.4-42.7v42.7m9.3-42.7v42.7m36.6-42.7v42.7m9.4-42.7v42.7m9.4-42.7v42.7"/><path d="m446.5 459.3c0 2.4-1.9 4.3-4.3 4.3h-96.6c-2.4 0-4.3-1.9-4.3-4.3v-9.3c0-2.4 1.9-4.3 4.3-4.3h96.6c2.4 0 4.3 1.9 4.3 4.3zm272.6-52.2h-131.7v107.3h131.7zm-718.2 238h191.6v-238h-191.6m586.5 107.3v130.7h-267.6v-130.7"/><path d="m609.7 417.6h-8.6l-4.3 7.5 4.3 7.5h8.6l4.3-7.5zm95.7 0h-8.6l-4.3 7.5 4.3 7.5h8.6l4.3-7.5zm-95.7 71.3h-8.6l-4.3 7.5 4.3 7.4h8.6l4.3-7.4zm95.7 0h-8.6l-4.3 7.5 4.3 7.4h8.6l4.3-7.4z"/><path d="m605.4 428.9a3.8 3.8 0 1 0 0-7.6 3.8 3.8 0 0 0 0 7.6zm0 71.3a3.8 3.8 0 1 0 0-7.6 3.8 3.8 0 0 0 0 7.6zm-519.7-482.2h-8.6l-4.3 7.5 4.3 7.5h8.6l4.3-7.5z"/><path d="m81.4 29.3a3.8 3.8 0 1 0 0-7.6 3.8 3.8 0 0 0 0 7.6zm1501.5 585.3h-8.6l-4.3 7.4 4.3 7.5h8.6l4.4-7.5z"/><path d="m1578.6 625.8c2.1 0 3.8-1.701 3.8-3.8s-1.7-3.8-3.8-3.8-3.8 1.701-3.8 3.8 1.7 3.8 3.8 3.8zm-173.6-11.2h-8.7l-4.3 7.4 4.3 7.5h8.7l4.3-7.5z"/><path d="m1400.6 625.8c2.1 0 3.8-1.701 3.8-3.8s-1.7-3.8-3.8-3.8-3.8 1.701-3.8 3.8 1.7 3.8 3.8 3.8zm4.4-189.1h-8.7l-4.3 7.5 4.3 7.4h8.7l4.3-7.4z"/><path d="m1400.6 448c2.1 0 3.8-1.701 3.8-3.8s-1.7-3.8-3.8-3.8-3.8 1.701-3.8 3.8 1.7 3.8 3.8 3.8zm520.3 618.7h-125.1c-1.3 0-2.4-1.1-2.4-2.4v-91.2c0-1.3 1.1-2.4 2.4-2.4h125.1"/><path d="m1865.6 1041.1c12.37 0 22.4-10.03 22.4-22.4s-10.03-22.4-22.4-22.4-22.4 10.03-22.4 22.4 10.03 22.4 22.4 22.4z"/><path d="m1865.6 1053.5c19.22 0 34.8-15.58 34.8-34.8 0-19.219-15.58-34.8-34.8-34.8s-34.8 15.581-34.8 34.8c0 19.22 15.58 34.8 34.8 34.8zm-1491.799 26.5c0-12.4 10-22.4 22.4-22.4s22.4 10 22.4 22.4"/><path d="m361.4 1080c0-19.2 15.6-34.8 34.8-34.8s34.8 15.6 34.8 34.8m1380.4-109.3v-34.4c0-1.3-1.1-2.4-2.4-2.4h-82.6c-.6 0-1.3-.3-1.7-.7l-25.5-25.5c-.5-.5-.7-1.1-.7-1.7v-27m123.8 0h8.5v19.4c0 1.3-1.1 2.4-2.4 2.4h-3.7c-1.3 0-2.4-1.1-2.4-2.4zm-19.2 0h8.5v19.4c0 1.3-1.1 2.4-2.4 2.4h-3.7c-1.3 0-2.4-1.1-2.4-2.4zm-19.1 0h8.5v19.4c0 1.3-1.1 2.4-2.4 2.4h-3.7c-1.3 0-2.4-1.1-2.4-2.4zm137-151.2h-29.4c-1.3 0-2.4-1.1-2.4-2.4v-3.7c0-1.3 1.1-2.4 2.4-2.4h29.4m0-10.7h-29.4c-1.3 0-2.4-1.1-2.4-2.4v-3.7c0-1.3 1.1-2.4 2.4-2.4h29.4m0-10.6h-29.4c-1.3 0-2.4-1.1-2.4-2.4v-3.7c0-1.3 1.1-2.4 2.4-2.4h29.4m-116.5 378.7c2.26 0 4.1-1.84 4.1-4.1s-1.84-4.1-4.1-4.1-4.1 1.84-4.1 4.1 1.84 4.1 4.1 4.1zm0-73.8c2.26 0 4.1-1.836 4.1-4.1s-1.84-4.1-4.1-4.1-4.1 1.836-4.1 4.1 1.84 4.1 4.1 4.1zm-201.1 20.9c2.26 0 4.1-1.84 4.1-4.1s-1.84-4.1-4.1-4.1-4.1 1.84-4.1 4.1 1.84 4.1 4.1 4.1zm83.5-135.2c2.26 0 4.1-1.836 4.1-4.1s-1.84-4.1-4.1-4.1-4.1 1.836-4.1 4.1 1.84 4.1 4.1 4.1zm0-26.5c2.26 0 4.1-1.836 4.1-4.1s-1.84-4.1-4.1-4.1-4.1 1.836-4.1 4.1 1.84 4.1 4.1 4.1zm-137.5 26.5c2.26 0 4.1-1.836 4.1-4.1s-1.84-4.1-4.1-4.1-4.1 1.836-4.1 4.1 1.84 4.1 4.1 4.1zm0-26.5c2.26 0 4.1-1.836 4.1-4.1s-1.84-4.1-4.1-4.1-4.1 1.836-4.1 4.1 1.84 4.1 4.1 4.1zm160 26.5c2.26 0 4.1-1.836 4.1-4.1s-1.84-4.1-4.1-4.1-4.1 1.836-4.1 4.1 1.84 4.1 4.1 4.1zm0-26.5c2.26 0 4.1-1.836 4.1-4.1s-1.84-4.1-4.1-4.1-4.1 1.836-4.1 4.1 1.84 4.1 4.1 4.1zm-212.4 52.3c2.26 0 4.1-1.836 4.1-4.1s-1.84-4.1-4.1-4.1-4.1 1.836-4.1 4.1 1.84 4.1 4.1 4.1zm0 109.4c2.26 0 4.1-1.84 4.1-4.1s-1.84-4.1-4.1-4.1-4.1 1.84-4.1 4.1 1.84 4.1 4.1 4.1zm77.1 0c2.26 0 4.1-1.84 4.1-4.1s-1.84-4.1-4.1-4.1-4.1 1.84-4.1 4.1 1.84 4.1 4.1 4.1zm-45.6 0c2.26 0 4.1-1.84 4.1-4.1s-1.84-4.1-4.1-4.1-4.1 1.84-4.1 4.1 1.84 4.1 4.1 4.1z"/><path d="m1920.9 879h-265.7v107.7c0 1.3-1.1 2.4-2.4 2.4h-138.9v22.9c0 .6-.3 1.2-.7 1.7l-29.1 29.2c-.4.5-.7 1.1-.7 1.7v35.3"/><path d="m1618.1 1080v-36.7c0-.6-.3-1.3-.7-1.7l-27.9-27.9c-.5-.5-.7-1.1-.7-1.7v-22.9m-15.2 90.9c0-12.6-10.2-22.9-22.9-22.9s-22.9 10.2-22.9 22.9"/><path d="m1589 1080c0-13.1-6.6-24.7-16.6-31.5v-13.9h-6.1v7.7h-5.8v-4.3h-19.5v4.3h-5.8v-7.7h-6.1v13.9c-10 6.9-16.6 18.4-16.6 31.5"/><path d="m1560.45 1042.33h5.8v-13.3h-5.8zm-25.16 0h5.8v-13.3h-5.8z"/><path d="m1541.07 1037.93h19.4v-4.7h-19.4zm157.33-208.33h-160.3v49.4h160.3zm-104.8 49.4h-10v20.1h10zm-34.7 110.1v-15.2c0-4.1 3.3-7.4 7.4-7.4h10c9.6 0 17.4-7.8 17.4-17.4v-43.7h-10v43.7c0 4.1-3.3 7.4-7.4 7.4h-10c-9.6 0-17.4 7.8-17.4 17.4v15.2zm58.8-61.1c-4.1 0-7.4-3.3-7.4-7.4v-15.2h-10v15.2c0 9.6 7.8 17.4 17.4 17.4h10c4.1 0 7.4 3.3 7.4 7.4v43.8h10v-43.8c0-9.6-7.8-17.4-17.4-17.4zm-7.3-49h-10v20.1h10z"/><path d="m1579.13 905.39h35.7v-6.3h-35.7zm-37.23-6.19h-5v11.2h5zm0 29.2h-5v11.2h5zm27.4-29.2h-5v11.2h5zm0 29.2h-5v11.2h5zm-16.2-41.4c-6.2 0-11.1 5-11.1 11.1v42.5c0 6.2 5 11.1 11.1 11.1s11.1-5 11.1-11.1v-42.5c0-6.1-5-11.1-11.1-11.1z"/><path d="m1564.2 933.4h-22.3v6.3h22.3zm0-34.2h-22.3v6.3h22.3zm-240.52-133.992v-7.801h-17.5v7.801zm-45.73-.069v-7.8h-17.5v7.8zm45.74 42.879v-7.8h-17.5v7.8zm-45.73-.069v-7.8h-17.5v7.8zm-7.77-7.931v-34.799h-9.8v34.799z"/><path d="m1323.66 799.949v-34.8h-9.8v34.8zm-.02-105.481v-7.801h-17.5v7.801zm-45.73-.069v-7.8h-17.5v7.8zm45.74 42.879v-7.8h-17.5v7.8zm-45.73-.069v-7.8h-17.5v7.8zm-7.77-7.931v-34.799h-9.8v34.799z"/><path d="m1323.62 729.209v-34.8h-9.8v34.8zm196.68 84.191 12-23.2h-8.9l-12 23.2zm-17.7 0 12-23.2h-8.9l-12 23.2zm-17.7 0 12-23.2h-8.9l-12 23.2zm-17.7 0 12-23.2h-8.9l-12 23.2zm-17.7 0 12-23.2h-8.9l-12 23.2zm3.3 42.3-12 23.3h8.9l12-23.3zm17.7 0-12 23.3h8.9l12-23.3zm17.7 0-12 23.3h8.8l12-23.3zm17.7 0-12 23.3h8.8l12-23.3zm17.7 0-12 23.3h8.8l12-23.3z"/><path d="m1434.9 856.1.2-.4h8.9l-9.1 17.5v5.8h103.2-8.8l8.8-17.2v-48.7l-.1.3h-8.9l9-17.5v-5.7h-94.3l-8.9 17.1z"/><path d="m1538 813.4.1-.3v-17.2l-9 17.5zm-94.2-23.2h-8.9v17.1zm-8.7 65.5-.2.4v17.1l9.1-17.5zm103 23.3v-17.2l-8.8 17.2zm318.94 51.223h41v-41h-41zm33.66-7.323-8.6-8.6m-9.1-9.1-8.6-8.6m0 26.3 8.6-8.6m9.1-9.1 8.6-8.6m-450.8 123.9c1.8 1.5 4.4 1.8 6.5.8 2.2-1 3.5-3.2 3.5-5.6v-58.6c0-3.4-2.8-6.2-6.2-6.2h-60.4c-3.4 0-6.2 2.8-6.2 6.2v8.9c0 1.8.8 3.6 2.2 4.8zm-52.6-27c-1.8-1.5-4.4-1.8-6.5-.8-2.2 1-3.5 3.2-3.5 5.6v58.6c0 3.4 2.8 6.2 6.2 6.2h60.4c3.4 0 6.2-2.8 6.2-6.2v-8.9c0-1.8-.8-3.6-2.2-4.8zm478.03-33.014h32.7v-18h-32.7z"/><path d="m1857.04 960.486h8.3v-18h-8.3zm31.51-4.116h4.6v-9.1h-4.6zm-9.12 0h4.6v-9.1h-4.6zm-9.13 0h4.6v-9.1h-4.6z"/><path d="m1888.55 950.974h4.6v-3.7h-4.6zm-9.12 0h4.6v-3.7h-4.6zm-9.13 0h4.6v-3.7h-4.6zm-494.72-120.347h47.3v-28.2h-47.3zm.02-9.327h47.3m-47.3-9.3h47.3m-28.4-9.4v28.2m-9.4-28.2v28.2m18.9-28.2v28.2m9.4-28.2v28.2m138.41-785.68h47.3v-28.2h-47.3zm-.01-9.32h47.3m-47.3-9.3h47.3m-28.4-9.4v28.2m-9.4-28.2v28.2m18.9-28.2v28.2m9.4-28.2v28.2m-324.43 894.685h54.5v-32.5h-54.5zm.03-10.785h54.5m-54.5 10.7h54.5m-54.5-21.5h54.5m-54.5-10.7h54.5m-32.7-.1v32.5m-10.9-32.5v32.5m21.8-32.5v32.5m10.9-32.5v32.5m154.8 139.9v-145.9h-100.1v145.9m353.6-291.3c-2.6 3.2-3.1 7.5-1.4 11.2s5.5 6.1 9.6 6.1h100.7c5.8 0 10.6-4.7 10.6-10.6v-103.7c0-5.8-4.7-10.6-10.6-10.6h-15.4c-3.2 0-6.2 1.4-8.2 3.9zm46.3-90.2c2.6-3.2 3.1-7.5 1.4-11.2s-5.5-6.1-9.6-6.1h-100.7c-5.8 0-10.6 4.7-10.6 10.6v103.7c0 5.8 4.7 10.6 10.6 10.6h15.4c3.2 0 6.2-1.4 8.2-3.9z"/><path d="m1434.9 790.2h-71.4v143.9h100.1m273.2-17.3h13.9l6.9-12-6.9-12h-13.9l-6.9 12z"/><path d="m1743.7 910.9a6.1 6.1 0 0 0 6.1-6.1 6.1 6.1 0 0 0 -6.1-6.1 6.1 6.1 0 0 0 -6.1 6.1 6.1 6.1 0 0 0 6.1 6.1zm-1042.6-482a3.8 3.8 0 1 0 0-7.6 3.8 3.8 0 0 0 0 7.6zm0 71.3a3.8 3.8 0 1 0 0-7.6 3.8 3.8 0 0 0 0 7.6zm-508.8 14.2h-67.8v107.2h67.8z"/><path d="m182.9 532.9c0 2-1.6 3.6-3.6 3.6h-41.7c-2 0-3.6-1.6-3.6-3.6s1.6-3.6 3.6-3.6h41.7c2 0 3.6 1.6 3.6 3.6zm0 70.1c0 2-1.6 3.6-3.6 3.6h-41.7c-2 0-3.6-1.6-3.6-3.6s1.6-3.6 3.6-3.6h41.7c2 0 3.6 1.6 3.6 3.6zm0-14c0 2-1.6 3.6-3.6 3.6h-41.7c-2 0-3.6-1.6-3.6-3.6s1.6-3.6 3.6-3.6h41.7c2 0 3.6 1.6 3.6 3.6zm0-14c0 2-1.6 3.6-3.6 3.6h-41.7c-2 0-3.6-1.6-3.6-3.6s1.6-3.6 3.6-3.6h41.7c2-.1 3.6 1.6 3.6 3.6zm0-14c0 2-1.6 3.6-3.6 3.6h-41.7c-2 0-3.6-1.6-3.6-3.6s1.6-3.6 3.6-3.6h41.7c2-.1 3.6 1.6 3.6 3.6zm0-14.1c0 2-1.6 3.6-3.6 3.6h-41.7c-2 0-3.6-1.6-3.6-3.6s1.6-3.6 3.6-3.6h41.7c2 0 3.6 1.6 3.6 3.6zm301.2 98.2h-291.6v96.3h291.6z"/><path d="m192.5 1080v-338.7h127.3v338.7m267.6-565.6v130.7h-103.3v96.2h235v-226.9zm0 226.9h-267.6v286.3h267.6z"/><path d="m863 514.4h-144.4v226.9h144.4zm143.2 0h-142.7v142.7h142.7zm24.2-214.6h-167v-228.1h228.1v228.1h-24.3"/><path d="m863.5 741.3h228v-441.5h-24.3"/><path d="m1030.4 299.8h-24.2v357.3h-142.7m354.9-357.3h-126.9v282.7h126.9zm-212.1 780.2v-242.4h357.2v242.4m74.2-672.9h-219.3v250.6h396.5v-73.4zm483.2 0h-702.5v-107.3l77-77h100.1v-100.1h525.4m-306-122.7v122.7h-219.4v-122.7m118.4 1012v-133"/><path d="m1798.8 407.1h-361.1l177.2 177.2v73.4h183.9zm122.1 422.5h-306v-171.9h306m-588.3 209.1h-80.4v184h80.4z"/><path d="m1319.7 895.7c0 1.3-1.1 2.4-2.4 2.4h-49.7c-1.3 0-2.4-1.1-2.4-2.4v-11.9c0-1.3 1.1-2.4 2.4-2.4h49.7c1.3 0 2.4 1.1 2.4 2.4zm-43.6 138.8c0 1.3-1.1 2.4-2.4 2.4h-6.1c-1.3 0-2.4-1.1-2.4-2.4v-81.5c0-1.3 1.1-2.4 2.4-2.4h6.1c1.3 0 2.4 1.1 2.4 2.4zm21.8 0c0 1.3-1.1 2.4-2.4 2.4h-6.1c-1.3 0-2.4-1.1-2.4-2.4v-81.5c0-1.3 1.1-2.4 2.4-2.4h6.1c1.3 0 2.4 1.1 2.4 2.4zm21.8 0c0 1.3-1.1 2.4-2.4 2.4h-6.1c-1.3 0-2.4-1.1-2.4-2.4v-81.5c0-1.3 1.1-2.4 2.4-2.4h6.1c1.3 0 2.4 1.1 2.4 2.4zm-54.5-42.4h10.9m10.9 14.9h10.9m10.9-36.7h10.9"/><path d="m1277.8 890.6h-8.6v3.5h8.6zm12.6-3.8h-8.6v7.3h8.6zm12.7 1.8h-8.6v5.5h8.6zm12.6 2h-8.6v3.5h8.6zm518.24-674.899h54.5v-32.5h-54.5zm.06-10.801h54.5m-54.5 10.8h54.5m-54.5-21.5h54.5m-54.5-10.8h54.5m-32.7-.1v32.5m-10.9-32.5v32.5m21.8-32.5v32.5m10.9-32.5v32.5"/><path d="m1901.4 142.6h-80.4v164h80.4z"/><path d="m1888.5 171.4c0 1.3-1.1 2.4-2.4 2.4h-49.7c-1.3 0-2.4-1.1-2.4-2.4v-11.9c0-1.3 1.1-2.4 2.4-2.4h49.7c1.3 0 2.4 1.1 2.4 2.4zm-43.6 118.9c0 1.3-1.1 2.4-2.4 2.4h-6.1c-1.3 0-2.4-1.1-2.4-2.4v-61.5c0-1.3 1.1-2.4 2.4-2.4h6.1c1.3 0 2.4 1.1 2.4 2.4zm21.8 0c0 1.3-1.1 2.4-2.4 2.4h-6.1c-1.3 0-2.4-1.1-2.4-2.4v-61.5c0-1.3 1.1-2.4 2.4-2.4h6.1c1.3 0 2.4 1.1 2.4 2.4zm21.8 0c0 1.3-1.1 2.4-2.4 2.4h-6.1c-1.3 0-2.4-1.1-2.4-2.4v-61.5c0-1.3 1.1-2.4 2.4-2.4h6.1c1.3 0 2.4 1.1 2.4 2.4zm-54.5-22.4h10.9m10.9-25.1h10.9m10.9 33.3h10.9"/><path d="m1846.6 163.4h-8.6v6.5h8.6zm12.6 2.1h-8.6v4.3h8.6zm12.7.9h-8.6v3.5h8.6zm12.6-4h-8.6v7.5h8.6zm-521 465.7c0 5.3-4.3 9.6-9.6 9.6h-106c-5.3 0-9.6-4.3-9.6-9.6v-191.4c0-5.3 4.3-9.6 9.6-9.6h106c5.3 0 9.6 4.3 9.6 9.6zm69.1-198.2c-1.8-1.8-4.3-2.8-6.8-2.8h-32.6c-5.3 0-9.6 4.3-9.6 9.6v191.4c0 5.3 4.3 9.6 9.6 9.6h192.2c5.3 0 9.6-4.3 9.6-9.6v-31.8c0-2.6-1-5-2.8-6.8zm292.2 156.5h-84.9v45.7h84.9z"/><path d="m1717.3 594.7h-69.8v14.5h69.8zm47.8-154h-69.8v17.9h69.8zm0 51h-69.8v60.6h69.8zm-30.3 108.5h-10v18h10zm64 3.9h-64v10.2h64zm-151.32-27.777v10h18v-10z"/><path d="m1651.42 407.087v169.3h10.2v-169.3zm127.28 15.813h-97.2v143.5h97.2z"/><path d="m1701.5 500.6h-6.2v12.6h6.2zm0 30.4h-6.2v12.6h6.2zm46.9 2.6c6.35 0 11.5-5.149 11.5-11.5s-5.15-11.5-11.5-11.5-11.5 5.149-11.5 11.5 5.15 11.5 11.5 11.5z"/><path d="m1745.4 515.8v12.6h12.7a11.4 11.4 0 0 0 0-12.6zm-778.951 205.89v-6.2h-12.6v6.2zm-50.419.019v-6.2h-12.6v6.2zm-90.03-19.909c6.351 0 11.5-5.149 11.5-11.5s-5.149-11.5-11.5-11.5-11.5 5.149-11.5 11.5 5.149 11.5 11.5 11.5z"/><path d="m822.9 684v12.6h12.7a11.4 11.4 0 0 0 0-12.6zm640.7 215.2h-100.1v34.9h100.1zm133.4-224.5h-40.9v137.8h40.9z"/><path d="m1588.7 683h-24.4v9.4h24.4zm0 16h-24.4v9.4h24.4zm0 16h-24.4v9.4h24.4zm0 16h-24.4v9.4h24.4zm0 15.9h-24.4v9.4h24.4zm0 16h-24.4v9.4h24.4zm0 16h-24.4v9.4h24.4zm0 16h-24.4v9.4h24.4zm-90.6-73.2a7.3 7.3 0 1 0 -.002-14.602 7.3 7.3 0 0 0 .002 14.602zm422.8-95.1h-19v-14.1h19"/><path d="m1920.9 626.6h-19v-14.1h19m-1077.8-78.1h-103.6v65h103.6z"/><path d="m780.7 551.8 4.4 4.9h-10l-4.4-4.9zm0 18.8 4.4-4.9h-10l-4.4 4.9zm34-12.4c-1.4-.9-3-1.4-4.6-1.4h-35.1v8.9h35.1c1.6 0 3.3-.5 4.6-1.4l4.4-3zm-50 7.5v-9l5.9 3v3zm47.9-22.8h9.5m-9.5 3.9h9.5m-9.5 4h6.5m-69.9-7.9h9.5m-9.5 3.9h9.5m-9.5 4h6.5m38.1 21.8h13.9m-13.9 4h13.9m-13.9 3.9h7.9m-39.8 7.8h-17.4v6.1h17.4zm25.4 0h-17.4v6.1h17.4zm25.4 0h-17.4v6.1h17.4zm25.4 0h-17.4v6.1h17.4zm-28.4-27.1v-18.3m-18.9 37.6v-18.3m-44.6-19.3v18.3h13.7m83.2 46.8h-103.6v8.7h103.6zm-94.2 0v8.7m18.9-8.7v8.7m-9.5-8.7v8.7m28.3-8.7v8.7m-9.4-8.7v8.7m28.2-8.7v8.7m-9.4-8.7v8.7m18.8-8.7v8.7m18.9-8.7v8.7m-9.5-8.7v8.7m18.9 5.3h-103.6v8.7h103.6zm-94.2 0v8.7m18.9-8.7v8.7m-9.5-8.7v8.7m28.3-8.7v8.7m-9.4-8.7v8.7m28.2-8.7v8.7m-9.4-8.7v8.7m18.8-8.7v8.7m18.9-8.7v8.7m-9.5-8.7v8.7m162-31.3h-102.7v37.7h102.7z"/><path d="m932.8 608.3h-40.3v19.9h40.3z"/><path d="m892.5 618.2h5.2c.5 0 .9.3 1.2.7l1.9 3.7c.2.4.7.7 1.1.7.5 0 .9-.3 1.2-.7l3.3-6.2c.4-.7 1.1-1.2 1.9-1.2.8-.1 1.6.2 2.1.9l1.5 1.9c.2.3.6.5.9.5.4 0 .7-.1 1-.4l3.5-3.5c.3-.3.7-.4 1-.3.4.1.7.4.8.7l2.6 7.5c.1.4.5.7 1 .7.4 0 .9-.2 1.1-.6l1.2-2.3c.6-1.2 1.9-2 3.2-2h4.8m11.4-2.1a4 4 0 1 0 0-8 4 4 0 0 0 0 8zm14.8 0a4 4 0 1 0 0-8 4 4 0 0 0 0 8zm14.7 0a4 4 0 1 0 0-8 4 4 0 0 0 0 8zm-33.5 8.6h22.9m4.5 0h10.1m-10.1-4.3h-4.5v8.7h4.5zm18.6 16.6h-102.9v20h102.9zm-77.6-37.7h-7v-26.5l-15-15c-.7-.7-1-1.5-1-2.5v-41h7v39.6l15 15c.7.7 1 1.5 1 2.5zm32.4 0h-7v-47.4c0-1.9 1.6-3.5 3.5-3.5h33.7l13.6-13.6v-20.6h7v22.1c0 .9-.4 1.8-1 2.5l-15.6 15.6c-.7.7-1.5 1-2.5 1h-31.6v43.9z"/><path d="m934.2 565.1h-7.5v-22.2c0-1.9-1.6-3.5-3.5-3.5h-14.4v-25h-7v28.5c0 1.9 1.6 3.5 3.5 3.5h14.4v53h7v-27.3h7.5zm38.8 17.1-14.1-16c-.7-.8-1.6-1.2-2.6-1.2h-15v7h13.4l14.1 16c.7.8 1.6 1.2 2.6 1.2h34.8v-7zm-3-67.8h-38.6v20h38.6z"/><path d="m943.3 528.4a4 4 0 1 0 0-8 4 4 0 0 0 0 8zm14.8 0a4 4 0 1 0 0-8 4 4 0 0 0 0 8zm461.2-440.6h16.7m-16.7 4.8h16.7m-16.7 4.9h9.5m41.6-71.2h26.5m-26.5 4.8h26.5m-26.5 4.8h15.1m50.5-19.3h-124.6v89.4h124.6z"/><path d="m1507.8 66.6c2.93 0 5.3-2.373 5.3-5.3s-2.37-5.3-5.3-5.3-5.3 2.373-5.3 5.3 2.37 5.3 5.3 5.3zm-54 8.2c7.46 0 13.5-6.044 13.5-13.5s-6.04-13.5-13.5-13.5-13.5 6.044-13.5 13.5 6.04 13.5 13.5 13.5z"/><path d="m1467.3 61.3c0-28.2-36.6-28.2-36.6 0 0 12.8 10.4 23.1 23.1 23.1 5.7 0 10.9-2.1 15-5.5l31.4-26.6-.7.7c1.4-1.4 3.2-2.5 5.2-3 1-.3 2-.4 3.1-.4 6.5 0 11.8 5.3 11.8 11.8s-5.3 11.8-11.8 11.8"/><path d="m1504.3 76.4-3.6-1.2v-3.6l3.6-1.2zm-63.9-15.1h26.9m35.2 0h10.6m15.7-37.5h-24.2v14.5h24.2zm-53.5 65.7v9.2m4.4-5.4v5.4m4.4-5.4v5.4m4.3-5.4v5.4m8.8-5.4v5.4m4.4-5.4v5.4m4.3-5.4v5.4m8.8-5.4v5.4m4.4-5.4v5.4m4.4-5.4v5.4m-30.7-9.2v9.2m17.5-9.2v9.2m17.5-9.2v9.2m-436.3-98.7v299.8h126.9l77-77h100.1v-222.8m-553 639.3h-102v102h102zm143.9 35.2h-102.9v47.3h102.9z"/><path d="m952.8 684h-35.8v12.6h35.8zm-812.058 261.741v-8.7h-17.8v8.7zm-71.296-.004v-8.7h-17.8v8.7z"/><path d="m169 861h-145.5v84.9h145.5z"/><path d="m121.6 874.5h-50.7v17.8h50.7zm759.1-304c.4-.6 1-1 1.7-1s1.4.4 1.7 1l9.5 16.4c.4.6.4 1.4 0 2s-1 1-1.7 1h-18.9c-.7 0-1.4-.4-1.7-1-.4-.6-.4-1.4 0-2zm1.7 5.8v5.2m0 2v2.2m729.2 373c.4-.6 1-1 1.7-1s1.4.4 1.7 1l9.5 16.4c.4.6.4 1.4 0 2s-1 1-1.7 1h-18.9c-.7 0-1.4-.4-1.7-1-.4-.6-.4-1.4 0-2zm1.7 5.8v5.2m0 2v2.2m-564.4-402.5c-10.2 0-18.5 8.3-18.5 18.5 0 .7.1 1.4.1 2.1v149.3h36.8v-151.4c0-10.2-8.2-18.5-18.4-18.5z"/><path d="m1067.3 603.4h-36.9v14.2h36.9zm-36.89-240.512h36.9v-14.2h-36.9zm36.89 344.412h-36.9v14.2h36.9zm-18.4-152.3c10.22 0 18.5-8.283 18.5-18.5s-8.28-18.5-18.5-18.5-18.5 8.283-18.5 18.5 8.28 18.5 18.5 18.5z"/><path d="m1048.9 546.9c5.74 0 10.4-4.656 10.4-10.4s-4.66-10.4-10.4-10.4-10.4 4.656-10.4 10.4 4.66 10.4 10.4 10.4zm0-45.3c10.22 0 18.5-8.283 18.5-18.5s-8.28-18.5-18.5-18.5-18.5 8.283-18.5 18.5 8.28 18.5 18.5 18.5z"/><path d="m1048.9 493.5c5.74 0 10.4-4.656 10.4-10.4s-4.66-10.4-10.4-10.4-10.4 4.656-10.4 10.4 4.66 10.4 10.4 10.4zm0-45.2c10.22 0 18.5-8.283 18.5-18.5s-8.28-18.5-18.5-18.5-18.5 8.283-18.5 18.5 8.28 18.5 18.5 18.5z"/><path d="m1048.9 440.2c5.74 0 10.4-4.656 10.4-10.4s-4.66-10.4-10.4-10.4-10.4 4.656-10.4 10.4 4.66 10.4 10.4 10.4zm-42.7-325h-142.7v-10h140.7l16.4-16.4c.9-.9 2.2-1.5 3.5-1.5h67.4v10h-65.3l-16.4 16.4c-1 .9-2.2 1.5-3.6 1.5zm-113.1 59.1 23.3-23.3h89.9l10-10h-102c-1.3 0-2.6.5-3.5 1.5l-23.3 23.3h-24.1v10h26.1c1.4-.1 2.7-.6 3.6-1.5zm127.4-23.4h71v-10h-61zm46.8 148.9v-49.5c0-27-21.9-48.8-48.8-48.8h-155v36.9h155c6.6 0 11.9 5.3 11.9 11.9v126c0 10.2 8.3 18.5 18.5 18.5s18.5-8.3 18.5-18.5c0-.7-.1-1.4-.1-2.1z"/><path d="m938.4 238.4v21.7c0 2-1.6 3.6-3.6 3.6h-71.3v10h71.3c7.5 0 13.6-6.1 13.6-13.6v-21.7zm113.4-130.8c-1.3 0-2.6.5-3.5 1.5l-53.3 53.2h-43c-7.5 0-13.6 6.1-13.6 13.6v25.6h10v-25.6c0-2 1.6-3.6 3.6-3.6h45.1c1.3 0 2.6-.5 3.5-1.5l53.3-53.3h37.6v-10h-39.7zm-10.9 43.3v56c15.7 8.1 26.5 24.5 26.5 43.4v49.5h24.1v-148.9zm177.5 431.7h-126.5v74.5h-.4v84.2h-85.2v96.3h357.2v-180.5m-1128.7 385.4c-1.1 0-2.2.4-3 1.3-1.7 1.7-1.7 4.4 0 6.1.8.8 1.9 1.3 3 1.3s2.2-.4 3-1.3c1.7-1.7 1.7-4.4 0-6.1-.8-.9-1.8-1.3-3-1.3zm42.7-34.1c1.1 0 2.2-.4 3-1.3 1.7-1.7 1.7-4.4 0-6.1-.8-.8-1.9-1.3-3-1.3s-2.2.4-3 1.3c-.8.8-1.3 1.9-1.3 3s.4 2.2 1.3 3c.8.9 1.9 1.4 3 1.4zm-42.7 0c1.1 0 2.2-.4 3-1.3 1.7-1.7 1.7-4.4 0-6.1-.8-.8-1.9-1.3-3-1.3s-2.2.4-3 1.3c-1.7 1.7-1.7 4.4 0 6.1.8.8 1.9 1.3 3 1.3zm42.7 34.1c-1.1 0-2.2.4-3 1.3-.8.8-1.3 1.9-1.3 3s.4 2.2 1.3 3c.8.8 1.9 1.3 3 1.3s2.2-.4 3-1.3c1.7-1.7 1.7-4.4 0-6.1-.8-.8-1.9-1.2-3-1.2zm-51.5-21.4c-2.4 0-4.3 1.9-4.3 4.3s1.9 4.3 4.3 4.3 4.3-1.9 4.3-4.3c0-2.3-2-4.3-4.3-4.3zm60.3 8.6c2.375 0 4.3-1.93 4.3-4.3s-1.925-4.3-4.3-4.3-4.3 1.93-4.3 4.3 1.925 4.3 4.3 4.3zm-30.1-30.1a4.3 4.3 0 1 0 0-8.6 4.3 4.3 0 0 0 0 8.6zm0 60.3c2.375 0 4.3-1.93 4.3-4.3s-1.925-4.3-4.3-4.3c-2.374 0-4.3 1.93-4.3 4.3s1.926 4.3 4.3 4.3z"/><path d="m256.2 1066.7c22.81 0 41.3-18.49 41.3-41.3s-18.49-41.3-41.3-41.3c-22.809 0-41.3 18.49-41.3 41.3s18.491 41.3 41.3 41.3z"/><path d="m256.2 1045.2c10.936 0 19.8-8.86 19.8-19.8s-8.864-19.8-19.8-19.8c-10.935 0-19.8 8.86-19.8 19.8s8.865 19.8 19.8 19.8zm1429.3-966.8c-1.1 0-2.2.4-3 1.3-1.7 1.7-1.7 4.4 0 6.1.8.8 1.9 1.3 3 1.3s2.2-.4 3-1.3c1.7-1.7 1.7-4.4 0-6.1-.8-.9-1.8-1.3-3-1.3zm42.7-34.1c1.1 0 2.2-.4 3-1.3 1.7-1.7 1.7-4.4 0-6.1-.8-.8-1.9-1.3-3-1.3s-2.2.4-3 1.3c-.8.8-1.3 1.9-1.3 3s.4 2.2 1.3 3c.8.9 1.8 1.4 3 1.4zm-42.7 0c1.1 0 2.2-.4 3-1.3 1.7-1.7 1.7-4.4 0-6.1-.8-.8-1.9-1.3-3-1.3s-2.2.4-3 1.3c-1.7 1.7-1.7 4.4 0 6.1.8.8 1.9 1.3 3 1.3zm45.7 35.3c-.8-.8-1.9-1.3-3-1.3s-2.2.4-3 1.3c-.8.8-1.3 1.9-1.3 3s.4 2.2 1.3 3c.8.8 1.9 1.3 3 1.3s2.2-.4 3-1.3c1.7-1.6 1.7-4.3 0-6zm-54.5-22.6c-2.4 0-4.3 1.9-4.3 4.3s1.9 4.3 4.3 4.3 4.3-1.9 4.3-4.3c0-2.3-2-4.3-4.3-4.3zm60.3 8.6c2.38 0 4.3-1.925 4.3-4.3s-1.92-4.3-4.3-4.3c-2.37 0-4.3 1.925-4.3 4.3s1.93 4.3 4.3 4.3zm-30.2-30.2c2.37 0 4.3-1.925 4.3-4.3s-1.93-4.3-4.3-4.3-4.3 1.925-4.3 4.3 1.93 4.3 4.3 4.3zm0 60.4c2.37 0 4.3-1.925 4.3-4.3s-1.93-4.3-4.3-4.3-4.3 1.925-4.3 4.3 1.93 4.3 4.3 4.3z"/><path d="m1706.8 102.6c22.81 0 41.3-18.49 41.3-41.3s-18.49-41.3-41.3-41.3-41.3 18.49-41.3 41.3 18.49 41.3 41.3 41.3z"/><path d="m1706.8 81.1c10.94 0 19.8-8.865 19.8-19.8s-8.86-19.8-19.8-19.8-19.8 8.865-19.8 19.8 8.86 19.8 19.8 19.8zm-1492.3 635.3h-8.7l-4.3 7.5 4.3 7.4h8.7l4.3-7.4z"/><path d="m210.1 727.7a3.8 3.8 0 1 0 0-7.6 3.8 3.8 0 0 0 0 7.6zm260.7-11.3h-8.6l-4.3 7.5 4.3 7.4h8.6l4.3-7.4z"/><path d="m466.5 727.7a3.8 3.8 0 1 0 0-7.6 3.8 3.8 0 0 0 0 7.6zm-252-72.7h-8.7l-4.3 7.5 4.3 7.4h8.7l4.3-7.4z"/><path d="m210.1 666.3a3.8 3.8 0 1 0 0-7.6 3.8 3.8 0 0 0 0 7.6zm260.7-11.3h-8.6l-4.3 7.5 4.3 7.4h8.6l4.3-7.4z"/><path d="m466.5 666.3a3.8 3.8 0 1 0 0-7.6 3.8 3.8 0 0 0 0 7.6zm150.2 311.3h-9.9l-4.9 8.6 4.9 8.6h9.9l5-8.6z"/><path d="m611.8 990.6a4.4 4.4 0 1 0 0-8.8 4.4 4.4 0 0 0 0 8.8zm4.9-93.7h-9.9l-4.9 8.6 4.9 8.6h9.9l5-8.6z"/><path d="m611.8 909.9a4.4 4.4 0 1 0 0-8.8 4.4 4.4 0 0 0 0 8.8zm375.1 67.7h-10l-4.9 8.6 4.9 8.6h10l4.9-8.6z"/><path d="m981.9 990.6a4.4 4.4 0 1 0 0-8.8 4.4 4.4 0 0 0 0 8.8zm5-93.7h-10l-4.9 8.6 4.9 8.6h10l4.9-8.6z"/><path d="m981.9 909.9a4.4 4.4 0 1 0 0-8.8 4.4 4.4 0 0 0 0 8.8zm-180.1 67.7h-9.9l-5 8.6 5 8.6h9.9l5-8.6z"/><path d="m796.8 990.6a4.4 4.4 0 1 0 0-8.8 4.4 4.4 0 0 0 0 8.8zm5-93.7h-9.9l-5 8.6 5 8.6h9.9l5-8.6z"/><path d="m796.8 909.9a4.4 4.4 0 1 0 0-8.8 4.4 4.4 0 0 0 0 8.8zm-171.1-153.9h-22.1v81.6h22.1z"/><path d="m619.499 761.2h-9.8v10h9.8zm6.2 63.4h-11.3v6.1h11.3zm0-10.4h-11.3v6.1h11.3zm0-10.4h-11.3v6.1h11.3zm38.301-47.8h-22.1v81.6h22.1z"/><path d="m657.901 761.2h-9.8v10h9.8zm6.099 63.4h-11.3v6.1h11.3zm0-10.4h-11.3v6.1h11.3zm0-10.4h-11.3v6.1h11.3zm38.4-47.8h-22.1v81.6h22.1z"/><path d="m696.199 761.2h-9.8v10h9.8zm6.201 63.4h-11.3v6.1h11.3zm0-10.4h-11.3v6.1h11.3zm0-10.4h-11.3v6.1h11.3zm38.3-47.8h-22.1v81.6h22.1z"/><path d="m734.6 761.2h-9.8v10h9.8zm6.099 63.4h-11.3v6.1h11.3zm0-10.4h-11.3v6.1h11.3zm0-10.4h-11.3v6.1h11.3z"/><path d="m1006.3 741.3h-418.9v141.5h418.9z"/><path d="m1006.3 741.3h-247.6v96.3h247.6z"/><path d="m840.2 761.3c0 2.1-1.7 3.8-3.8 3.8h-56.4c-2.1 0-3.8-1.7-3.8-3.8s1.7-3.8 3.8-3.8h56.4c2-.1 3.8 1.6 3.8 3.8zm0 18.7c0 2.1-1.7 3.8-3.8 3.8h-56.4c-2.1 0-3.8-1.7-3.8-3.8s1.7-3.8 3.8-3.8h56.4c2 0 3.8 1.7 3.8 3.8zm0 18.8c0 2.1-1.7 3.8-3.8 3.8h-56.4c-2.1 0-3.8-1.7-3.8-3.8s1.7-3.8 3.8-3.8h56.4c2 0 3.8 1.7 3.8 3.8zm0 18.8c0 2.1-1.7 3.8-3.8 3.8h-56.4c-2.1 0-3.8-1.7-3.8-3.8s1.7-3.8 3.8-3.8h56.4c2-.1 3.8 1.7 3.8 3.8zm-538.6-18.5h-90.9v28.3h90.9z"/><path d="m269.3 804.4h-26.2v8.2h26.2zm-100.4 221.2h-145.2v31.3h145.2z"/><path d="m109.5 1032.9h-26.2v8.2h26.2zm192.1-272.8h-90.9v28.3h90.9z"/><path d="m269.3 765.4h-26.2v8.2h26.2zm954.3-603.2c-2.6-2.5-3.8-5.8-3.8-10v-15.8c0-4.2 1.3-7.4 3.8-9.9 2.6-2.4 6-3.7 10.4-3.7s7.9 1.2 10.4 3.7c2.6 2.4 3.9 5.7 3.9 9.9v15.8c0 4.2-1.3 7.6-3.9 10-2.6 2.5-6.1 3.7-10.4 3.7-4.4-.1-7.8-1.3-10.4-3.7zm14.7-5.3c1.1-1.1 1.6-2.6 1.6-4.4v-16.5c0-1.8-.5-3.3-1.6-4.4s-2.5-1.6-4.3-1.6-3.2.5-4.2 1.6c-1.1 1.1-1.6 2.6-1.6 4.4v16.5c0 1.8.5 3.3 1.6 4.4s2.5 1.6 4.2 1.6c1.8.1 3.2-.5 4.3-1.6zm19.4 5.3c-2.6-2.5-3.8-5.8-3.8-10v-15.8c0-4.2 1.3-7.4 3.8-9.9 2.6-2.4 6-3.7 10.4-3.7s7.9 1.2 10.4 3.7c2.6 2.4 3.9 5.7 3.9 9.9v15.8c0 4.2-1.3 7.6-3.9 10-2.6 2.5-6.1 3.7-10.4 3.7-4.3-.1-7.8-1.3-10.4-3.7zm14.7-5.3c1.1-1.1 1.6-2.6 1.6-4.4v-16.5c0-1.8-.5-3.3-1.6-4.4s-2.5-1.6-4.3-1.6-3.2.5-4.2 1.6c-1.1 1.1-1.6 2.6-1.6 4.4v16.5c0 1.8.5 3.3 1.6 4.4s2.5 1.6 4.2 1.6c1.8.1 3.3-.5 4.3-1.6zm46.1-9.8c.1.1.2.3.2.5v6c0 .2-.1.4-.2.5s-.3.2-.5.2h-2.6c-.2 0-.3.1-.3.3v9.8c0 .2-.1.4-.2.5s-.3.2-.5.2h-7c-.2 0-.4-.1-.5-.2s-.2-.3-.2-.5v-9.8c0-.2-.1-.3-.3-.3h-18.4c-.2 0-.4-.1-.5-.2s-.2-.3-.2-.5v-4.8c0-.2.1-.5.2-.9l10.8-24.2c.2-.4.4-.5.8-.5h7.5c.3 0 .5.1.6.2s.1.3 0 .6l-10 22.4v.2c0 .1.1.1.2.1h9.1c.2 0 .3-.1.3-.3v-7.4c0-.2.1-.4.2-.5s.3-.2.5-.2h7c.2 0 .4.1.5.2s.2.3.2.5v7.4c0 .2.1.3.3.3h2.6c0 .2.2.3.4.4zm556.9 655.3c-2.6-2.5-3.8-5.8-3.8-10v-15.8c0-4.2 1.3-7.4 3.8-9.9 2.6-2.4 6-3.7 10.4-3.7s7.9 1.2 10.4 3.7c2.6 2.4 3.9 5.7 3.9 9.9v15.8c0 4.2-1.3 7.6-3.9 10-2.6 2.5-6.1 3.7-10.4 3.7-4.4-.1-7.8-1.3-10.4-3.7zm14.7-5.3c1.1-1.1 1.6-2.6 1.6-4.4v-16.5c0-1.8-.5-3.3-1.6-4.4s-2.5-1.6-4.3-1.6-3.2.5-4.2 1.6c-1.1 1.1-1.6 2.6-1.6 4.4v16.5c0 1.8.5 3.3 1.6 4.4s2.5 1.6 4.2 1.6c1.8.1 3.2-.5 4.3-1.6zm29.8-26.9c-1.8 0-3.2.5-4.2 1.6-1.1 1.1-1.6 2.6-1.6 4.4v16.5c0 1.8.5 3.3 1.6 4.4s2.5 1.6 4.2 1.6m0 7.3c-4.4 0-7.9-1.2-10.4-3.7-2.6-2.5-3.8-5.8-3.8-10v-15.8c0-4.2 1.3-7.4 3.8-9.9 2.6-2.4 6-3.7 10.4-3.7zm-1580.5-211.6c-2.1-2-3.1-4.7-3.1-8.2v-12.9c0-3.4 1-6.1 3.1-8 2.1-2 4.9-3 8.5-3s6.4 1 8.5 3 3.1 4.7 3.1 8v12.9c0 3.4-1 6.2-3.1 8.2s-4.9 3-8.5 3-6.4-1-8.5-3zm11.9-4.2c.9-.9 1.3-2.1 1.3-3.6v-13.4c0-1.5-.4-2.7-1.3-3.6s-2-1.3-3.5-1.3c-1.4 0-2.6.4-3.4 1.3-.9.9-1.3 2.1-1.3 3.6v13.4c0 1.5.4 2.7 1.3 3.6s2 1.3 3.4 1.3c1.5 0 2.7-.4 3.5-1.3zm15.9 4.2c-2.1-2-3.1-4.7-3.1-8.2v-12.9c0-3.4 1-6.1 3.1-8 2.1-2 4.9-3 8.5-3s6.4 1 8.5 3 3.1 4.7 3.1 8v12.9c0 3.4-1 6.2-3.1 8.2s-4.9 3-8.5 3-6.5-1-8.5-3zm11.9-4.2c.9-.9 1.3-2.1 1.3-3.6v-13.4c0-1.5-.4-2.7-1.3-3.6s-2-1.3-3.5-1.3c-1.4 0-2.6.4-3.4 1.3-.9.9-1.3 2.1-1.3 3.6v13.4c0 1.5.4 2.7 1.3 3.6s2 1.3 3.4 1.3c1.5 0 2.7-.4 3.5-1.3zm34.7-4.4c0 1.8-.3 3.4-.9 4.9-.8 2.1-2.1 3.7-3.9 4.9s-4 1.8-6.5 1.8-4.6-.6-6.5-1.9c-1.9-1.2-3.2-2.9-4-5-.5-1.3-.7-2.6-.8-4.1 0-.4.2-.6.6-.6h5.8c.4 0 .6.2.6.6.1 1.1.3 1.9.5 2.4.3.8.8 1.5 1.4 2 .7.5 1.5.7 2.4.7 1.8 0 3.1-.8 3.8-2.4.5-1 .7-2.1.7-3.4 0-1.5-.2-2.8-.7-3.8-.7-1.5-2-2.3-3.8-2.3-.4 0-.7.1-1.1.3s-.9.5-1.4.9c-.1.1-.3.1-.4.1-.2 0-.3-.1-.4-.3l-2.9-4c-.1-.1-.1-.2-.1-.3 0-.2.1-.4.2-.5l7.7-6.8c.1-.1.1-.1.1-.2s-.1-.1-.2-.1h-11.5c-.2 0-.3-.1-.4-.2s-.2-.3-.2-.4v-4.7c0-.2.1-.3.2-.4s.3-.2.4-.2h20.3c.2 0 .3.1.4.2s.2.3.2.4v5.4c0 .3-.1.5-.3.7l-6.4 5.8c-.1.1-.1.1-.1.2s.1.1.2.1c2.8.6 4.8 2.2 6 5 .7 1.5 1 3.2 1 5.2zm1282.9 396.6c-2.1-2-3.2-4.8-3.2-8.4v-13.2c0-3.5 1.1-6.2 3.2-8.2s5-3.1 8.7-3.1 6.6 1 8.7 3.1c2.2 2 3.2 4.8 3.2 8.2v13.2c0 3.5-1.1 6.3-3.2 8.4s-5.1 3.1-8.7 3.1c-3.7 0-6.6-1.1-8.7-3.1zm12.3-4.4c.9-.9 1.3-2.1 1.3-3.7v-13.8c0-1.5-.4-2.8-1.3-3.7s-2.1-1.4-3.6-1.4-2.6.5-3.5 1.4-1.3 2.1-1.3 3.7v13.8c0 1.5.4 2.8 1.3 3.7s2.1 1.4 3.5 1.4c1.5 0 2.7-.4 3.6-1.4zm16.2 4.4c-2.1-2-3.2-4.8-3.2-8.4v-13.2c0-3.5 1.1-6.2 3.2-8.2s5-3.1 8.7-3.1 6.6 1 8.7 3.1c2.2 2 3.2 4.8 3.2 8.2v13.2c0 3.5-1.1 6.3-3.2 8.4s-5.1 3.1-8.7 3.1c-3.7 0-6.6-1.1-8.7-3.1zm12.3-4.4c.9-.9 1.3-2.1 1.3-3.7v-13.8c0-1.5-.4-2.8-1.3-3.7s-2.1-1.4-3.6-1.4-2.6.5-3.5 1.4-1.3 2.1-1.3 3.7v13.8c0 1.5.4 2.8 1.3 3.7s2.1 1.4 3.5 1.4c1.5 0 2.7-.4 3.6-1.4zm22.3.8c0 .1.1.1.2.1h13.5c.2 0 .3.1.4.2s.2.3.2.4v4.8c0 .2-.1.3-.2.4s-.3.2-.4.2h-22.5c-.2 0-.3-.1-.4-.2s-.2-.3-.2-.4v-4.6c0-.3.1-.6.3-.8 1.6-1.6 3.3-3.3 5-5.2s2.8-3.1 3.2-3.5c.9-1.1 1.9-2.2 2.8-3.2 3-3.4 4.6-5.9 4.6-7.5 0-1.2-.4-2.1-1.2-2.9s-1.9-1.1-3.2-1.1-2.4.4-3.2 1.1c-.8.8-1.2 1.7-1.2 3v1.2c0 .2-.1.3-.2.4s-.3.2-.4.2h-5.9c-.2 0-.3-.1-.4-.2s-.2-.3-.2-.4v-2.3c.1-1.8.7-3.4 1.7-4.8s2.4-2.4 4.1-3.2c1.7-.7 3.6-1.1 5.8-1.1 2.4 0 4.4.4 6.2 1.3s3.1 2.1 4 3.6 1.4 3.2 1.4 5c0 1.4-.3 2.8-1 4.3s-1.8 3-3.2 4.8c-1 1.3-2.1 2.6-3.3 3.8-1.2 1.3-3 3.1-5.3 5.5l-.8.8c-.2.1-.3.2-.2.3zm-833.4-191.5c-2.1-2-3.2-4.8-3.2-8.4v-13.2c0-3.5 1.1-6.2 3.2-8.2s5-3.1 8.7-3.1 6.6 1 8.7 3.1c2.2 2 3.2 4.8 3.2 8.2v13.2c0 3.5-1.1 6.3-3.2 8.4s-5.1 3.1-8.7 3.1c-3.7 0-6.6-1.1-8.7-3.1zm12.3-4.4c.9-.9 1.3-2.1 1.3-3.7v-13.8c0-1.5-.4-2.8-1.3-3.7s-2.1-1.4-3.6-1.4-2.6.5-3.5 1.4-1.3 2.1-1.3 3.7v13.8c0 1.5.4 2.8 1.3 3.7s2.1 1.4 3.5 1.4c1.5 0 2.7-.5 3.6-1.4zm16.2 4.4c-2.1-2-3.2-4.8-3.2-8.4v-13.2c0-3.5 1.1-6.2 3.2-8.2s5-3.1 8.7-3.1 6.6 1 8.7 3.1c2.2 2 3.2 4.8 3.2 8.2v13.2c0 3.5-1.1 6.3-3.2 8.4s-5.1 3.1-8.7 3.1c-3.7 0-6.6-1.1-8.7-3.1zm12.3-4.4c.9-.9 1.3-2.1 1.3-3.7v-13.8c0-1.5-.4-2.8-1.3-3.7s-2.1-1.4-3.6-1.4-2.6.5-3.5 1.4-1.3 2.1-1.3 3.7v13.8c0 1.5.4 2.8 1.3 3.7s2.1 1.4 3.5 1.4c1.5 0 2.7-.5 3.6-1.4zm18.4-28.1h6c.2 0 .3.1.4.2s.2.3.2.4v33.8c0 .2-.1.3-.2.4s-.3.2-.4.2h-5.8c-.2 0-.3-.1-.4-.2s-.2-.3-.2-.4v-27.4c0-.1 0-.1-.1-.2s-.1-.1-.2 0l-5 1.3-.2.1c-.3 0-.5-.2-.5-.6l-.2-4.3c0-.3.2-.6.5-.7l5.2-2.4c.3-.1.6-.2.9-.2zm212.8-544.6v60c0 5.3-4.3 9.6-9.6 9.6h-67.2c-5.3 0-9.6-4.3-9.6-9.6v-240.6c0-5.3 4.3-9.6 9.6-9.6h67.2c5.3 0 9.6 4.3 9.6 9.6v152.6m31-75.7c-5.3 0-9.6-4.3-9.6-9.6v-67.3c0-5.3 4.3-9.6 9.6-9.6h136.6c5.3 0 9.6 4.3 9.6 9.6v67.2c0 5.3-4.3 9.6-9.6 9.6zm156.1 85.9h-20.3v20.3h20.3z"/><path d="m1375.4 207.1c2.49 0 4.5-2.015 4.5-4.5s-2.01-4.5-4.5-4.5c-2.48 0-4.5 2.015-4.5 4.5s2.02 4.5 4.5 4.5zm-113.2 301.6c-5 0-9-4-9-9v-48.7c0-5 4-9 9-9h77.4c5 0 9 4 9 9v48.8c0 5-4 9-9 9h-77.4z"/><path d="m1339.6 451h-77.4v48.8h77.4zm24 68.7h-31.8v48.8h31.8z"/><path d="m1358 561.3h-20.3v7.2h20.3zm-16.9-28.3c1.88 0 3.4-1.522 3.4-3.4s-1.52-3.4-3.4-3.4-3.4 1.522-3.4 3.4 1.52 3.4 3.4 3.4zm6.8 9.8c1.88 0 3.4-1.522 3.4-3.4s-1.52-3.4-3.4-3.4-3.4 1.522-3.4 3.4 1.52 3.4 3.4 3.4zm6.7-9.8c1.88 0 3.4-1.522 3.4-3.4s-1.52-3.4-3.4-3.4-3.4 1.522-3.4 3.4 1.52 3.4 3.4 3.4zm229.6-378.9h-31.8v48.8h31.8z"/><path d="m1578.6 195.6h-20.3v7.2h20.3zm0-41.5h-20.3v31.6h20.3zm-230 471.8h-95.4v11.9h95.4zm288.2-203h-120.3v35.8h120.3zm.1 47.8h-51.6v35.8h51.6z"/><path d="m1544.7 514.1-7-7v-48.5h7zm46.2 46.1-4.9-4.9 5.5-5.5-27.8-27.8c-1.3-1.3-2.1-3.1-2.1-5v-58.4h7v58.4l27.8 27.8c1.3 1.3 2.1 3.1 2.1 5s-.7 3.6-2.1 5zm10.4 11-4.7-5.2 23.4-23.4v-36.2h7v36.2c0 1.9-.7 3.6-2.1 5zm-.3-93.8h-8.1v21.4h8.1zm-53.28-38.698v-8.1h-21.4v8.1zm373.18-373.002h-72.8c-6.6 0-11.9-5.3-11.9-11.9v-53.8"/><path d="m1799.3 0v53.8c0 27 21.9 48.8 48.8 48.8h72.8m-122.1 274.9c0 5.3-4.3 9.6-9.6 9.6h-164.6c-5.3 0-9.6-4.3-9.6-9.6v-41.3c0-5.3 4.3-9.6 9.6-9.6h164.6c5.3 0 9.6 4.3 9.6 9.6zm-203.9 0c0 5.3-4.3 9.6-9.6 9.6h-160.1c-5.3 0-9.6-4.3-9.6-9.6v-225.2c0-5.3 4.3-9.6 9.6-9.6h160.1c5.3 0 9.6 4.3 9.6 9.6zm-346.9 9.6c-5.3 0-9.6-4.3-9.6-9.6v-65.3c0-2.6 1-5 2.8-6.8l59.7-59.7c1.8-1.8 4.3-2.8 6.8-2.8h78.2c5.3 0 9.6 4.3 9.6 9.6v125.1c0 5.3-4.3 9.6-9.6 9.6h-137.9z"/><path d="m1306.8 354.8h-52.9v20.1h52.9z"/><path d="m1293.6 354.8h-26.5v10.1h26.5zm-740 561.4h-52.9v20.1h52.9z"/><path d="m540.4 916.2h-26.5v10.1h26.5zm964.8-590.1c33.8 0 61.2-27.4 61.2-61.2s-27.4-61.2-61.2-61.2-61.2 27.4-61.2 61.2 27.4 61.2 61.2 61.2z"/><path d="m1505.2 308.1c23.86 0 43.2-19.341 43.2-43.2s-19.34-43.2-43.2-43.2-43.2 19.341-43.2 43.2 19.34 43.2 43.2 43.2zm63.3-132.5c3.15 0 5.7-2.552 5.7-5.7s-2.55-5.7-5.7-5.7-5.7 2.552-5.7 5.7 2.55 5.7 5.7 5.7zm352.5 150.9h-90.4c-5.3 0-9.6 4.3-9.6 9.6v41.3c0 5.3 4.3 9.6 9.6 9.6h90.4m-331.5-331.7h-37.7v20.7h37.7zm9.6 0h-9.6v20.7h9.6z"/><path d="m1562.7 60h-5.3v10.5h5.3zm10.6 0h-5.3v10.5h5.3zm10.6 0h-5.3v10.5h5.3z"/><path d="m1562.7 66.3h-5.3v4.3h5.3zm10.6-6.1h-5.3v4.3h5.3zm10.6 6.1h-5.3v4.3h5.3zm-1052.8 608.2h98.6v27.3h-84.9m94.9-27.3v-57.4h27.3v71.1m-122.2 23.6h-27.3v29.5h27.3z"/><path d="m653.3 695.2a7 7 0 1 0 0-14 7 7 0 0 0 0 14zm-122.2 0a7 7 0 1 0 0-14 7 7 0 0 0 0 14zm135.9-96.8c0-1.5-1.2-2.7-2.7-2.7h-21.9c-1.5 0-2.7 1.2-2.7 2.7v10.3h27.3zm0 27.4h-14.3v10.5h14.3zm-14.8 18.5c.2-.4.6-.6 1.1-.6.4 0 .9.2 1.1.6l5.9 10.3c.2.4.2.9 0 1.3s-.6.6-1.1.6h-11.9c-.4 0-.9-.2-1.1-.6s-.2-.9 0-1.3zm1.1 4.6v3.3m0 .7v1.2"/><path d="m646.2 604.4a2.2 2.2 0 1 0 0-4.4 2.2 2.2 0 0 0 0 4.4zm14.3 0a2.2 2.2 0 1 0 0-4.4 2.2 2.2 0 0 0 0 4.4zm2.2 4.3h-18.7v8.3h18.7zm-50.8-74h-8.6v5.1h8.6zm45.7 20.2h-8.6v25.9h8.6zm-22.8-20.2h-8.6v5.1h8.6zm45.7 0h-8.6v5.1h8.6zm22.8 0h-8.6v5.1h8.6zm-91.4 5.2h-8.6v25.9h8.6zm22.9 0h-8.6v25.9h8.6zm45.7 0h-8.6v25.9h8.6zm22.8 0h-8.6v25.9h8.6zm-36 30.4-9-2v6.1l5.1 2v19.4h1c1.5 0 2.7 1.2 2.7 2.7v1.3h.3c1.5 0 2.7-1.2 2.7-2.7v-24c-.1-1.6-1.3-2.8-2.8-2.8zm-27.6 28.1c0-1.5 1.2-2.7 2.7-2.7h1v-19.4l5.1-2v-6.1l-9 2c-1.5 0-2.7 1.2-2.7 2.7v24c0 1.5 1.2 2.7 2.7 2.7h.3v-1.2zm-108.6 76.1c-7.5 0-13.7 6.1-13.7 13.7v13.7h27.3v-13.7c.1-7.6-6-13.7-13.6-13.7zm135.9 13.7c0-7.5-6.1-13.7-13.7-13.7h-13.7v27.3h13.7c7.6 0 13.7-6.1 13.7-13.6z"/><path d="m540.6 701.8h-19v10h19zm99.022-4.112v-19h-10v19zm549.078-593.288v68.5h-27.3v-54.9m27.3 64.9h47.4v27.3h-61.1m-23.6-190.2h-29.5v98h29.5z"/><path d="m1141.6 94.9h-10v23.1h10zm9.8-9.8h-29.5m53.1 118.4c3.87 0 7-3.134 7-7s-3.13-7-7-7-7 3.134-7 7 3.13 7 7 7zm0-92.1c3.87 0 7-3.134 7-7s-3.13-7-7-7-7 3.134-7 7 3.13 7 7 7zm79.7 98.8c1.5 0 2.7-1.2 2.7-2.7v-21.9c0-1.5-1.2-2.7-2.7-2.7h-10.3v27.3zm-80.8-60.1c.2-.4.6-.6 1.1-.6.4 0 .9.2 1.1.6l5.9 10.3c.2.4.2.9 0 1.3s-.6.6-1.1.6h-11.9c-.4 0-.9-.2-1.1-.6s-.2-.9 0-1.3zm1.1 4.6v3.3m0 .7v1.2"/><path d="m1250.9 191.6c1.22 0 2.2-.985 2.2-2.2s-.98-2.2-2.2-2.2c-1.21 0-2.2.985-2.2 2.2s.99 2.2 2.2 2.2zm0 14.3c1.22 0 2.2-.985 2.2-2.2s-.98-2.2-2.2-2.2c-1.21 0-2.2.985-2.2 2.2s.99 2.2 2.2 2.2zm-6.47-.033v-18.7h-8.3v18.7zm38.47 4.633 2-9h-6.1l-2 5.1h-19.4v1c0 1.5-1.2 2.7-2.7 2.7h-1.3v.3c0 1.5 1.2 2.7 2.7 2.7h24c1.5-.1 2.8-1.3 2.8-2.8zm-28.2-27.6c1.5 0 2.7 1.2 2.7 2.7v1h19.4l2 5.1h6.1l-2-9c0-1.5-1.2-2.7-2.7-2.7h-24c-1.5 0-2.7 1.2-2.7 2.7v.3h1.2zm-66-78.5c0-7.5-6.1-13.7-13.7-13.7h-13.7v27.3h13.7c7.6 0 13.7-6.1 13.7-13.6zm-13.7 105.8c7.5 0 13.7-6.1 13.7-13.7v-13.7h-27.3v13.7c0 7.6 6.1 13.7 13.6 13.7z"/><path d="m1161.31 113.897v-19h-10v19zm4.22 68.976h19v-10h-19zm261.17 123.927h-11.2v44.4h11.2zm0-128.2h-11.2v44.4h11.2zm-191.4-91.4c0 2.9 2.4 5.3 5.3 5.3s5.3-2.4 5.3-5.3v-21h-10.7v21zm16.8 0c0 2.9 2.4 5.3 5.3 5.3s5.3-2.4 5.3-5.3v-21h-10.7v21zm16.9 0c0 2.9 2.4 5.3 5.3 5.3s5.3-2.4 5.3-5.3v-21h-10.6zm10.7-38.1h-10.7v11.3h10.7zm-16.9 0h-10.7v11.3h10.7zm-16.8 0h-10.7v11.3h10.7z"/><path d="m1283.8 60.4-64-.1v5.8l64 .1zm68.77-12.957-3.68 3.677 5.73 5.727 3.68-3.677zm-29.11 29.124-7.64 7.637 5.73 5.727 7.63-7.637z"/><path d="m1338.3 71.7c0-3.1 2.5-5.6 5.6-5.6 1.5 0 3 .6 4 1.6l8.8-8.8-9.9-9.9-25.4 25.4 9.9 9.9 8.7-8.7c-1.1-1-1.7-2.4-1.7-3.9z"/><path d="m1343.9 77.3c3.09 0 5.6-2.507 5.6-5.6s-2.51-5.6-5.6-5.6-5.6 2.507-5.6 5.6 2.51 5.6 5.6 5.6z"/><path d="m1361.2 81.5-12.3-12.3c.4.7.6 1.6.6 2.5 0 3.1-2.5 5.6-5.6 5.6-.9 0-1.7-.2-2.5-.6l10.8 10.8v8.4h10.6v-10.6c0-1.4-.6-2.8-1.6-3.8z"/><path d="m1362.8 95.8h-31.8v10.6h31.8zm-57.1-6.8-3.8 3.7 13.8 13.8h7.5zm7.3-54v-8.2h-13v8.2c-5.8 2.5-9.8 8.3-9.8 15 0 9 7.3 16.3 16.3 16.3s16.3-7.3 16.3-16.3c0-6.7-4-12.4-9.8-15z"/><path d="m1309.5 20h-5.5v20.7h5.5zm-8.3 29.2c.99 0 1.8-.806 1.8-1.8s-.81-1.8-1.8-1.8-1.8.806-1.8 1.8.81 1.8 1.8 1.8zm10.2 8.6a4.2 4.2 0 1 0 0-8.4 4.2 4.2 0 0 0 0 8.4zm-65.4-15.4h-10.7v6.7h10.7zm16.8 0h-10.7v6.7h10.7zm16.9 0h-10.7v6.7h10.7zm-399.5-22.5a5.8 5.8 0 1 0 0-11.6 5.8 5.8 0 0 0 0 11.6zm0 21.8a5.8 5.8 0 1 0 0-11.6 5.8 5.8 0 0 0 0 11.6zm0 21.7a5.8 5.8 0 1 0 0-11.6 5.8 5.8 0 0 0 0 11.6zm21.701-43.5a5.8 5.8 0 1 0 0-11.6 5.8 5.8 0 0 0 0 11.6zm0 21.8a5.8 5.8 0 1 0 0-11.6 5.8 5.8 0 0 0 0 11.6zm0 21.7a5.8 5.8 0 1 0 0-11.6 5.8 5.8 0 0 0 0 11.6zm21.799-43.5a5.8 5.8 0 1 0 0-11.6 5.8 5.8 0 0 0 0 11.6zm0 21.8a5.8 5.8 0 1 0 0-11.6 5.8 5.8 0 0 0 0 11.6zm0 21.7a5.8 5.8 0 1 0 0-11.6 5.8 5.8 0 0 0 0 11.6zm21.701-43.5a5.8 5.8 0 1 0 0-11.6 5.8 5.8 0 0 0 0 11.6zm0 21.8a5.8 5.8 0 1 0 0-11.6 5.8 5.8 0 0 0 0 11.6zm0 21.7a5.8 5.8 0 1 0 0-11.6 5.8 5.8 0 0 0 0 11.6zm21.799-43.5a5.8 5.8 0 1 0 0-11.6 5.8 5.8 0 0 0 0 11.6zm0 21.8a5.8 5.8 0 1 0 0-11.6 5.8 5.8 0 0 0 0 11.6zm0 21.7a5.8 5.8 0 1 0 0-11.6 5.8 5.8 0 0 0 0 11.6zm21.701-43.5a5.8 5.8 0 1 0 0-11.6 5.8 5.8 0 0 0 0 11.6zm0 21.8a5.8 5.8 0 1 0 0-11.6 5.8 5.8 0 0 0 0 11.6zm0 21.7a5.8 5.8 0 1 0 0-11.6 5.8 5.8 0 0 0 0 11.6zm21.699-43.5c3.2 0 5.8-2.597 5.8-5.8s-2.6-5.8-5.8-5.8-5.8 2.597-5.8 5.8 2.6 5.8 5.8 5.8zm0 21.8c3.2 0 5.8-2.597 5.8-5.8s-2.6-5.8-5.8-5.8-5.8 2.597-5.8 5.8 2.6 5.8 5.8 5.8zm0 21.7c3.2 0 5.8-2.597 5.8-5.8s-2.6-5.8-5.8-5.8-5.8 2.597-5.8 5.8 2.6 5.8 5.8 5.8zm21-43.5c3.2 0 5.8-2.597 5.8-5.8s-2.6-5.8-5.8-5.8-5.8 2.597-5.8 5.8 2.6 5.8 5.8 5.8zm0 21.8c3.2 0 5.8-2.597 5.8-5.8s-2.6-5.8-5.8-5.8-5.8 2.597-5.8 5.8 2.6 5.8 5.8 5.8zm0 21.7c3.2 0 5.8-2.597 5.8-5.8s-2.6-5.8-5.8-5.8-5.8 2.597-5.8 5.8 2.6 5.8 5.8 5.8zm22.1-43.5c3.2 0 5.8-2.597 5.8-5.8s-2.6-5.8-5.8-5.8-5.8 2.597-5.8 5.8 2.6 5.8 5.8 5.8zm0 21.8c3.2 0 5.8-2.597 5.8-5.8s-2.6-5.8-5.8-5.8-5.8 2.597-5.8 5.8 2.6 5.8 5.8 5.8zm0 21.7c3.2 0 5.8-2.597 5.8-5.8s-2.6-5.8-5.8-5.8-5.8 2.597-5.8 5.8 2.6 5.8 5.8 5.8zm21-43.5c3.2 0 5.8-2.597 5.8-5.8s-2.6-5.8-5.8-5.8-5.8 2.597-5.8 5.8 2.6 5.8 5.8 5.8zm0 21.8c3.2 0 5.8-2.597 5.8-5.8s-2.6-5.8-5.8-5.8-5.8 2.597-5.8 5.8 2.6 5.8 5.8 5.8zm0 21.7c3.2 0 5.8-2.597 5.8-5.8s-2.6-5.8-5.8-5.8-5.8 2.597-5.8 5.8 2.6 5.8 5.8 5.8z"/><path d="m903.9 0v35.9c0 1.1-.9 2-2 2s-2-.9-2-2v-35.9"/><path d="m903.9 0v35.9c0 1.1-.9 2-2 2s-2-.9-2-2v-35.9m47.5 0v57.8c0 1.1-.9 2-2 2s-2-.9-2-2v-57.8"/><path d="m947.4 0v57.8c0 1.1-.9 2-2 2s-2-.9-2-2v-57.8m112.3 0v57.8c0 1.1-.9 2-2 2s-2-.9-2-2v-57.8"/><path d="m1055.7 0v57.8c0 1.1-.9 2-2 2s-2-.9-2-2v-57.8m-39.1 0v14.4c0 1.1-.9 2-2 2s-2-.9-2-2v-14.4"/><path d="m1012.6 0v14.4c0 1.1-.9 2-2 2s-2-.9-2-2v-14.4m-421.2 1008.9v71.1m540.6-571.5c-.7-.7-1.1-1.7-1.1-2.8v-125.5c0-3.7-1.4-7.2-4.1-9.8l-9.5-9.5c-.7-.7-1.1-1.7-1.1-2.8v-58.3h-10v58.3c0 3.7 1.4 7.2 4.1 9.8l9.5 9.5c.7.7 1.1 1.7 1.1 2.8v49.4h-25.4v10h25.4v66.1c0 3.7 1.4 7.2 4.1 9.8l22.6 22.6c.7.7 1.1 1.7 1.1 2.8v5.8h10v-5.8c0-3.7-1.4-7.2-4.1-9.8zm81.3 6.2c-2.2 0-3.9-1.8-3.9-3.9v-50.2c0-7.7-6.2-13.9-13.9-13.9h-16.4v-39.1c0-1 .4-2 1.1-2.8l19.9-19.9c2.6-2.6 4.1-6.1 4.1-9.8v-30.5h-10v30.5c0 1-.4 2-1.1 2.8l-19.9 19.9c-2.6 2.6-4.1 6.1-4.1 9.8v139.4h10v-90.3h16.4c2.2 0 3.9 1.8 3.9 3.9v50.2c0 7.7 6.2 13.9 13.9 13.9h9.1v-10z"/><path d="m1187 546.8h-83.6v35.8h83.6z"/><path d="m1119.1 553.5h-8.1v21.4h8.1zm91.1-244.9h-63.9v35.8h63.9z"/><path d="m1162 315.3h-8.1v21.4h8.1zm44.5 332.1c0 4.9-4 8.9-8.9 8.9h-85.3c-4.9 0-8.9-4-8.9-8.9v-44.2c0-4.9 4-8.9 8.9-8.9h85.3c4.9 0 8.9 4 8.9 8.9zm118.8 117.8h-66.5c-7.1 0-13.1 4.2-15.9 10.3h-8.7v14.3h8.7c2.7 6 8.8 10.3 15.9 10.3h66.5c9.6 0 17.4-7.8 17.4-17.4s-7.8-17.5-17.4-17.5zm0-70.7h-66.5c-7.1 0-13.1 4.2-15.9 10.3h-8.7v14.2h8.7c2.7 6 8.8 10.3 15.9 10.3h66.5c9.6 0 17.4-7.8 17.4-17.4s-7.8-17.4-17.4-17.4z"/><path d="m1156.9 782.9h-102.3v-7h102.3c2.5 0 4.5-2 4.5-4.5v-51.6c0-6.3 5.2-11.5 11.5-11.5h61.3v7h-61.3c-2.5 0-4.5 2-4.5 4.5v51.6c0 6.4-5.1 11.5-11.5 11.5zm33.6 33.1h-135.8v-7h135.8c2.5 0 4.5-2 4.5-4.5v-13.9c0-6.3 5.2-11.5 11.5-11.5h27.8v7h-27.8c-2.5 0-4.5 2-4.5 4.5v13.9c0 6.4-5.2 11.5-11.5 11.5z"/><path d="m1054.7 786.6v-14.3h-9.8v-10.5h-26.1v75.8h26.1v-17.9h9.8v-14.3h-9.8v-18.8zm-734.9 1.8h77.3v88.9c0 2.1.8 4.2 2.3 5.7l85 85c1.5 1.5 2.3 3.5 2.3 5.7v54"/><path d="m498.3 950.3c-2.1 0-4.2-.8-5.7-2.3l-73.2-73.2c-1.5-1.5-2.3-3.5-2.3-5.7v-52.7c0-4.4 3.6-8 8-8h134.3c4.4 0 8 3.6 8 8v125.9c0 4.4-3.6 8-8 8zm89.1-209h-267.6v47.1h267.6zm-20 258.3c0 4.4-3.6 8-8 8h-44.7c-4.4 0-8-3.6-8-8v-19.1c0-4.4 3.6-8 8-8h44.7c4.4 0 8 3.6 8 8zm-167.1-16.5h-60.5v24.4h60.5z"/><path d="m350.2 999.8a4.4 4.4 0 1 0 0-8.8 4.4 4.4 0 0 0 0 8.8zm15.3 0a4.4 4.4 0 1 0 0-8.8 4.4 4.4 0 0 0 0 8.8z"/></svg>