<svg fill="none" height="466" viewBox="0 0 565 466" width="565" xmlns="http://www.w3.org/2000/svg" xmlns:xlink="http://www.w3.org/1999/xlink"><clipPath id="a"><rect height="466" rx="16.7626" width="565"/></clipPath><g clip-path="url(#a)"><path d="m-328.686-118.836h1223.37v703.673h-1223.37z" fill="#187bbc"/><path d="m126.794 263.902c4.92 0 8.909-3.989 8.909-8.909s-3.989-8.909-8.909-8.909-8.909 3.989-8.909 8.909 3.989 8.909 8.909 8.909z" fill="#0d4163"/><path d="m171.426 263.902c4.92 0 8.909-3.989 8.909-8.909s-3.989-8.909-8.909-8.909c-4.921 0-8.909 3.989-8.909 8.909s3.988 8.909 8.909 8.909z" fill="#0d4163"/><path d="m215.894 263.902c4.92 0 8.909-3.989 8.909-8.909s-3.989-8.909-8.909-8.909c-4.921 0-8.91 3.989-8.91 8.909s3.989 8.909 8.91 8.909z" fill="#0d4163"/><path d="m260.526 263.902c4.92 0 8.909-3.989 8.909-8.909s-3.989-8.909-8.909-8.909c-4.921 0-8.909 3.989-8.909 8.909s3.988 8.909 8.909 8.909z" fill="#0d4163"/><path d="m126.794 308.535c4.92 0 8.909-3.989 8.909-8.909s-3.989-8.909-8.909-8.909-8.909 3.989-8.909 8.909 3.989 8.909 8.909 8.909z" fill="#0d4163"/><path d="m171.426 308.535c4.92 0 8.909-3.989 8.909-8.909s-3.989-8.909-8.909-8.909c-4.921 0-8.909 3.989-8.909 8.909s3.988 8.909 8.909 8.909z" fill="#fff"/><g fill="#0d4163"><path d="m215.894 308.535c4.92 0 8.909-3.989 8.909-8.909s-3.989-8.909-8.909-8.909c-4.921 0-8.91 3.989-8.91 8.909s3.989 8.909 8.91 8.909z"/><path d="m260.526 308.535c4.92 0 8.909-3.989 8.909-8.909s-3.989-8.909-8.909-8.909c-4.921 0-8.909 3.989-8.909 8.909s3.988 8.909 8.909 8.909z"/><path d="m126.794 353.002c4.92 0 8.909-3.989 8.909-8.909 0-4.921-3.989-8.909-8.909-8.909s-8.909 3.988-8.909 8.909c0 4.92 3.989 8.909 8.909 8.909z"/><path d="m171.426 353.002c4.92 0 8.909-3.989 8.909-8.909 0-4.921-3.989-8.909-8.909-8.909-4.921 0-8.909 3.988-8.909 8.909 0 4.92 3.988 8.909 8.909 8.909z"/><path d="m215.894 353.002c4.92 0 8.909-3.989 8.909-8.909 0-4.921-3.989-8.909-8.909-8.909-4.921 0-8.91 3.988-8.91 8.909 0 4.92 3.989 8.909 8.91 8.909z"/><path d="m260.526 353.002c4.92 0 8.909-3.989 8.909-8.909 0-4.921-3.989-8.909-8.909-8.909-4.921 0-8.909 3.988-8.909 8.909 0 4.92 3.988 8.909 8.909 8.909z"/><path d="m126.794 397.635c4.92 0 8.909-3.989 8.909-8.909 0-4.921-3.989-8.91-8.909-8.91s-8.909 3.989-8.909 8.91c0 4.92 3.989 8.909 8.909 8.909z"/><path d="m171.426 397.635c4.92 0 8.909-3.989 8.909-8.909 0-4.921-3.989-8.91-8.909-8.91-4.921 0-8.909 3.989-8.909 8.91 0 4.92 3.988 8.909 8.909 8.909z"/><path d="m215.894 397.635c4.92 0 8.909-3.989 8.909-8.909 0-4.921-3.989-8.91-8.909-8.91-4.921 0-8.91 3.989-8.91 8.91 0 4.92 3.989 8.909 8.91 8.909z"/><path d="m260.526 397.635c4.92 0 8.909-3.989 8.909-8.909 0-4.921-3.989-8.91-8.909-8.91-4.921 0-8.909 3.989-8.909 8.91 0 4.92 3.988 8.909 8.909 8.909z"/><path d="m304.994 397.635c4.92 0 8.909-3.989 8.909-8.909 0-4.921-3.989-8.91-8.909-8.91s-8.909 3.989-8.909 8.91c0 4.92 3.989 8.909 8.909 8.909z"/><path d="m304.994 353.002c4.92 0 8.909-3.989 8.909-8.909 0-4.921-3.989-8.909-8.909-8.909s-8.909 3.988-8.909 8.909c0 4.92 3.989 8.909 8.909 8.909z"/><path d="m304.994 308.535c4.92 0 8.909-3.989 8.909-8.909s-3.989-8.909-8.909-8.909-8.909 3.989-8.909 8.909 3.989 8.909 8.909 8.909z"/><path d="m304.994 263.902c4.92 0 8.909-3.989 8.909-8.909s-3.989-8.909-8.909-8.909-8.909 3.989-8.909 8.909 3.989 8.909 8.909 8.909z"/><path d="m349.626 397.635c4.921 0 8.91-3.989 8.91-8.909 0-4.921-3.989-8.91-8.91-8.91-4.92 0-8.909 3.989-8.909 8.91 0 4.92 3.989 8.909 8.909 8.909z"/><path d="m349.626 353.002c4.921 0 8.91-3.989 8.91-8.909 0-4.921-3.989-8.909-8.91-8.909-4.92 0-8.909 3.988-8.909 8.909 0 4.92 3.989 8.909 8.909 8.909z"/></g><path d="m349.626 308.535c4.921 0 8.91-3.989 8.91-8.909s-3.989-8.909-8.91-8.909c-4.92 0-8.909 3.989-8.909 8.909s3.989 8.909 8.909 8.909z" fill="#fff"/><path d="m349.626 263.902c4.921 0 8.91-3.989 8.91-8.909s-3.989-8.909-8.91-8.909c-4.92 0-8.909 3.989-8.909 8.909s3.989 8.909 8.909 8.909z" fill="#0d4163"/><path d="m394.095 397.635c4.92 0 8.909-3.989 8.909-8.909 0-4.921-3.989-8.91-8.909-8.91-4.921 0-8.909 3.989-8.909 8.91 0 4.92 3.988 8.909 8.909 8.909z" fill="#0d4163"/><path d="m394.095 353.002c4.92 0 8.909-3.989 8.909-8.909 0-4.921-3.989-8.909-8.909-8.909-4.921 0-8.909 3.988-8.909 8.909 0 4.92 3.988 8.909 8.909 8.909z" fill="#0d4163"/><path d="m394.095 308.535c4.92 0 8.909-3.989 8.909-8.909s-3.989-8.909-8.909-8.909c-4.921 0-8.909 3.989-8.909 8.909s3.988 8.909 8.909 8.909z" fill="#0d4163"/><path d="m394.095 263.902c4.92 0 8.909-3.989 8.909-8.909s-3.989-8.909-8.909-8.909c-4.921 0-8.909 3.989-8.909 8.909s3.988 8.909 8.909 8.909z" fill="#0d4163"/><path d="m438.726 397.635c4.92 0 8.909-3.989 8.909-8.909 0-4.921-3.989-8.91-8.909-8.91s-8.909 3.989-8.909 8.91c0 4.92 3.989 8.909 8.909 8.909z" fill="#0d4163"/><path d="m438.726 353.002c4.92 0 8.909-3.989 8.909-8.909 0-4.921-3.989-8.909-8.909-8.909s-8.909 3.988-8.909 8.909c0 4.92 3.989 8.909 8.909 8.909z" fill="#0d4163"/><path d="m438.726 308.535c4.92 0 8.909-3.989 8.909-8.909s-3.989-8.909-8.909-8.909-8.909 3.989-8.909 8.909 3.989 8.909 8.909 8.909z" fill="#0d4163"/><path d="m438.726 263.902c4.92 0 8.909-3.989 8.909-8.909s-3.989-8.909-8.909-8.909-8.909 3.989-8.909 8.909 3.989 8.909 8.909 8.909z" fill="#0d4163"/><path d="m304.994 85.702c4.92 0 8.909-3.9887 8.909-8.9091s-3.989-8.9091-8.909-8.9091-8.909 3.9887-8.909 8.9091 3.989 8.9091 8.909 8.9091z" fill="#0d4163"/><path d="m349.626 85.702c4.921 0 8.91-3.9887 8.91-8.9091s-3.989-8.9091-8.91-8.9091c-4.92 0-8.909 3.9887-8.909 8.9091s3.989 8.9091 8.909 8.9091z" fill="#0d4163"/><path d="m394.095 85.702c4.92 0 8.909-3.9887 8.909-8.9091s-3.989-8.9091-8.909-8.9091c-4.921 0-8.909 3.9887-8.909 8.9091s3.988 8.9091 8.909 8.9091z" fill="#0d4163"/><path d="m438.726 85.702c4.92 0 8.909-3.9887 8.909-8.9091s-3.989-8.9091-8.909-8.9091-8.909 3.9887-8.909 8.9091 3.989 8.9091 8.909 8.9091z" fill="#0d4163"/><path d="m304.994 130.335c4.92 0 8.909-3.989 8.909-8.909 0-4.921-3.989-8.909-8.909-8.909s-8.909 3.988-8.909 8.909c0 4.92 3.989 8.909 8.909 8.909z" fill="#0d4163"/><path d="m349.626 130.335c4.921 0 8.91-3.989 8.91-8.909 0-4.921-3.989-8.909-8.91-8.909-4.92 0-8.909 3.988-8.909 8.909 0 4.92 3.989 8.909 8.909 8.909z" fill="#0d4163"/><path d="m394.095 130.335c4.92 0 8.909-3.989 8.909-8.909 0-4.921-3.989-8.909-8.909-8.909-4.921 0-8.909 3.988-8.909 8.909 0 4.92 3.988 8.909 8.909 8.909z" fill="#fff"/><path d="m438.726 130.335c4.92 0 8.909-3.989 8.909-8.909 0-4.921-3.989-8.909-8.909-8.909s-8.909 3.988-8.909 8.909c0 4.92 3.989 8.909 8.909 8.909z" fill="#0d4163"/><path d="m304.994 174.803c4.92 0 8.909-3.989 8.909-8.909 0-4.921-3.989-8.91-8.909-8.91s-8.909 3.989-8.909 8.91c0 4.92 3.989 8.909 8.909 8.909z" fill="#0d4163"/><path d="m349.626 174.803c4.921 0 8.91-3.989 8.91-8.909 0-4.921-3.989-8.91-8.91-8.91-4.92 0-8.909 3.989-8.909 8.91 0 4.92 3.989 8.909 8.909 8.909z" fill="#0d4163"/><path d="m394.095 174.803c4.92 0 8.909-3.989 8.909-8.909 0-4.921-3.989-8.91-8.909-8.91-4.921 0-8.909 3.989-8.909 8.91 0 4.92 3.988 8.909 8.909 8.909z" fill="#0d4163"/><path d="m438.726 174.803c4.92 0 8.909-3.989 8.909-8.909 0-4.921-3.989-8.91-8.909-8.91s-8.909 3.989-8.909 8.91c0 4.92 3.989 8.909 8.909 8.909z" fill="#0d4163"/><path d="m304.994 219.434c4.92 0 8.909-3.988 8.909-8.909 0-4.92-3.989-8.909-8.909-8.909s-8.909 3.989-8.909 8.909c0 4.921 3.989 8.909 8.909 8.909z" fill="#0d4163"/><path d="m349.626 219.434c4.921 0 8.91-3.988 8.91-8.909 0-4.92-3.989-8.909-8.91-8.909-4.92 0-8.909 3.989-8.909 8.909 0 4.921 3.989 8.909 8.909 8.909z" fill="#fff"/><path d="m394.095 219.434c4.92 0 8.909-3.988 8.909-8.909 0-4.92-3.989-8.909-8.909-8.909-4.921 0-8.909 3.989-8.909 8.909 0 4.921 3.988 8.909 8.909 8.909z" fill="#0d4163"/><path d="m438.726 219.434c4.92 0 8.909-3.988 8.909-8.909 0-4.92-3.989-8.909-8.909-8.909s-8.909 3.989-8.909 8.909c0 4.921 3.989 8.909 8.909 8.909z" fill="#0d4163"/><path d="m260.526 85.702c4.92 0 8.909-3.9887 8.909-8.9091s-3.989-8.9091-8.909-8.9091c-4.921 0-8.909 3.9887-8.909 8.9091s3.988 8.9091 8.909 8.9091z" fill="#0d4163"/><path d="m260.526 130.335c4.92 0 8.909-3.989 8.909-8.909 0-4.921-3.989-8.909-8.909-8.909-4.921 0-8.909 3.988-8.909 8.909 0 4.92 3.988 8.909 8.909 8.909z" fill="#0d4163"/><path d="m260.526 174.803c4.92 0 8.909-3.989 8.909-8.909 0-4.921-3.989-8.91-8.909-8.91-4.921 0-8.909 3.989-8.909 8.91 0 4.92 3.988 8.909 8.909 8.909z" fill="#0d4163"/><path d="m260.526 219.434c4.92 0 8.909-3.988 8.909-8.909 0-4.92-3.989-8.909-8.909-8.909-4.921 0-8.909 3.989-8.909 8.909 0 4.921 3.988 8.909 8.909 8.909z" fill="#fff"/><path d="m215.894 85.702c4.92 0 8.909-3.9887 8.909-8.9091s-3.989-8.9091-8.909-8.9091c-4.921 0-8.91 3.9887-8.91 8.9091s3.989 8.9091 8.91 8.9091z" fill="#0d4163"/><path d="m215.894 130.335c4.92 0 8.909-3.989 8.909-8.909 0-4.921-3.989-8.909-8.909-8.909-4.921 0-8.91 3.988-8.91 8.909 0 4.92 3.989 8.909 8.91 8.909z" fill="#0d4163"/><path d="m215.894 174.803c4.92 0 8.909-3.989 8.909-8.909 0-4.921-3.989-8.91-8.909-8.91-4.921 0-8.91 3.989-8.91 8.91 0 4.92 3.989 8.909 8.91 8.909z" fill="#0d4163"/><path d="m215.894 219.434c4.92 0 8.909-3.988 8.909-8.909 0-4.92-3.989-8.909-8.909-8.909-4.921 0-8.91 3.989-8.91 8.909 0 4.921 3.989 8.909 8.91 8.909z" fill="#0d4163"/><path d="m171.426 85.702c4.92 0 8.909-3.9887 8.909-8.9091s-3.989-8.9091-8.909-8.9091c-4.921 0-8.909 3.9887-8.909 8.9091s3.988 8.9091 8.909 8.9091z" fill="#0d4163"/><path d="m171.426 130.335c4.92 0 8.909-3.989 8.909-8.909 0-4.921-3.989-8.909-8.909-8.909-4.921 0-8.909 3.988-8.909 8.909 0 4.92 3.988 8.909 8.909 8.909z" fill="#fff"/><path d="m171.426 174.803c4.92 0 8.909-3.989 8.909-8.909 0-4.921-3.989-8.91-8.909-8.91-4.921 0-8.909 3.989-8.909 8.91 0 4.92 3.988 8.909 8.909 8.909z" fill="#0d4163"/><path d="m171.426 219.434c4.92 0 8.909-3.988 8.909-8.909 0-4.92-3.989-8.909-8.909-8.909-4.921 0-8.909 3.989-8.909 8.909 0 4.921 3.988 8.909 8.909 8.909z" fill="#0d4163"/><path d="m126.795 85.702c4.92 0 8.909-3.9887 8.909-8.9091s-3.989-8.9091-8.909-8.9091c-4.921 0-8.909 3.9887-8.909 8.9091s3.988 8.9091 8.909 8.9091z" fill="#0d4163"/><path d="m126.794 130.335c4.92 0 8.909-3.989 8.909-8.909 0-4.921-3.989-8.909-8.909-8.909s-8.909 3.988-8.909 8.909c0 4.92 3.989 8.909 8.909 8.909z" fill="#0d4163"/><path d="m126.794 174.803c4.92 0 8.909-3.989 8.909-8.909 0-4.921-3.989-8.91-8.909-8.91s-8.909 3.989-8.909 8.91c0 4.92 3.989 8.909 8.909 8.909z" fill="#0d4163"/><path d="m126.794 219.434c4.92 0 8.909-3.988 8.909-8.909 0-4.92-3.989-8.909-8.909-8.909s-8.909 3.989-8.909 8.909c0 4.921 3.989 8.909 8.909 8.909z" fill="#0d4163"/><path d="m-417.852 233h560.682c3.936 0 7.127 3.191 7.127 7.127v52.267c0 3.937 3.191 7.127 7.127 7.127h14.849" stroke="#fff" stroke-width="4.75153"/><path d="m372.091-108.517v201.3468c0 3.9363-3.191 7.1273-7.127 7.1273h-74.837c-3.936 0-7.127 3.1909-7.127 7.1269v96.219c0 3.936-3.191 7.127-7.128 7.127h-14.848" stroke="#fff" stroke-width="4.75153"/><path d="m171.339 120.151v-14.254c0-3.936-3.191-7.1275-7.127-7.1275h-498.912" stroke="#fff" stroke-width="4.75153"/><path d="m281.812 573.031v-243.813c0-3.936 3.191-7.127 7.127-7.127h53.455c3.936 0 7.127-3.191 7.127-7.128v-14.848" stroke="#fff" stroke-width="4.75153"/><path d="m349.521 211.023h16.037c3.936 0 7.127 3.191 7.127 7.128v51.673c0 3.936 3.191 7.127 7.128 7.127h29.697c3.936 0 7.127 3.191 7.127 7.127v289.547" stroke="#fff" stroke-width="4.75153"/><path d="m394.662 121.339h14.254c3.937 0 7.128-3.191 7.128-7.127v-7.721c0-3.937 3.191-7.1277 7.127-7.1277h489.408" stroke="#fff" stroke-width="4.75153"/></g></svg>