<svg width="1920" height="1280" viewBox="0 0 1920 1280" fill="none" xmlns="http://www.w3.org/2000/svg">
<g clip-path="url(#clip0)">
<rect x="-217" y="-37" width="2354" height="1354" fill="#187BBC"/>
<path d="M659.428 699.462C668.896 699.462 676.571 691.787 676.571 682.319C676.571 672.851 668.896 665.176 659.428 665.176C649.961 665.176 642.286 672.851 642.286 682.319C642.286 691.787 649.961 699.462 659.428 699.462Z" fill="#0D4163"/>
<path d="M745.309 699.462C754.777 699.462 762.452 691.787 762.452 682.319C762.452 672.851 754.777 665.176 745.309 665.176C735.841 665.176 728.166 672.851 728.166 682.319C728.166 691.787 735.841 699.462 745.309 699.462Z" fill="#0D4163"/>
<path d="M830.873 699.462C840.341 699.462 848.016 691.787 848.016 682.319C848.016 672.851 840.341 665.176 830.873 665.176C821.406 665.176 813.73 672.851 813.73 682.319C813.73 691.787 821.406 699.462 830.873 699.462Z" fill="#0D4163"/>
<path d="M916.755 699.462C926.222 699.462 933.898 691.787 933.898 682.319C933.898 672.851 926.222 665.176 916.755 665.176C907.287 665.176 899.612 672.851 899.612 682.319C899.612 691.787 907.287 699.462 916.755 699.462Z" fill="#0D4163"/>
<path d="M659.428 785.342C668.896 785.342 676.571 777.667 676.571 768.199C676.571 758.732 668.896 751.057 659.428 751.057C649.961 751.057 642.286 758.732 642.286 768.199C642.286 777.667 649.961 785.342 659.428 785.342Z" fill="#0D4163"/>
<path d="M745.309 785.342C754.777 785.342 762.452 777.667 762.452 768.199C762.452 758.732 754.777 751.057 745.309 751.057C735.841 751.057 728.166 758.732 728.166 768.199C728.166 777.667 735.841 785.342 745.309 785.342Z" fill="white"/>
<path d="M830.873 785.342C840.341 785.342 848.016 777.667 848.016 768.199C848.016 758.732 840.341 751.057 830.873 751.057C821.406 751.057 813.73 758.732 813.73 768.199C813.73 777.667 821.406 785.342 830.873 785.342Z" fill="#0D4163"/>
<path d="M916.755 785.342C926.222 785.342 933.898 777.667 933.898 768.199C933.898 758.732 926.222 751.057 916.755 751.057C907.287 751.057 899.612 758.732 899.612 768.199C899.612 777.667 907.287 785.342 916.755 785.342Z" fill="#0D4163"/>
<path d="M659.428 870.907C668.896 870.907 676.571 863.232 676.571 853.764C676.571 844.296 668.896 836.621 659.428 836.621C649.961 836.621 642.286 844.296 642.286 853.764C642.286 863.232 649.961 870.907 659.428 870.907Z" fill="#0D4163"/>
<path d="M745.309 870.907C754.777 870.907 762.452 863.232 762.452 853.764C762.452 844.296 754.777 836.621 745.309 836.621C735.841 836.621 728.166 844.296 728.166 853.764C728.166 863.232 735.841 870.907 745.309 870.907Z" fill="#0D4163"/>
<path d="M830.873 870.907C840.341 870.907 848.016 863.232 848.016 853.764C848.016 844.296 840.341 836.621 830.873 836.621C821.406 836.621 813.73 844.296 813.73 853.764C813.73 863.232 821.406 870.907 830.873 870.907Z" fill="#0D4163"/>
<path d="M916.755 870.907C926.222 870.907 933.898 863.232 933.898 853.764C933.898 844.296 926.222 836.621 916.755 836.621C907.287 836.621 899.612 844.296 899.612 853.764C899.612 863.232 907.287 870.907 916.755 870.907Z" fill="#0D4163"/>
<path d="M659.428 956.788C668.896 956.788 676.571 949.113 676.571 939.645C676.571 930.177 668.896 922.502 659.428 922.502C649.961 922.502 642.286 930.177 642.286 939.645C642.286 949.113 649.961 956.788 659.428 956.788Z" fill="#0D4163"/>
<path d="M745.309 956.788C754.777 956.788 762.452 949.113 762.452 939.645C762.452 930.177 754.777 922.502 745.309 922.502C735.841 922.502 728.166 930.177 728.166 939.645C728.166 949.113 735.841 956.788 745.309 956.788Z" fill="#0D4163"/>
<path d="M830.873 956.788C840.341 956.788 848.016 949.113 848.016 939.645C848.016 930.177 840.341 922.502 830.873 922.502C821.406 922.502 813.73 930.177 813.73 939.645C813.73 949.113 821.406 956.788 830.873 956.788Z" fill="#0D4163"/>
<path d="M916.755 956.788C926.222 956.788 933.898 949.113 933.898 939.645C933.898 930.177 926.222 922.502 916.755 922.502C907.287 922.502 899.612 930.177 899.612 939.645C899.612 949.113 907.287 956.788 916.755 956.788Z" fill="#0D4163"/>
<path d="M1002.32 956.788C1011.79 956.788 1019.46 949.113 1019.46 939.645C1019.46 930.177 1011.79 922.502 1002.32 922.502C992.852 922.502 985.177 930.177 985.177 939.645C985.177 949.113 992.852 956.788 1002.32 956.788Z" fill="#0D4163"/>
<path d="M1002.32 870.907C1011.79 870.907 1019.46 863.232 1019.46 853.764C1019.46 844.296 1011.79 836.621 1002.32 836.621C992.852 836.621 985.177 844.296 985.177 853.764C985.177 863.232 992.852 870.907 1002.32 870.907Z" fill="#0D4163"/>
<path d="M1002.32 785.342C1011.79 785.342 1019.46 777.667 1019.46 768.199C1019.46 758.732 1011.79 751.057 1002.32 751.057C992.852 751.057 985.177 758.732 985.177 768.199C985.177 777.667 992.852 785.342 1002.32 785.342Z" fill="#0D4163"/>
<path d="M1002.32 699.462C1011.79 699.462 1019.46 691.787 1019.46 682.319C1019.46 672.851 1011.79 665.176 1002.32 665.176C992.852 665.176 985.177 672.851 985.177 682.319C985.177 691.787 992.852 699.462 1002.32 699.462Z" fill="#0D4163"/>
<path d="M1088.2 956.788C1097.67 956.788 1105.34 949.113 1105.34 939.645C1105.34 930.177 1097.67 922.502 1088.2 922.502C1078.73 922.502 1071.06 930.177 1071.06 939.645C1071.06 949.113 1078.73 956.788 1088.2 956.788Z" fill="#0D4163"/>
<path d="M1088.2 870.907C1097.67 870.907 1105.34 863.232 1105.34 853.764C1105.34 844.296 1097.67 836.621 1088.2 836.621C1078.73 836.621 1071.06 844.296 1071.06 853.764C1071.06 863.232 1078.73 870.907 1088.2 870.907Z" fill="#0D4163"/>
<path d="M1088.2 785.342C1097.67 785.342 1105.34 777.667 1105.34 768.199C1105.34 758.732 1097.67 751.057 1088.2 751.057C1078.73 751.057 1071.06 758.732 1071.06 768.199C1071.06 777.667 1078.73 785.342 1088.2 785.342Z" fill="white"/>
<path d="M1088.2 699.462C1097.67 699.462 1105.34 691.787 1105.34 682.319C1105.34 672.851 1097.67 665.176 1088.2 665.176C1078.73 665.176 1071.06 672.851 1071.06 682.319C1071.06 691.787 1078.73 699.462 1088.2 699.462Z" fill="#0D4163"/>
<path d="M1173.77 956.788C1183.23 956.788 1190.91 949.113 1190.91 939.645C1190.91 930.177 1183.23 922.502 1173.77 922.502C1164.3 922.502 1156.62 930.177 1156.62 939.645C1156.62 949.113 1164.3 956.788 1173.77 956.788Z" fill="#0D4163"/>
<path d="M1173.77 870.907C1183.23 870.907 1190.91 863.232 1190.91 853.764C1190.91 844.296 1183.23 836.621 1173.77 836.621C1164.3 836.621 1156.62 844.296 1156.62 853.764C1156.62 863.232 1164.3 870.907 1173.77 870.907Z" fill="#0D4163"/>
<path d="M1173.77 785.342C1183.23 785.342 1190.91 777.667 1190.91 768.199C1190.91 758.732 1183.23 751.057 1173.77 751.057C1164.3 751.057 1156.62 758.732 1156.62 768.199C1156.62 777.667 1164.3 785.342 1173.77 785.342Z" fill="#0D4163"/>
<path d="M1173.77 699.462C1183.23 699.462 1190.91 691.787 1190.91 682.319C1190.91 672.851 1183.23 665.176 1173.77 665.176C1164.3 665.176 1156.62 672.851 1156.62 682.319C1156.62 691.787 1164.3 699.462 1173.77 699.462Z" fill="#0D4163"/>
<path d="M1259.65 956.788C1269.11 956.788 1276.79 949.113 1276.79 939.645C1276.79 930.177 1269.11 922.502 1259.65 922.502C1250.18 922.502 1242.5 930.177 1242.5 939.645C1242.5 949.113 1250.18 956.788 1259.65 956.788Z" fill="#0D4163"/>
<path d="M1259.65 870.907C1269.11 870.907 1276.79 863.232 1276.79 853.764C1276.79 844.296 1269.11 836.621 1259.65 836.621C1250.18 836.621 1242.5 844.296 1242.5 853.764C1242.5 863.232 1250.18 870.907 1259.65 870.907Z" fill="#0D4163"/>
<path d="M1259.65 785.342C1269.11 785.342 1276.79 777.667 1276.79 768.199C1276.79 758.732 1269.11 751.057 1259.65 751.057C1250.18 751.057 1242.5 758.732 1242.5 768.199C1242.5 777.667 1250.18 785.342 1259.65 785.342Z" fill="#0D4163"/>
<path d="M1259.65 699.462C1269.11 699.462 1276.79 691.787 1276.79 682.319C1276.79 672.851 1269.11 665.176 1259.65 665.176C1250.18 665.176 1242.5 672.851 1242.5 682.319C1242.5 691.787 1250.18 699.462 1259.65 699.462Z" fill="#0D4163"/>
<path d="M1002.32 356.571C1011.79 356.571 1019.46 348.896 1019.46 339.428C1019.46 329.961 1011.79 322.286 1002.32 322.286C992.852 322.286 985.177 329.961 985.177 339.428C985.177 348.896 992.852 356.571 1002.32 356.571Z" fill="#0D4163"/>
<path d="M1088.2 356.571C1097.67 356.571 1105.34 348.896 1105.34 339.428C1105.34 329.961 1097.67 322.286 1088.2 322.286C1078.73 322.286 1071.06 329.961 1071.06 339.428C1071.06 348.896 1078.73 356.571 1088.2 356.571Z" fill="#0D4163"/>
<path d="M1173.77 356.571C1183.23 356.571 1190.91 348.896 1190.91 339.428C1190.91 329.961 1183.23 322.286 1173.77 322.286C1164.3 322.286 1156.62 329.961 1156.62 339.428C1156.62 348.896 1164.3 356.571 1173.77 356.571Z" fill="#0D4163"/>
<path d="M1259.65 356.571C1269.11 356.571 1276.79 348.896 1276.79 339.428C1276.79 329.961 1269.11 322.286 1259.65 322.286C1250.18 322.286 1242.5 329.961 1242.5 339.428C1242.5 348.896 1250.18 356.571 1259.65 356.571Z" fill="#0D4163"/>
<path d="M1002.32 442.452C1011.79 442.452 1019.46 434.777 1019.46 425.309C1019.46 415.841 1011.79 408.166 1002.32 408.166C992.852 408.166 985.177 415.841 985.177 425.309C985.177 434.777 992.852 442.452 1002.32 442.452Z" fill="#0D4163"/>
<path d="M1088.2 442.452C1097.67 442.452 1105.34 434.777 1105.34 425.309C1105.34 415.841 1097.67 408.166 1088.2 408.166C1078.73 408.166 1071.06 415.841 1071.06 425.309C1071.06 434.777 1078.73 442.452 1088.2 442.452Z" fill="#0D4163"/>
<path d="M1173.77 442.452C1183.23 442.452 1190.91 434.777 1190.91 425.309C1190.91 415.841 1183.23 408.166 1173.77 408.166C1164.3 408.166 1156.62 415.841 1156.62 425.309C1156.62 434.777 1164.3 442.452 1173.77 442.452Z" fill="white"/>
<path d="M1259.65 442.452C1269.11 442.452 1276.79 434.777 1276.79 425.309C1276.79 415.841 1269.11 408.166 1259.65 408.166C1250.18 408.166 1242.5 415.841 1242.5 425.309C1242.5 434.777 1250.18 442.452 1259.65 442.452Z" fill="#0D4163"/>
<path d="M1002.32 528.016C1011.79 528.016 1019.46 520.341 1019.46 510.873C1019.46 501.406 1011.79 493.73 1002.32 493.73C992.852 493.73 985.177 501.406 985.177 510.873C985.177 520.341 992.852 528.016 1002.32 528.016Z" fill="#0D4163"/>
<path d="M1088.2 528.016C1097.67 528.016 1105.34 520.341 1105.34 510.873C1105.34 501.406 1097.67 493.73 1088.2 493.73C1078.73 493.73 1071.06 501.406 1071.06 510.873C1071.06 520.341 1078.73 528.016 1088.2 528.016Z" fill="#0D4163"/>
<path d="M1173.77 528.017C1183.23 528.017 1190.91 520.342 1190.91 510.874C1190.91 501.406 1183.23 493.731 1173.77 493.731C1164.3 493.731 1156.62 501.406 1156.62 510.874C1156.62 520.342 1164.3 528.017 1173.77 528.017Z" fill="#0D4163"/>
<path d="M1259.65 528.017C1269.11 528.017 1276.79 520.342 1276.79 510.874C1276.79 501.406 1269.11 493.731 1259.65 493.731C1250.18 493.731 1242.5 501.406 1242.5 510.874C1242.5 520.342 1250.18 528.017 1259.65 528.017Z" fill="#0D4163"/>
<path d="M1002.32 613.898C1011.79 613.898 1019.46 606.222 1019.46 596.755C1019.46 587.287 1011.79 579.612 1002.32 579.612C992.852 579.612 985.177 587.287 985.177 596.755C985.177 606.222 992.852 613.898 1002.32 613.898Z" fill="#0D4163"/>
<path d="M1088.2 613.898C1097.67 613.898 1105.34 606.222 1105.34 596.755C1105.34 587.287 1097.67 579.612 1088.2 579.612C1078.73 579.612 1071.06 587.287 1071.06 596.755C1071.06 606.222 1078.73 613.898 1088.2 613.898Z" fill="white"/>
<path d="M1173.77 613.898C1183.23 613.898 1190.91 606.222 1190.91 596.755C1190.91 587.287 1183.23 579.612 1173.77 579.612C1164.3 579.612 1156.62 587.287 1156.62 596.755C1156.62 606.222 1164.3 613.898 1173.77 613.898Z" fill="#0D4163"/>
<path d="M1259.65 613.898C1269.11 613.898 1276.79 606.222 1276.79 596.755C1276.79 587.287 1269.11 579.612 1259.65 579.612C1250.18 579.612 1242.5 587.287 1242.5 596.755C1242.5 606.222 1250.18 613.898 1259.65 613.898Z" fill="#0D4163"/>
<path d="M916.755 356.571C926.222 356.571 933.898 348.896 933.898 339.428C933.898 329.961 926.222 322.286 916.755 322.286C907.287 322.286 899.612 329.961 899.612 339.428C899.612 348.896 907.287 356.571 916.755 356.571Z" fill="#0D4163"/>
<path d="M916.755 442.452C926.222 442.452 933.898 434.777 933.898 425.309C933.898 415.841 926.222 408.166 916.755 408.166C907.287 408.166 899.612 415.841 899.612 425.309C899.612 434.777 907.287 442.452 916.755 442.452Z" fill="#0D4163"/>
<path d="M916.755 528.016C926.222 528.016 933.898 520.341 933.898 510.873C933.898 501.406 926.222 493.73 916.755 493.73C907.287 493.73 899.612 501.406 899.612 510.873C899.612 520.341 907.287 528.016 916.755 528.016Z" fill="#0D4163"/>
<path d="M916.755 613.898C926.222 613.898 933.898 606.222 933.898 596.755C933.898 587.287 926.222 579.612 916.755 579.612C907.287 579.612 899.612 587.287 899.612 596.755C899.612 606.222 907.287 613.898 916.755 613.898Z" fill="white"/>
<path d="M830.873 356.571C840.341 356.571 848.016 348.896 848.016 339.428C848.016 329.961 840.341 322.286 830.873 322.286C821.406 322.286 813.73 329.961 813.73 339.428C813.73 348.896 821.406 356.571 830.873 356.571Z" fill="#0D4163"/>
<path d="M830.873 442.452C840.341 442.452 848.016 434.777 848.016 425.309C848.016 415.841 840.341 408.166 830.873 408.166C821.406 408.166 813.73 415.841 813.73 425.309C813.73 434.777 821.406 442.452 830.873 442.452Z" fill="#0D4163"/>
<path d="M830.873 528.016C840.341 528.016 848.016 520.341 848.016 510.873C848.016 501.406 840.341 493.73 830.873 493.73C821.406 493.73 813.73 501.406 813.73 510.873C813.73 520.341 821.406 528.016 830.873 528.016Z" fill="#0D4163"/>
<path d="M830.873 613.898C840.341 613.898 848.016 606.222 848.016 596.755C848.016 587.287 840.341 579.612 830.873 579.612C821.406 579.612 813.73 587.287 813.73 596.755C813.73 606.222 821.406 613.898 830.873 613.898Z" fill="#0D4163"/>
<path d="M745.309 356.571C754.777 356.571 762.452 348.896 762.452 339.428C762.452 329.961 754.777 322.286 745.309 322.286C735.841 322.286 728.166 329.961 728.166 339.428C728.166 348.896 735.841 356.571 745.309 356.571Z" fill="#0D4163"/>
<path d="M745.309 442.452C754.777 442.452 762.452 434.777 762.452 425.309C762.452 415.841 754.777 408.166 745.309 408.166C735.841 408.166 728.166 415.841 728.166 425.309C728.166 434.777 735.841 442.452 745.309 442.452Z" fill="white"/>
<path d="M745.309 528.016C754.777 528.016 762.452 520.341 762.452 510.873C762.452 501.406 754.777 493.73 745.309 493.73C735.841 493.73 728.166 501.406 728.166 510.873C728.166 520.341 735.841 528.016 745.309 528.016Z" fill="#0D4163"/>
<path d="M745.309 613.898C754.777 613.898 762.452 606.222 762.452 596.755C762.452 587.287 754.777 579.612 745.309 579.612C735.841 579.612 728.166 587.287 728.166 596.755C728.166 606.222 735.841 613.898 745.309 613.898Z" fill="#0D4163"/>
<path d="M659.429 356.572C668.897 356.572 676.572 348.897 676.572 339.429C676.572 329.961 668.897 322.286 659.429 322.286C649.961 322.286 642.286 329.961 642.286 339.429C642.286 348.897 649.961 356.572 659.429 356.572Z" fill="#0D4163"/>
<path d="M659.428 442.452C668.896 442.452 676.571 434.777 676.571 425.309C676.571 415.841 668.896 408.166 659.428 408.166C649.961 408.166 642.286 415.841 642.286 425.309C642.286 434.777 649.961 442.452 659.428 442.452Z" fill="#0D4163"/>
<path d="M659.428 528.016C668.896 528.016 676.571 520.341 676.571 510.873C676.571 501.406 668.896 493.73 659.428 493.73C649.961 493.73 642.286 501.406 642.286 510.873C642.286 520.341 649.961 528.016 659.428 528.016Z" fill="#0D4163"/>
<path d="M659.428 613.898C668.896 613.898 676.571 606.222 676.571 596.755C676.571 587.287 668.896 579.612 659.428 579.612C649.961 579.612 642.286 587.287 642.286 596.755C642.286 606.222 649.961 613.898 659.428 613.898Z" fill="#0D4163"/>
<path d="M-388.571 640H690.286C697.86 640 704 646.14 704 653.714V754.286C704 761.86 710.14 768 717.715 768H746.286" stroke="white" stroke-width="9.14286"/>
<path d="M1131.43 -17.1426L1131.43 370.286C1131.43 377.86 1125.29 384 1117.71 384L973.714 384C966.14 384 960 390.14 960 397.715L960 582.857C960 590.432 953.86 596.572 946.286 596.572L917.714 596.572" stroke="white" stroke-width="9.14286"/>
<path d="M745.143 422.857V395.429C745.143 387.854 739.002 381.714 731.428 381.714H-228.572" stroke="white" stroke-width="9.14286"/>
<path d="M957.714 1294.29V825.143C957.714 817.569 963.854 811.429 971.428 811.429H1074.29C1081.86 811.429 1088 805.289 1088 797.715V769.143" stroke="white" stroke-width="9.14286"/>
<path d="M1088 597.714H1118.86C1126.43 597.714 1132.57 603.854 1132.57 611.429V710.857C1132.57 718.431 1138.71 724.572 1146.29 724.572H1203.43C1211 724.572 1217.14 730.712 1217.14 738.286V1295.43" stroke="white" stroke-width="9.14286"/>
<path d="M1174.86 425.143H1202.29C1209.86 425.143 1216 419.003 1216 411.429V396.572C1216 388.998 1222.14 382.857 1229.71 382.857H2171.43" stroke="white" stroke-width="9.14286"/>
</g>
<defs>
<clipPath id="clip0">
<rect width="1920" height="1280" fill="white"/>
</clipPath>
</defs>
</svg>
