<svg width="229" height="180" viewBox="0 0 229 180" fill="none" xmlns="http://www.w3.org/2000/svg">
<path d="M153.172 112.653V112.638L153.157 112.653H153.172Z" fill="white"/>
<path d="M75.4565 112.653H75.4718L75.4565 112.638V112.653Z" fill="white"/>
<path d="M48.8174 123.956C44.5269 123.956 41.2775 125.039 39.0695 127.206C36.8405 129.372 35.7417 132.622 35.7417 136.939C35.7417 141.257 36.8405 144.522 39.0695 146.689C41.2985 148.855 44.5321 149.97 48.8174 149.97C53.1027 149.97 56.352 148.871 58.5653 146.689C60.7786 144.506 61.9088 141.272 61.9088 136.939C61.9088 132.606 60.7943 129.372 58.5653 127.206C56.3363 125.039 53.1027 123.956 48.8174 123.956ZM54.9393 140.519C54.6987 141.407 54.2584 142.229 53.6521 142.921C53.0984 143.545 52.3887 144.011 51.5958 144.271C49.7781 144.815 47.841 144.815 46.0233 144.271C45.2279 144.007 44.5142 143.542 43.9513 142.921C43.3445 142.231 42.9089 141.408 42.6798 140.519C42.3595 139.353 42.2114 138.148 42.2403 136.939C42.2205 135.736 42.3738 134.536 42.6955 133.376C42.9225 132.479 43.3521 131.647 43.9513 130.942C44.5151 130.326 45.229 129.866 46.0233 129.608C47.8383 129.046 49.7808 129.046 51.5958 129.608C52.387 129.863 53.0965 130.324 53.6521 130.942C54.2558 131.648 54.6955 132.479 54.9393 133.376C55.2449 134.549 55.3875 135.759 55.3631 136.971C55.3858 138.167 55.2432 139.361 54.9393 140.519Z" fill="#A9995D"/>
<path d="M15.1634 143.015L10.2345 124.349H0V149.546H5.91782V129.969L11.3804 149.546H18.6639L24.1265 129.969V149.546H30.3582V124.349H20.108L15.1634 143.015Z" fill="#A9995D"/>
<path d="M79.2398 123.956C74.9597 123.956 71.7104 125.045 69.4919 127.221C67.2733 129.398 66.1641 132.643 66.1641 136.955C66.1641 141.288 67.2733 144.538 69.4919 146.704C71.7104 148.871 74.9597 149.964 79.2398 149.985C83.5303 149.985 86.7848 148.892 89.0034 146.704C91.2219 144.517 92.3312 141.267 92.3312 136.955C92.3312 132.643 91.2219 129.398 89.0034 127.221C86.7848 125.045 83.5303 123.956 79.2398 123.956ZM85.3773 140.534C85.1339 141.418 84.6999 142.238 84.1059 142.936C83.543 143.557 82.8292 144.022 82.0338 144.287C80.2162 144.831 78.279 144.831 76.4614 144.287C75.666 144.022 74.9522 143.557 74.3893 142.936C73.7882 142.243 73.3534 141.421 73.1179 140.534C72.7976 139.369 72.6495 138.163 72.6784 136.955C72.6519 135.747 72.8 134.541 73.1179 133.376C73.3613 132.492 73.7953 131.672 74.3893 130.974C74.9532 130.357 75.667 129.898 76.4614 129.639C78.2763 129.077 80.2189 129.077 82.0338 129.639C82.8282 129.898 83.5421 130.357 84.1059 130.974C84.695 131.675 85.1284 132.494 85.3773 133.376C85.6889 134.548 85.8368 135.758 85.8169 136.971C85.835 138.168 85.6871 139.362 85.3773 140.519V140.534Z" fill="#A9995D"/>
<path d="M114.636 141.429L105.752 124.349H97.7148V149.546H103.648V132.088L112.737 149.546H120.554V124.349H114.636V141.429Z" fill="#A9995D"/>
<path d="M221.721 144.365C220.742 144.378 219.764 144.294 218.802 144.114C218.045 143.988 217.32 143.716 216.667 143.313C216.092 142.942 215.618 142.436 215.286 141.838C214.913 141.133 214.668 140.367 214.563 139.577H227.875V134.271H214.563C214.668 133.476 214.924 132.708 215.317 132.01C215.655 131.424 216.129 130.929 216.698 130.566C217.352 130.186 218.071 129.93 218.817 129.812C219.778 129.658 220.749 129.585 221.721 129.592H228.267V124.349H220.418C216.138 124.349 212.968 125.395 210.906 127.488C208.844 129.582 207.798 132.722 207.767 136.908C207.767 141.199 208.813 144.37 210.906 146.422C212.999 148.473 216.17 149.52 220.418 149.562H228.597V144.365H221.721Z" fill="#A9995D"/>
<path d="M195.79 134.271H191.081C190.764 134.309 190.443 134.274 190.141 134.17C189.84 134.066 189.565 133.895 189.339 133.67C189.113 133.445 188.94 133.172 188.834 132.871C188.728 132.57 188.691 132.249 188.726 131.932C188.691 131.615 188.728 131.294 188.834 130.993C188.94 130.692 189.113 130.419 189.339 130.194C189.565 129.969 189.84 129.798 190.141 129.694C190.443 129.59 190.764 129.555 191.081 129.593H202.383V124.349H189.747C188.72 124.195 187.672 124.283 186.686 124.609C185.7 124.934 184.805 125.486 184.072 126.221C183.338 126.956 182.788 127.852 182.465 128.839C182.142 129.826 182.055 130.874 182.212 131.901C182.133 132.929 182.257 133.963 182.577 134.944C182.898 135.924 183.409 136.832 184.08 137.615C184.847 138.299 185.744 138.82 186.718 139.147C187.692 139.473 188.723 139.599 189.747 139.515H194.55C195.094 139.624 195.583 139.918 195.935 140.348C196.286 140.777 196.478 141.315 196.478 141.87C196.478 142.424 196.286 142.962 195.935 143.392C195.583 143.821 195.094 144.115 194.55 144.224H182.903V149.547H195.79C196.823 149.617 197.859 149.483 198.84 149.152C199.82 148.82 200.726 148.298 201.504 147.616C202.765 145.981 203.449 143.974 203.449 141.909C203.449 139.844 202.765 137.837 201.504 136.202C200.726 135.519 199.82 134.997 198.84 134.666C197.859 134.334 196.823 134.2 195.79 134.271Z" fill="#A9995D"/>
<path d="M162.496 124.349L152.795 149.467H159.529L161.193 144.569H170.91L172.668 149.546H179.543L169.842 124.427L162.496 124.349ZM162.936 139.483L166.075 130.283L169.215 139.483H162.936Z" fill="#A9995D"/>
<path d="M148.385 138.211C147.939 137.752 147.405 137.389 146.815 137.144C146.386 136.956 145.939 136.814 145.481 136.72C145.783 136.644 146.078 136.539 146.36 136.406C146.807 136.18 147.211 135.877 147.553 135.511C147.997 135.015 148.352 134.447 148.604 133.831C148.953 132.968 149.129 132.045 149.122 131.115C149.141 130.117 148.965 129.125 148.604 128.195C148.286 127.386 147.787 126.661 147.145 126.076C146.474 125.49 145.688 125.051 144.837 124.788C143.873 124.482 142.866 124.334 141.855 124.349H127.146V149.467H142.702C143.762 149.475 144.817 149.343 145.842 149.075C146.713 148.843 147.525 148.431 148.228 147.866C148.907 147.315 149.445 146.61 149.797 145.809C150.175 144.878 150.357 143.879 150.331 142.874C150.362 141.89 150.185 140.912 149.813 140.001C149.455 139.319 148.971 138.711 148.385 138.211ZM133.284 129.514H140.128C140.8 129.461 141.466 129.663 141.996 130.079C142.402 130.602 142.622 131.246 142.622 131.908C142.622 132.57 142.402 133.214 141.996 133.737C141.466 134.153 140.8 134.355 140.128 134.302H133.284V129.514ZM141.274 144.365H133.284V139.451H141.274C141.892 139.501 142.468 139.781 142.888 140.236C143.308 140.692 143.542 141.289 143.542 141.908C143.542 142.528 143.308 143.125 142.888 143.58C142.468 144.035 141.892 144.316 141.274 144.365Z" fill="#A9995D"/>
<path d="M82.1272 175.56C81.6604 175.46 81.2309 175.232 80.8871 174.901C80.5648 174.556 80.3376 174.134 80.2278 173.676C80.0779 173.06 80.0093 172.426 80.0238 171.792V161.242H75.4873V172.404C75.4873 177.198 77.8837 179.595 82.6766 179.595H88.9554V175.764H84.0108C83.3767 175.78 82.7432 175.712 82.1272 175.56Z" fill="#5D7085"/>
<path d="M99.2048 161.242L92.1411 179.595H97.0543L98.263 176.031H105.342L106.567 179.595H111.574L104.51 161.242H99.2048ZM99.5345 172.232L101.795 165.528L104.071 172.232H99.5345Z" fill="#5D7085"/>
<path d="M151.729 169.861C151.159 169.365 150.497 168.985 149.78 168.746C149.064 168.506 148.307 168.41 147.553 168.464H144.131C143.9 168.481 143.669 168.451 143.45 168.376C143.231 168.3 143.03 168.181 142.86 168.025C142.576 167.664 142.421 167.219 142.421 166.761C142.421 166.302 142.576 165.857 142.86 165.497C143.03 165.341 143.231 165.221 143.45 165.146C143.669 165.07 143.9 165.04 144.131 165.057H152.356V161.242H143.158C142.414 161.18 141.666 161.267 140.957 161.499C140.248 161.731 139.592 162.103 139.03 162.593C138.143 163.796 137.666 165.251 137.666 166.745C137.666 168.239 138.143 169.694 139.03 170.897C139.588 171.396 140.242 171.776 140.952 172.013C141.661 172.251 142.412 172.341 143.158 172.279H146.658C147.12 172.279 147.564 172.463 147.89 172.789C148.217 173.116 148.401 173.559 148.401 174.022C148.401 174.484 148.217 174.927 147.89 175.254C147.564 175.581 147.12 175.764 146.658 175.764H138.135V179.595H147.553C148.654 179.537 149.716 179.173 150.621 178.542C151.525 177.912 152.234 177.04 152.669 176.027C153.103 175.014 153.246 173.9 153.079 172.81C152.913 171.72 152.445 170.699 151.729 169.861Z" fill="#5D7085"/>
<path d="M131.478 171.321C131.149 171.001 130.767 170.74 130.348 170.552C130.034 170.42 129.708 170.32 129.375 170.254C129.595 170.192 129.81 170.114 130.018 170.018C130.345 169.855 130.638 169.632 130.882 169.359C131.209 169 131.469 168.585 131.651 168.134C131.89 167.503 132.002 166.831 131.98 166.156C131.994 165.432 131.866 164.712 131.604 164.037C131.368 163.438 130.997 162.901 130.521 162.467C130.038 162.044 129.471 161.728 128.857 161.541C128.151 161.319 127.414 161.213 126.675 161.227H115.954V179.579H127.287C128.05 179.581 128.811 179.481 129.547 179.281C130.182 179.117 130.775 178.823 131.29 178.417C131.779 177.988 132.161 177.451 132.404 176.848C132.682 176.171 132.816 175.444 132.797 174.712C132.818 173.998 132.69 173.286 132.42 172.624C132.186 172.138 131.867 171.696 131.478 171.321ZM120.49 165.042H125.482C125.974 165.003 126.463 165.155 126.847 165.466C127.012 165.641 127.138 165.849 127.217 166.076C127.295 166.303 127.325 166.545 127.303 166.784C127.323 167.026 127.293 167.27 127.215 167.499C127.136 167.729 127.011 167.94 126.847 168.119C126.458 168.418 125.972 168.564 125.482 168.527H120.474L120.49 165.042ZM126.298 175.874H120.49V172.279H126.298C126.746 172.321 127.162 172.528 127.464 172.861C127.767 173.193 127.935 173.627 127.935 174.077C127.935 174.526 127.767 174.96 127.464 175.292C127.162 175.625 126.746 175.832 126.298 175.874Z" fill="#5D7085"/>
<path d="M162.872 33.1367C167.545 33.1367 171.333 29.3481 171.333 24.6748C171.333 20.0014 167.545 16.2129 162.872 16.2129C158.2 16.2129 154.412 20.0014 154.412 24.6748C154.412 29.3481 158.2 33.1367 162.872 33.1367Z" fill="url(#paint0_linear)"/>
<path d="M116.158 52.4311L133.174 31.4727C132.084 30.8066 130.958 30.2038 129.799 29.6673C121.44 25.7465 111.908 25.1297 103.114 27.9403L111.716 51.7404C113.232 51.5018 114.786 51.7433 116.158 52.4311Z" fill="#4B5A6B"/>
<path d="M116.158 52.4311L133.174 31.4727C132.084 30.8066 130.958 30.2038 129.799 29.6673C121.44 25.7465 111.908 25.1297 103.114 27.9403L111.716 51.7404C113.232 51.5018 114.786 51.7433 116.158 52.4311Z" fill="url(#paint1_linear)"/>
<path d="M95.6113 89.0102H109.974L95.6113 85.1953V89.0102Z" fill="#6F7B89"/>
<path d="M127.962 89.0107H133.033V87.1582L127.962 89.0107Z" fill="#6F7B89"/>
<path d="M127.618 43.1846L118.498 54.3781L127.618 43.1846Z" fill="#939CA6"/>
<path d="M114.322 97.2677C106.632 97.1653 99.188 99.9686 93.4757 105.117C91.1792 107.253 89.2629 109.764 87.8091 112.543H95.1553C96.8203 109.574 99.1519 107.033 101.966 105.119C104.781 103.206 108.001 101.972 111.374 101.515C114.746 101.059 118.179 101.392 121.401 102.488C124.623 103.584 127.546 105.414 129.94 107.833C131.31 109.238 132.482 110.822 133.425 112.543H140.834C138.223 107.825 134.375 103.908 129.703 101.217C125.03 98.5247 119.712 97.1593 114.322 97.2677Z" fill="white"/>
<path d="M144.571 101.695L138.496 98.9947L137.115 92.3696C137.097 92.288 137.051 92.2152 136.985 92.1636C136.919 92.1121 136.837 92.085 136.754 92.087H91.8914C91.8045 92.088 91.7203 92.1178 91.6521 92.1718C91.5839 92.2257 91.5356 92.3009 91.5147 92.3853L90.1334 98.9947L84.0586 101.695C79.8046 103.579 76.9792 107.19 75.4565 112.684H84.3568C86.0513 109.03 88.4397 105.741 91.3891 102.998C97.6603 97.3031 105.853 94.1906 114.323 94.2849C126.488 94.2849 138.747 100.565 144.304 112.684H153.173C151.65 107.19 148.825 103.547 144.571 101.695Z" fill="white"/>
<path d="M114.322 104.584C111.291 104.588 108.305 105.324 105.619 106.729C102.933 108.134 100.625 110.166 98.8921 112.654H129.784C129.18 111.767 128.502 110.932 127.759 110.158C126.004 108.379 123.912 106.97 121.604 106.013C119.296 105.056 116.821 104.57 114.322 104.584Z" fill="white"/>
<path d="M95.9561 73.8761L100.1 74.9751L94.3079 59.0875C93.8923 57.9404 93.2033 56.912 92.3007 56.0913C91.3981 55.2707 90.309 54.6825 89.1278 54.3777L79.1758 51.7402C77.3723 57.3106 76.9256 63.2314 77.873 69.0094L95.9561 73.8761Z" fill="white"/>
<path d="M97.1956 58.02L103.726 75.9328L117.445 79.575C118.927 79.9643 120.493 79.8931 121.934 79.3709L133.425 75.2891L136.894 74.0332C137.227 73.9152 137.568 73.8208 137.914 73.7506C138.597 73.5658 139.296 73.4501 140.002 73.4052C141.059 73.3652 142.117 73.4816 143.141 73.7506L149.059 75.3205C149.596 73.781 150.031 72.2076 150.362 70.6108L119.297 62.353C118.456 64.0373 117.001 65.335 115.232 65.9795C113.852 66.487 112.353 66.5726 110.925 66.2256C109.496 65.8786 108.204 65.1145 107.211 64.0306C106.218 62.9467 105.57 61.592 105.349 60.1387C105.128 58.6854 105.344 57.1992 105.97 55.8692C106.577 54.5733 107.548 53.4822 108.764 52.7293L100.131 29.0078C95.6607 30.8299 91.5983 33.5246 88.1808 36.9344C84.7634 40.3442 82.0595 44.4008 80.2271 48.8673L89.9122 51.3949C91.5722 51.8261 93.1026 52.6544 94.3714 53.8085C95.6402 54.9626 96.6094 56.408 97.1956 58.02Z" fill="white"/>
<path d="M137.867 76.8583L123.002 82.2745C122.451 82.4722 121.883 82.6193 121.306 82.7141C121.191 82.7217 121.076 82.7217 120.961 82.7141C120.503 82.7793 120.042 82.8212 119.58 82.8397H119.407C119.203 82.8397 119.014 82.8397 118.81 82.8397H118.151C117.743 82.7769 117.335 82.6984 116.927 82.6042H116.723H116.566L102.281 78.8207H102.109L78.6729 72.541C79.1778 74.4357 79.8285 76.2885 80.6193 78.0828L115.655 87.3925C118.681 88.1943 121.88 88.0519 124.822 86.9843L145.794 79.3388C146.472 79.053 147.074 78.6121 147.552 78.0514L142.293 76.6699C140.834 76.2756 139.288 76.3414 137.867 76.8583Z" fill="white"/>
<path d="M112.753 63.3733C115.164 63.3733 117.117 61.4193 117.117 59.0089C117.117 56.5985 115.164 54.6445 112.753 54.6445C110.343 54.6445 108.39 56.5985 108.39 59.0089C108.39 61.4193 110.343 63.3733 112.753 63.3733Z" fill="white"/>
<path d="M114.321 101.506C110.424 101.489 106.592 102.513 103.222 104.472C99.8528 106.432 97.0678 109.256 95.1553 112.653H98.8912C100.479 110.387 102.544 108.497 104.941 107.115C107.338 105.733 110.009 104.894 112.766 104.656C115.522 104.418 118.297 104.787 120.896 105.738C123.494 106.688 125.853 108.196 127.805 110.157C128.549 110.931 129.226 111.766 129.83 112.653H133.425C131.534 109.251 128.763 106.421 125.401 104.46C122.04 102.499 118.213 101.478 114.321 101.506Z" fill="#4B5A6B"/>
<path d="M114.323 94.254C105.853 94.1598 97.6604 97.2723 91.3892 102.967C88.4398 105.71 86.0514 109 84.3569 112.654H87.8103C89.2641 109.875 91.1804 107.363 93.477 105.228C99.1892 100.079 106.634 97.2758 114.323 97.3782C119.714 97.2698 125.032 98.6352 129.704 101.327C134.376 104.019 138.225 107.935 140.835 112.654H144.304C138.747 100.534 126.488 94.254 114.323 94.254Z" fill="#4B5A6B"/>
<path d="M170.094 33.6547C172.414 31.7572 173.906 29.0308 174.251 26.0529C174.597 23.0751 173.771 20.0794 171.947 17.7003C170.123 15.3213 167.445 13.7455 164.48 13.3067C161.515 12.8679 158.495 13.6005 156.06 15.3494L155.794 15.5535C149.454 10.0167 142.069 5.80612 134.076 3.17013C126.082 0.534146 117.642 -0.473818 109.253 0.205719C100.863 0.885256 92.6953 3.23853 85.2301 7.12667C77.765 11.0148 71.1542 16.359 65.7879 22.844C60.4215 29.329 56.4083 36.8233 53.985 44.8847C51.5617 52.9462 50.7775 61.4114 51.6787 69.7809C52.5798 78.1504 55.148 86.2545 59.2317 93.6152C63.3155 100.976 68.832 107.444 75.4558 112.637C77.0255 107.19 79.8039 103.579 84.0578 101.648L90.1326 98.9478L91.5139 92.3384C91.5348 92.2539 91.5831 92.1788 91.6513 92.1248C91.7195 92.0708 91.8037 92.041 91.8907 92.0401H136.753C136.837 92.0381 136.918 92.0652 136.984 92.1167C137.05 92.1683 137.096 92.2411 137.114 92.3227L138.495 98.9478L144.57 101.648C148.824 103.532 151.65 107.143 153.172 112.637C164.832 103.566 172.92 90.6742 176.015 76.2282C179.11 61.7822 177.013 46.7074 170.094 33.6547ZM120.161 59.3857C120.21 58.3877 120.061 57.3899 119.722 56.45C119.436 55.689 119.022 54.9827 118.497 54.362L127.617 43.1684C128.329 44.2863 129.232 45.2695 130.286 46.0728L136.847 49.1184C137.075 49.2723 137.266 49.4755 137.405 49.713C137.544 49.9505 137.628 50.2162 137.651 50.4905C137.673 50.7648 137.634 51.0407 137.536 51.2978C137.437 51.5548 137.283 51.7865 137.083 51.9757L134.869 54.1265L137.177 56.8895C137.337 57.0812 137.438 57.316 137.466 57.5645C137.494 57.813 137.448 58.0642 137.334 58.2868L136.204 60.4062L137.522 59.9038C137.834 59.7781 138.183 59.7781 138.495 59.9038C138.649 59.9732 138.786 60.073 138.899 60.1971C139.013 60.3213 139.099 60.4672 139.155 60.626L140.175 63.5617C140.303 63.9368 140.408 64.3196 140.489 64.7077L120.161 59.3857ZM129.799 29.6671C130.958 30.2037 132.085 30.8065 133.174 31.4725L116.158 52.431C114.786 51.7431 113.233 51.5016 111.716 51.7402L103.083 28.0187C111.877 25.1752 121.421 25.7641 129.799 29.6671ZM117.116 59.0089C117.116 59.8759 116.859 60.7234 116.377 61.444C115.895 62.1646 115.21 62.726 114.409 63.0571C113.608 63.3881 112.726 63.4739 111.876 63.3037C111.026 63.1334 110.246 62.7147 109.634 62.1005C109.022 61.4864 108.606 60.7045 108.439 59.8538C108.272 59.0031 108.361 58.1219 108.695 57.3218C109.029 56.5218 109.592 55.8388 110.315 55.3594C111.037 54.88 111.885 54.6257 112.752 54.6288C113.327 54.6288 113.895 54.7423 114.426 54.9626C114.956 55.1829 115.438 55.5058 115.843 55.9127C116.249 56.3196 116.57 56.8026 116.788 57.3339C117.007 57.8653 117.118 58.4345 117.116 59.0089ZM79.176 51.7402L89.128 54.3463C90.3091 54.651 91.3982 55.2392 92.3009 56.0599C93.2035 56.8806 93.8924 57.909 94.308 59.056L100.1 74.975L95.9562 73.8761L77.8731 69.0093C76.9258 63.2313 77.3725 57.3106 79.176 51.7402ZM95.5952 89.0102V85.1952L109.974 89.0102H95.5952ZM133.033 89.0102H127.963L133.033 87.1576V89.0102ZM145.716 79.2609L124.745 86.9065C121.802 87.9741 118.603 88.1165 115.578 87.3146L80.5416 78.005C79.7509 76.2107 79.1001 74.3579 78.5952 72.4632L102.031 78.7429H102.204L116.488 82.5264H116.645H116.849C117.257 82.6206 117.665 82.6991 118.073 82.7619H118.733C118.937 82.7619 119.125 82.7619 119.329 82.7619H119.502C119.964 82.7434 120.425 82.7015 120.883 82.6363C120.998 82.6439 121.114 82.6439 121.229 82.6363C121.806 82.5415 122.373 82.3944 122.924 82.1967L137.868 76.859C139.289 76.342 140.834 76.2762 142.294 76.6706L147.553 78.0521C147.044 78.5943 146.415 79.0086 145.716 79.2609ZM148.997 75.289L143.079 73.7191C142.055 73.4501 140.997 73.3337 139.94 73.3737C139.234 73.4186 138.534 73.5343 137.852 73.7191C137.506 73.7893 137.165 73.8837 136.832 74.0017L133.425 75.289L122.013 79.4493C120.572 79.9715 119.007 80.0427 117.524 79.6534L103.805 76.0112L97.1963 58.0199C96.6122 56.4049 95.6439 54.9564 94.3749 53.7995C93.106 52.6425 91.5745 51.8118 89.9128 51.3791L80.2277 48.8515C82.0655 44.3806 84.7767 40.3213 88.2025 36.9113C91.6282 33.5012 95.6998 30.8089 100.179 28.992L108.812 52.7135C107.369 53.6147 106.279 54.9845 105.724 56.5934C105.17 58.2024 105.185 59.953 105.767 61.5522C106.098 62.4696 106.607 63.3125 107.265 64.0322C107.924 64.7519 108.718 65.3343 109.602 65.7458C110.486 66.1573 111.443 66.3898 112.417 66.4299C113.392 66.47 114.364 66.3169 115.279 65.9794C117.031 65.3247 118.467 64.0282 119.298 62.3529L150.3 70.5793C149.969 72.1761 149.534 73.7495 148.997 75.289ZM167.833 31.5353C166.016 32.7527 163.798 33.2203 161.644 32.8403C159.49 32.4602 157.566 31.2619 156.274 29.496C154.983 27.7301 154.424 25.5333 154.715 23.365C155.006 21.1966 156.123 19.2246 157.834 17.8613L158.085 17.72C159.471 16.7657 161.112 16.2514 162.795 16.2442C164.016 16.2383 165.225 16.4981 166.337 17.0057C167.448 17.5133 168.436 18.2565 169.232 19.1839C170.028 20.1113 170.613 21.2006 170.946 22.3764C171.279 23.5522 171.352 24.7864 171.161 25.9935C170.86 27.8886 169.918 29.6231 168.493 30.9073C168.32 31.08 168.116 31.3312 167.865 31.5039L167.833 31.5353Z" fill="#4B5A6B"/>
<path d="M135.749 33.1836L127.618 43.184C128.331 44.2962 129.234 45.2741 130.287 46.0727L136.848 49.1183C137.076 49.2722 137.267 49.4754 137.406 49.7129C137.545 49.9504 137.629 50.2161 137.652 50.4904C137.674 50.7647 137.635 51.0406 137.537 51.2977C137.438 51.5547 137.283 51.7864 137.084 51.9756L134.87 54.1264L137.178 56.8894C137.338 57.0811 137.439 57.3158 137.467 57.5644C137.495 57.8129 137.449 58.0641 137.335 58.2866L136.204 60.406L137.523 59.9037C137.835 59.7779 138.184 59.7779 138.496 59.9037C138.649 59.9731 138.787 60.0729 138.9 60.197C139.013 60.3212 139.1 60.4671 139.156 60.6258L140.176 63.5616C140.304 63.9367 140.409 64.3194 140.49 64.7076L150.881 67.4707C151.641 60.9256 150.639 54.2963 147.979 48.2684C145.319 42.2404 141.097 37.0326 135.749 33.1836Z" fill="url(#paint2_linear)"/>
<path d="M140.096 63.6093L139.076 60.6735C139.02 60.5147 138.933 60.3688 138.82 60.2447C138.707 60.1205 138.569 60.0207 138.416 59.9513C138.104 59.8256 137.755 59.8256 137.443 59.9513L136.125 60.4537L137.255 58.3343C137.369 58.1118 137.415 57.8606 137.387 57.612C137.359 57.3635 137.258 57.1287 137.098 56.9371L134.79 54.174L137.004 52.0232C137.204 51.8341 137.358 51.6024 137.457 51.3453C137.555 51.0883 137.594 50.8124 137.572 50.5381C137.549 50.2638 137.465 49.998 137.326 49.7605C137.187 49.523 136.996 49.3198 136.768 49.166L130.285 46.0732C129.261 45.2678 128.385 44.2903 127.695 43.1846L118.575 54.3781C119.071 54.9998 119.458 55.7003 119.721 56.4504C120.058 57.3855 120.207 58.3777 120.161 59.3705L140.41 64.7396C140.329 64.3567 140.224 63.9792 140.096 63.6093Z" fill="#939CA6"/>
<defs>
<linearGradient id="paint0_linear" x1="154.412" y1="24.6748" x2="171.333" y2="24.6748" gradientUnits="userSpaceOnUse">
<stop stop-color="#A9995D"/>
<stop offset="1" stop-color="#D9C393"/>
</linearGradient>
<linearGradient id="paint1_linear" x1="2077.15" y1="684.002" x2="2653.4" y2="684.002" gradientUnits="userSpaceOnUse">
<stop stop-color="#A9995D"/>
<stop offset="1" stop-color="#D9C393"/>
</linearGradient>
<linearGradient id="paint2_linear" x1="129.188" y1="39.7459" x2="153.883" y2="64.4374" gradientUnits="userSpaceOnUse">
<stop stop-color="#4B5A6B"/>
<stop offset="0.75" stop-color="#6D7987"/>
</linearGradient>
</defs>
</svg>
