<svg width="229" height="180" fill="none" xmlns="http://www.w3.org/2000/svg"><path d="M153.172 112.653v-.015l-.015.015h.015zM75.457 112.653h.015l-.015-.015v.015z" fill="#fff"/><path d="M48.817 123.956c-4.29 0-7.54 1.083-9.748 3.25-2.229 2.166-3.327 5.416-3.327 9.733 0 4.318 1.099 7.583 3.328 9.75 2.228 2.166 5.462 3.281 9.747 3.281 4.286 0 7.535-1.099 9.748-3.281 2.214-2.183 3.344-5.417 3.344-9.75s-1.115-7.567-3.344-9.733c-2.229-2.167-5.462-3.25-9.748-3.25zm6.122 16.563c-.24.888-.68 1.71-1.287 2.402a4.712 4.712 0 01-2.056 1.35 9.718 9.718 0 01-5.573 0 4.865 4.865 0 01-2.072-1.35 5.847 5.847 0 01-1.271-2.402 12.391 12.391 0 01-.44-3.58 12.56 12.56 0 01.456-3.563 6.049 6.049 0 011.255-2.434 4.834 4.834 0 012.072-1.334 9.42 9.42 0 015.573 0c.791.255 1.5.716 2.056 1.334a6.279 6.279 0 011.287 2.434c.306 1.173.449 2.383.424 3.595.023 1.196-.12 2.39-.424 3.548zM15.163 143.015l-4.928-18.666H0v25.197h5.918v-19.577l5.462 19.577h7.284l5.462-19.577v19.577h6.232v-25.197h-10.25l-4.945 18.666zM79.24 123.956c-4.28 0-7.53 1.089-9.748 3.265-2.219 2.177-3.328 5.422-3.328 9.734 0 4.333 1.11 7.583 3.328 9.749 2.218 2.167 5.468 3.26 9.748 3.281 4.29 0 7.545-1.093 9.763-3.281 2.219-2.187 3.328-5.437 3.328-9.749s-1.11-7.557-3.328-9.734c-2.218-2.176-5.473-3.265-9.763-3.265zm6.137 16.578a6.278 6.278 0 01-1.271 2.402 4.877 4.877 0 01-2.072 1.351 9.717 9.717 0 01-5.573 0 4.877 4.877 0 01-2.072-1.351 6.026 6.026 0 01-1.271-2.402 12.385 12.385 0 01-.44-3.579 12.553 12.553 0 01.44-3.579 6.278 6.278 0 011.271-2.402 4.836 4.836 0 012.072-1.335 9.42 9.42 0 015.573 0 4.836 4.836 0 012.072 1.335 6.461 6.461 0 011.271 2.402c.312 1.172.46 2.382.44 3.595a12.96 12.96 0 01-.44 3.548v.015zM114.636 141.429l-8.884-17.08h-8.037v25.197h5.933v-17.458l9.089 17.458h7.817v-25.197h-5.918v17.08zM221.721 144.365a14.804 14.804 0 01-2.919-.251 5.914 5.914 0 01-2.135-.801 4.155 4.155 0 01-1.381-1.475 6.733 6.733 0 01-.723-2.261h13.312v-5.306h-13.312a6.288 6.288 0 01.754-2.261 4.205 4.205 0 011.381-1.444 6.125 6.125 0 012.119-.754 17.55 17.55 0 012.904-.22h6.546v-5.243h-7.849c-4.28 0-7.45 1.046-9.512 3.139-2.062 2.094-3.108 5.234-3.139 9.42 0 4.291 1.046 7.462 3.139 9.514 2.093 2.051 5.264 3.098 9.512 3.14h8.179v-5.197h-6.876zM195.79 134.271h-4.709a2.113 2.113 0 01-2.247-1.4 2.125 2.125 0 01-.108-.939 2.125 2.125 0 011.415-2.238c.302-.104.623-.139.94-.101h11.302v-5.244h-12.636a6.62 6.62 0 00-5.675 1.872 6.615 6.615 0 00-1.86 5.68 7.869 7.869 0 00.365 3.043c.321.98.832 1.888 1.503 2.671a7.594 7.594 0 005.667 1.9h4.803a2.398 2.398 0 011.928 2.355 2.402 2.402 0 01-1.928 2.354h-11.647v5.323h12.887a7.873 7.873 0 003.05-.395 7.876 7.876 0 002.664-1.536 9.345 9.345 0 000-11.414 7.843 7.843 0 00-5.714-1.931zM162.496 124.349l-9.701 25.118h6.734l1.664-4.898h9.717l1.758 4.977h6.875l-9.701-25.119-7.346-.078zm.44 15.134l3.139-9.2 3.14 9.2h-6.279zM148.385 138.211a4.705 4.705 0 00-1.57-1.067 6.658 6.658 0 00-1.334-.424c.302-.076.597-.181.879-.314a4.27 4.27 0 001.193-.895 5.824 5.824 0 001.051-1.68 7.103 7.103 0 00.518-2.716 7.666 7.666 0 00-.518-2.92 5.675 5.675 0 00-1.459-2.119 6.367 6.367 0 00-2.308-1.288 9.395 9.395 0 00-2.982-.439h-14.709v25.118h15.556a12.05 12.05 0 003.14-.392 6.464 6.464 0 002.386-1.209 5.497 5.497 0 001.569-2.057 7.3 7.3 0 00.534-2.935 7.013 7.013 0 00-.518-2.873 6.046 6.046 0 00-1.428-1.79zm-15.101-8.697h6.844a2.683 2.683 0 011.868.565 2.983 2.983 0 010 3.658 2.683 2.683 0 01-1.868.565h-6.844v-4.788zm7.99 14.851h-7.99v-4.914h7.99a2.466 2.466 0 011.614 4.129c-.42.455-.996.736-1.614.785z" fill="#A9995D"/><path d="M82.127 175.56a2.561 2.561 0 01-1.24-.659 2.726 2.726 0 01-.66-1.225 7.269 7.269 0 01-.203-1.884v-10.55h-4.537v11.162c0 4.794 2.397 7.191 7.19 7.191h6.278v-3.831h-4.944a7.113 7.113 0 01-1.884-.204zM99.205 161.242l-7.064 18.353h4.913l1.209-3.564h7.079l1.225 3.564h5.007l-7.064-18.353h-5.305zm.33 10.99l2.26-6.704 2.276 6.704h-4.537zM151.729 169.861a5.732 5.732 0 00-4.176-1.397h-3.422a1.692 1.692 0 01-1.271-.439 2.045 2.045 0 010-2.528 1.694 1.694 0 011.271-.44h8.225v-3.815h-9.198a5.584 5.584 0 00-4.128 1.351 6.995 6.995 0 000 8.304 5.501 5.501 0 004.128 1.382h3.5a1.744 1.744 0 011.232 2.975 1.74 1.74 0 01-1.232.51h-8.523v3.831h9.418a5.905 5.905 0 005.526-6.785 5.91 5.91 0 00-1.35-2.949zM131.478 171.321a3.928 3.928 0 00-1.13-.769 5.04 5.04 0 00-.973-.298c.22-.062.435-.14.643-.236.327-.163.62-.386.864-.659.327-.359.587-.774.769-1.225a5.113 5.113 0 00.329-1.978 5.56 5.56 0 00-.376-2.119 4.218 4.218 0 00-1.083-1.57 4.529 4.529 0 00-1.664-.926 6.843 6.843 0 00-2.182-.314h-10.721v18.352h11.333a8.538 8.538 0 002.26-.298 4.72 4.72 0 001.743-.864 4.153 4.153 0 001.114-1.569 5.262 5.262 0 00.393-2.136 5.132 5.132 0 00-.377-2.088 4.556 4.556 0 00-.942-1.303zm-10.988-6.279h4.992c.492-.039.981.113 1.365.424a1.707 1.707 0 01.456 1.318 1.768 1.768 0 01-.456 1.335 1.994 1.994 0 01-1.365.408h-5.008l.016-3.485zm5.808 10.832h-5.808v-3.595h5.808a1.804 1.804 0 010 3.595z" fill="#5D7085"/><path d="M162.872 33.137a8.461 8.461 0 008.461-8.462 8.461 8.461 0 10-16.921 0 8.461 8.461 0 008.46 8.462z" fill="url(#paint0_linear)"/><path d="M116.158 52.431l17.016-20.958a33.288 33.288 0 00-3.375-1.806 36.6 36.6 0 00-26.685-1.727l8.602 23.8a7.36 7.36 0 014.442.691z" fill="#4B5A6B"/><path d="M116.158 52.431l17.016-20.958a33.288 33.288 0 00-3.375-1.806 36.6 36.6 0 00-26.685-1.727l8.602 23.8a7.36 7.36 0 014.442.691z" fill="url(#paint1_linear)"/><path d="M95.611 89.01h14.363l-14.363-3.815v3.815zM127.962 89.01h5.071v-1.852l-5.071 1.853z" fill="#6F7B89"/><path d="M127.618 43.185l-9.12 11.193 9.12-11.193z" fill="#939CA6"/><path d="M114.322 97.268a30.53 30.53 0 00-20.846 7.849 27.638 27.638 0 00-5.667 7.426h7.346a21.981 21.981 0 0116.219-11.028 21.967 21.967 0 0118.566 6.318 21.641 21.641 0 013.485 4.71h7.409a29.62 29.62 0 00-26.512-15.275z" fill="#fff"/><path d="M144.571 101.695l-6.075-2.7-1.381-6.625a.36.36 0 00-.361-.283H91.891a.393.393 0 00-.376.298l-1.382 6.61-6.074 2.7c-4.254 1.884-7.08 5.495-8.602 10.989h8.9a31.088 31.088 0 017.032-9.686 33.559 33.559 0 0122.934-8.713c12.165 0 24.424 6.28 29.981 18.399h8.869c-1.523-5.494-4.348-9.137-8.602-10.989z" fill="#fff"/><path d="M114.322 104.584a18.832 18.832 0 00-15.43 8.07h30.892a19.257 19.257 0 00-2.025-2.496 18.713 18.713 0 00-13.437-5.574zM95.956 73.876l4.144 1.1-5.792-15.889a7.505 7.505 0 00-5.18-4.71l-9.952-2.637a36.757 36.757 0 00-1.303 17.27l18.083 4.866z" fill="#fff"/><path d="M97.196 58.02l6.53 17.913 13.719 3.642a7.548 7.548 0 004.489-.204l11.491-4.082 3.469-1.256a7.548 7.548 0 011.02-.282c.683-.185 1.382-.3 2.088-.346 1.057-.04 2.115.077 3.139.346l5.918 1.57c.537-1.54.972-3.113 1.303-4.71l-31.065-8.258a7.359 7.359 0 01-4.065 3.627 7.409 7.409 0 01-9.262-10.11 7.37 7.37 0 012.794-3.14l-8.633-23.722a36.339 36.339 0 00-19.904 19.86l9.685 2.527a10.58 10.58 0 017.284 6.625z" fill="#fff"/><path d="M137.867 76.858l-14.865 5.416a9.66 9.66 0 01-1.696.44c-.115.008-.23.008-.345 0-.458.065-.919.107-1.381.126h-1.429a16.801 16.801 0 01-1.224-.236h-.361l-14.285-3.783h-.172l-23.436-6.28a38.009 38.009 0 001.946 5.542l35.036 9.31a15.35 15.35 0 009.167-.409l20.972-7.645a4.72 4.72 0 001.758-1.288l-5.259-1.381a7.344 7.344 0 00-4.426.188zM112.753 63.373a4.364 4.364 0 100-8.728 4.363 4.363 0 00-4.363 4.364 4.363 4.363 0 004.363 4.364z" fill="#fff"/><path d="M114.321 101.506a21.887 21.887 0 00-19.166 11.147h3.736a18.935 18.935 0 0113.875-7.997 18.92 18.92 0 0115.039 5.501 19.174 19.174 0 012.025 2.496h3.595a21.674 21.674 0 00-19.104-11.147z" fill="#4B5A6B"/><path d="M114.323 94.254a33.56 33.56 0 00-22.934 8.713 31.092 31.092 0 00-7.032 9.687h3.453a27.62 27.62 0 015.667-7.426 30.528 30.528 0 0120.846-7.85 29.617 29.617 0 0126.512 15.276h3.469c-5.557-12.12-17.816-18.4-29.981-18.4z" fill="#4B5A6B"/><path d="M170.094 33.655a11.537 11.537 0 001.853-15.955 11.538 11.538 0 00-15.887-2.35l-.266.204A63.027 63.027 0 00109.253.205a63.016 63.016 0 00-43.465 22.638 63.036 63.036 0 009.668 89.793c1.57-5.447 4.348-9.058 8.602-10.989l6.075-2.7 1.38-6.61a.393.393 0 01.378-.298h44.862a.36.36 0 01.361.283l1.381 6.625 6.075 2.7c4.254 1.884 7.08 5.495 8.602 10.989a62.795 62.795 0 0022.843-36.409 62.808 62.808 0 00-5.921-42.573zm-49.933 25.73a7.56 7.56 0 00-.439-2.935 7.1 7.1 0 00-1.225-2.088l9.12-11.194a11.248 11.248 0 002.669 2.905l6.561 3.045a1.838 1.838 0 01.236 2.858l-2.214 2.15 2.308 2.764a1.278 1.278 0 01.157 1.397l-1.13 2.12 1.318-.503c.312-.126.661-.126.973 0a1.228 1.228 0 01.66.722l1.02 2.936c.128.375.233.758.314 1.146l-20.328-5.322zm9.638-29.718a33.221 33.221 0 013.375 1.805l-17.016 20.959a7.359 7.359 0 00-4.442-.69l-8.633-23.722a36.6 36.6 0 0126.716 1.648zM117.116 59.01a4.38 4.38 0 11-4.364-4.38 4.365 4.365 0 014.364 4.38zm-37.94-7.269l9.952 2.606a7.503 7.503 0 015.18 4.71l5.792 15.919-4.144-1.099-18.083-4.867a36.757 36.757 0 011.303-17.269zm16.42 37.27v-3.815l14.378 3.815H95.595zm37.437 0h-5.07l5.07-1.852v1.852zm12.683-9.75l-20.971 7.646a15.35 15.35 0 01-9.167.409l-35.036-9.31a38.02 38.02 0 01-1.947-5.542l23.436 6.28h.173l14.284 3.783h.361c.408.095.816.173 1.224.236h1.429c.462-.019.923-.06 1.381-.126.115.008.231.008.346 0a9.65 9.65 0 001.695-.44l14.944-5.337a7.342 7.342 0 014.426-.188l5.259 1.381a4.715 4.715 0 01-1.837 1.209zm3.281-3.971l-5.918-1.57a10.755 10.755 0 00-3.139-.345c-.706.045-1.406.16-2.088.345-.346.07-.687.165-1.02.283l-3.407 1.287-11.412 4.16a7.548 7.548 0 01-4.489.204l-13.719-3.642-6.609-17.991a10.58 10.58 0 00-7.283-6.64l-9.685-2.529a36.342 36.342 0 0119.951-19.859l8.633 23.722a7.429 7.429 0 00-3.045 8.839 7.394 7.394 0 009.512 4.426 7.363 7.363 0 004.019-3.626l31.002 8.226a37.266 37.266 0 01-1.303 4.71zm18.836-43.754a8.475 8.475 0 01-13.118-8.17 8.478 8.478 0 013.119-5.504l.251-.141a8.368 8.368 0 014.71-1.476 8.433 8.433 0 018.151 6.132 8.436 8.436 0 01.215 3.617 8.386 8.386 0 01-2.668 4.914c-.173.173-.377.424-.628.597l-.032.031z" fill="#4B5A6B"/><path d="M135.749 33.184l-8.131 10a11.234 11.234 0 002.669 2.889l6.561 3.045a1.838 1.838 0 01.236 2.858l-2.214 2.15 2.308 2.763a1.277 1.277 0 01.157 1.398l-1.131 2.119 1.319-.502c.312-.126.661-.126.973 0a1.239 1.239 0 01.66.722l1.02 2.936c.128.375.233.757.314 1.146l10.391 2.763a36.995 36.995 0 00-15.132-34.287z" fill="url(#paint2_linear)"/><path d="M140.096 63.61l-1.02-2.937a1.258 1.258 0 00-.66-.722 1.302 1.302 0 00-.973 0l-1.318.503 1.13-2.12a1.272 1.272 0 00-.157-1.397l-2.308-2.763 2.214-2.15a1.843 1.843 0 00.568-1.486 1.845 1.845 0 00-.804-1.372l-6.483-3.093a11.255 11.255 0 01-2.59-2.888l-9.12 11.193a7.076 7.076 0 011.146 2.072c.337.935.486 1.928.44 2.92l20.249 5.37a9.416 9.416 0 00-.314-1.13z" fill="#939CA6"/><defs><linearGradient id="paint0_linear" x1="154.412" y1="24.675" x2="171.333" y2="24.675" gradientUnits="userSpaceOnUse"><stop stop-color="#A9995D"/><stop offset="1" stop-color="#D9C393"/></linearGradient><linearGradient id="paint1_linear" x1="2077.15" y1="684.002" x2="2653.4" y2="684.002" gradientUnits="userSpaceOnUse"><stop stop-color="#A9995D"/><stop offset="1" stop-color="#D9C393"/></linearGradient><linearGradient id="paint2_linear" x1="129.188" y1="39.746" x2="153.883" y2="64.437" gradientUnits="userSpaceOnUse"><stop stop-color="#4B5A6B"/><stop offset=".75" stop-color="#6D7987"/></linearGradient></defs></svg>