<svg width="1921" height="1080" fill="none" stroke="#141A1F" stroke-width="2" stroke-miterlimit="10" stroke-linejoin="round" xmlns="http://www.w3.org/2000/svg"><path d="M657.6 534.7H649v20.2h8.6v-20.2zM885.8 520.9h-22.3v7h22.3v-7zM901.8 520.9h-9v7h9v-7zM931.3 520.9h-22.5v7h22.5v-7zM.9 13.3H52c1.3 0 2.4 1.1 2.4 2.4v91.2c0 1.3-1.1 2.4-2.4 2.4H.9M111.2 113.3c12.371 0 22.4-10.029 22.4-22.4 0-12.371-10.029-22.4-22.4-22.4-12.371 0-22.4 10.029-22.4 22.4 0 12.371 10.029 22.4 22.4 22.4z"/><path d="M111.2 125.7c19.22 0 34.8-15.581 34.8-34.8 0-19.22-15.58-34.8-34.8-34.8S76.4 71.68 76.4 90.9c0 19.219 15.58 34.8 34.8 34.8zM775.3 268.8c12.372 0 22.4-10.029 22.4-22.4 0-12.371-10.028-22.4-22.4-22.4-12.371 0-22.4 10.029-22.4 22.4 0 12.371 10.029 22.4 22.4 22.4z"/><path d="M775.3 281.2c19.219 0 34.8-15.581 34.8-34.8 0-19.22-15.581-34.8-34.8-34.8-19.22 0-34.8 15.58-34.8 34.8 0 19.219 15.58 34.8 34.8 34.8zM653.2 483.1c12.371 0 22.4-10.029 22.4-22.4 0-12.371-10.029-22.4-22.4-22.4-12.371 0-22.4 10.029-22.4 22.4 0 12.371 10.029 22.4 22.4 22.4z"/><path d="M653.2 495.5c19.22 0 34.8-15.58 34.8-34.8 0-19.219-15.58-34.8-34.8-34.8-19.219 0-34.8 15.581-34.8 34.8 0 19.22 15.581 34.8 34.8 34.8zM36.3 109.3v34.4c0 1.3 1.1 2.4 2.4 2.4h82.6c.6 0 1.3.3 1.7.7l25.5 25.5c.5.5.7 1.1.7 1.7v27M25.4 201h-8.5v-19.4c0-1.3 1.1-2.4 2.4-2.4H23c1.3 0 2.4 1.1 2.4 2.4V201zM44.6 201H36v-19.4c0-1.3 1.1-2.4 2.4-2.4h3.7c1.3 0 2.4 1.1 2.4 2.4V201h.1zM63.7 201h-8.5v-19.4c0-1.3 1.1-2.4 2.4-2.4h3.7c1.3 0 2.4 1.1 2.4 2.4V201zM561.8.5v13.4c0 1.3-1.1 2.4-2.4 2.4h-3.7c-1.3 0-2.4-1.1-2.4-2.4V.5M542.7.5v13.4c0 1.3-1.1 2.4-2.4 2.4h-3.7c-1.3 0-2.4-1.1-2.4-2.4V.5M523.6.5v13.4c0 1.3-1.1 2.4-2.4 2.4h-3.7c-1.3 0-2.4-1.1-2.4-2.4V.5M155 35.3c0 1.3-1.1 2.4-2.4 2.4H69.9c-1.3 0-2.4-1.1-2.4-2.4V15.7c0-1.3 1.1-2.4 2.4-2.4h82.7c1.3 0 2.4 1.1 2.4 2.4v19.6zM43.2 28.5a4.1 4.1 0 100-8.2 4.1 4.1 0 000 8.2zM43.2 102.3a4.1 4.1 0 100-8.2 4.1 4.1 0 000 8.2zM244.3 81.4a4.1 4.1 0 100-8.2 4.1 4.1 0 000 8.2zM203.8 216.6a4.1 4.1 0 100-8.2 4.1 4.1 0 000 8.2zM203.8 243.1a4.1 4.1 0 100-8.2 4.1 4.1 0 000 8.2zM298.3 216.6a4.1 4.1 0 100-8.2 4.1 4.1 0 000 8.2zM298.3 243.1a4.1 4.1 0 100-8.2 4.1 4.1 0 000 8.2zM211.9 332.2a4.1 4.1 0 100-8.2 4.1 4.1 0 000 8.2zM211.9 346.5a4.1 4.1 0 100-8.2 4.1 4.1 0 000 8.2zM211.9 382.6a4.1 4.1 0 100-8.2 4.1 4.1 0 000 8.2zM211.9 396.9a4.1 4.1 0 100-8.2 4.1 4.1 0 000 8.2zM180.9 422.9a4.1 4.1 0 100-8.2 4.1 4.1 0 000 8.2zM180.9 506.7a4.1 4.1 0 100-8.2 4.1 4.1 0 000 8.2zM331.9 530.1a4.1 4.1 0 100-8.2 4.1 4.1 0 000 8.2zM331.9 637.4a4.1 4.1 0 100-8.2 4.1 4.1 0 000 8.2zM11.4 422.9a4.1 4.1 0 100-8.2 4.1 4.1 0 000 8.2zM180.9 637.4a4.1 4.1 0 100-8.2 4.1 4.1 0 000 8.2zM11.4 637.4a4.1 4.1 0 100-8.2 4.1 4.1 0 000 8.2zM397.3 164.3a4.1 4.1 0 100-8.2 4.1 4.1 0 000 8.2zM397.3 190.8a4.1 4.1 0 100-8.2 4.1 4.1 0 000 8.2zM470.9 164.3a4.1 4.1 0 100-8.2 4.1 4.1 0 000 8.2zM1115.4 648.4c2.26 0 4.1-1.836 4.1-4.1 0-2.264-1.84-4.1-4.1-4.1s-4.1 1.836-4.1 4.1c0 2.264 1.84 4.1 4.1 4.1zM1115.4 610.5c2.26 0 4.1-1.836 4.1-4.1 0-2.264-1.84-4.1-4.1-4.1s-4.1 1.836-4.1 4.1c0 2.264 1.84 4.1 4.1 4.1zM1194.4 648.4c2.26 0 4.1-1.836 4.1-4.1 0-2.264-1.84-4.1-4.1-4.1s-4.1 1.836-4.1 4.1c0 2.264 1.84 4.1 4.1 4.1zM1194.4 610.5c2.26 0 4.1-1.836 4.1-4.1 0-2.264-1.84-4.1-4.1-4.1s-4.1 1.836-4.1 4.1c0 2.264 1.84 4.1 4.1 4.1zM273.5 81.4a4.1 4.1 0 100-8.2 4.1 4.1 0 000 8.2zM779.4 164a4.1 4.1 0 100-8.2 4.1 4.1 0 000 8.2zM751 164a4.1 4.1 0 100-8.2 4.1 4.1 0 000 8.2zM652.1 212.7a4.1 4.1 0 100-8.2 4.1 4.1 0 000 8.2zM652.1 164a4.1 4.1 0 100-8.2 4.1 4.1 0 000 8.2zM849.3 164a4.1 4.1 0 100-8.2 4.1 4.1 0 000 8.2zM319.2 81.4a4.1 4.1 0 100-8.2 4.1 4.1 0 000 8.2z"/><path d="M148.7 20.5h-22.3v10h22.3v-10zM131.1 30.5v-4.3M135.4 30.5v-5.6M139.8 30.5v-4.9M144.1 30.5v-7.6M.9 201h191.7V93.3c0-1.3 1.1-2.4 2.4-2.4h136.5c1.3 0 2.4-1.1 2.4-2.4V68c0-.6.3-1.2.7-1.7l29-29.3c.4-.5.7-1.1.7-1.7V0"/><path d="M229.6 0v36.7c0 .6.3 1.3.7 1.7l27.9 27.9c.5.5.7 1.1.7 1.7v22.9M274.1 0c0 12.6 10.2 22.9 22.9 22.9S319.8 12.6 319.8 0"/><path d="M258.7 0c0 13.1 6.6 24.7 16.6 31.5v13.9h6.1v-7.7h5.8V42h19.4v-4.3h5.8v7.7h6.1V31.5c10-6.9 16.6-18.4 16.6-31.5"/><path d="M287.3 37.7h-5.8V51h5.8V37.7zM312.4 37.7h-5.8V51h5.8V37.7z"/><path d="M306.6 42.1h-19.4v4.7h19.4v-4.7zM33.276 343.784v-5.8h-13.3v5.8h13.3zM33.26 368.968v-5.8h-13.3v5.8h13.3z"/><path d="M28.969 363.176v-19.4h-4.7v19.4h4.7zM364.2 10.3h-14.6v14.6h14.6V10.3zM354.1 15.4h5.7M354.1 19.7h5.7M253.5 28h-12.3l6.1-6.2 6.2 6.2zM253.5 18.2h-12.3l6.1-6.1 6.2 6.1zM253.5 37.7h-12.3l6.1-6.1 6.2 6.1zM427 588.8v-17.9l9 9-9 8.9zM216.2 56.4c0 1.3-1.1 2.4-2.4 2.4h-19.1c-1.3 0-2.4-1.1-2.4-2.4V15.7c0-1.3 1.1-2.4 2.4-2.4h19.1c1.3 0 2.4 1.1 2.4 2.4v40.7z"/><path d="M192.3 20.5h12v21.6l12.3 12.2M204.3 36.2l12.3 12.3M204.3 30.2l12.3 12.3M203 48.1h-5.7v5.7h5.7v-5.7zM192.5 158.2h-25.9c-1.3 0-2.4-1.1-2.4-2.4v-7.5c0-1.3 1.1-2.4 2.4-2.4h25.9v12.3zM309.5 201h-117v49.4h117V201zM264.1 180.8h-10v20.1h10v-20.1zM288.8 90.9v12.2c0 4.1-3.3 7.4-7.4 7.4h-10c-9.6 0-17.4 7.8-17.4 17.4v46.7h10v-46.7c0-4.1 3.3-7.4 7.4-7.4h10c9.6 0 17.4-7.8 17.4-17.4V90.9h-10zM230 152c4.1 0 7.4 3.3 7.4 7.4v15.2h10v-15.2c0-9.6-7.8-17.4-17.4-17.4h-10c-4.1 0-7.4-3.3-7.4-7.4V90.9h-10v43.8c0 9.6 7.8 17.4 17.4 17.4h10v-.1zM247.3 180.8h-10v20.1h10v-20.1z"/><path d="M268.6 174.6h-35.7v6.3h35.7v-6.3zM433 332.2c0 4.1-3.3 7.4-7.4 7.4h-27.2v10h27.2c9.6 0 17.4-7.8 17.4-17.4v-5c0-4.1 3.3-7.4 7.4-7.4h33.8v-10h-33.8c-9.6 0-17.4 7.8-17.4 17.4v5zM392.1 339.6H374v10h18.1v-10z"/><path d="M398.49 370.854v-35.7h-6.3v35.7h6.3zM234.4 132.3c6.076 0 11-4.925 11-11s-4.924-11-11-11c-6.075 0-11 4.925-11 11s4.925 11 11 11zM224.4 126h19.9M235.6 120.4l4.2-3.4"/><path d="M234.4 122.8a1.5 1.5 0 100-3 1.5 1.5 0 000 3z"/><path d="M223.4 102.1v19.2c0-6.1 4.9-11 11-11s11 4.9 11 11v-19.2h-22z"/><path d="M231.9 90.9h-5v11.2h5V90.9zM241.801 90.9h-5v11.2h5V90.9zM228.7 106.5h11.5M464.8 350.6c6.075 0 11-4.925 11-11s-4.925-11-11-11-11 4.925-11 11 4.925 11 11 11zM454.8 344.3h19.9"/><path d="M464.8 341.1a1.5 1.5 0 10-.001-3.001 1.5 1.5 0 00.001 3.001zM464.3 338.1l-1.5-5.2M1066.2 191.2c7.46 0 13.5-6.044 13.5-13.5s-6.04-13.5-13.5-13.5-13.5 6.044-13.5 13.5 6.04 13.5 13.5 13.5zM1053.9 183.5h24.4"/><path d="M1066.2 179.6a1.9 1.9 0 100-3.8 1.9 1.9 0 000 3.8zM1065.6 175.9l-1.9-6.4M42.3 1004.6c10.383 0 18.8-8.417 18.8-18.8 0-10.383-8.417-18.8-18.8-18.8-10.383 0-18.8 8.417-18.8 18.8 0 10.383 8.417 18.8 18.8 18.8zM25.3 993.8h33.8"/><path d="M42.3 988.4a2.6 2.6 0 100-5.2 2.6 2.6 0 000 5.2zM41.6 983.3l-2.7-8.9M96.3 1004.6c10.383 0 18.8-8.417 18.8-18.8 0-10.383-8.417-18.8-18.8-18.8-10.383 0-18.8 8.417-18.8 18.8 0 10.383 8.417 18.8 18.8 18.8zM79.3 993.8h33.8"/><path d="M96.3 988.4a2.6 2.6 0 100-5.2 2.6 2.6 0 000 5.2zM98.1 983.9l6.6-6.5M150.2 1004.6c10.383 0 18.8-8.417 18.8-18.8 0-10.383-8.417-18.8-18.8-18.8-10.383 0-18.8 8.417-18.8 18.8 0 10.383 8.417 18.8 18.8 18.8zM133.2 993.8H167"/><path d="M150.201 988.4a2.6 2.6 0 100-5.2 2.6 2.6 0 000 5.2zM147.8 984.7l-8.4-3.8M352.954 387.723h5v-11.2h-5v11.2zM352.954 344.466h5v-11.2h-5v11.2zM325.538 387.723h5v-11.2h-5v11.2zM325.538 344.466h5v-11.2h-5v11.2zM341.801 399.9c6.2 0 11.1-5 11.1-11.1v-56.5c0-6.2-5-11.1-11.1-11.1s-11.1 5-11.1 11.1v56.5c-.1 6.1 4.9 11.1 11.1 11.1z"/><path d="M330.667 339.512h22.3v-6.3h-22.3v6.3zM330.667 387.777h22.3v-6.3h-22.3v6.3zM0 563.1h86c10.6 0 19.3-8.6 19.3-19.3 0-10.6-8.6-19.3-19.3-19.3H0"/><path d="M56.365 524.444v38.6h13.8v-38.6h-13.8zM0 611.4h86c10.6 0 19.3-8.6 19.3-19.3 0-10.6-8.6-19.3-19.3-19.3H0"/><path d="M56.322 572.787v38.6h13.8v-38.6h-13.8zM305.679 180.764h5v-11.2h-5v11.2zM305.679 151.507h5v-11.2h-5v11.2zM278.263 180.764h5v-11.2h-5v11.2zM278.263 151.507h5v-11.2h-5v11.2zM294.499 193c6.2 0 11.1-5 11.1-11.1v-42.5c0-6.2-5-11.1-11.1-11.1s-11.1 5-11.1 11.1v42.5c0 6.1 4.9 11.1 11.1 11.1z"/><path d="M283.292 146.553h22.3v-6.3h-22.3v6.3zM283.292 180.818h22.3v-6.3h-22.3v6.3zM309.7 90.9v26.6c0 .7.3 1.4.9 1.9l23.6 18.6c.6.5.9 1.2.9 1.9V201H384V0M327.4 276.6l-12 23.2h8.9l12-23.2h-8.9zM345.1 276.6l-12 23.2h8.9l12-23.2h-8.9zM362.8 276.6l-12 23.2h8.9l12-23.2h-8.9zM380.5 276.6l-12 23.2h8.9l12-23.2h-8.9zM398.2 276.6l-12 23.2h8.9l12-23.2h-8.9zM394.9 224.3l12-23.3H398l-12 23.3h8.9z"/><path d="M377.2 224.3l12-23.3h-8.9l-12 23.3h8.9zM359.5 224.3l12-23.3h-8.9l-12 23.3h8.9zM341.8 224.3l12-23.3h-8.9l-12 23.3h8.9zM324.1 224.3l12-23.3h-8.9l-12 23.3h8.9z"/><path d="M412.8 223.9l-.2.4h-8.9l9.1-17.5V201H309.5h8.9l-8.9 17.2v58.7l.2-.3h8.9l-9.1 17.5v5.7h94.4l8.9-17.1v-58.8z"/><path d="M309.7 276.6l-.2.3v17.2l9.1-17.5h-8.9zM403.9 299.8h8.9v-17.1l-8.9 17.1zM412.6 224.3l.2-.4v-17.1l-9.1 17.5h8.9zM309.5 201v17.2l8.9-17.2h-8.9zM222.3 537l-30-15.2V533l30 15.2V537zM222.3 559.4l-30-15.2v11.2l30 15.2v-11.2zM222.3 581.8l-30-15.2v11.2l30 15.2v-11.2zM222.3 604.2l-30-15.2v11.2l30 15.2v-11.2zM222.3 626.6l-30-15.2v11.2l30 15.2v-11.2zM289.8 622.4l29.9 15.2v-11.2l-29.9-15.2v11.2zM289.8 600l29.9 15.2V604l-29.9-15.2V600zM289.8 577.6l29.9 15.2v-11.2l-29.9-15.2v11.2zM289.8 555.2l29.9 15.2v-11.2L289.8 544v11.2zM289.8 532.8l29.9 15.2v-11.2l-29.9-15.2v11.2z"/><path d="M290.2 645.1l-.4-.3v-11.2l22.5 11.5h7.5V514.4h-.1v11.2l-22.1-11.2h-75.8l.5.2v11.2l-22.6-11.4h-7.4v119.4l22.1 11.3h75.8z"/><path d="M222.3 514.6l-.5-.2h-22.1l22.6 11.4v-11.2zM192.3 633.8v11.3h22.1l-22.1-11.3zM289.8 644.8l.4.3h22.1l-22.5-11.5v11.2zM319.7 514.4h-22.1l22.1 11.2v-11.2zM782.099 123.8l-11.4 22.1h8.4l11.5-22.1h-8.5zM799 123.8l-11.5 22.1h8.5l11.4-22.1H799zM815.899 123.8l-11.5 22.1h8.5l11.4-22.1h-8.4zM832.7 123.8l-11.4 22.1h8.4l11.5-22.1h-8.5zM849.599 123.8l-11.4 22.1h8.4l11.5-22.1h-8.5zM846.4 93.9l11.5-22.2h-8.5L838 93.9h8.4zM829.6 93.9L841 71.7h-8.4l-11.5 22.2h8.5zM812.7 93.9l11.4-22.2h-8.4l-11.4 22.2h8.4zM795.799 93.9l11.5-22.2h-8.5l-11.4 22.2h8.4zM778.9 93.9l11.5-22.2h-8.5l-11.4 22.2h8.4z"/><path d="M863.5 93.6l-.2.3h-8.4l8.6-16.7v-5.5h-98.4 8.4l-8.4 16.4v36l.1-.3h8.5l-8.6 16.7v5.4H855l8.5-16.3v-36z"/><path d="M765.2 123.8l-.1.3v16.4l8.6-16.7h-8.5zM855 145.9h8.5v-16.3l-8.5 16.3zM863.299 93.9l.2-.3V77.2l-8.6 16.7h8.4zM765.1 71.7v16.4l8.4-16.4h-8.4zM981 1046.5l19.5-37.8h-14.3l-19.5 37.8H981zM952.3 1046.5l19.5-37.8h-14.4l-19.5 37.8h14.4zM923.501 1046.5l19.5-37.8h-14.4l-19.5 37.8h14.4zM894.8 1046.5l19.5-37.8h-14.4l-19.5 37.8h14.4zM866.001 1046.5l19.5-37.8h-14.4l-19.5 37.8h14.4zM727.601 1008.7l-19.5 37.8h14.4l19.5-37.8h-14.4z"/><path d="M866.001 1046.5l19.5-37.8h-14.4l-19.5 37.8h14.4zM837.3 1046.5l19.5-37.8h-14.4l-19.5 37.8h14.4zM808.501 1046.5l19.5-37.8h-14.4l-19.5 37.8h14.4zM779.8 1046.5l19.4-37.8h-14.3l-19.5 37.8h14.4zM751.001 1046.5l19.5-37.8h-14.4l-19.5 37.8h14.4zM612.601 1008.7l-19.5 37.8h14.4l19.5-37.8h-14.4zM641.301 1008.7l-19.5 37.8h14.4l19.5-37.8h-14.4zM670.101 1008.7l-19.5 37.8h14.4l19.5-37.8h-14.4zM698.8 1008.7l-19.4 37.8h14.3l19.5-37.8h-14.4zM727.601 1008.7l-19.5 37.8h14.4l19.5-37.8h-14.4zM587.4 1008.7v21l10.8-21h-10.8zM1006.2 1025.5l-10.8 21h10.8v-21zM.9 299.8h191.4v107.3H.9M309.5 299.8H.9M178.4 244.4h-41v41h41v-41zM144.7 251.7l8.6 8.6M162.4 269.4l8.6 8.6M171 251.7l-8.6 8.6M153.3 269.4l-8.6 8.6M55 276.7c-1.5 1.8-1.8 4.4-.8 6.5 1 2.2 3.2 3.5 5.6 3.5h58.6c3.4 0 6.2-2.8 6.2-6.2v-60.4c0-3.4-2.8-6.2-6.2-6.2h-8.9c-1.8 0-3.6.8-4.8 2.2L55 276.7zM82 224.2c1.5-1.8 1.8-4.4.8-6.5-1-2.1-3.2-3.5-5.6-3.5H18.6c-3.4 0-6.2 2.8-6.2 6.2v60.4c0 3.4 2.8 6.2 6.2 6.2h8.9c1.8 0 3.6-.8 4.8-2.2L82 224.2zM407.8 59.5c-1.8-1.5-4.4-1.8-6.5-.8-2.2 1-3.5 3.2-3.5 5.6v58.6c0 3.4 2.8 6.2 6.2 6.2h60.4c3.4 0 6.2-2.8 6.2-6.2V114c0-1.8-.8-3.6-2.2-4.8l-60.6-49.7zM460.3 86.5c1.8 1.5 4.4 1.8 6.5.8 2.1-1 3.5-3.2 3.5-5.6V23.1c0-3.4-2.8-6.2-6.2-6.2h-60.4c-3.4 0-6.2 2.8-6.2 6.2V32c0 1.8.8 3.6 2.2 4.8l60.6 49.7zM754.899 386c-2.9-2.4-6.9-2.9-10.2-1.3-3.3 1.6-5.5 5-5.5 8.7v91.7c0 5.3 4.3 9.6 9.6 9.6h94.4c5.3 0 9.6-4.3 9.6-9.6v-14c0-2.9-1.3-5.6-3.5-7.4l-94.4-77.7zM837 428.2c2.9 2.4 6.9 2.9 10.2 1.3 3.3-1.6 5.5-5 5.5-8.7v-91.7c0-5.3-4.3-9.6-9.6-9.6h-94.4c-5.3 0-9.6 4.3-9.6 9.6v14c0 2.9 1.3 5.6 3.5 7.4l94.4 77.7zM970.6 386c2.9-2.4 6.9-2.9 10.2-1.3 3.3 1.6 5.5 5 5.5 8.7v91.7c0 5.3-4.3 9.6-9.6 9.6h-94.4c-5.3 0-9.6-4.3-9.6-9.6v-14c0-2.9 1.3-5.6 3.5-7.4l94.4-77.7zM888.5 428.2c-2.9 2.4-6.9 2.9-10.2 1.3-3.3-1.6-5.5-5-5.5-8.7v-91.7c0-5.3 4.3-9.6 9.6-9.6h94.4c5.3 0 9.6 4.3 9.6 9.6v14c0 2.9-1.3 5.6-3.5 7.4l-94.4 77.7zM170.1 214.1h-32.7v18h32.7v-18zM178.4 214.1h-8.3v18h8.3v-18z"/><path d="M146.8 218.2h-4.6v9.1h4.6v-9.1zM156 218.2h-4.6v9.1h4.6v-9.1zM165.201 218.2h-4.6v9.1h4.6v-9.1z"/><path d="M146.8 223.6h-4.6v3.7h4.6v-3.7zM156 223.6h-4.6v3.7h4.6v-3.7zM165.201 223.6h-4.6v3.7h4.6v-3.7zM71 376.4c12.647 0 22.9-10.253 22.9-22.9 0-12.647-10.253-22.9-22.9-22.9-12.648 0-22.9 10.253-22.9 22.9 0 12.647 10.252 22.9 22.9 22.9z"/><path d="M101 363.4v-19.9h6.9c-4.4-16.3-19.3-28.3-36.9-28.3-13.1 0-24.7 6.6-31.5 16.6h-14v6.1h7.7v5.8h-4.3v19.4h4.3v5.8h-7.7v6.1h13.9c6.9 10 18.5 16.6 31.5 16.6 17.7 0 32.5-12 36.9-28.3H101v.1z"/><path d="M93.4 356.2h-14v-5.5h14M116.4 343.5H101v19.7h15.4v-19.7zM266.593 875.891h6.3v-14.4h-6.3v14.4zM239.44 875.891h6.3v-14.4h-6.3v14.4z"/><path d="M245.716 871.191h20.9v-5h-20.9v5zM256.2 941.2c13.641 0 24.7-11.059 24.7-24.7s-11.059-24.7-24.7-24.7-24.7 11.059-24.7 24.7 11.059 24.7 24.7 24.7z"/><path d="M245.4 963.9h21.5v-7.5c17.6-4.7 30.5-20.8 30.5-39.8 0-14.1-7.1-26.6-17.9-34v-15h-6.6v8.3h-6.3v-4.7h-20.9v4.7h-6.3v-8.3h-6.6v15c-10.8 7.4-17.9 19.9-17.9 34 0 19.1 12.9 35.1 30.5 39.8v7.5z"/><path d="M253.2 940.8v-15.2h5.9v15.2M970.147 278.25v-18h-7.7v18h7.7zM991.9 282.4c7.29 0 13.2-5.91 13.2-13.2 0-7.29-5.91-13.2-13.2-13.2-7.29 0-13.2 5.91-13.2 13.2 0 7.29 5.91 13.2 13.2 13.2z"/><path d="M1009.3 275v-11.5h4c-2.5-9.4-11.1-16.4-21.4-16.4-7.6 0-14.3 3.8-18.3 9.6h-8v3.5h4.5v17.9h-4.5v3.5h8c4 5.8 10.7 9.6 18.3 9.6 10.2 0 18.8-6.9 21.4-16.4h-4v.2z"/><path d="M1004.9 271.8h-13v-5.1h13M1018.2 263.4h-8.9v11.4h8.9v-11.4zM549.954 591.918v7.4h16.9v-7.4h-16.9zM550.01 559.963v7.4h16.9v-7.4h-16.9z"/><path d="M555.531 567.441v24.6h5.9v-24.6h-5.9zM502.1 608.7c16.016 0 29-12.984 29-29s-12.984-29-29-29c-16.017 0-29 12.984-29 29s12.983 29 29 29z"/><path d="M464.1 567.1v25.3h-8.8c5.6 20.7 24.4 35.9 46.9 35.9 16.6 0 31.3-8.4 40-21.1h17.6v-7.8H550V592h5.5v-24.6H550V560h9.8v-7.8h-17.6c-8.7-12.7-23.4-21.1-40-21.1-22.4 0-41.3 15.2-46.9 35.9h8.8v.1z"/><path d="M473.6 576.2h17.9v7h-17.9M444.433 592.358h19.6v-25h-19.6v25zM1852 445.3h-27.6l13.8-13.8 13.8 13.8zM1824.4 470.3h27.6l-13.8 13.8-13.8-13.8zM1890.55 472.971h11.3v-26.1h-11.3v26.1zM1920.9 464.4h-19v-9.1h19M1920.9 502c-24.7 0-44.7 20-44.7 44.7 0 24.7 20 44.7 44.7 44.7"/><path d="M1920.9 464.4h-19v8.5h-11.3v-15.1h-12V485c-19.6 13.5-32.5 36.1-32.5 61.7 0 34.6 23.5 63.6 55.3 72.2M1910.1 590.6v-27.5h10.8M178.4 314.8h-41v10.1h41v-10.1zM178.4 331.6h-41v10.1h41v-10.1zM178.4 348.4h-41v10.1h41v-10.1zM178.4 365.2h-41v10.1h41v-10.1zM178.4 382h-41v10.1h41V382zM295.8 264.9h-34.2v20.4h34.2v-20.4zM295.8 271.7h-34.2M295.8 264.9h-34.2M295.8 278.4h-34.2M295.8 285.2h-34.2M282.1 285.3v-20.5M289 285.3v-20.5M275.3 285.3v-20.5M268.4 285.3v-20.5M384 0v145.9h100.1V0M412.8 299.8h71.3V145.9H384M484.1 299.8H192.3v214.5h291.8V299.8z"/><path d="M309.4 321.8h-86.7v26.9h86.7v-26.9z"/><path d="M222.7 341.8H234c.6 0 1.1-.2 1.5-.6l7.4-7.4c.9-.9 2.2-.9 3.1 0l3.4 3.4c.9.9 2.2.9 3.1 0l1.6-1.6c.9-.9 2.2-.9 3.1 0l4.9 4.9c.9.9 2.2.9 3.1 0l10.1-10.1c.9-.9 2.2-.9 3.1 0l2.6 2.6c.9.9 2.2.9 3.1 0l1.9-1.9c.9-.9 2.2-.9 3.1 0l8 8c.4.4 1 .6 1.5.6h10.8M302.3 325.9h3.7M302.3 330.8h3.7M302.3 335.7h3.7M236.9 372.2h-13.5v26.9h13.5v-26.9zM255.8 372.2h-13.5v26.9h13.5v-26.9zM309.4 372.2h-48.1v26.9h48.1v-26.9zM261.3 392.8h48.1"/><path d="M285.4 390.3a2.3 2.3 0 100-4.6 2.3 2.3 0 000 4.6zM287.3 386.8l11.1-7.1M416 407.1h-42V299.8h110.1v107.3H426M638 145.9H484.1v153.9H638V145.9z"/><path d="M561.1 278.5c30.707 0 55.6-24.893 55.6-55.6s-24.893-55.6-55.6-55.6-55.6 24.893-55.6 55.6 24.893 55.6 55.6 55.6z"/><path d="M561.1 262.2c21.705 0 39.3-17.595 39.3-39.3s-17.595-39.3-39.3-39.3-39.3 17.595-39.3 39.3 17.595 39.3 39.3 39.3zM610.9 216.9h-5.2v11.9h5.2v-11.9zM516.5 216.9h-5.2v11.9h5.2v-11.9zM600.561 253.907l-3.677-3.676-8.415 8.414 3.677 3.677 8.415-8.415zM533.709 187.171l-3.677-3.677-8.414 8.415 3.677 3.676 8.414-8.414zM530.083 262.365l3.677-3.677-8.415-8.415-3.677 3.677 8.415 8.415zM596.792 195.54l3.677-3.676-8.415-8.415-3.677 3.677 8.415 8.414zM561.1 179.3a3.8 3.8 0 100-7.6 3.8 3.8 0 000 7.6zM561.1 274.1a3.8 3.8 0 100-7.6 3.8 3.8 0 000 7.6zM505.7 228.2H495v-10.6h10.7M616.5 217.6h10.6v10.6h-10.6M628 165.2l-9.2-9.3-5.6 5.7-4.8-4.9v18.9h18.8l-4.8-4.8 5.6-5.6zM618.8 289.8l9.2-9.2-5.6-5.6 4.8-4.8h-18.8V289l4.8-4.8 5.6 5.6zM494.3 280.6l9.2 9.2 5.6-5.6 4.9 4.8v-18.8h-18.9l4.8 4.8-5.6 5.6zM503.5 155.9l-9.2 9.3 5.6 5.6-4.8 4.8H514v-18.9l-4.9 4.9-5.6-5.7zM1798.8 296.9c0 5.3-4.3 9.6-9.6 9.6h-164.6c-5.3 0-9.6-4.3-9.6-9.6V122.7h183.9v174.2h-.1z"/><path d="M1706.8 281c36.67 0 66.4-29.728 66.4-66.4 0-36.672-29.73-66.4-66.4-66.4s-66.4 29.728-66.4 66.4c0 36.672 29.73 66.4 66.4 66.4z"/><path d="M1706.8 261.6c25.96 0 47-21.043 47-47s-21.04-47-47-47-47 21.043-47 47 21.04 47 47 47zM1766.4 207.5h-6.2v14.2h6.2v-14.2zM1653.5 207.5h-6.2v14.2h6.2v-14.2zM1753.9 251.624l-4.38-4.384-10.04 10.041 4.38 4.384 10.04-10.041zM1674.12 171.818l-4.38-4.384-10.04 10.041 4.38 4.384 10.04-10.041zM1669.83 261.633l4.38-4.384-10.04-10.041-4.38 4.384 10.04 10.041zM1749.61 181.875l4.39-4.385-10.04-10.04-4.39 4.384 10.04 10.041zM1706.8 162.5a4.6 4.6 0 100-9.2 4.6 4.6 0 000 9.2zM1706.8 275.9a4.6 4.6 0 10-.001-9.201 4.6 4.6 0 00.001 9.201zM1640.7 221h-12.8v-12.8h12.8M1773 208.2h12.8V221H1773M1786.8 145.6l-11-11-6.7 6.7-5.7-5.7v22.5h22.5l-5.8-5.8 6.7-6.7zM1775.8 294.6l11-11-6.7-6.7 5.8-5.8h-22.5v22.5l5.7-5.7 6.7 6.7zM1627.1 283.6l11 11 6.7-6.7 5.7 5.7v-22.5H1628l5.8 5.8-6.7 6.7zM1638.1 134.6l-11 11 6.7 6.7-5.8 5.8h22.5v-22.5l-5.7 5.7-6.7-6.7zM.9 645.1h191.6v192.5H0"/><path d="M96.4 810.7c38.384 0 69.5-31.116 69.5-69.5s-31.116-69.5-69.5-69.5-69.5 31.116-69.5 69.5 31.116 69.5 69.5 69.5z"/><path d="M96.4 790.4c27.173 0 49.2-22.028 49.2-49.2 0-27.172-22.027-49.2-49.2-49.2-27.172 0-49.2 22.028-49.2 49.2 0 27.172 22.028 49.2 49.2 49.2zM103.826 803.501v-6.5h-14.9v6.5h14.9zM103.791 685.366v-6.5h-14.9v6.5h14.9zM57.612 790.512l4.596-4.597-10.536-10.535-4.596 4.596 10.536 10.536zM141.076 706.997l4.596-4.596-10.536-10.536-4.596 4.597 10.536 10.535zM47.07 702.42l4.597 4.596 10.536-10.535-4.596-4.597L47.07 702.42zM130.536 785.934l4.596 4.596 10.536-10.535-4.597-4.597-10.535 10.536zM155.7 746a4.8 4.8 0 100-9.6 4.8 4.8 0 000 9.6zM37 746a4.8 4.8 0 100-9.6 4.8 4.8 0 000 9.6zM89.7 671.9v-13.3H103v13.3M103 810.5v13.3H89.7v-13.3M168.6 824.9l11.5-11.5-7-7 6-6h-23.6v23.5l6.1-6 7 7zM12.6 813.4l11.6 11.5 7-7 6 6v-23.5H13.6l6 6-7 7zM24.2 657.7l-11.6 11.5 7 7-6 6h23.6v-23.5l-6 6-7-7zM180.1 669.2l-11.5-11.5-7 7-6.1-6v23.5h23.6l-6-6 7-7zM419.8 1007.6h16.3v-9.9h8.5L427.9 981l-16.6 16.7h8.5v9.9zM1128 1034.8c41.97 0 76-34.03 76-76 0-41.974-34.03-76-76-76s-76 34.026-76 76c0 41.97 34.03 76 76 76z"/><path d="M1128 1012.6c29.71 0 53.8-24.087 53.8-53.8 0-29.713-24.09-53.8-53.8-53.8-29.71 0-53.8 24.087-53.8 53.8 0 29.713 24.09 53.8 53.8 53.8zM1059.91 966.958h7.1v-16.3h-7.1v16.3zM1189.05 966.958h7.1v-16.3h-7.1v16.3zM1074.15 916.367l5.02 5.021 11.52-11.526-5.02-5.02-11.52 11.525zM1165.48 1007.75l5.02 5.02 11.53-11.52-5.02-5.023-11.53 11.523zM1170.43 904.909l-5.02 5.02 11.52 11.526 5.02-5.021-11.52-11.525zM1079.09 996.193l-5.02 5.017 11.53 11.53 5.02-5.02-11.53-11.527zM1128 1029c2.93 0 5.3-2.37 5.3-5.3 0-2.93-2.37-5.3-5.3-5.3-2.93 0-5.3 2.37-5.3 5.3 0 2.93 2.37 5.3 5.3 5.3zM1128 899.2c2.93 0 5.3-2.373 5.3-5.3 0-2.927-2.37-5.3-5.3-5.3-2.93 0-5.3 2.373-5.3 5.3 0 2.927 2.37 5.3 5.3 5.3zM1203.8 951.5h14.6v14.6h-14.6M1052.3 966.1h-14.6v-14.6h14.6M1036.5 1037.7l12.6 12.6 7.7-7.6 6.5 6.5v-25.7h-25.7l6.6 6.6-7.7 7.6zM1049.1 867.2l-12.6 12.6 7.7 7.7-6.6 6.6h25.7v-25.8l-6.5 6.6-7.7-7.7zM1219.4 879.8l-12.6-12.6-7.7 7.7-6.6-6.6v25.8h25.8l-6.6-6.6 7.7-7.7zM1206.8 1050.3l12.6-12.6-7.7-7.6 6.6-6.6h-25.8v25.7l6.6-6.5 7.7 7.6zM638 222.8h81.1l46.1-45.6v-31.3M484.1 407.1h235V222.8M1006.2 299.8H719.1v214.5h287.1V299.8z"/><path d="M863.4 0v299.8H719.1M412.7 299.8H374V314h38.7v-14.2zM392.1 356.4H374v10h18.1v-10zM471.9 387.1c-4.1 0-7.4-3.3-7.4-7.4v-6c0-9.6-7.8-17.4-17.4-17.4h-48.7v10H416v55.8h10v-55.8h21.1c4.1 0 7.4 3.3 7.4 7.4v6c0 9.6 7.8 17.4 17.4 17.4h12.2v-10h-12.2zM587.4 319h-76.1v68.9h76.1V319z"/><path d="M528.1 319h-7.3v20.5h7.3V319zM544.7 319h-7.3v20.5h7.3V319zM561 367.3h-23.6v20.5H561v-20.5zM561.4 319h-7.3v20.5h7.3V319zM578 319h-7.3v20.5h7.3V319zM594.5 334h-7.1v14h7.1v-14zM594.5 359.1h-7.1v14h7.1v-14zM656.2 340.4c-2 2-4.6 3.1-7.4 3.1h-54.3v-5h54.3c1.5 0 2.9-.6 3.9-1.6l22.3-22.3c1-1 1.6-2.4 1.6-3.9v-24.2c0-5.8 4.7-10.5 10.5-10.5h32v5h-32c-3 0-5.5 2.5-5.5 5.5v24.2c0 2.8-1.1 5.5-3.1 7.4l-22.3 22.3zM719.1 389.4h-42.9c-2.8 0-5.5-1.1-7.4-3.1l-16.1-16.1c-1-1-2.4-1.6-3.9-1.6h-54.3v-5h54.3c2.8 0 5.5 1.1 7.4 3.1l16.1 16.1c1 1 2.4 1.6 3.9 1.6h42.9v5zM25.18 514.588h76.099v-68.9h-76.1v68.9z"/><path d="M84.403 514.621h7.3v-20.5h-7.3v20.5zM67.8 514.621h7.3v-20.5h-7.3v20.5zM51.508 466.255h23.6v-20.5h-23.6v20.5zM51.096 514.621h7.3v-20.5h-7.3v20.5zM34.493 514.621h7.3v-20.5h-7.3v20.5zM18.064 499.618h7.1v-14h-7.1v14zM18.064 474.485h7.1v-14h-7.1v14zM.9 490.1H18v5H.9M.9 465H18v5H.9M703.8 238.4h-50.5v21.8h50.5v-21.8zM719.1 328.6h-26v38.8h26v-38.8zM658.8 243.9h39.5M658.8 249.4h39.5M658.8 254.8h39.5M638 85.9h7.7c-3.2-4.4-5.8-9.2-7.7-14.4v14.4zM747 17.5h-7.7c3.2 4.4 5.8 9.2 7.7 14.4V17.5zM638 17.5v14.4c1.9-5.2 4.5-10.1 7.7-14.4H638zM747 85.9V71.5c-1.9 5.2-4.5 10.1-7.7 14.4h7.7z"/><path d="M645.8 85.9h8c-8.1-9.1-13-21.1-13-34.2 0-13.1 4.9-25.1 13-34.2h-8c-3.2 4.4-5.8 9.2-7.7 14.4v39.5c1.8 5.3 4.4 10.1 7.7 14.5zM744.2 51.7c0 13.1-4.9 25.1-13 34.2h8c3.2-4.4 5.8-9.2 7.7-14.4V31.9c-1.9-5.2-4.5-10.1-7.7-14.4h-8c8.1 9.1 13 21.1 13 34.2z"/><path d="M647 51.7c0-13.6 6-25.9 15.5-34.2h-8.8c-8.1 9.1-13 21.1-13 34.2 0 13.1 4.9 25.1 13 34.2h8.8C653 77.6 647 65.3 647 51.7zM738 51.7c0 13.6-6 25.9-15.5 34.2h8.8c8.1-9.1 13-21.1 13-34.2 0-13.1-4.9-25.1-13-34.2h-8.8c9.4 8.3 15.5 20.6 15.5 34.2z"/><path d="M738 51.7c0-13.6-6-25.9-15.5-34.2h-10.7c11.9 6.7 20 19.5 20 34.2 0 14.7-8.1 27.5-20 34.2h10.7c9.4-8.3 15.5-20.6 15.5-34.2zM653.2 51.7c0-14.7 8.1-27.5 20-34.2h-10.7C653 25.8 647 38.1 647 51.7c0 13.6 6 25.9 15.5 34.2h10.7c-11.9-6.7-20-19.5-20-34.2z"/><path d="M653.2 51.7c0 14.7 8.1 27.5 20 34.2h38.4c11.9-6.7 20-19.5 20-34.2 0-14.7-8.1-27.5-20-34.2h-38.4c-11.9 6.7-20 19.5-20 34.2zm72.3 0c0 18.2-14.8 33-33 33s-33-14.8-33-33 14.8-33 33-33 33 14.8 33 33z"/><path d="M659.5 51.7c0 18.2 14.8 33 33 33s33-14.8 33-33-14.8-33-33-33-33 14.8-33 33z"/><path d="M713 51.7c0 11.4-9.2 20.6-20.6 20.6-11.4 0-20.6-9.2-20.6-20.6 0-11.4 9.2-20.6 20.6-20.6 11.4 0 20.6 9.2 20.6 20.6zM765.1 71.7V0M665.7 92.6H638v9.7h27.7v-9.7zM706.4 92.6h-27.7v9.7h27.7v-9.7zM747 92.6h-27.7v9.7H747v-9.7zM671.9 51.7H713M692.5 27v49.4M675.1 41h34.8M675.1 62.4h34.8M1396.6 754.1h9c-3.7-5.1-6.8-10.7-9-16.8v16.8zM1523 674.7h-9c3.7 5.1 6.8 10.7 9 16.8v-16.8zM1396.6 674.7v16.8c2.2-6 5.2-11.7 9-16.8h-9zM1523 754.1v-16.8c-2.2 6-5.2 11.7-9 16.8h9z"/><path d="M1414.9 674.7h-9.3c-3.7 5.1-6.8 10.7-9 16.8v45.9c2.2 6 5.2 11.7 9 16.8h9.3M1504.8 754.1h9.3c3.7-5.1 6.8-10.7 9-16.8v-45.9c-2.2-6-5.2-11.7-9-16.8h-9.3"/><path d="M1414.9 754.1h10.2c-11-9.7-18-23.9-18-39.7 0-15.8 7-30 18-39.7h-10.2M1504.8 674.7h-10.2c11 9.7 18 23.9 18 39.7 0 15.8-7 30-18 39.7h10.2"/><path d="M1482.1 754.1h12.4c11-9.7 18-23.9 18-39.7 0-15.8-7-30-18-39.7h-12.4M1437.5 674.7h-12.4c-11 9.7-18 23.9-18 39.7 0 15.8 7 30 18 39.7h12.4M1482.1 674.7h-44.6m0 79.4h44.6-44.6z"/><path d="M1497.5 707.3c-3.3-17.7-18.9-31.1-37.6-31.1-21.2 0-38.3 17.1-38.3 38.3 0 21.2 17.1 38.3 38.3 38.3 18.7 0 34.3-13.4 37.6-31.1"/><path d="M1476.7 731.3c-9.3 9.3-24.4 9.3-33.7 0-9.3-9.3-9.3-24.4 0-33.7 9.3-9.3 24.4-9.3 33.7 0 9.3 9.3 9.3 24.4 0 33.7zM1428.7 761.8h-32.1v11.3h32.1v-11.3zM1475.9 761.8h-32.1v11.3h32.1v-11.3zM1523 761.8h-32.1v11.3h32.1v-11.3zM1443 697.6l33.7 33.7M1480.1 694.2l-40.5 40.5M1454.3 691.3l28.6 28.6M1436.7 708.9l28.6 28.6M620.3 78.7H498.6v53.4h121.7V78.7z"/><path d="M522.6 125.5a4.8 4.8 0 100-9.6 4.8 4.8 0 000 9.6zM547.199 125.5a4.8 4.8 0 100-9.6 4.8 4.8 0 000 9.6zM571.8 125.5a4.8 4.8 0 100-9.6 4.8 4.8 0 000 9.6zM596.4 125.5a4.8 4.8 0 100-9.6 4.8 4.8 0 000 9.6zM522.6 110.2a4.8 4.8 0 100-9.6 4.8 4.8 0 000 9.6zM547.199 110.2a4.8 4.8 0 100-9.6 4.8 4.8 0 000 9.6zM571.8 110.2a4.8 4.8 0 100-9.6 4.8 4.8 0 000 9.6zM596.4 110.2a4.8 4.8 0 100-9.6 4.8 4.8 0 000 9.6zM522.6 94.9a4.8 4.8 0 100-9.6 4.8 4.8 0 000 9.6zM547.199 94.9a4.8 4.8 0 100-9.6 4.8 4.8 0 000 9.6zM571.8 94.9a4.8 4.8 0 100-9.6 4.8 4.8 0 000 9.6zM596.4 94.9a4.8 4.8 0 100-9.6 4.8 4.8 0 000 9.6zM814.3 54c9.997 0 18.1-8.104 18.1-18.1 0-9.996-8.103-18.1-18.1-18.1-9.996 0-18.1 8.104-18.1 18.1 0 9.996 8.104 18.1 18.1 18.1z"/><path d="M814.3 42.3a6.4 6.4 0 100-12.8 6.4 6.4 0 000 12.8zM814.3 17.8v8.3M814.3 45.6v8.3M832.3 35.9H824M804.5 35.9h-8.3M1399.2 880.2c10 0 18.1-8.104 18.1-18.1 0-9.996-8.1-18.1-18.1-18.1-10 0-18.1 8.104-18.1 18.1 0 9.996 8.1 18.1 18.1 18.1z"/><path d="M1399.2 868.5c3.53 0 6.4-2.865 6.4-6.4s-2.87-6.4-6.4-6.4c-3.53 0-6.4 2.865-6.4 6.4s2.87 6.4 6.4 6.4zM1417.3 862.1h-8.3M1389.5 862.1h-8.3M1399.2 880.2v-8.4M1399.2 852.4V844M498.6 0v63.1h50.7L586.5 26h33.8V0M264.1 488.4h-37.5V450c0-2.4 1.9-4.3 4.3-4.3h28.9c2.4 0 4.3 1.9 4.3 4.3v38.4zM319.4 488.4H282V450c0-2.4 1.9-4.3 4.3-4.3h28.9c2.4 0 4.3 1.9 4.3 4.3v38.4h-.1z"/><path d="M208.1 422.1v75.6h18.6V450c0-2.4 1.9-4.3 4.3-4.3h28.9c2.4 0 4.3 1.9 4.3 4.3v47.8H282V450c0-2.4 1.9-4.3 4.3-4.3h28.9c2.4 0 4.3 1.9 4.3 4.3v47.8h148.9v-75.6H208.1v-.1zM236 445.7v42.7M245.4 445.7v42.7M254.7 445.7v42.7M291.3 445.7v42.7M300.7 445.7v42.7M310.1 445.7v42.7"/><path d="M446.5 459.3c0 2.4-1.9 4.3-4.3 4.3h-96.6c-2.4 0-4.3-1.9-4.3-4.3V450c0-2.4 1.9-4.3 4.3-4.3h96.6c2.4 0 4.3 1.9 4.3 4.3v9.3zM719.1 407.1H587.4v107.3h131.7V407.1zM.9 645.1h191.6v-238H.9M587.4 514.4v130.7H319.8V514.4"/><path d="M609.7 417.6h-8.6l-4.3 7.5 4.3 7.5h8.6l4.3-7.5-4.3-7.5zM705.4 417.6h-8.6l-4.3 7.5 4.3 7.5h8.6l4.3-7.5-4.3-7.5zM609.7 488.9h-8.6l-4.3 7.5 4.3 7.4h8.6l4.3-7.4-4.3-7.5zM705.4 488.9h-8.6l-4.3 7.5 4.3 7.4h8.6l4.3-7.4-4.3-7.5z"/><path d="M605.4 428.9a3.8 3.8 0 100-7.6 3.8 3.8 0 000 7.6zM605.4 500.2a3.8 3.8 0 100-7.6 3.8 3.8 0 000 7.6zM85.7 18h-8.6l-4.3 7.5 4.3 7.5h8.6l4.3-7.5-4.3-7.5z"/><path d="M81.4 29.3a3.8 3.8 0 100-7.6 3.8 3.8 0 000 7.6zM1582.9 614.6h-8.6l-4.3 7.4 4.3 7.5h8.6l4.4-7.5-4.4-7.4z"/><path d="M1578.6 625.8c2.1 0 3.8-1.701 3.8-3.8 0-2.099-1.7-3.8-3.8-3.8-2.1 0-3.8 1.701-3.8 3.8 0 2.099 1.7 3.8 3.8 3.8zM1405 614.6h-8.7l-4.3 7.4 4.3 7.5h8.7l4.3-7.5-4.3-7.4z"/><path d="M1400.6 625.8c2.1 0 3.8-1.701 3.8-3.8 0-2.099-1.7-3.8-3.8-3.8-2.1 0-3.8 1.701-3.8 3.8 0 2.099 1.7 3.8 3.8 3.8zM1405 436.7h-8.7l-4.3 7.5 4.3 7.4h8.7l4.3-7.4-4.3-7.5z"/><path d="M1400.6 448c2.1 0 3.8-1.701 3.8-3.8 0-2.099-1.7-3.8-3.8-3.8-2.1 0-3.8 1.701-3.8 3.8 0 2.099 1.7 3.8 3.8 3.8zM1920.9 1066.7h-125.1c-1.3 0-2.4-1.1-2.4-2.4v-91.2c0-1.3 1.1-2.4 2.4-2.4h125.1"/><path d="M1865.6 1041.1c12.37 0 22.4-10.03 22.4-22.4s-10.03-22.4-22.4-22.4-22.4 10.03-22.4 22.4 10.03 22.4 22.4 22.4z"/><path d="M1865.6 1053.5c19.22 0 34.8-15.58 34.8-34.8 0-19.219-15.58-34.8-34.8-34.8s-34.8 15.581-34.8 34.8c0 19.22 15.58 34.8 34.8 34.8zM373.801 1080c0-12.4 10-22.4 22.4-22.4 12.4 0 22.4 10 22.4 22.4"/><path d="M361.4 1080c0-19.2 15.6-34.8 34.8-34.8 19.2 0 34.8 15.6 34.8 34.8M1811.4 970.7v-34.4c0-1.3-1.1-2.4-2.4-2.4h-82.6c-.6 0-1.3-.3-1.7-.7l-25.5-25.5c-.5-.5-.7-1.1-.7-1.7v-27M1822.3 879h8.5v19.4c0 1.3-1.1 2.4-2.4 2.4h-3.7c-1.3 0-2.4-1.1-2.4-2.4V879v0zM1803.1 879h8.5v19.4c0 1.3-1.1 2.4-2.4 2.4h-3.7c-1.3 0-2.4-1.1-2.4-2.4V879v0zM1784 879h8.5v19.4c0 1.3-1.1 2.4-2.4 2.4h-3.7c-1.3 0-2.4-1.1-2.4-2.4V879v0zM1921 727.8h-29.4c-1.3 0-2.4-1.1-2.4-2.4v-3.7c0-1.3 1.1-2.4 2.4-2.4h29.4M1921 708.6h-29.4c-1.3 0-2.4-1.1-2.4-2.4v-3.7c0-1.3 1.1-2.4 2.4-2.4h29.4M1921 689.5h-29.4c-1.3 0-2.4-1.1-2.4-2.4v-3.7c0-1.3 1.1-2.4 2.4-2.4h29.4M1804.5 1059.7c2.26 0 4.1-1.84 4.1-4.1s-1.84-4.1-4.1-4.1-4.1 1.84-4.1 4.1 1.84 4.1 4.1 4.1zM1804.5 985.9c2.26 0 4.1-1.836 4.1-4.1 0-2.264-1.84-4.1-4.1-4.1s-4.1 1.836-4.1 4.1c0 2.264 1.84 4.1 4.1 4.1zM1603.4 1006.8c2.26 0 4.1-1.84 4.1-4.1s-1.84-4.1-4.1-4.1-4.1 1.84-4.1 4.1 1.84 4.1 4.1 4.1zM1686.9 871.6c2.26 0 4.1-1.836 4.1-4.1 0-2.264-1.84-4.1-4.1-4.1s-4.1 1.836-4.1 4.1c0 2.264 1.84 4.1 4.1 4.1zM1686.9 845.1c2.26 0 4.1-1.836 4.1-4.1 0-2.264-1.84-4.1-4.1-4.1s-4.1 1.836-4.1 4.1c0 2.264 1.84 4.1 4.1 4.1zM1549.4 871.6c2.26 0 4.1-1.836 4.1-4.1 0-2.264-1.84-4.1-4.1-4.1s-4.1 1.836-4.1 4.1c0 2.264 1.84 4.1 4.1 4.1zM1549.4 845.1c2.26 0 4.1-1.836 4.1-4.1 0-2.264-1.84-4.1-4.1-4.1s-4.1 1.836-4.1 4.1c0 2.264 1.84 4.1 4.1 4.1zM1709.4 871.6c2.26 0 4.1-1.836 4.1-4.1 0-2.264-1.84-4.1-4.1-4.1s-4.1 1.836-4.1 4.1c0 2.264 1.84 4.1 4.1 4.1zM1709.4 845.1c2.26 0 4.1-1.836 4.1-4.1 0-2.264-1.84-4.1-4.1-4.1s-4.1 1.836-4.1 4.1c0 2.264 1.84 4.1 4.1 4.1zM1497 897.4c2.26 0 4.1-1.836 4.1-4.1 0-2.264-1.84-4.1-4.1-4.1s-4.1 1.836-4.1 4.1c0 2.264 1.84 4.1 4.1 4.1zM1497 1006.8c2.26 0 4.1-1.84 4.1-4.1s-1.84-4.1-4.1-4.1-4.1 1.84-4.1 4.1 1.84 4.1 4.1 4.1zM1574.1 1006.8c2.26 0 4.1-1.84 4.1-4.1s-1.84-4.1-4.1-4.1-4.1 1.84-4.1 4.1 1.84 4.1 4.1 4.1zM1528.5 1006.8c2.26 0 4.1-1.84 4.1-4.1s-1.84-4.1-4.1-4.1-4.1 1.84-4.1 4.1 1.84 4.1 4.1 4.1z"/><path d="M1920.9 879h-265.7v107.7c0 1.3-1.1 2.4-2.4 2.4h-138.9v22.9c0 .6-.3 1.2-.7 1.7l-29.1 29.2c-.4.5-.7 1.1-.7 1.7v35.3"/><path d="M1618.1 1080v-36.7c0-.6-.3-1.3-.7-1.7l-27.9-27.9c-.5-.5-.7-1.1-.7-1.7v-22.9M1573.6 1080c0-12.6-10.2-22.9-22.9-22.9s-22.9 10.2-22.9 22.9"/><path d="M1589 1080c0-13.1-6.6-24.7-16.6-31.5v-13.9h-6.1v7.7h-5.8v-4.3H1541v4.3h-5.8v-7.7h-6.1v13.9c-10 6.9-16.6 18.4-16.6 31.5"/><path d="M1560.45 1042.33h5.8v-13.3h-5.8v13.3zM1535.29 1042.33h5.8v-13.3h-5.8v13.3z"/><path d="M1541.07 1037.93h19.4v-4.7h-19.4v4.7zM1698.4 829.6h-160.3V879h160.3v-49.4zM1593.6 879h-10v20.1h10V879zM1558.9 989.1v-15.2c0-4.1 3.3-7.4 7.4-7.4h10c9.6 0 17.4-7.8 17.4-17.4v-43.7h-10v43.7c0 4.1-3.3 7.4-7.4 7.4h-10c-9.6 0-17.4 7.8-17.4 17.4v15.2h10zM1617.7 928c-4.1 0-7.4-3.3-7.4-7.4v-15.2h-10v15.2c0 9.6 7.8 17.4 17.4 17.4h10c4.1 0 7.4 3.3 7.4 7.4v43.8h10v-43.8c0-9.6-7.8-17.4-17.4-17.4h-10zM1610.4 879h-10v20.1h10V879z"/><path d="M1579.13 905.39h35.7v-6.3h-35.7v6.3zM1541.9 899.2h-5v11.2h5v-11.2zM1541.9 928.4h-5v11.2h5v-11.2zM1569.3 899.2h-5v11.2h5v-11.2zM1569.3 928.4h-5v11.2h5v-11.2zM1553.1 887c-6.2 0-11.1 5-11.1 11.1v42.5c0 6.2 5 11.1 11.1 11.1s11.1-5 11.1-11.1v-42.5c0-6.1-5-11.1-11.1-11.1z"/><path d="M1564.2 933.4h-22.3v6.3h22.3v-6.3zM1564.2 899.2h-22.3v6.3h22.3v-6.3zM1323.68 765.208v-7.801h-17.5v7.801h17.5zM1277.95 765.139v-7.8h-17.5v7.8h17.5zM1323.69 808.018v-7.8h-17.5v7.8h17.5zM1277.96 807.949v-7.8h-17.5v7.8h17.5zM1270.19 800.018v-34.799h-9.8v34.799h9.8z"/><path d="M1323.66 799.949v-34.8h-9.8v34.8h9.8zM1323.64 694.468v-7.801h-17.5v7.801h17.5zM1277.91 694.399v-7.8h-17.5v7.8h17.5zM1323.65 737.278v-7.8h-17.5v7.8h17.5zM1277.92 737.209v-7.8h-17.5v7.8h17.5zM1270.15 729.278v-34.799h-9.8v34.799h9.8z"/><path d="M1323.62 729.209v-34.8h-9.8v34.8h9.8zM1520.3 813.4l12-23.2h-8.9l-12 23.2h8.9zM1502.6 813.4l12-23.2h-8.9l-12 23.2h8.9zM1484.9 813.4l12-23.2h-8.9l-12 23.2h8.9zM1467.2 813.4l12-23.2h-8.9l-12 23.2h8.9zM1449.5 813.4l12-23.2h-8.9l-12 23.2h8.9zM1452.8 855.7l-12 23.3h8.9l12-23.3h-8.9zM1470.5 855.7l-12 23.3h8.9l12-23.3h-8.9zM1488.2 855.7l-12 23.3h8.8l12-23.3h-8.8zM1505.9 855.7l-12 23.3h8.8l12-23.3h-8.8zM1523.6 855.7l-12 23.3h8.8l12-23.3h-8.8z"/><path d="M1434.9 856.1l.2-.4h8.9l-9.1 17.5v5.8h103.2-8.8l8.8-17.2v-48.7l-.1.3h-8.9l9-17.5v-5.7h-94.3l-8.9 17.1v48.8z"/><path d="M1538 813.4l.1-.3v-17.2l-9 17.5h8.9zM1443.8 790.2h-8.9v17.1l8.9-17.1zM1435.1 855.7l-.2.4v17.1l9.1-17.5h-8.9zM1538.1 879v-17.2l-8.8 17.2h8.8zM1857.04 930.223h41v-41h-41v41zM1890.7 922.9l-8.6-8.6M1873 905.2l-8.6-8.6M1864.4 922.9l8.6-8.6M1882.1 905.2l8.6-8.6M1439.9 1020.5c1.8 1.5 4.4 1.8 6.5.8 2.2-1 3.5-3.2 3.5-5.6v-58.6c0-3.4-2.8-6.2-6.2-6.2h-60.4c-3.4 0-6.2 2.8-6.2 6.2v8.9c0 1.8.8 3.6 2.2 4.8l60.6 49.7zM1387.3 993.5c-1.8-1.5-4.4-1.8-6.5-.8-2.2 1-3.5 3.2-3.5 5.6v58.6c0 3.4 2.8 6.2 6.2 6.2h60.4c3.4 0 6.2-2.8 6.2-6.2v-8.9c0-1.8-.8-3.6-2.2-4.8l-60.6-49.7zM1865.33 960.486h32.7v-18h-32.7v18z"/><path d="M1857.04 960.486h8.3v-18h-8.3v18zM1888.55 956.37h4.6v-9.1h-4.6v9.1zM1879.43 956.37h4.6v-9.1h-4.6v9.1zM1870.3 956.37h4.6v-9.1h-4.6v9.1z"/><path d="M1888.55 950.974h4.6v-3.7h-4.6v3.7zM1879.43 950.974h4.6v-3.7h-4.6v3.7zM1870.3 950.974h4.6v-3.7h-4.6v3.7zM1375.58 830.627h47.3v-28.2h-47.3v28.2zM1375.6 821.3h47.3M1375.6 812h47.3M1394.5 802.6v28.2M1385.1 802.6v28.2M1404 802.6v28.2M1413.4 802.6v28.2M1551.81 45.12h47.3v-28.2h-47.3v28.2zM1551.8 35.8h47.3M1551.8 26.5h47.3M1570.7 17.1v28.2M1561.3 17.1v28.2M1580.2 17.1v28.2M1589.6 17.1v28.2M1265.17 939.985h54.5v-32.5h-54.5v32.5zM1265.2 929.2h54.5M1265.2 939.9h54.5M1265.2 918.4h54.5M1265.2 907.7h54.5M1287 907.6v32.5M1276.1 907.6v32.5M1297.9 907.6v32.5M1308.8 907.6v32.5M1463.6 1080V934.1h-100.1V1080M1717.1 788.7c-2.6 3.2-3.1 7.5-1.4 11.2 1.7 3.7 5.5 6.1 9.6 6.1H1826c5.8 0 10.6-4.7 10.6-10.6V691.7c0-5.8-4.7-10.6-10.6-10.6h-15.4c-3.2 0-6.2 1.4-8.2 3.9l-85.3 103.7zM1763.4 698.5c2.6-3.2 3.1-7.5 1.4-11.2-1.7-3.7-5.5-6.1-9.6-6.1h-100.7c-5.8 0-10.6 4.7-10.6 10.6v103.7c0 5.8 4.7 10.6 10.6 10.6h15.4c3.2 0 6.2-1.4 8.2-3.9l85.3-103.7z"/><path d="M1434.9 790.2h-71.4v143.9h100.1M1736.8 916.8h13.9l6.9-12-6.9-12h-13.9l-6.9 12 6.9 12z"/><path d="M1743.7 910.9a6.1 6.1 0 006.1-6.1 6.1 6.1 0 00-6.1-6.1 6.1 6.1 0 00-6.1 6.1 6.1 6.1 0 006.1 6.1zM701.1 428.9a3.8 3.8 0 100-7.6 3.8 3.8 0 000 7.6zM701.1 500.2a3.8 3.8 0 100-7.6 3.8 3.8 0 000 7.6zM192.3 514.4h-67.8v107.2h67.8V514.4z"/><path d="M182.9 532.9c0 2-1.6 3.6-3.6 3.6h-41.7c-2 0-3.6-1.6-3.6-3.6s1.6-3.6 3.6-3.6h41.7c2 0 3.6 1.6 3.6 3.6zM182.9 603c0 2-1.6 3.6-3.6 3.6h-41.7c-2 0-3.6-1.6-3.6-3.6s1.6-3.6 3.6-3.6h41.7c2 0 3.6 1.6 3.6 3.6zM182.9 589c0 2-1.6 3.6-3.6 3.6h-41.7c-2 0-3.6-1.6-3.6-3.6s1.6-3.6 3.6-3.6h41.7c2 0 3.6 1.6 3.6 3.6zM182.9 575c0 2-1.6 3.6-3.6 3.6h-41.7c-2 0-3.6-1.6-3.6-3.6s1.6-3.6 3.6-3.6h41.7c2-.1 3.6 1.6 3.6 3.6zM182.9 561c0 2-1.6 3.6-3.6 3.6h-41.7c-2 0-3.6-1.6-3.6-3.6s1.6-3.6 3.6-3.6h41.7c2-.1 3.6 1.6 3.6 3.6zM182.9 546.9c0 2-1.6 3.6-3.6 3.6h-41.7c-2 0-3.6-1.6-3.6-3.6s1.6-3.6 3.6-3.6h41.7c2 0 3.6 1.6 3.6 3.6zM484.1 645.1H192.5v96.3h291.6v-96.3z"/><path d="M192.5 1080V741.3h127.3V1080M587.4 514.4v130.7H484.1v96.2h235V514.4H587.4zM587.4 741.3H319.8v286.3h267.6V741.3z"/><path d="M863 514.4H718.6v226.9H863V514.4zM1006.2 514.4H863.5v142.7h142.7V514.4zM1030.4 299.8h-167V71.7h228.1v228.1h-24.3"/><path d="M863.5 741.3h228V299.8h-24.3"/><path d="M1030.4 299.8h-24.2v357.3H863.5M1218.4 299.8h-126.9v282.7h126.9V299.8zM1006.3 1080V837.6h357.2V1080M1437.7 407.1h-219.3v250.6h396.5v-73.4l-177.2-177.2zM1920.9 407.1h-702.5V299.8l77-77h100.1V122.7h525.4M1614.9 0v122.7h-219.4V0M1513.9 1012V879"/><path d="M1798.8 407.1h-361.1l177.2 177.2v73.4h183.9V407.1zM1920.9 829.6h-306V657.7h306M1332.6 866.8h-80.4v184h80.4v-184z"/><path d="M1319.7 895.7c0 1.3-1.1 2.4-2.4 2.4h-49.7c-1.3 0-2.4-1.1-2.4-2.4v-11.9c0-1.3 1.1-2.4 2.4-2.4h49.7c1.3 0 2.4 1.1 2.4 2.4v11.9zM1276.1 1034.5c0 1.3-1.1 2.4-2.4 2.4h-6.1c-1.3 0-2.4-1.1-2.4-2.4V953c0-1.3 1.1-2.4 2.4-2.4h6.1c1.3 0 2.4 1.1 2.4 2.4v81.5zM1297.9 1034.5c0 1.3-1.1 2.4-2.4 2.4h-6.1c-1.3 0-2.4-1.1-2.4-2.4V953c0-1.3 1.1-2.4 2.4-2.4h6.1c1.3 0 2.4 1.1 2.4 2.4v81.5zM1319.7 1034.5c0 1.3-1.1 2.4-2.4 2.4h-6.1c-1.3 0-2.4-1.1-2.4-2.4V953c0-1.3 1.1-2.4 2.4-2.4h6.1c1.3 0 2.4 1.1 2.4 2.4v81.5zM1265.2 992.1h10.9M1287 1007h10.9M1308.8 970.3h10.9"/><path d="M1277.8 890.6h-8.6v3.5h8.6v-3.5zM1290.4 886.8h-8.6v7.3h8.6v-7.3zM1303.1 888.6h-8.6v5.5h8.6v-5.5zM1315.7 890.6h-8.6v3.5h8.6v-3.5zM1833.94 215.701h54.5v-32.5h-54.5v32.5zM1834 204.9h54.5M1834 215.7h54.5M1834 194.2h54.5M1834 183.4h54.5M1855.8 183.3v32.5M1844.9 183.3v32.5M1866.7 183.3v32.5M1877.6 183.3v32.5"/><path d="M1901.4 142.6H1821v164h80.4v-164z"/><path d="M1888.5 171.4c0 1.3-1.1 2.4-2.4 2.4h-49.7c-1.3 0-2.4-1.1-2.4-2.4v-11.9c0-1.3 1.1-2.4 2.4-2.4h49.7c1.3 0 2.4 1.1 2.4 2.4v11.9zM1844.9 290.3c0 1.3-1.1 2.4-2.4 2.4h-6.1c-1.3 0-2.4-1.1-2.4-2.4v-61.5c0-1.3 1.1-2.4 2.4-2.4h6.1c1.3 0 2.4 1.1 2.4 2.4v61.5zM1866.7 290.3c0 1.3-1.1 2.4-2.4 2.4h-6.1c-1.3 0-2.4-1.1-2.4-2.4v-61.5c0-1.3 1.1-2.4 2.4-2.4h6.1c1.3 0 2.4 1.1 2.4 2.4v61.5zM1888.5 290.3c0 1.3-1.1 2.4-2.4 2.4h-6.1c-1.3 0-2.4-1.1-2.4-2.4v-61.5c0-1.3 1.1-2.4 2.4-2.4h6.1c1.3 0 2.4 1.1 2.4 2.4v61.5zM1834 267.9h10.9M1855.8 242.8h10.9M1877.6 276.1h10.9"/><path d="M1846.6 163.4h-8.6v6.5h8.6v-6.5zM1859.2 165.5h-8.6v4.3h8.6v-4.3zM1871.9 166.4h-8.6v3.5h8.6v-3.5zM1884.5 162.4h-8.6v7.5h8.6v-7.5zM1363.5 628.1c0 5.3-4.3 9.6-9.6 9.6h-106c-5.3 0-9.6-4.3-9.6-9.6V436.7c0-5.3 4.3-9.6 9.6-9.6h106c5.3 0 9.6 4.3 9.6 9.6v191.4zM1432.6 429.9c-1.8-1.8-4.3-2.8-6.8-2.8h-32.6c-5.3 0-9.6 4.3-9.6 9.6v191.4c0 5.3 4.3 9.6 9.6 9.6h192.2c5.3 0 9.6-4.3 9.6-9.6v-31.8c0-2.6-1-5-2.8-6.8l-159.6-159.6zM1724.8 586.4h-84.9v45.7h84.9v-45.7z"/><path d="M1717.3 594.7h-69.8v14.5h69.8v-14.5zM1765.1 440.7h-69.8v17.9h69.8v-17.9zM1765.1 491.7h-69.8v60.6h69.8v-60.6zM1734.8 600.2h-10v18h10v-18zM1798.8 604.1h-64v10.2h64v-10.2zM1647.48 576.323v10h18v-10h-18z"/><path d="M1651.42 407.087v169.3h10.2v-169.3h-10.2zM1778.7 422.9h-97.2v143.5h97.2V422.9z"/><path d="M1701.5 500.6h-6.2v12.6h6.2v-12.6zM1701.5 531h-6.2v12.6h6.2V531zM1748.4 533.6c6.35 0 11.5-5.149 11.5-11.5s-5.15-11.5-11.5-11.5-11.5 5.149-11.5 11.5 5.15 11.5 11.5 11.5z"/><path d="M1745.4 515.8v12.6h12.7a11.4 11.4 0 000-12.6h-12.7v0zM966.449 721.69v-6.2h-12.6v6.2h12.6zM916.03 721.709v-6.2h-12.6v6.2h12.6zM826 701.8c6.351 0 11.5-5.149 11.5-11.5s-5.149-11.5-11.5-11.5-11.5 5.149-11.5 11.5 5.149 11.5 11.5 11.5z"/><path d="M822.9 684v12.6h12.7a11.4 11.4 0 000-12.6h-12.7v0zM1463.6 899.2h-100.1v34.9h100.1v-34.9zM1597 674.7h-40.9v137.8h40.9V674.7z"/><path d="M1588.7 683h-24.4v9.4h24.4V683zM1588.7 699h-24.4v9.4h24.4V699zM1588.7 715h-24.4v9.4h24.4V715zM1588.7 731h-24.4v9.4h24.4V731zM1588.7 746.9h-24.4v9.4h24.4v-9.4zM1588.7 762.9h-24.4v9.4h24.4v-9.4zM1588.7 778.9h-24.4v9.4h24.4v-9.4zM1588.7 794.9h-24.4v9.4h24.4v-9.4zM1498.1 721.7a7.3 7.3 0 10-.002-14.602 7.3 7.3 0 00.002 14.602zM1920.9 626.6h-19v-14.1h19"/><path d="M1920.9 626.6h-19v-14.1h19M843.1 534.4H739.5v65h103.6v-65z"/><path d="M780.7 551.8l4.4 4.9h-10l-4.4-4.9h10zM780.7 570.6l4.4-4.9h-10l-4.4 4.9h10zM814.7 558.2c-1.4-.9-3-1.4-4.6-1.4H775v8.9h35.1c1.6 0 3.3-.5 4.6-1.4l4.4-3-4.4-3.1zM764.7 565.7v-9l5.9 3v3l-5.9 3zM812.6 542.9h9.5M812.6 546.8h9.5M812.6 550.8h6.5M749.2 542.9h9.5M749.2 546.8h9.5M749.2 550.8h6.5M793.8 572.6h13.9M793.8 576.6h13.9M793.8 580.5h7.9M761.9 588.3h-17.4v6.1h17.4v-6.1zM787.3 588.3h-17.4v6.1h17.4v-6.1zM812.7 588.3h-17.4v6.1h17.4v-6.1zM838.1 588.3h-17.4v6.1h17.4v-6.1zM809.7 561.2v-18.3M790.8 580.5v-18.3M746.2 542.9v18.3h13.7M843.1 608H739.5v8.7h103.6V608zM748.9 608v8.7M767.8 608v8.7M758.3 608v8.7M786.6 608v8.7M777.2 608v8.7M805.4 608v8.7M796 608v8.7M814.8 608v8.7M833.7 608v8.7M824.2 608v8.7M843.1 622H739.5v8.7h103.6V622zM748.9 622v8.7M767.8 622v8.7M758.3 622v8.7M786.6 622v8.7M777.2 622v8.7M805.4 622v8.7M796 622v8.7M814.8 622v8.7M833.7 622v8.7M824.2 622v8.7M986.2 599.4H883.5v37.7h102.7v-37.7z"/><path d="M932.8 608.3h-40.3v19.9h40.3v-19.9z"/><path d="M892.5 618.2h5.2c.5 0 .9.3 1.2.7l1.9 3.7c.2.4.7.7 1.1.7.5 0 .9-.3 1.2-.7l3.3-6.2c.4-.7 1.1-1.2 1.9-1.2.8-.1 1.6.2 2.1.9l1.5 1.9c.2.3.6.5.9.5.4 0 .7-.1 1-.4l3.5-3.5c.3-.3.7-.4 1-.3.4.1.7.4.8.7l2.6 7.5c.1.4.5.7 1 .7.4 0 .9-.2 1.1-.6l1.2-2.3c.6-1.2 1.9-2 3.2-2h4.8M944.4 616.2a4 4 0 100-8 4 4 0 000 8zM959.2 616.2a4 4 0 100-8 4 4 0 000 8zM973.9 616.2a4 4 0 100-8 4 4 0 000 8zM940.4 624.8h22.9M967.8 624.8h10.1M967.8 620.5h-4.5v8.7h4.5v-8.7zM986.4 637.1H883.5v20h102.9v-20zM908.8 599.4h-7v-26.5l-15-15c-.7-.7-1-1.5-1-2.5v-41h7V554l15 15c.7.7 1 1.5 1 2.5v27.9zM941.2 599.4h-7V552c0-1.9 1.6-3.5 3.5-3.5h33.7l13.6-13.6v-20.6h7v22.1c0 .9-.4 1.8-1 2.5l-15.6 15.6c-.7.7-1.5 1-2.5 1h-31.6v43.9h-.1z"/><path d="M934.2 565.1h-7.5v-22.2c0-1.9-1.6-3.5-3.5-3.5h-14.4v-25h-7v28.5c0 1.9 1.6 3.5 3.5 3.5h14.4v53h7v-27.3h7.5v-7zM973 582.2l-14.1-16c-.7-.8-1.6-1.2-2.6-1.2h-15v7h13.4l14.1 16c.7.8 1.6 1.2 2.6 1.2h34.8v-7H973zM970 514.4h-38.6v20H970v-20z"/><path d="M943.3 528.4a4 4 0 100-8 4 4 0 000 8zM958.1 528.4a4 4 0 100-8 4 4 0 000 8zM1419.3 87.8h16.7M1419.3 92.6h16.7M1419.3 97.5h9.5M1470.4 26.3h26.5M1470.4 31.1h26.5M1470.4 35.9h15.1M1536 16.6h-124.6V106H1536V16.6z"/><path d="M1507.8 66.6c2.93 0 5.3-2.373 5.3-5.3 0-2.927-2.37-5.3-5.3-5.3-2.93 0-5.3 2.373-5.3 5.3 0 2.927 2.37 5.3 5.3 5.3zM1453.8 74.8c7.46 0 13.5-6.044 13.5-13.5s-6.04-13.5-13.5-13.5-13.5 6.044-13.5 13.5 6.04 13.5 13.5 13.5z"/><path d="M1467.3 61.3c0-28.2-36.6-28.2-36.6 0 0 12.8 10.4 23.1 23.1 23.1 5.7 0 10.9-2.1 15-5.5l31.4-26.6-.7.7c1.4-1.4 3.2-2.5 5.2-3 1-.3 2-.4 3.1-.4 6.5 0 11.8 5.3 11.8 11.8 0 6.5-5.3 11.8-11.8 11.8"/><path d="M1504.3 76.4l-3.6-1.2v-3.6l3.6-1.2v6zM1440.4 61.3h26.9M1502.5 61.3h10.6M1528.8 23.8h-24.2v14.5h24.2V23.8zM1475.3 89.5v9.2M1479.7 93.3v5.4M1484.1 93.3v5.4M1488.4 93.3v5.4M1497.2 93.3v5.4M1501.6 93.3v5.4M1505.9 93.3v5.4M1514.7 93.3v5.4M1519.1 93.3v5.4M1523.5 93.3v5.4M1492.8 89.5v9.2M1510.3 89.5v9.2M1527.8 89.5v9.2M1091.5 0v299.8h126.9l77-77h100.1V0M842.5 639.3h-102v102h102v-102zM986.4 674.5H883.5v47.3h102.9v-47.3z"/><path d="M952.8 684H917v12.6h35.8V684zM140.742 945.741v-8.7h-17.8v8.7h17.8zM69.446 945.737v-8.7h-17.8v8.7h17.8z"/><path d="M169 861H23.5v84.9H169V861z"/><path d="M121.6 874.5H70.9v17.8h50.7v-17.8zM880.7 570.5c.4-.6 1-1 1.7-1s1.4.4 1.7 1l9.5 16.4c.4.6.4 1.4 0 2-.4.6-1 1-1.7 1H873c-.7 0-1.4-.4-1.7-1-.4-.6-.4-1.4 0-2l9.4-16.4zM882.4 576.3v5.2M882.4 583.5v2.2M1611.6 958.7c.4-.6 1-1 1.7-1s1.4.4 1.7 1l9.5 16.4c.4.6.4 1.4 0 2-.4.6-1 1-1.7 1h-18.9c-.7 0-1.4-.4-1.7-1-.4-.6-.4-1.4 0-2l9.4-16.4zM1613.3 964.5v5.2M1613.3 971.7v2.2M1048.9 571.4c-10.2 0-18.5 8.3-18.5 18.5 0 .7.1 1.4.1 2.1v149.3h36.8V589.9c0-10.2-8.2-18.5-18.4-18.5z"/><path d="M1067.3 603.4h-36.9v14.2h36.9v-14.2zM1030.41 362.888h36.9v-14.2h-36.9v14.2zM1067.3 707.3h-36.9v14.2h36.9v-14.2zM1048.9 555c10.22 0 18.5-8.283 18.5-18.5s-8.28-18.5-18.5-18.5-18.5 8.283-18.5 18.5 8.28 18.5 18.5 18.5z"/><path d="M1048.9 546.9c5.74 0 10.4-4.656 10.4-10.4 0-5.744-4.66-10.4-10.4-10.4s-10.4 4.656-10.4 10.4c0 5.744 4.66 10.4 10.4 10.4zM1048.9 501.6c10.22 0 18.5-8.283 18.5-18.5s-8.28-18.5-18.5-18.5-18.5 8.283-18.5 18.5 8.28 18.5 18.5 18.5z"/><path d="M1048.9 493.5c5.74 0 10.4-4.656 10.4-10.4 0-5.744-4.66-10.4-10.4-10.4s-10.4 4.656-10.4 10.4c0 5.744 4.66 10.4 10.4 10.4zM1048.9 448.3c10.22 0 18.5-8.283 18.5-18.5s-8.28-18.5-18.5-18.5-18.5 8.283-18.5 18.5 8.28 18.5 18.5 18.5z"/><path d="M1048.9 440.2c5.74 0 10.4-4.656 10.4-10.4 0-5.744-4.66-10.4-10.4-10.4s-10.4 4.656-10.4 10.4c0 5.744 4.66 10.4 10.4 10.4zM1006.2 115.2H863.5v-10h140.7l16.4-16.4c.9-.9 2.2-1.5 3.5-1.5h67.4v10h-65.3l-16.4 16.4c-1 .9-2.2 1.5-3.6 1.5zM893.1 174.3l23.3-23.3h89.9l10-10h-102c-1.3 0-2.6.5-3.5 1.5l-23.3 23.3h-24.1v10h26.1c1.4-.1 2.7-.6 3.6-1.5zM1020.5 150.9h71v-10h-61l-10 10zM1067.3 299.8v-49.5c0-27-21.9-48.8-48.8-48.8h-155v36.9h155c6.6 0 11.9 5.3 11.9 11.9v126c0 10.2 8.3 18.5 18.5 18.5s18.5-8.3 18.5-18.5c0-.7-.1-1.4-.1-2.1v-74.4 0z"/><path d="M938.4 238.4v21.7c0 2-1.6 3.6-3.6 3.6h-71.3v10h71.3c7.5 0 13.6-6.1 13.6-13.6v-21.7h-10v0zM1051.8 107.6c-1.3 0-2.6.5-3.5 1.5L995 162.3h-43c-7.5 0-13.6 6.1-13.6 13.6v25.6h10v-25.6c0-2 1.6-3.6 3.6-3.6h45.1c1.3 0 2.6-.5 3.5-1.5l53.3-53.3h37.6v-10h-39.7v.1zM1040.9 150.9v56c15.7 8.1 26.5 24.5 26.5 43.4v49.5h24.1V150.9h-50.6zM1218.4 582.6h-126.5v74.5h-.4v84.2h-85.2v96.3h357.2V657.1M234.8 1042.5c-1.1 0-2.2.4-3 1.3-1.7 1.7-1.7 4.4 0 6.1.8.8 1.9 1.3 3 1.3s2.2-.4 3-1.3c1.7-1.7 1.7-4.4 0-6.1-.8-.9-1.8-1.3-3-1.3zM277.5 1008.4c1.1 0 2.2-.4 3-1.3 1.7-1.7 1.7-4.4 0-6.1-.8-.8-1.9-1.3-3-1.3s-2.2.4-3 1.3c-.8.8-1.3 1.9-1.3 3s.4 2.2 1.3 3c.8.9 1.9 1.4 3 1.4zM234.8 1008.4c1.1 0 2.2-.4 3-1.3 1.7-1.7 1.7-4.4 0-6.1-.8-.8-1.9-1.3-3-1.3s-2.2.4-3 1.3c-1.7 1.7-1.7 4.4 0 6.1.8.8 1.9 1.3 3 1.3zM277.5 1042.5c-1.1 0-2.2.4-3 1.3-.8.8-1.3 1.9-1.3 3s.4 2.2 1.3 3c.8.8 1.9 1.3 3 1.3s2.2-.4 3-1.3c1.7-1.7 1.7-4.4 0-6.1-.8-.8-1.9-1.2-3-1.2zM226 1021.1c-2.4 0-4.3 1.9-4.3 4.3s1.9 4.3 4.3 4.3 4.3-1.9 4.3-4.3c0-2.3-2-4.3-4.3-4.3zM286.3 1029.7c2.375 0 4.3-1.93 4.3-4.3s-1.925-4.3-4.3-4.3-4.3 1.93-4.3 4.3 1.925 4.3 4.3 4.3zM256.2 999.6a4.3 4.3 0 100-8.6 4.3 4.3 0 000 8.6zM256.2 1059.9c2.375 0 4.3-1.93 4.3-4.3s-1.925-4.3-4.3-4.3c-2.374 0-4.3 1.93-4.3 4.3s1.926 4.3 4.3 4.3z"/><path d="M256.2 1066.7c22.81 0 41.3-18.49 41.3-41.3s-18.49-41.3-41.3-41.3c-22.809 0-41.3 18.49-41.3 41.3s18.491 41.3 41.3 41.3z"/><path d="M256.2 1045.2c10.936 0 19.8-8.86 19.8-19.8 0-10.94-8.864-19.8-19.8-19.8-10.935 0-19.8 8.86-19.8 19.8 0 10.94 8.865 19.8 19.8 19.8zM1685.5 78.4c-1.1 0-2.2.4-3 1.3-1.7 1.7-1.7 4.4 0 6.1.8.8 1.9 1.3 3 1.3s2.2-.4 3-1.3c1.7-1.7 1.7-4.4 0-6.1-.8-.9-1.8-1.3-3-1.3zM1728.2 44.3c1.1 0 2.2-.4 3-1.3 1.7-1.7 1.7-4.4 0-6.1-.8-.8-1.9-1.3-3-1.3s-2.2.4-3 1.3c-.8.8-1.3 1.9-1.3 3s.4 2.2 1.3 3c.8.9 1.8 1.4 3 1.4zM1685.5 44.3c1.1 0 2.2-.4 3-1.3 1.7-1.7 1.7-4.4 0-6.1-.8-.8-1.9-1.3-3-1.3s-2.2.4-3 1.3c-1.7 1.7-1.7 4.4 0 6.1.8.8 1.9 1.3 3 1.3zM1731.2 79.6c-.8-.8-1.9-1.3-3-1.3s-2.2.4-3 1.3c-.8.8-1.3 1.9-1.3 3s.4 2.2 1.3 3c.8.8 1.9 1.3 3 1.3s2.2-.4 3-1.3c1.7-1.6 1.7-4.3 0-6zM1676.7 57c-2.4 0-4.3 1.9-4.3 4.3s1.9 4.3 4.3 4.3 4.3-1.9 4.3-4.3c0-2.3-2-4.3-4.3-4.3zM1737 65.6c2.38 0 4.3-1.925 4.3-4.3s-1.92-4.3-4.3-4.3c-2.37 0-4.3 1.925-4.3 4.3s1.93 4.3 4.3 4.3zM1706.8 35.4c2.37 0 4.3-1.925 4.3-4.3s-1.93-4.3-4.3-4.3-4.3 1.925-4.3 4.3 1.93 4.3 4.3 4.3zM1706.8 95.8c2.37 0 4.3-1.925 4.3-4.3s-1.93-4.3-4.3-4.3-4.3 1.925-4.3 4.3 1.93 4.3 4.3 4.3z"/><path d="M1706.8 102.6c22.81 0 41.3-18.49 41.3-41.3S1729.61 20 1706.8 20s-41.3 18.49-41.3 41.3 18.49 41.3 41.3 41.3z"/><path d="M1706.8 81.1c10.94 0 19.8-8.865 19.8-19.8s-8.86-19.8-19.8-19.8c-10.94 0-19.8 8.865-19.8 19.8s8.86 19.8 19.8 19.8zM214.5 716.4h-8.7l-4.3 7.5 4.3 7.4h8.7l4.3-7.4-4.3-7.5z"/><path d="M210.1 727.7a3.8 3.8 0 100-7.6 3.8 3.8 0 000 7.6zM470.8 716.4h-8.6l-4.3 7.5 4.3 7.4h8.6l4.3-7.4-4.3-7.5z"/><path d="M466.5 727.7a3.8 3.8 0 100-7.6 3.8 3.8 0 000 7.6zM214.5 655h-8.7l-4.3 7.5 4.3 7.4h8.7l4.3-7.4-4.3-7.5z"/><path d="M210.1 666.3a3.8 3.8 0 100-7.6 3.8 3.8 0 000 7.6zM470.8 655h-8.6l-4.3 7.5 4.3 7.4h8.6l4.3-7.4-4.3-7.5z"/><path d="M466.5 666.3a3.8 3.8 0 100-7.6 3.8 3.8 0 000 7.6zM616.7 977.6h-9.9l-4.9 8.6 4.9 8.6h9.9l5-8.6-5-8.6z"/><path d="M611.8 990.6a4.4 4.4 0 100-8.8 4.4 4.4 0 000 8.8zM616.7 896.9h-9.9l-4.9 8.6 4.9 8.6h9.9l5-8.6-5-8.6z"/><path d="M611.8 909.9a4.4 4.4 0 100-8.8 4.4 4.4 0 000 8.8zM986.9 977.6h-10l-4.9 8.6 4.9 8.6h10l4.9-8.6-4.9-8.6z"/><path d="M981.9 990.6a4.4 4.4 0 100-8.8 4.4 4.4 0 000 8.8zM986.9 896.9h-10l-4.9 8.6 4.9 8.6h10l4.9-8.6-4.9-8.6z"/><path d="M981.9 909.9a4.4 4.4 0 100-8.8 4.4 4.4 0 000 8.8zM801.8 977.6h-9.9l-5 8.6 5 8.6h9.9l5-8.6-5-8.6z"/><path d="M796.8 990.6a4.4 4.4 0 100-8.8 4.4 4.4 0 000 8.8zM801.8 896.9h-9.9l-5 8.6 5 8.6h9.9l5-8.6-5-8.6z"/><path d="M796.8 909.9a4.4 4.4 0 100-8.8 4.4 4.4 0 000 8.8zM625.7 756h-22.1v81.6h22.1V756z"/><path d="M619.499 761.2h-9.8v10h9.8v-10zM625.699 824.6h-11.3v6.1h11.3v-6.1zM625.699 814.2h-11.3v6.1h11.3v-6.1zM625.699 803.8h-11.3v6.1h11.3v-6.1zM664 756h-22.1v81.6H664V756z"/><path d="M657.901 761.2h-9.8v10h9.8v-10zM664 824.6h-11.3v6.1H664v-6.1zM664 814.2h-11.3v6.1H664v-6.1zM664 803.8h-11.3v6.1H664v-6.1zM702.4 756h-22.1v81.6h22.1V756z"/><path d="M696.199 761.2h-9.8v10h9.8v-10zM702.4 824.6h-11.3v6.1h11.3v-6.1zM702.4 814.2h-11.3v6.1h11.3v-6.1zM702.4 803.8h-11.3v6.1h11.3v-6.1zM740.7 756h-22.1v81.6h22.1V756z"/><path d="M734.6 761.2h-9.8v10h9.8v-10zM740.699 824.6h-11.3v6.1h11.3v-6.1zM740.699 814.2h-11.3v6.1h11.3v-6.1zM740.699 803.8h-11.3v6.1h11.3v-6.1z"/><path d="M1006.3 741.3H587.4v141.5h418.9V741.3z"/><path d="M1006.3 741.3H758.7v96.3h247.6v-96.3z"/><path d="M840.2 761.3c0 2.1-1.7 3.8-3.8 3.8H780c-2.1 0-3.8-1.7-3.8-3.8 0-2.1 1.7-3.8 3.8-3.8h56.4c2-.1 3.8 1.6 3.8 3.8zM840.2 780c0 2.1-1.7 3.8-3.8 3.8H780c-2.1 0-3.8-1.7-3.8-3.8 0-2.1 1.7-3.8 3.8-3.8h56.4c2 0 3.8 1.7 3.8 3.8zM840.2 798.8c0 2.1-1.7 3.8-3.8 3.8H780c-2.1 0-3.8-1.7-3.8-3.8 0-2.1 1.7-3.8 3.8-3.8h56.4c2 0 3.8 1.7 3.8 3.8zM840.2 817.6c0 2.1-1.7 3.8-3.8 3.8H780c-2.1 0-3.8-1.7-3.8-3.8 0-2.1 1.7-3.8 3.8-3.8h56.4c2-.1 3.8 1.7 3.8 3.8zM301.6 799.1h-90.9v28.3h90.9v-28.3z"/><path d="M269.3 804.4h-26.2v8.2h26.2v-8.2zM168.9 1025.6H23.7v31.3h145.2v-31.3z"/><path d="M109.5 1032.9H83.3v8.2h26.2v-8.2zM301.6 760.1h-90.9v28.3h90.9v-28.3z"/><path d="M269.3 765.4h-26.2v8.2h26.2v-8.2zM1223.6 162.2c-2.6-2.5-3.8-5.8-3.8-10v-15.8c0-4.2 1.3-7.4 3.8-9.9 2.6-2.4 6-3.7 10.4-3.7s7.9 1.2 10.4 3.7c2.6 2.4 3.9 5.7 3.9 9.9v15.8c0 4.2-1.3 7.6-3.9 10-2.6 2.5-6.1 3.7-10.4 3.7-4.4-.1-7.8-1.3-10.4-3.7zm14.7-5.3c1.1-1.1 1.6-2.6 1.6-4.4V136c0-1.8-.5-3.3-1.6-4.4-1.1-1.1-2.5-1.6-4.3-1.6-1.8 0-3.2.5-4.2 1.6-1.1 1.1-1.6 2.6-1.6 4.4v16.5c0 1.8.5 3.3 1.6 4.4 1.1 1.1 2.5 1.6 4.2 1.6 1.8.1 3.2-.5 4.3-1.6zM1257.7 162.2c-2.6-2.5-3.8-5.8-3.8-10v-15.8c0-4.2 1.3-7.4 3.8-9.9 2.6-2.4 6-3.7 10.4-3.7s7.9 1.2 10.4 3.7c2.6 2.4 3.9 5.7 3.9 9.9v15.8c0 4.2-1.3 7.6-3.9 10-2.6 2.5-6.1 3.7-10.4 3.7-4.3-.1-7.8-1.3-10.4-3.7zm14.7-5.3c1.1-1.1 1.6-2.6 1.6-4.4V136c0-1.8-.5-3.3-1.6-4.4-1.1-1.1-2.5-1.6-4.3-1.6-1.8 0-3.2.5-4.2 1.6-1.1 1.1-1.6 2.6-1.6 4.4v16.5c0 1.8.5 3.3 1.6 4.4 1.1 1.1 2.5 1.6 4.2 1.6 1.8.1 3.3-.5 4.3-1.6zM1318.5 147.1c.1.1.2.3.2.5v6c0 .2-.1.4-.2.5-.1.1-.3.2-.5.2h-2.6c-.2 0-.3.1-.3.3v9.8c0 .2-.1.4-.2.5-.1.1-.3.2-.5.2h-7c-.2 0-.4-.1-.5-.2-.1-.1-.2-.3-.2-.5v-9.8c0-.2-.1-.3-.3-.3H1288c-.2 0-.4-.1-.5-.2-.1-.1-.2-.3-.2-.5v-4.8c0-.2.1-.5.2-.9l10.8-24.2c.2-.4.4-.5.8-.5h7.5c.3 0 .5.1.6.2.1.1.1.3 0 .6l-10 22.4v.2c0 .1.1.1.2.1h9.1c.2 0 .3-.1.3-.3V139c0-.2.1-.4.2-.5.1-.1.3-.2.5-.2h7c.2 0 .4.1.5.2.1.1.2.3.2.5v7.4c0 .2.1.3.3.3h2.6c0 .2.2.3.4.4zM1875.4 802.4c-2.6-2.5-3.8-5.8-3.8-10v-15.8c0-4.2 1.3-7.4 3.8-9.9 2.6-2.4 6-3.7 10.4-3.7s7.9 1.2 10.4 3.7c2.6 2.4 3.9 5.7 3.9 9.9v15.8c0 4.2-1.3 7.6-3.9 10-2.6 2.5-6.1 3.7-10.4 3.7-4.4-.1-7.8-1.3-10.4-3.7zm14.7-5.3c1.1-1.1 1.6-2.6 1.6-4.4v-16.5c0-1.8-.5-3.3-1.6-4.4-1.1-1.1-2.5-1.6-4.3-1.6-1.8 0-3.2.5-4.2 1.6-1.1 1.1-1.6 2.6-1.6 4.4v16.5c0 1.8.5 3.3 1.6 4.4 1.1 1.1 2.5 1.6 4.2 1.6 1.8.1 3.2-.5 4.3-1.6zM1919.9 770.2c-1.8 0-3.2.5-4.2 1.6-1.1 1.1-1.6 2.6-1.6 4.4v16.5c0 1.8.5 3.3 1.6 4.4 1.1 1.1 2.5 1.6 4.2 1.6m0 7.3c-4.4 0-7.9-1.2-10.4-3.7-2.6-2.5-3.8-5.8-3.8-10v-15.8c0-4.2 1.3-7.4 3.8-9.9 2.6-2.4 6-3.7 10.4-3.7V806zM339.4 594.4c-2.1-2-3.1-4.7-3.1-8.2v-12.9c0-3.4 1-6.1 3.1-8 2.1-2 4.9-3 8.5-3 3.6 0 6.4 1 8.5 3 2.1 2 3.1 4.7 3.1 8v12.9c0 3.4-1 6.2-3.1 8.2-2.1 2-4.9 3-8.5 3-3.6 0-6.4-1-8.5-3zm11.9-4.2c.9-.9 1.3-2.1 1.3-3.6v-13.4c0-1.5-.4-2.7-1.3-3.6-.9-.9-2-1.3-3.5-1.3-1.4 0-2.6.4-3.4 1.3-.9.9-1.3 2.1-1.3 3.6v13.4c0 1.5.4 2.7 1.3 3.6.9.9 2 1.3 3.4 1.3 1.5 0 2.7-.4 3.5-1.3zM367.2 594.4c-2.1-2-3.1-4.7-3.1-8.2v-12.9c0-3.4 1-6.1 3.1-8 2.1-2 4.9-3 8.5-3 3.6 0 6.4 1 8.5 3 2.1 2 3.1 4.7 3.1 8v12.9c0 3.4-1 6.2-3.1 8.2-2.1 2-4.9 3-8.5 3-3.6 0-6.5-1-8.5-3zm11.9-4.2c.9-.9 1.3-2.1 1.3-3.6v-13.4c0-1.5-.4-2.7-1.3-3.6-.9-.9-2-1.3-3.5-1.3-1.4 0-2.6.4-3.4 1.3-.9.9-1.3 2.1-1.3 3.6v13.4c0 1.5.4 2.7 1.3 3.6.9.9 2 1.3 3.4 1.3 1.5 0 2.7-.4 3.5-1.3zM413.8 585.8c0 1.8-.3 3.4-.9 4.9-.8 2.1-2.1 3.7-3.9 4.9-1.8 1.2-4 1.8-6.5 1.8s-4.6-.6-6.5-1.9c-1.9-1.2-3.2-2.9-4-5-.5-1.3-.7-2.6-.8-4.1 0-.4.2-.6.6-.6h5.8c.4 0 .6.2.6.6.1 1.1.3 1.9.5 2.4.3.8.8 1.5 1.4 2 .7.5 1.5.7 2.4.7 1.8 0 3.1-.8 3.8-2.4.5-1 .7-2.1.7-3.4 0-1.5-.2-2.8-.7-3.8-.7-1.5-2-2.3-3.8-2.3-.4 0-.7.1-1.1.3-.4.2-.9.5-1.4.9-.1.1-.3.1-.4.1-.2 0-.3-.1-.4-.3l-2.9-4c-.1-.1-.1-.2-.1-.3 0-.2.1-.4.2-.5l7.7-6.8c.1-.1.1-.1.1-.2s-.1-.1-.2-.1h-11.5c-.2 0-.3-.1-.4-.2-.1-.1-.2-.3-.2-.4v-4.7c0-.2.1-.3.2-.4.1-.1.3-.2.4-.2h20.3c.2 0 .3.1.4.2.1.1.2.3.2.4v5.4c0 .3-.1.5-.3.7l-6.4 5.8c-.1.1-.1.1-.1.2s.1.1.2.1c2.8.6 4.8 2.2 6 5 .7 1.5 1 3.2 1 5.2zM1696.7 982.4c-2.1-2-3.2-4.8-3.2-8.4v-13.2c0-3.5 1.1-6.2 3.2-8.2 2.1-2 5-3.1 8.7-3.1 3.7 0 6.6 1 8.7 3.1 2.2 2 3.2 4.8 3.2 8.2V974c0 3.5-1.1 6.3-3.2 8.4-2.1 2.1-5.1 3.1-8.7 3.1-3.7 0-6.6-1.1-8.7-3.1zm12.3-4.4c.9-.9 1.3-2.1 1.3-3.7v-13.8c0-1.5-.4-2.8-1.3-3.7-.9-.9-2.1-1.4-3.6-1.4s-2.6.5-3.5 1.4c-.9.9-1.3 2.1-1.3 3.7v13.8c0 1.5.4 2.8 1.3 3.7.9.9 2.1 1.4 3.5 1.4 1.5 0 2.7-.4 3.6-1.4zM1725.2 982.4c-2.1-2-3.2-4.8-3.2-8.4v-13.2c0-3.5 1.1-6.2 3.2-8.2 2.1-2 5-3.1 8.7-3.1 3.7 0 6.6 1 8.7 3.1 2.2 2 3.2 4.8 3.2 8.2V974c0 3.5-1.1 6.3-3.2 8.4-2.1 2.1-5.1 3.1-8.7 3.1-3.7 0-6.6-1.1-8.7-3.1zm12.3-4.4c.9-.9 1.3-2.1 1.3-3.7v-13.8c0-1.5-.4-2.8-1.3-3.7-.9-.9-2.1-1.4-3.6-1.4s-2.6.5-3.5 1.4c-.9.9-1.3 2.1-1.3 3.7v13.8c0 1.5.4 2.8 1.3 3.7.9.9 2.1 1.4 3.5 1.4 1.5 0 2.7-.4 3.6-1.4zM1759.8 978.8c0 .1.1.1.2.1h13.5c.2 0 .3.1.4.2.1.1.2.3.2.4v4.8c0 .2-.1.3-.2.4-.1.1-.3.2-.4.2H1751c-.2 0-.3-.1-.4-.2-.1-.1-.2-.3-.2-.4v-4.6c0-.3.1-.6.3-.8 1.6-1.6 3.3-3.3 5-5.2 1.7-1.9 2.8-3.1 3.2-3.5.9-1.1 1.9-2.2 2.8-3.2 3-3.4 4.6-5.9 4.6-7.5 0-1.2-.4-2.1-1.2-2.9-.8-.8-1.9-1.1-3.2-1.1-1.3 0-2.4.4-3.2 1.1-.8.8-1.2 1.7-1.2 3v1.2c0 .2-.1.3-.2.4-.1.1-.3.2-.4.2h-5.9c-.2 0-.3-.1-.4-.2-.1-.1-.2-.3-.2-.4v-2.3c.1-1.8.7-3.4 1.7-4.8s2.4-2.4 4.1-3.2c1.7-.7 3.6-1.1 5.8-1.1 2.4 0 4.4.4 6.2 1.3 1.8.9 3.1 2.1 4 3.6.9 1.5 1.4 3.2 1.4 5 0 1.4-.3 2.8-1 4.3s-1.8 3-3.2 4.8c-1 1.3-2.1 2.6-3.3 3.8-1.2 1.3-3 3.1-5.3 5.5l-.8.8c-.2.1-.3.2-.2.3zM926.4 787.3c-2.1-2-3.2-4.8-3.2-8.4v-13.2c0-3.5 1.1-6.2 3.2-8.2 2.1-2 5-3.1 8.7-3.1 3.7 0 6.6 1 8.7 3.1 2.2 2 3.2 4.8 3.2 8.2v13.2c0 3.5-1.1 6.3-3.2 8.4-2.1 2.1-5.1 3.1-8.7 3.1-3.7 0-6.6-1.1-8.7-3.1zm12.3-4.4c.9-.9 1.3-2.1 1.3-3.7v-13.8c0-1.5-.4-2.8-1.3-3.7-.9-.9-2.1-1.4-3.6-1.4s-2.6.5-3.5 1.4c-.9.9-1.3 2.1-1.3 3.7v13.8c0 1.5.4 2.8 1.3 3.7.9.9 2.1 1.4 3.5 1.4 1.5 0 2.7-.5 3.6-1.4zM954.9 787.3c-2.1-2-3.2-4.8-3.2-8.4v-13.2c0-3.5 1.1-6.2 3.2-8.2 2.1-2 5-3.1 8.7-3.1 3.7 0 6.6 1 8.7 3.1 2.2 2 3.2 4.8 3.2 8.2v13.2c0 3.5-1.1 6.3-3.2 8.4-2.1 2.1-5.1 3.1-8.7 3.1-3.7 0-6.6-1.1-8.7-3.1zm12.3-4.4c.9-.9 1.3-2.1 1.3-3.7v-13.8c0-1.5-.4-2.8-1.3-3.7-.9-.9-2.1-1.4-3.6-1.4s-2.6.5-3.5 1.4c-.9.9-1.3 2.1-1.3 3.7v13.8c0 1.5.4 2.8 1.3 3.7.9.9 2.1 1.4 3.5 1.4 1.5 0 2.7-.5 3.6-1.4zM985.6 754.8h6c.2 0 .3.1.4.2.1.1.2.3.2.4v33.8c0 .2-.1.3-.2.4-.1.1-.3.2-.4.2h-5.8c-.2 0-.3-.1-.4-.2-.1-.1-.2-.3-.2-.4v-27.4c0-.1 0-.1-.1-.2s-.1-.1-.2 0l-5 1.3-.2.1c-.3 0-.5-.2-.5-.6l-.2-4.3c0-.3.2-.6.5-.7l5.2-2.4c.3-.1.6-.2.9-.2zM1198.4 210.2v60c0 5.3-4.3 9.6-9.6 9.6h-67.2c-5.3 0-9.6-4.3-9.6-9.6V29.6c0-5.3 4.3-9.6 9.6-9.6h67.2c5.3 0 9.6 4.3 9.6 9.6v152.6M1229.4 106.5c-5.3 0-9.6-4.3-9.6-9.6V29.6c0-5.3 4.3-9.6 9.6-9.6H1366c5.3 0 9.6 4.3 9.6 9.6v67.2c0 5.3-4.3 9.6-9.6 9.6l-136.6.1zM1385.5 192.4h-20.3v20.3h20.3v-20.3z"/><path d="M1375.4 207.1c2.49 0 4.5-2.015 4.5-4.5s-2.01-4.5-4.5-4.5c-2.48 0-4.5 2.015-4.5 4.5s2.02 4.5 4.5 4.5zM1262.2 508.7c-5 0-9-4-9-9V451c0-5 4-9 9-9h77.4c5 0 9 4 9 9v48.8c0 5-4 9-9 9h-77.4v-.1z"/><path d="M1339.6 451h-77.4v48.8h77.4V451zM1363.6 519.7h-31.8v48.8h31.8v-48.8z"/><path d="M1358 561.3h-20.3v7.2h20.3v-7.2zM1341.1 533c1.88 0 3.4-1.522 3.4-3.4s-1.52-3.4-3.4-3.4-3.4 1.522-3.4 3.4 1.52 3.4 3.4 3.4zM1347.9 542.8c1.88 0 3.4-1.522 3.4-3.4s-1.52-3.4-3.4-3.4-3.4 1.522-3.4 3.4 1.52 3.4 3.4 3.4zM1354.6 533c1.88 0 3.4-1.522 3.4-3.4s-1.52-3.4-3.4-3.4-3.4 1.522-3.4 3.4 1.52 3.4 3.4 3.4zM1584.2 154.1h-31.8v48.8h31.8v-48.8z"/><path d="M1578.6 195.6h-20.3v7.2h20.3v-7.2zM1578.6 154.1h-20.3v31.6h20.3v-31.6zM1348.6 625.9h-95.4v11.9h95.4v-11.9zM1636.8 422.9h-120.3v35.8h120.3v-35.8zM1636.9 470.7h-51.6v35.8h51.6v-35.8z"/><path d="M1544.7 514.1l-7-7v-48.5h7v55.5zM1590.9 560.2l-4.9-4.9 5.5-5.5-27.8-27.8c-1.3-1.3-2.1-3.1-2.1-5v-58.4h7V517l27.8 27.8c1.3 1.3 2.1 3.1 2.1 5s-.7 3.6-2.1 5l-5.5 5.4zM1601.3 571.2l-4.7-5.2 23.4-23.4v-36.2h7v36.2c0 1.9-.7 3.6-2.1 5l-23.6 23.6zM1601 477.4h-8.1v21.4h8.1v-21.4zM1547.72 438.702v-8.1h-21.4v8.1h21.4zM1920.9 65.7h-72.8c-6.6 0-11.9-5.3-11.9-11.9V0"/><path d="M1799.3 0v53.8c0 27 21.9 48.8 48.8 48.8h72.8M1798.8 377.5c0 5.3-4.3 9.6-9.6 9.6h-164.6c-5.3 0-9.6-4.3-9.6-9.6v-41.3c0-5.3 4.3-9.6 9.6-9.6h164.6c5.3 0 9.6 4.3 9.6 9.6v41.3zM1594.9 377.5c0 5.3-4.3 9.6-9.6 9.6h-160.1c-5.3 0-9.6-4.3-9.6-9.6V152.3c0-5.3 4.3-9.6 9.6-9.6h160.1c5.3 0 9.6 4.3 9.6 9.6v225.2zM1248 387.1c-5.3 0-9.6-4.3-9.6-9.6v-65.3c0-2.6 1-5 2.8-6.8l59.7-59.7c1.8-1.8 4.3-2.8 6.8-2.8h78.2c5.3 0 9.6 4.3 9.6 9.6v125.1c0 5.3-4.3 9.6-9.6 9.6H1248v-.1z"/><path d="M1306.8 354.8h-52.9v20.1h52.9v-20.1z"/><path d="M1293.6 354.8h-26.5v10.1h26.5v-10.1zM553.6 916.2h-52.9v20.1h52.9v-20.1z"/><path d="M540.4 916.2h-26.5v10.1h26.5v-10.1zM1505.2 326.1c33.8 0 61.2-27.4 61.2-61.2 0-33.8-27.4-61.2-61.2-61.2-33.8 0-61.2 27.4-61.2 61.2 0 33.8 27.4 61.2 61.2 61.2z"/><path d="M1505.2 308.1c23.86 0 43.2-19.341 43.2-43.2s-19.34-43.2-43.2-43.2c-23.86 0-43.2 19.341-43.2 43.2s19.34 43.2 43.2 43.2zM1568.5 175.6c3.15 0 5.7-2.552 5.7-5.7s-2.55-5.7-5.7-5.7c-3.15 0-5.7 2.552-5.7 5.7s2.55 5.7 5.7 5.7zM1921 326.5h-90.4c-5.3 0-9.6 4.3-9.6 9.6v41.3c0 5.3 4.3 9.6 9.6 9.6h90.4M1589.5 55.3h-37.7V76h37.7V55.3zM1599.1 55.3h-9.6V76h9.6V55.3z"/><path d="M1562.7 60h-5.3v10.5h5.3V60zM1573.3 60h-5.3v10.5h5.3V60zM1583.9 60h-5.3v10.5h5.3V60z"/><path d="M1562.7 66.3h-5.3v4.3h5.3v-4.3zM1573.3 60.2h-5.3v4.3h5.3v-4.3zM1583.9 66.3h-5.3v4.3h5.3v-4.3zM531.1 674.5h98.6v27.3h-84.9M639.7 674.5v-57.4H667v71.1M544.8 711.8h-27.3v29.5h27.3v-29.5z"/><path d="M653.3 695.2a7 7 0 100-14 7 7 0 000 14zM531.1 695.2a7 7 0 100-14 7 7 0 000 14zM667 598.4c0-1.5-1.2-2.7-2.7-2.7h-21.9c-1.5 0-2.7 1.2-2.7 2.7v10.3H667v-10.3zM667 625.8h-14.3v10.5H667v-10.5zM652.2 644.3c.2-.4.6-.6 1.1-.6.4 0 .9.2 1.1.6l5.9 10.3c.2.4.2.9 0 1.3s-.6.6-1.1.6h-11.9c-.4 0-.9-.2-1.1-.6-.2-.4-.2-.9 0-1.3l6-10.3zM653.3 648.9v3.3M653.3 652.9v1.2"/><path d="M646.2 604.4a2.2 2.2 0 100-4.4 2.2 2.2 0 000 4.4zM660.5 604.4a2.2 2.2 0 100-4.4 2.2 2.2 0 000 4.4zM662.7 608.7H644v8.3h18.7v-8.3zM611.9 534.7h-8.6v5.1h8.6v-5.1zM657.6 554.9H649v25.9h8.6v-25.9zM634.8 534.7h-8.6v5.1h8.6v-5.1zM680.5 534.7h-8.6v5.1h8.6v-5.1zM703.3 534.7h-8.6v5.1h8.6v-5.1zM611.9 539.9h-8.6v25.9h8.6v-25.9zM634.8 539.9h-8.6v25.9h8.6v-25.9zM680.5 539.9h-8.6v25.9h8.6v-25.9zM703.3 539.9h-8.6v25.9h8.6v-25.9zM667.3 570.3l-9-2v6.1l5.1 2v19.4h1c1.5 0 2.7 1.2 2.7 2.7v1.3h.3c1.5 0 2.7-1.2 2.7-2.7v-24c-.1-1.6-1.3-2.8-2.8-2.8zM639.7 598.4c0-1.5 1.2-2.7 2.7-2.7h1v-19.4l5.1-2v-6.1l-9 2c-1.5 0-2.7 1.2-2.7 2.7v24c0 1.5 1.2 2.7 2.7 2.7h.3v-1.2h-.1zM531.1 674.5c-7.5 0-13.7 6.1-13.7 13.7v13.7h27.3v-13.7c.1-7.6-6-13.7-13.6-13.7zM667 688.2c0-7.5-6.1-13.7-13.7-13.7h-13.7v27.3h13.7c7.6 0 13.7-6.1 13.7-13.6z"/><path d="M540.6 701.8h-19v10h19v-10zM639.622 697.688v-19h-10v19h10zM1188.7 104.4v68.5h-27.3V118M1188.7 182.9h47.4v27.3H1175M1151.4 20h-29.5v98h29.5V20z"/><path d="M1141.6 94.9h-10V118h10V94.9zM1151.4 85.1h-29.5M1175 203.5c3.87 0 7-3.134 7-7s-3.13-7-7-7-7 3.134-7 7 3.13 7 7 7zM1175 111.4c3.87 0 7-3.134 7-7s-3.13-7-7-7-7 3.134-7 7 3.13 7 7 7zM1254.7 210.2c1.5 0 2.7-1.2 2.7-2.7v-21.9c0-1.5-1.2-2.7-2.7-2.7h-10.3v27.3h10.3v0zM1173.9 150.1c.2-.4.6-.6 1.1-.6.4 0 .9.2 1.1.6l5.9 10.3c.2.4.2.9 0 1.3s-.6.6-1.1.6H1169c-.4 0-.9-.2-1.1-.6-.2-.4-.2-.9 0-1.3l6-10.3zM1175 154.7v3.3M1175 158.7v1.2"/><path d="M1250.9 191.6c1.22 0 2.2-.985 2.2-2.2 0-1.215-.98-2.2-2.2-2.2-1.21 0-2.2.985-2.2 2.2 0 1.215.99 2.2 2.2 2.2zM1250.9 205.9c1.22 0 2.2-.985 2.2-2.2 0-1.215-.98-2.2-2.2-2.2-1.21 0-2.2.985-2.2 2.2 0 1.215.99 2.2 2.2 2.2zM1244.43 205.867v-18.7h-8.3v18.7h8.3zM1282.9 210.5l2-9h-6.1l-2 5.1h-19.4v1c0 1.5-1.2 2.7-2.7 2.7h-1.3v.3c0 1.5 1.2 2.7 2.7 2.7h24c1.5-.1 2.8-1.3 2.8-2.8zM1254.7 182.9c1.5 0 2.7 1.2 2.7 2.7v1h19.4l2 5.1h6.1l-2-9c0-1.5-1.2-2.7-2.7-2.7h-24c-1.5 0-2.7 1.2-2.7 2.7v.3h1.2v-.1zM1188.7 104.4c0-7.5-6.1-13.7-13.7-13.7h-13.7V118h13.7c7.6 0 13.7-6.1 13.7-13.6zM1175 210.2c7.5 0 13.7-6.1 13.7-13.7v-13.7h-27.3v13.7c0 7.6 6.1 13.7 13.6 13.7z"/><path d="M1161.31 113.897v-19h-10v19h10zM1165.53 182.873h19v-10h-19v10zM1426.7 306.8h-11.2v44.4h11.2v-44.4zM1426.7 178.6h-11.2V223h11.2v-44.4zM1235.3 87.2c0 2.9 2.4 5.3 5.3 5.3s5.3-2.4 5.3-5.3v-21h-10.7v21h.1zM1252.1 87.2c0 2.9 2.4 5.3 5.3 5.3s5.3-2.4 5.3-5.3v-21H1252v21h.1zM1269 87.2c0 2.9 2.4 5.3 5.3 5.3s5.3-2.4 5.3-5.3v-21H1269v21zM1279.7 49.1H1269v11.3h10.7V49.1zM1262.8 49.1h-10.7v11.3h10.7V49.1zM1246 49.1h-10.7v11.3h10.7V49.1z"/><path d="M1283.8 60.4l-64-.1v5.8l64 .1v-5.8zM1352.57 47.443l-3.68 3.677 5.73 5.727 3.68-3.677-5.73-5.727zM1323.46 76.567l-7.64 7.637 5.73 5.727 7.63-7.637-5.72-5.727z"/><path d="M1338.3 71.7c0-3.1 2.5-5.6 5.6-5.6 1.5 0 3 .6 4 1.6l8.8-8.8-9.9-9.9-25.4 25.4 9.9 9.9 8.7-8.7c-1.1-1-1.7-2.4-1.7-3.9z"/><path d="M1343.9 77.3c3.09 0 5.6-2.507 5.6-5.6 0-3.093-2.51-5.6-5.6-5.6s-5.6 2.507-5.6 5.6c0 3.093 2.51 5.6 5.6 5.6z"/><path d="M1361.2 81.5l-12.3-12.3c.4.7.6 1.6.6 2.5 0 3.1-2.5 5.6-5.6 5.6-.9 0-1.7-.2-2.5-.6l10.8 10.8v8.4h10.6V85.3c0-1.4-.6-2.8-1.6-3.8z"/><path d="M1362.8 95.8H1331v10.6h31.8V95.8zM1305.7 89l-3.8 3.7 13.8 13.8h7.5L1305.7 89zM1313 35v-8.2h-13V35c-5.8 2.5-9.8 8.3-9.8 15 0 9 7.3 16.3 16.3 16.3s16.3-7.3 16.3-16.3c0-6.7-4-12.4-9.8-15z"/><path d="M1309.5 20h-5.5v20.7h5.5V20zM1301.2 49.2c.99 0 1.8-.806 1.8-1.8s-.81-1.8-1.8-1.8-1.8.806-1.8 1.8.81 1.8 1.8 1.8zM1311.4 57.8a4.2 4.2 0 100-8.4 4.2 4.2 0 000 8.4zM1246 42.4h-10.7v6.7h10.7v-6.7zM1262.8 42.4h-10.7v6.7h10.7v-6.7zM1279.7 42.4H1269v6.7h10.7v-6.7zM880.2 19.9a5.8 5.8 0 100-11.6 5.8 5.8 0 000 11.6zM880.2 41.7a5.8 5.8 0 100-11.6 5.8 5.8 0 000 11.6zM880.2 63.4a5.8 5.8 0 100-11.6 5.8 5.8 0 000 11.6zM901.901 19.9a5.8 5.8 0 100-11.6 5.8 5.8 0 000 11.6zM901.901 41.7a5.8 5.8 0 100-11.6 5.8 5.8 0 000 11.6zM901.901 63.4a5.8 5.8 0 100-11.6 5.8 5.8 0 000 11.6zM923.7 19.9a5.8 5.8 0 100-11.6 5.8 5.8 0 000 11.6zM923.7 41.7a5.8 5.8 0 100-11.6 5.8 5.8 0 000 11.6zM923.7 63.4a5.8 5.8 0 100-11.6 5.8 5.8 0 000 11.6zM945.401 19.9a5.8 5.8 0 100-11.6 5.8 5.8 0 000 11.6zM945.401 41.7a5.8 5.8 0 100-11.6 5.8 5.8 0 000 11.6zM945.401 63.4a5.8 5.8 0 100-11.6 5.8 5.8 0 000 11.6zM967.2 19.9a5.8 5.8 0 100-11.6 5.8 5.8 0 000 11.6zM967.2 41.7a5.8 5.8 0 100-11.6 5.8 5.8 0 000 11.6zM967.2 63.4a5.8 5.8 0 100-11.6 5.8 5.8 0 000 11.6zM988.901 19.9a5.8 5.8 0 100-11.6 5.8 5.8 0 000 11.6zM988.901 41.7a5.8 5.8 0 100-11.6 5.8 5.8 0 000 11.6zM988.901 63.4a5.8 5.8 0 100-11.6 5.8 5.8 0 000 11.6zM1010.6 19.9c3.2 0 5.8-2.597 5.8-5.8s-2.6-5.8-5.8-5.8c-3.2 0-5.8 2.597-5.8 5.8s2.6 5.8 5.8 5.8zM1010.6 41.7c3.2 0 5.8-2.597 5.8-5.8s-2.6-5.8-5.8-5.8c-3.2 0-5.8 2.597-5.8 5.8s2.6 5.8 5.8 5.8zM1010.6 63.4c3.2 0 5.8-2.597 5.8-5.8s-2.6-5.8-5.8-5.8c-3.2 0-5.8 2.597-5.8 5.8s2.6 5.8 5.8 5.8zM1031.6 19.9c3.2 0 5.8-2.597 5.8-5.8s-2.6-5.8-5.8-5.8c-3.2 0-5.8 2.597-5.8 5.8s2.6 5.8 5.8 5.8zM1031.6 41.7c3.2 0 5.8-2.597 5.8-5.8s-2.6-5.8-5.8-5.8c-3.2 0-5.8 2.597-5.8 5.8s2.6 5.8 5.8 5.8zM1031.6 63.4c3.2 0 5.8-2.597 5.8-5.8s-2.6-5.8-5.8-5.8c-3.2 0-5.8 2.597-5.8 5.8s2.6 5.8 5.8 5.8zM1053.7 19.9c3.2 0 5.8-2.597 5.8-5.8s-2.6-5.8-5.8-5.8c-3.2 0-5.8 2.597-5.8 5.8s2.6 5.8 5.8 5.8zM1053.7 41.7c3.2 0 5.8-2.597 5.8-5.8s-2.6-5.8-5.8-5.8c-3.2 0-5.8 2.597-5.8 5.8s2.6 5.8 5.8 5.8zM1053.7 63.4c3.2 0 5.8-2.597 5.8-5.8s-2.6-5.8-5.8-5.8c-3.2 0-5.8 2.597-5.8 5.8s2.6 5.8 5.8 5.8zM1074.7 19.9c3.2 0 5.8-2.597 5.8-5.8s-2.6-5.8-5.8-5.8c-3.2 0-5.8 2.597-5.8 5.8s2.6 5.8 5.8 5.8zM1074.7 41.7c3.2 0 5.8-2.597 5.8-5.8s-2.6-5.8-5.8-5.8c-3.2 0-5.8 2.597-5.8 5.8s2.6 5.8 5.8 5.8zM1074.7 63.4c3.2 0 5.8-2.597 5.8-5.8s-2.6-5.8-5.8-5.8c-3.2 0-5.8 2.597-5.8 5.8s2.6 5.8 5.8 5.8z"/><path d="M903.9 0v35.9c0 1.1-.9 2-2 2s-2-.9-2-2V0"/><path d="M903.9 0v35.9c0 1.1-.9 2-2 2s-2-.9-2-2V0M947.4 0v57.8c0 1.1-.9 2-2 2s-2-.9-2-2V0"/><path d="M947.4 0v57.8c0 1.1-.9 2-2 2s-2-.9-2-2V0M1055.7 0v57.8c0 1.1-.9 2-2 2s-2-.9-2-2V0"/><path d="M1055.7 0v57.8c0 1.1-.9 2-2 2s-2-.9-2-2V0M1012.6 0v14.4c0 1.1-.9 2-2 2s-2-.9-2-2V0"/><path d="M1012.6 0v14.4c0 1.1-.9 2-2 2s-2-.9-2-2V0M587.4 1008.9v71.1M1128 508.5c-.7-.7-1.1-1.7-1.1-2.8V380.2c0-3.7-1.4-7.2-4.1-9.8l-9.5-9.5c-.7-.7-1.1-1.7-1.1-2.8v-58.3h-10v58.3c0 3.7 1.4 7.2 4.1 9.8l9.5 9.5c.7.7 1.1 1.7 1.1 2.8v49.4h-25.4v10h25.4v66.1c0 3.7 1.4 7.2 4.1 9.8l22.6 22.6c.7.7 1.1 1.7 1.1 2.8v5.8h10v-5.8c0-3.7-1.4-7.2-4.1-9.8l-22.6-22.6zM1209.3 514.7c-2.2 0-3.9-1.8-3.9-3.9v-50.2c0-7.7-6.2-13.9-13.9-13.9h-16.4v-39.1c0-1 .4-2 1.1-2.8l19.9-19.9c2.6-2.6 4.1-6.1 4.1-9.8v-30.5h-10v30.5c0 1-.4 2-1.1 2.8l-19.9 19.9c-2.6 2.6-4.1 6.1-4.1 9.8V547h10v-90.3h16.4c2.2 0 3.9 1.8 3.9 3.9v50.2c0 7.7 6.2 13.9 13.9 13.9h9.1v-10h-9.1z"/><path d="M1187 546.8h-83.6v35.8h83.6v-35.8z"/><path d="M1119.1 553.5h-8.1v21.4h8.1v-21.4zM1210.2 308.6h-63.9v35.8h63.9v-35.8z"/><path d="M1162 315.3h-8.1v21.4h8.1v-21.4zM1206.5 647.4c0 4.9-4 8.9-8.9 8.9h-85.3c-4.9 0-8.9-4-8.9-8.9v-44.2c0-4.9 4-8.9 8.9-8.9h85.3c4.9 0 8.9 4 8.9 8.9v44.2zM1325.3 765.2h-66.5c-7.1 0-13.1 4.2-15.9 10.3h-8.7v14.3h8.7c2.7 6 8.8 10.3 15.9 10.3h66.5c9.6 0 17.4-7.8 17.4-17.4 0-9.6-7.8-17.5-17.4-17.5zM1325.3 694.5h-66.5c-7.1 0-13.1 4.2-15.9 10.3h-8.7V719h8.7c2.7 6 8.8 10.3 15.9 10.3h66.5c9.6 0 17.4-7.8 17.4-17.4 0-9.6-7.8-17.4-17.4-17.4z"/><path d="M1156.9 782.9h-102.3v-7h102.3c2.5 0 4.5-2 4.5-4.5v-51.6c0-6.3 5.2-11.5 11.5-11.5h61.3v7h-61.3c-2.5 0-4.5 2-4.5 4.5v51.6c0 6.4-5.1 11.5-11.5 11.5zM1190.5 816h-135.8v-7h135.8c2.5 0 4.5-2 4.5-4.5v-13.9c0-6.3 5.2-11.5 11.5-11.5h27.8v7h-27.8c-2.5 0-4.5 2-4.5 4.5v13.9c0 6.4-5.2 11.5-11.5 11.5z"/><path d="M1054.7 786.6v-14.3h-9.8v-10.5h-26.1v75.8h26.1v-17.9h9.8v-14.3h-9.8v-18.8h9.8zM319.8 788.4h77.3v88.9c0 2.1.8 4.2 2.3 5.7l85 85c1.5 1.5 2.3 3.5 2.3 5.7v54"/><path d="M498.3 950.3c-2.1 0-4.2-.8-5.7-2.3l-73.2-73.2c-1.5-1.5-2.3-3.5-2.3-5.7v-52.7c0-4.4 3.6-8 8-8h134.3c4.4 0 8 3.6 8 8v125.9c0 4.4-3.6 8-8 8h-61.1v0zM587.4 741.3H319.8v47.1h267.6v-47.1zM567.4 999.6c0 4.4-3.6 8-8 8h-44.7c-4.4 0-8-3.6-8-8v-19.1c0-4.4 3.6-8 8-8h44.7c4.4 0 8 3.6 8 8v19.1zM400.3 983.1h-60.5v24.4h60.5v-24.4z"/><path d="M350.2 999.8a4.4 4.4 0 100-8.8 4.4 4.4 0 000 8.8zM365.5 999.8a4.4 4.4 0 100-8.8 4.4 4.4 0 000 8.8z"/></svg>