<svg viewBox="0 0 800 224.1" fill="#fff" xmlns="http://www.w3.org/2000/svg"><path d="M226.3 44.4c17.8 13.6 23 37.2 23.1 58.3 0 3.9 6 3.9 6 0 0-11.4-.8-22.4-5-33.1-4.6-11.8-10.9-22.6-21-30.4-3.2-2.3-6.2 2.9-3.1 5.2zM200.2 34c5.5-.5 11.3 1.2 16.2 3.6 3.5 1.7 6.5-3.5 3-5.2-5.8-2.8-12.6-5-19.2-4.4-3.8.3-3.8 6.3 0 6z"/><path d="M231.6 73.8c10.1 17.3 11.7 36.8 6.5 56-1 3.7 4.8 5.3 5.8 1.6 5.6-20.8 3.8-41.9-7.2-60.6-1.8-3.3-7-.3-5.1 3zm-54.9-27.6c5.8-.9 13.8-.5 20.1.8 12.3 2.6 21.4 9.5 29.3 19.1 2.5 3 6.7-1.3 4.2-4.2-8.5-10.3-18.7-17.8-31.9-20.6-7.6-1.6-15.6-2-23.3-.8-3.8.5-2.2 6.3 1.6 5.7z"/><path d="M199.4 67.2c12.5 4.5 23.8 14.7 27.9 27.5 2.8 8.9 2.5 18.2 1.5 27.3-.4 3.8 5.6 3.8 6 0 1.2-11.1 1.2-22.4-3.2-32.9-5.4-13-17.5-23-30.6-27.7-3.6-1.3-5.2 4.5-1.6 5.8zm-24.7-4.6c5.4-.6 10.9.5 16.2 1.9 3.7.9 5.3-4.8 1.6-5.8-5.7-1.4-11.9-2.7-17.8-2.1-3.8.4-3.9 6.4 0 6zm53.7 71.4c-5.6 23.2-22.7 41.9-41.7 55.5-3.1 2.2-.1 7.4 3 5.2 20.2-14.5 38.4-34.4 44.4-59.1 1-3.8-4.8-5.4-5.7-1.6z"/><path d="M212.6 104.6c1.8 6.5 1.2 14.6.3 21.2-.7 5.1-1.9 10.3-4.2 14.9-1.3 2.6-2.8 5.1-4.8 7.3-.8.9-2.1 2-2.2 2.1-3.2 2.1-.2 7.3 3 5.2 4.4-2.8 7.5-7.8 9.6-12.4 2.5-5.3 3.9-10.9 4.6-16.7.9-7.4 1.5-16-.5-23.2-1.1-3.7-6.8-2.1-5.8 1.6zm-27.8-23.5c10.8.6 20 5.1 24.4 15.4 1.5 3.5 6.7.5 5.2-3-5.3-12.2-16.8-17.6-29.6-18.4-3.9-.2-3.8 5.8 0 6zm-21.8 123c-1.3.9-2.6 1.7-4 2.4-.7.4-1.5.8-2.2 1.2-.3.2-.7.4-1 .5-.1.1-1.3.6-.6.3-1.5.6-2.6 2-2.1 3.7.4 1.4 2.2 2.7 3.7 2.1 3.2-1.3 6.3-3.1 9.2-5.1 3.3-2 .3-7.2-3-5.1zm34.1-97.7c-.6-.4 0 .2.2.5.3.5.5 1.1.7 1.7.3.9.6 2.5.5 3-.3 1.6.4 3.2 2.1 3.7 1.5.4 3.4-.5 3.7-2.1.8-4.1-.8-9.4-4.2-12-1.3-1-3.4-.2-4.1 1.1-.8 1.6-.2 3.1 1.1 4.1zm1.2 30.6c-11.4-.1-21-4.7-30-11.3-3.1-2.3-6.1 2.9-3 5.2 9.9 7.3 20.6 12.1 33 12.1 3.9 0 3.9-6 0-6zm-48.4 2c-.8-.5-3.5-3.7-4.9-5.1-2.8-2.9-5.5-5.9-8-9-3-3.6-5.9-7.4-8.6-11.2-2.2-3.2-7.4-.2-5.2 3 3 4.3 6.2 8.4 9.5 12.4 2.9 3.5 6 6.9 9.2 10.2 1.9 1.9 2.4 3.2 4.9 4.9 3.3 2.2 6.3-3 3.1-5.2zm47.5 17.8c-11.6-1.8-25.6-3.6-35.6-10-3.3-2.1-6.3 3.1-3 5.2 10.5 6.7 24.9 8.7 37 10.6 3.8.5 5.4-5.2 1.6-5.8zm-6 19c-11.6-1.7-23.4-3.3-34.1-8.1-8.7-4-16.9-9.3-24.2-15.5-2.4-2.1-4.9-4.2-6.9-6.7-.4-.5-1.8-3.1-1.3-1.7-1.4-3.6-7.2-2-5.8 1.6 1.3 3.4 4.4 6.2 7 8.6 7.6 7 16.4 13.1 25.7 17.7 12 5.9 24.9 8 38 9.9 3.8.5 5.4-5.3 1.6-5.8zm-50.2 13.9c11.2 5.8 24.3 10.8 37.1 10.8 3.9 0 3.9-6 0-6-11.7 0-23.9-4.7-34.1-10-3.4-1.7-6.4 3.5-3 5.2z"/><path d="M101 74.4c-18.5 11.2-24.8 33.7-20.3 54.1 2.2 9.7 9.4 18 15.8 25.3 9.7 11.1 20.9 21.3 33.2 29.6 3.2 2.2 6.2-3 3-5.2-11-7.4-21-16.5-29.9-26.3-6-6.7-13.7-14.7-16-23.7-4.7-17.9.8-38.7 17.2-48.6 3.4-2 .4-7.2-3-5.2zm94.9 43.4c-7.9-2.6-15.9-7.2-22.2-12.5-7-5.9-11.5-14.5-17.3-21.5-4-4.8-8.4-9.1-14.2-11.9-3.8-1.8-7.8-3-12-3.6s-10-1.4-14.1 0c-3.6 1.3-2.1 7.1 1.6 5.8.7-.2 5.1-.3 7-.2 2.7.1 5.4.4 8.1 1.1 3.6.9 7 2.3 10.2 4.4 6.2 4.1 10.9 10.7 15.2 16.6 4.8 6.5 9.2 12.4 15.9 17.1 6.1 4.3 13 8.2 20.2 10.5 3.7 1.2 5.2-4.6 1.6-5.8zM55.7 130.6c2.8 22.5 19 41.5 35.8 55.7 15.3 13 33.3 23.2 52.6 28.8 3.7 1.1 5.3-4.7 1.6-5.8-17.8-5.1-34.4-14.4-48.6-26.1-15.8-13.1-32.8-31.3-35.4-52.6-.5-3.7-6.5-3.8-6 0z"/><path d="M144.3 50.1c-9.4-5-19.5-7.4-30.1-5.8-11.5 1.7-22 6.6-31.2 13.5-9.4 6.8-18.7 15.2-23.5 25.9-2.3 5.1-3.7 10.7-4.8 16.1-1 4.7-2 9.8-1 14.6.8 3.8 6.5 2.2 5.8-1.6-.9-4.4.5-9.4 1.5-13.7 1.1-4.8 2.3-9.8 4.6-14.2 4.7-9.4 13.3-16.8 21.6-22.9 16.2-11.6 35.8-16.4 54.1-6.8 3.4 1.9 6.4-3.3 3-5.1zm47.8 45.2c-5.8-2.8-10.7-8.7-14.7-13.6-3.2-3.9-5.2-8.3-8-12.4-3-4.6-6.9-8.2-11.3-11.4-3.1-2.3-6.1 2.9-3 5.2 9.2 6.7 13 17.3 20.4 25.6 3.8 4.3 8.3 9.2 13.6 11.8 3.4 1.7 6.5-3.5 3-5.2zm-33.7 22.2c-6.6-7.7-11.8-17.4-20-23.6-9.2-7-21.5-5.1-29.3 3.2-9.4 10-6.6 25.9-.5 36.9 1.9 3.4 7.1.3 5.2-3-4.6-8.2-7.6-20.7-1.3-28.7 3-3.7 8.1-6.6 12.8-6.9 5.4-.3 9.7 3.1 13.2 6.8 5.6 6.1 10.1 13.3 15.6 19.6 2.6 2.9 6.8-1.4 4.3-4.3z"/><path d="M101.9 27.3c-10.7-.2-23.5 4-32.6 9.6S52.9 51.4 46.9 60.1c-7.4 10.7-11.5 23.2-12.5 36.2-.8 10.1.8 19.4 3 29.2.9 3.8 6.6 2.2 5.8-1.6-2-8.7-3.4-17-2.9-26C41 86 44.6 74.6 51.1 64.6c5.3-8.1 12.3-16.7 20.4-22 8.3-5.4 20.5-9.5 30.4-9.3 3.9 0 3.9-6 0-6zm48.8 9.8c-10.6-5.8-22.6-9.4-34.7-9.8-3.9-.1-3.9 5.9 0 6 11 .3 22.1 3.7 31.7 9 3.4 1.8 6.4-3.4 3-5.2zM25.5 50c-5.1 9.7-7.3 20.9-6.8 31.8.2 3.8 6.2 3.9 6 0-.4-9.9 1.4-20 6-28.8 1.8-3.4-3.4-6.4-5.2-3zm98.7-37.5c-14.1-6.2-29.8-6.6-44.8-3.4-8.4 1.8-17 4.5-24.6 8.8-7.7 4.3-13.1 10.7-18.8 17.3-2.5 2.9 1.7 7.2 4.2 4.2 5-5.7 9.7-11.6 16.3-15.6 7-4.3 15.1-6.8 23-8.6 13.7-3.2 28.6-3.2 41.7 2.4 3.5 1.6 6.6-3.6 3-5.1zm190.5 117.1c-5.7 0-10.2-1.8-13.4-5.3s-4.8-8.5-4.8-14.8 1.5-11.3 4.6-15.1 7.3-5.7 12.5-5.7c4.6 0 8.3 1.6 11 4.9 2.7 3.2 4 7.6 4 13.2v2.9h-28.4c0 5.4 1.3 9.5 3.8 12.4 2.5 2.8 6 4.3 10.6 4.3 2.2 0 4.2-.2 5.9-.5s3.9-1 6.5-2v3.3c-2.2 1-4.3 1.6-6.2 2s-3.8.4-6.1.4zm-1-37.6c-3.8 0-6.8 1.2-9.1 3.7s-3.6 6.1-4 10.8h24.3c0-4.6-1-8.1-3-10.7s-4.7-3.8-8.2-3.8zm55.8 26.6c0 3.5-1.3 6.2-4 8.1s-6.5 2.8-11.4 2.8c-5.3 0-9.4-.8-12.5-2.4v-3.9c4 2 8.1 3 12.5 3 3.9 0 6.8-.6 8.9-1.9 2-1.3 3-3 3-5.2 0-2-.8-3.6-2.4-5s-4.2-2.7-7.9-4c-3.9-1.4-6.7-2.6-8.3-3.7-1.6-1-2.8-2.2-3.6-3.5s-1.2-2.9-1.2-4.7c0-2.9 1.2-5.3 3.7-7s5.9-2.6 10.4-2.6c4.2 0 8.3.8 12.1 2.4l-1.3 3.3c-3.9-1.6-7.4-2.4-10.8-2.4-3.2 0-5.8.5-7.6 1.6s-2.8 2.5-2.8 4.4c0 2.1.7 3.7 2.2 4.9s4.3 2.6 8.6 4.1c3.5 1.3 6.1 2.4 7.7 3.5 1.6 1 2.8 2.2 3.6 3.5.7 1.4 1.1 3 1.1 4.7zm40.1 0c0 3.5-1.3 6.2-4 8.1s-6.5 2.8-11.4 2.8c-5.3 0-9.4-.8-12.5-2.4v-3.9c4 2 8.1 3 12.5 3 3.9 0 6.8-.6 8.9-1.9 2-1.3 3-3 3-5.2 0-2-.8-3.6-2.4-5s-4.2-2.7-7.9-4c-3.9-1.4-6.7-2.6-8.3-3.7-1.6-1-2.8-2.2-3.6-3.5s-1.2-2.9-1.2-4.7c0-2.9 1.2-5.3 3.7-7s5.9-2.6 10.4-2.6c4.2 0 8.3.8 12.1 2.4l-1.3 3.3c-3.9-1.6-7.4-2.4-10.8-2.4-3.2 0-5.8.5-7.6 1.6s-2.8 2.5-2.8 4.4c0 2.1.7 3.7 2.2 4.9s4.3 2.6 8.6 4.1c3.5 1.3 6.1 2.4 7.7 3.5 1.6 1 2.8 2.2 3.6 3.5.7 1.4 1.1 3 1.1 4.7zm31.6 11c-5.7 0-10.2-1.8-13.4-5.3s-4.8-8.5-4.8-14.8 1.5-11.3 4.6-15.1 7.3-5.7 12.5-5.7c4.6 0 8.3 1.6 11 4.9 2.7 3.2 4 7.6 4 13.2v2.9h-28.4c0 5.4 1.3 9.5 3.8 12.4 2.5 2.8 6 4.3 10.6 4.3 2.2 0 4.2-.2 5.9-.5s3.9-1 6.5-2v3.3c-2.2 1-4.3 1.6-6.2 2s-3.8.4-6.1.4zm-1-37.6c-3.8 0-6.8 1.2-9.1 3.7s-3.6 6.1-4 10.8h24.3c0-4.6-1-8.1-3-10.7s-4.7-3.8-8.2-3.8zm58.8 36.9v-25.5c0-4-.8-6.8-2.5-8.6s-4.2-2.7-7.7-2.7c-4.7 0-8.2 1.2-10.3 3.6-2.2 2.4-3.3 6.2-3.3 11.6V129h-3.6V89.5h3l.7 5.4h.2c2.6-4.1 7.1-6.2 13.7-6.2 8.9 0 13.4 4.8 13.4 14.4v25.7H499zm32.3-2.5c2.3 0 4.2-.2 5.9-.6v2.9c-1.7.6-3.7.9-6 .9-3.5 0-6-.9-7.7-2.8S521 122 521 118V92.6h-5.8v-2.1l5.8-1.6 1.8-8.9h1.8v9.5h11.6v3.1h-11.6v24.9c0 3 .5 5.3 1.6 6.7 1.1 1.5 2.8 2.2 5.1 2.2zm19.5-47.8c0-2.3.8-3.5 2.3-3.5.7 0 1.3.3 1.8.9s.6 1.5.6 2.6-.2 1.9-.6 2.6c-.4.6-1 .9-1.8.9-1.6 0-2.3-1.2-2.3-3.5zm4.1 50.3h-3.6V89.5h3.6zm42.6 0l-.9-6.2h-.3c-2 2.5-4 4.3-6.1 5.4-2.1 1-4.6 1.6-7.4 1.6-3.9 0-6.9-1-9-3s-3.2-4.7-3.2-8.2c0-3.8 1.6-6.8 4.8-8.9s7.8-3.2 13.9-3.4l7.5-.2v-2.6c0-3.7-.8-6.6-2.3-8.5s-4-2.9-7.4-2.9c-3.6 0-7.4 1-11.3 3l-1.3-3.1c4.3-2 8.6-3 12.8-3 4.3 0 7.5 1.1 9.7 3.4 2.1 2.2 3.2 5.7 3.2 10.5V129h-2.7zm-14.5-2.5c4.2 0 7.5-1.2 9.9-3.6s3.6-5.7 3.6-10v-3.9l-6.9.3c-5.5.3-9.5 1.1-11.8 2.6-2.4 1.5-3.5 3.7-3.5 6.8 0 2.5.8 4.4 2.3 5.7 1.6 1.4 3.7 2.1 6.4 2.1zm39.1 2.5h-3.6V72.5h3.6zm41.3-44.4c-4.2 0-7.5 1.6-9.8 4.8s-3.5 7.6-3.5 13.3c0 11.8 4.4 17.7 13.3 17.7 3.7 0 8.2-.9 13.5-2.8v9.4c-4.3 1.8-9.2 2.7-14.6 2.7-7.7 0-13.6-2.3-17.7-7s-6.1-11.4-6.1-20.1c0-5.5 1-10.3 3-14.5 2-4.1 4.9-7.3 8.6-9.5 3.8-2.2 8.2-3.3 13.2-3.3 5.1 0 10.3 1.2 15.5 3.7l-3.6 9.1c-2-.9-4-1.8-6-2.5s-3.9-1-5.8-1zm60.8 44.4h-30.5V76h30.5v9.2h-19.3v11.6h17.9v9.2h-17.9v13.7h19.3zM783.9 76v34.3c0 3.9-.9 7.3-2.6 10.3-1.8 2.9-4.3 5.2-7.6 6.8s-7.2 2.4-11.7 2.4c-6.8 0-12.1-1.7-15.9-5.2s-5.6-8.3-5.6-14.3V76h11.2v32.4c0 4.1.8 7.1 2.5 9 1.6 1.9 4.4 2.9 8.1 2.9s6.3-1 8-2.9 2.5-4.9 2.5-9V76zm-482.5 90.8h6.6v33h-6.6zm69.4 0h6.6v33h-7.2l-22.2-24v24h-6.6v-33h6.6l22.8 24.6zm51.9 4.3c-1.9 0-3.5.3-4.7 1s-1.9 1.7-1.9 3 .6 2.4 1.9 3.1c1.2.7 3.9 1.5 7.9 2.3s7.1 2 9.1 3.4c2 1.5 3.1 3.7 3.1 6.5s-1.3 5.2-3.9 7-6 2.7-10.2 2.7c-6.1 0-11.6-1.8-16.3-5.3l4.2-4.2c4 2.9 8.1 4.3 12.4 4.3 2.1 0 3.8-.4 5.1-1.2s1.9-1.8 1.9-3.1-.6-2.3-1.8-3-3.2-1.4-6.1-1.9c-2.9-.6-5.1-1.1-6.6-1.6s-2.8-1.1-4-1.9c-2.3-1.5-3.5-3.7-3.5-6.8 0-3 1.3-5.4 4-7s5.9-2.5 9.8-2.5c2.5 0 5 .3 7.5 1s4.6 1.7 6.4 2.9l-3.5 4.2c-1.2-.9-2.7-1.6-4.7-2.2-2.2-.4-4.2-.7-6.1-.7zm60.8.8v27.9h-6.6v-27.9H465v-5.1h30.4v5.1zm41.6-5.1h6.6v33h-6.6zm54.8 5.1v27.9h-6.6v-27.9h-11.9v-5.1h30.4v5.1zm50.4 20.3c1.8 1.8 4.2 2.6 7.3 2.6s5.5-.9 7.3-2.6c1.8-1.8 2.7-4.2 2.7-7.2v-18.3h6.6v18.5c0 4.7-1.6 8.4-4.7 11s-7.1 3.8-12 3.8-8.9-1.3-12-3.8c-3.1-2.6-4.7-6.2-4.7-11v-18.5h6.6V185c.2 3 1.1 5.4 2.9 7.2zm71.6-20.3v27.9h-6.6v-27.9h-11.9v-5.1h30.4v5.1zm69.1-5.1v5.2h-21v8.7h18.8v5H750v8.8h21.6v5.2h-28.3v-33H771z"/></svg>
