<svg xmlns="http://www.w3.org/2000/svg" fill="none" viewBox="0 0 1580 869" stroke="#8A8B8C" stroke-width=".5" opacity=".15"><path d="M27.156 217.25h27.156v27.156H27.156zM81.475 271.563h27.156v27.156H81.475zM81.475 190.094h27.156v27.156H81.475zM54.313 217.25h27.156v27.156H54.313zM81.469 217.25h27.156v27.156H81.469zM108.631 217.25h27.156v27.156h-27.156zM54.313 271.563h27.156v27.156H54.313zM0 162.938h27.156v27.156H0zM54.313 244.406h27.156v27.156H54.313zM54.313 190.094h27.156v27.156H54.313zM27.156 190.094h27.156v27.156H27.156zM135.79 298.719h27.156v27.156H135.79zM190.109 353.031h27.156v27.156h-27.156zM190.109 271.562h27.156v27.156h-27.156zM162.947 298.719h27.156v27.156h-27.156zM190.103 298.719h27.156v27.156h-27.156zM217.265 298.719h27.156v27.156h-27.156zM162.947 353.031h27.156v27.156h-27.156zM108.634 244.406h27.156v27.156h-27.156zM162.947 325.875h27.156v27.156h-27.156zM162.947 271.562h27.156v27.156h-27.156zM135.79 271.562h27.156v27.156H135.79zM190.103 190.094h27.156v27.156h-27.156zM244.422 244.406h27.156v27.156h-27.156zM244.422 162.938h27.156v27.156h-27.156z"/><path d="M217.259 190.094h27.156v27.156h-27.156zM244.416 190.094h27.156v27.156h-27.156zM271.578 190.094h27.156v27.156h-27.156zM217.259 244.406h27.156v27.156h-27.156zM162.947 135.781h27.156v27.156h-27.156zM217.259 217.25h27.156v27.156h-27.156zM217.259 162.938h27.156v27.156h-27.156z"/><path d="M190.103 162.938h27.156v27.156h-27.156zM271.572 135.781h27.156v27.156h-27.156zM325.891 190.094h27.156v27.156h-27.156zM325.891 108.625h27.156v27.156h-27.156zM298.728 135.781h27.156v27.156h-27.156zM325.885 135.781h27.156v27.156h-27.156zM353.047 135.781h27.156v27.156h-27.156zM298.728 190.094h27.156v27.156h-27.156zM244.416 81.469h27.156v27.156h-27.156zM298.728 162.938h27.156v27.156h-27.156zM298.728 108.625h27.156v27.156h-27.156zM271.572 108.625h27.156v27.156h-27.156zM54.321 353.031h27.156v27.156H54.321zM108.64 407.344h27.156V434.5H108.64zM108.64 325.875h27.156v27.156H108.64zM81.478 353.031h27.156v27.156H81.478zM108.634 353.031h27.156v27.156h-27.156zM135.796 353.031h27.156v27.156h-27.156zM81.478 407.344h27.156V434.5H81.478zM27.165 298.719h27.156v27.156H27.165zM81.478 380.188h27.156v27.156H81.478zM81.478 325.875h27.156v27.156H81.478zM54.321 325.875h27.156v27.156H54.321zM81.478 54.313h27.156v27.156H81.478zM135.797 108.625h27.156v27.156h-27.156zM135.797 27.156h27.156v27.156h-27.156zM108.634 54.313h27.156v27.156h-27.156zM135.791 54.313h27.156v27.156h-27.156zM162.953 54.313h27.156v27.156h-27.156zM108.634 108.625h27.156v27.156h-27.156zM54.322 0h27.156v27.156H54.322zM108.634 81.469h27.156v27.156h-27.156zM108.634 27.156h27.156v27.156h-27.156zM81.478 27.156h27.156v27.156H81.478zM380.197 217.25h27.156v27.156h-27.156zM434.516 271.563h27.156v27.156h-27.156zM434.516 190.094h27.156v27.156h-27.156zM407.354 217.25h27.156v27.156h-27.156zM434.51 217.25h27.156v27.156H434.51zM461.672 217.25h27.156v27.156h-27.156zM407.354 271.563h27.156v27.156h-27.156zM353.041 162.938h27.156v27.156h-27.156zM407.354 244.406h27.156v27.156h-27.156zM407.354 190.094h27.156v27.156h-27.156zM380.197 190.094h27.156v27.156h-27.156zM488.831 298.719h27.156v27.156h-27.156zM543.15 353.031h27.156v27.156H543.15zM543.15 271.562h27.156v27.156H543.15zM515.988 298.719h27.156v27.156h-27.156zM543.144 298.719H570.3v27.156h-27.156zM570.306 298.719h27.156v27.156h-27.156zM515.988 353.031h27.156v27.156h-27.156zM461.675 244.406h27.156v27.156h-27.156zM515.988 325.875h27.156v27.156h-27.156zM515.988 271.562h27.156v27.156h-27.156zM488.831 271.562h27.156v27.156h-27.156zM543.144 190.094H570.3v27.156h-27.156zM597.463 244.406h27.156v27.156h-27.156zM597.463 162.938h27.156v27.156h-27.156zM570.3 190.094h27.156v27.156H570.3zM597.457 190.094h27.156v27.156h-27.156zM624.619 190.094h27.156v27.156h-27.156zM570.3 244.406h27.156v27.156H570.3zM515.988 135.781h27.156v27.156h-27.156zM570.3 217.25h27.156v27.156H570.3zM570.3 162.938h27.156v27.156H570.3zM543.144 162.938H570.3v27.156h-27.156zM624.613 135.781h27.156v27.156h-27.156zM678.931 190.094h27.156v27.156h-27.156zM678.931 108.625h27.156v27.156h-27.156zM651.769 135.781h27.156v27.156h-27.156zM678.925 135.781h27.156v27.156h-27.156zM706.088 135.781h27.156v27.156h-27.156z"/><path d="M651.769 190.094h27.156v27.156h-27.156zM597.457 81.469h27.156v27.156h-27.156zM651.769 162.938h27.156v27.156h-27.156zM651.769 108.625h27.156v27.156h-27.156zM624.613 108.625h27.156v27.156h-27.156zM407.362 353.031h27.156v27.156h-27.156zM461.681 407.344h27.156V434.5h-27.156zM461.681 325.875h27.156v27.156h-27.156zM434.519 353.031h27.156v27.156h-27.156zM461.675 353.031h27.156v27.156h-27.156zM488.837 353.031h27.156v27.156h-27.156zM434.519 407.344h27.156V434.5h-27.156zM380.206 298.719h27.156v27.156h-27.156zM434.519 380.188h27.156v27.156h-27.156zM434.519 325.875h27.156v27.156h-27.156zM407.362 325.875h27.156v27.156h-27.156zM434.519 54.313h27.156v27.156h-27.156zM488.837 108.625h27.156v27.156h-27.156zM488.837 27.156h27.156v27.156h-27.156zM461.675 54.313h27.156v27.156h-27.156zM488.832 54.313h27.156v27.156h-27.156zM515.994 54.313h27.156v27.156h-27.156zM461.675 108.625h27.156v27.156h-27.156zM407.363 0h27.156v27.156h-27.156zM461.675 81.469h27.156v27.156h-27.156zM461.675 27.156h27.156v27.156h-27.156zM434.519 27.156h27.156v27.156h-27.156zM1552.36 543.125h-27.156v-27.156h27.156zM1498.05 488.812h-27.156v-27.156h27.156zM1498.05 570.281h-27.156v-27.156h27.156z"/><path d="M1525.21 543.125h-27.156v-27.156h27.156zM1498.05 543.125h-27.156v-27.156h27.156zM1470.89 543.125h-27.156v-27.156h27.156zM1525.21 488.812h-27.156v-27.156h27.156zM1579.52 597.438h-27.156v-27.156h27.156zM1525.21 515.969h-27.156v-27.156h27.156zM1525.21 570.281h-27.156v-27.156h27.156z"/><path d="M1552.36 570.281h-27.156v-27.156h27.156zM1443.73 461.656h-27.156V434.5h27.156zM1389.41 407.344h-27.156v-27.156h27.156zM1389.41 488.813h-27.156v-27.156h27.156zM1416.57 461.656h-27.156V434.5h27.156z"/><path d="M1389.42 461.656h-27.156V434.5h27.156zM1362.26 461.656h-27.156V434.5h27.156zM1416.57 407.344h-27.156v-27.156h27.156zM1470.89 515.969h-27.156v-27.156h27.156zM1416.57 434.5h-27.156v-27.156h27.156zM1416.57 488.813h-27.156v-27.156h27.156zM1443.73 488.813h-27.156v-27.156h27.156zM1389.42 570.281h-27.156v-27.156h27.156zM1335.1 515.969h-27.156v-27.156h27.156zM1335.1 597.437h-27.156v-27.156h27.156zM1362.26 570.281h-27.156v-27.156h27.156z"/><path d="M1335.11 570.281h-27.156v-27.156h27.156zM1307.94 570.281h-27.156v-27.156h27.156zM1362.26 515.969h-27.156v-27.156h27.156zM1416.57 624.594h-27.156v-27.156h27.156zM1362.26 543.125h-27.156v-27.156h27.156zM1362.26 597.437h-27.156v-27.156h27.156zM1389.42 597.437h-27.156v-27.156h27.156zM1307.95 624.594h-27.156v-27.156h27.156zM1253.63 570.281h-27.156v-27.156h27.156zM1253.63 651.75h-27.156v-27.156h27.156zM1280.79 624.594h-27.156v-27.156h27.156z"/><path d="M1253.64 624.594h-27.156v-27.156h27.156zM1226.47 624.594h-27.156v-27.156h27.156zM1280.79 570.281h-27.156v-27.156h27.156zM1335.1 678.906h-27.156V651.75h27.156zM1280.79 597.437h-27.156v-27.156h27.156zM1280.79 651.75h-27.156v-27.156h27.156zM1307.95 651.75h-27.156v-27.156h27.156zM1525.2 407.344h-27.156v-27.156h27.156zM1470.88 353.031h-27.156v-27.156h27.156zM1470.88 434.5h-27.156v-27.156h27.156zM1498.04 407.344h-27.156v-27.156h27.156z"/><path d="M1470.89 407.344h-27.156v-27.156h27.156zM1443.72 407.344h-27.156v-27.156h27.156zM1498.04 353.031h-27.156v-27.156h27.156zM1552.36 461.656h-27.156V434.5h27.156zM1498.04 380.187h-27.156v-27.156h27.156zM1498.04 434.5h-27.156v-27.156h27.156zM1525.2 434.5h-27.156v-27.156h27.156zM1498.04 706.062h-27.156v-27.156h27.156zM1443.72 651.75h-27.156v-27.156h27.156zM1443.72 733.219h-27.156v-27.156h27.156z"/><path d="M1470.89 706.062h-27.156v-27.156h27.156zM1443.73 706.062h-27.156v-27.156h27.156zM1416.57 706.062h-27.156v-27.156h27.156zM1470.89 651.75h-27.156v-27.156h27.156zM1525.2 760.375h-27.156v-27.156h27.156zM1470.89 678.906h-27.156V651.75h27.156zM1470.89 733.219h-27.156v-27.156h27.156z"/><path d="M1498.04 733.219h-27.156v-27.156h27.156zM1389.41 814.688h-27.156v-27.156h27.156zM1335.09 760.375h-27.156v-27.156h27.156zM1335.09 841.844h-27.156v-27.156h27.156zM1362.25 814.688h-27.156v-27.156h27.156z"/><path d="M1335.1 814.688h-27.156v-27.156h27.156zM1307.93 814.688h-27.156v-27.156h27.156zM1362.25 760.375h-27.156v-27.156h27.156zM1416.56 869h-27.156v-27.156h27.156zM1362.25 787.531h-27.156v-27.156h27.156zM1362.25 841.844h-27.156v-27.156h27.156zM1389.41 841.844h-27.156v-27.156h27.156zM1280.77 733.219h-27.156v-27.156h27.156zM1226.46 678.907h-27.156v-27.156h27.156zM1226.46 760.376h-27.156V733.22h27.156z"/><path d="M1253.62 733.219h-27.156v-27.156h27.156zM1226.46 733.219h-27.156v-27.156h27.156zM1199.3 733.219h-27.156v-27.156h27.156zM1253.62 678.907h-27.156v-27.156h27.156zM1307.93 787.532h-27.156v-27.156h27.156zM1253.62 706.063h-27.156v-27.156h27.156zM1253.62 760.376h-27.156V733.22h27.156z"/><path d="M1280.77 760.376h-27.156V733.22h27.156zM1226.46 841.844h-27.156v-27.156h27.156zM1172.14 787.531h-27.156v-27.156h27.156zM1172.14 869h-27.156v-27.156h27.156z"/><path d="M1199.31 841.844h-27.156v-27.156h27.156zM1172.15 841.844h-27.156v-27.156h27.156zM1144.99 841.844h-27.156v-27.156h27.156zM1199.31 787.531h-27.156v-27.156h27.156zM1253.62 896.157h-27.156v-27.156h27.156zM1199.31 814.688h-27.156v-27.156h27.156zM1199.31 869h-27.156v-27.156h27.156z"/><path d="M1226.46 869h-27.156v-27.156h27.156zM1144.99 896.157h-27.156v-27.156h27.156zM1090.67 841.844h-27.156v-27.156h27.156z"/><path d="M1117.84 896.157h-27.156v-27.156h27.156zM1090.68 896.157h-27.156v-27.156h27.156zM1063.52 896.157h-27.156v-27.156h27.156zM1117.84 841.844h-27.156v-27.156h27.156zM1117.84 869h-27.156v-27.156h27.156zM1362.24 678.907h-27.156v-27.156h27.156zM1307.92 624.594h-27.156v-27.156h27.156zM1307.92 706.063h-27.156v-27.156h27.156z"/><path d="M1335.09 678.907h-27.156v-27.156h27.156zM1307.93 678.907h-27.156v-27.156h27.156zM1280.77 678.907h-27.156v-27.156h27.156zM1335.09 624.594h-27.156v-27.156h27.156zM1389.4 733.219h-27.156v-27.156h27.156zM1335.09 651.75h-27.156v-27.156h27.156zM1335.09 706.063h-27.156v-27.156h27.156z"/><path d="M1362.24 706.063h-27.156v-27.156h27.156zM108.634 651.75h27.156v27.156h-27.156zM162.953 706.063h27.156v27.156h-27.156zM162.953 624.594h27.156v27.156h-27.156zM135.79 651.75h27.156v27.156H135.79zM162.946 651.75h27.156v27.156h-27.156zM190.109 651.75h27.156v27.156h-27.156zM135.79 706.063h27.156v27.156H135.79zM81.478 597.438h27.156v27.156H81.478zM135.79 678.906h27.156v27.156H135.79zM135.79 624.594h27.156v27.156H135.79zM108.634 624.594h27.156v27.156h-27.156zM217.268 733.219h27.156v27.156h-27.156zM271.587 787.531h27.156v27.156h-27.156zM271.587 706.062h27.156v27.156h-27.156z"/><path d="M244.424 733.219h27.156v27.156h-27.156zM271.581 733.219h27.156v27.156h-27.156zM298.743 733.219h27.156v27.156h-27.156zM244.424 787.531h27.156v27.156h-27.156zM190.112 678.906h27.156v27.156h-27.156zM244.424 760.375h27.156v27.156h-27.156zM244.424 706.062h27.156v27.156h-27.156z"/><path d="M217.268 706.062h27.156v27.156h-27.156zM271.581 624.594h27.156v27.156h-27.156zM325.899 678.906h27.156v27.156h-27.156zM325.899 597.438h27.156v27.156h-27.156zM298.737 624.594h27.156v27.156h-27.156z"/><path d="M325.893 624.594h27.156v27.156h-27.156zM353.056 624.594h27.156v27.156h-27.156zM298.737 678.906h27.156v27.156h-27.156zM244.424 570.281h27.156v27.156h-27.156zM298.737 651.75h27.156v27.156h-27.156zM298.737 597.438h27.156v27.156h-27.156zM271.581 597.438h27.156v27.156h-27.156zM353.05 570.281h27.156v27.156H353.05zM407.368 624.594h27.156v27.156h-27.156zM407.368 543.125h27.156v27.156h-27.156zM380.206 570.281h27.156v27.156h-27.156zM407.362 570.281h27.156v27.156h-27.156zM434.524 570.281h27.156v27.156h-27.156z"/><path d="M380.206 624.594h27.156v27.156h-27.156zM325.894 515.969h27.156v27.156h-27.156zM380.206 597.438h27.156v27.156h-27.156zM380.206 543.125h27.156v27.156h-27.156zM353.05 543.125h27.156v27.156H353.05zM135.799 787.531h27.156v27.156h-27.156zM190.118 841.844h27.156V869h-27.156zM190.118 760.375h27.156v27.156h-27.156zM162.955 787.531h27.156v27.156h-27.156zM190.112 787.531h27.156v27.156h-27.156zM217.274 787.531h27.156v27.156h-27.156zM162.955 841.844h27.156V869h-27.156zM108.643 733.219h27.156v27.156h-27.156zM162.955 814.688h27.156v27.156h-27.156zM162.955 760.375h27.156v27.156h-27.156zM135.799 760.375h27.156v27.156h-27.156zM162.956 488.812h27.156v27.156h-27.156zM217.274 543.125h27.156v27.156h-27.156zM217.274 461.656h27.156v27.156h-27.156zM190.112 488.812h27.156v27.156h-27.156zM217.268 488.812h27.156v27.156h-27.156zM244.431 488.812h27.156v27.156h-27.156zM190.112 543.125h27.156v27.156h-27.156zM135.799 434.5h27.156v27.156h-27.156zM190.112 515.969h27.156v27.156h-27.156zM190.112 461.656h27.156v27.156h-27.156zM162.956 461.656h27.156v27.156h-27.156zM461.675 651.75h27.156v27.156h-27.156zM515.994 706.063h27.156v27.156h-27.156zM515.994 624.594h27.156v27.156h-27.156z"/><path d="M488.831 651.75h27.156v27.156h-27.156zM515.987 651.75h27.156v27.156h-27.156zM543.15 651.75h27.156v27.156H543.15zM488.831 706.063h27.156v27.156h-27.156zM434.519 597.438h27.156v27.156h-27.156zM488.831 678.906h27.156v27.156h-27.156zM488.831 624.594h27.156v27.156h-27.156z"/><path stroke="#8A8B8C" stroke-width=".546" d="M461.675 624.594h27.156v27.156h-27.156zM570.309 733.219h27.156v27.156h-27.156zM624.628 787.531h27.156v27.156h-27.156zM624.628 706.062h27.156v27.156h-27.156zM597.465 733.219h27.156v27.156h-27.156zM624.622 733.219h27.156v27.156h-27.156zM651.784 733.219h27.156v27.156h-27.156zM597.465 787.531h27.156v27.156h-27.156zM543.153 678.906h27.156v27.156h-27.156zM597.465 760.375h27.156v27.156h-27.156zM597.465 706.062h27.156v27.156h-27.156zM570.309 706.062h27.156v27.156h-27.156zM624.622 624.594h27.156v27.156h-27.156zM678.94 678.906h27.156v27.156H678.94zM678.94 597.438h27.156v27.156H678.94zM651.778 624.594h27.156v27.156h-27.156zM678.934 624.594h27.156v27.156h-27.156zM706.097 624.594h27.156v27.156h-27.156zM651.778 678.906h27.156v27.156h-27.156zM597.465 570.281h27.156v27.156h-27.156zM651.778 651.75h27.156v27.156h-27.156zM651.778 597.438h27.156v27.156h-27.156zM624.622 597.438h27.156v27.156h-27.156zM706.091 570.281h27.156v27.156h-27.156zM760.409 624.594h27.156v27.156h-27.156zM760.409 543.125h27.156v27.156h-27.156zM733.247 570.281h27.156v27.156h-27.156zM760.403 570.281h27.156v27.156h-27.156zM787.565 570.281h27.156v27.156h-27.156z"/><path stroke="#8A8B8C" stroke-width=".546" d="M733.247 624.594h27.156v27.156h-27.156zM678.935 515.969h27.156v27.156h-27.156zM733.247 597.438h27.156v27.156h-27.156zM733.247 543.125h27.156v27.156h-27.156zM706.091 543.125h27.156v27.156h-27.156zM488.84 787.531h27.156v27.156H488.84zM543.158 841.844h27.156V869h-27.156zM543.158 760.375h27.156v27.156h-27.156zM515.996 787.531h27.156v27.156h-27.156zM543.153 787.531h27.156v27.156h-27.156zM570.315 787.531h27.156v27.156h-27.156zM515.996 841.844h27.156V869h-27.156zM461.684 733.219h27.156v27.156h-27.156zM515.996 814.688h27.156v27.156h-27.156zM515.996 760.375h27.156v27.156h-27.156zM488.84 760.375h27.156v27.156H488.84zM515.997 488.812h27.156v27.156h-27.156zM570.315 543.125h27.156v27.156h-27.156zM570.315 461.656h27.156v27.156h-27.156zM543.153 488.812h27.156v27.156h-27.156zM570.309 488.812h27.156v27.156h-27.156zM597.471 488.812h27.156v27.156h-27.156zM543.153 543.125h27.156v27.156h-27.156zM488.84 434.5h27.156v27.156H488.84zM543.153 515.969h27.156v27.156h-27.156zM543.153 461.656h27.156v27.156h-27.156zM515.997 461.656h27.156v27.156h-27.156zM1470.89 108.625h-27.156V81.469h27.156zM1416.57 54.313h-27.156V27.157h27.156zM1416.57 135.781h-27.156v-27.156h27.156zM1443.73 108.625h-27.156V81.469h27.156zM1416.57 108.625h-27.156V81.469h27.156zM1389.41 108.625h-27.156V81.469h27.156zM1443.73 54.312h-27.156V27.156h27.156zM1498.04 162.937h-27.156v-27.156h27.156zM1443.73 81.469h-27.156V54.313h27.156zM1443.73 135.781h-27.156v-27.156h27.156zM1470.89 135.781h-27.156v-27.156h27.156zM1362.25 27.156h-27.156V0h27.156zM1307.93 54.312h-27.156V27.156h27.156z"/><path stroke="#8A8B8C" stroke-width=".546" d="M1335.1 27.156h-27.156V0h27.156zM1307.94 27.156h-27.156V0h27.156zM1280.78 27.156h-27.156V0h27.156zM1389.41 81.469h-27.156V54.313h27.156zM1335.1 0h-27.156v-27.156h27.156zM1335.1 54.312h-27.156V27.156h27.156z"/><path stroke="#8A8B8C" stroke-width=".546" d="M1362.25 54.312h-27.156V27.156h27.156zM1307.94 135.781h-27.156v-27.156h27.156zM1253.62 81.469h-27.156V54.313h27.156zM1253.62 162.937h-27.156v-27.156h27.156zM1280.78 135.781h-27.156v-27.156h27.156z"/><path stroke="#8A8B8C" stroke-width=".546" d="M1253.63 135.781h-27.156v-27.156h27.156zM1226.46 135.781h-27.156v-27.156h27.156zM1280.78 81.469h-27.156V54.313h27.156zM1335.1 190.094h-27.156v-27.156h27.156zM1280.78 108.625h-27.156V81.469h27.156zM1280.78 162.937h-27.156v-27.156h27.156zM1307.94 162.937h-27.156v-27.156h27.156zM1226.47 190.094h-27.156v-27.156h27.156zM1172.15 135.781h-27.156v-27.156h27.156zM1172.15 217.25h-27.156v-27.156h27.156zM1199.31 190.094h-27.156v-27.156h27.156z"/><path stroke="#8A8B8C" stroke-width=".546" d="M1172.16 190.094h-27.156v-27.156h27.156zM1145 190.094h-27.156v-27.156H1145zM1199.31 135.781h-27.156v-27.156h27.156zM1253.63 244.406h-27.156V217.25h27.156zM1199.31 162.937h-27.156v-27.156h27.156zM1199.31 217.25h-27.156v-27.156h27.156zM1226.47 217.25h-27.156v-27.156h27.156zM1389.4 0h-27.156v-27.156h27.156zM1470.88 27.156h-27.156V0h27.156zM1416.57 0h-27.156v-27.156h27.156z"/><path stroke="#8A8B8C" stroke-width=".546" d="M1443.72 0h-27.156v-27.156h27.156zM1416.56 271.562h-27.156v-27.156h27.156zM1362.25 217.25h-27.156v-27.156h27.156zM1362.25 298.719h-27.156v-27.156h27.156z"/><path stroke="#8A8B8C" stroke-width=".546" d="M1389.41 271.562h-27.156v-27.156h27.156zM1362.25 271.562h-27.156v-27.156h27.156zM1335.09 271.562h-27.156v-27.156h27.156zM1389.41 217.25h-27.156v-27.156h27.156zM1443.72 325.875h-27.156v-27.156h27.156zM1389.41 244.406h-27.156V217.25h27.156zM1389.41 298.719h-27.156v-27.156h27.156z"/><path stroke="#8A8B8C" stroke-width=".546" d="M1416.56 298.719h-27.156v-27.156h27.156z"/></svg>
