<svg xmlns="http://www.w3.org/2000/svg" width="4829" height="1435" fill="none"><path fill="#A7AFB7" d="M4829 920H0v515h4829V920Z"/><path fill="#6F7B89" d="m123 919.772 163.808-118.467c18.38-13.24 42.733-15.066 62.95-4.337l131.185 69.391c10.568 5.706 22.745 7.989 34.462 6.619l181.498-20.315c8.041-.913 16.312-.228 24.123 2.283L934 920H123v-.228ZM805 1047l140.476-68.282c12.395-5.978 26.627-5.518 38.792.92l45.912 25.292a41.937 41.937 0 0 0 36.26 2.07l110.64-45.755c13.08-5.518 28.23-3.908 39.94 4.138L1335 1046.54H805v.46Z"/><path fill="#EDEFF1" d="m259 1353.77 124.642-61.86c8.263-3.95 17.675-3.95 25.709.46l65.419 35.35c5.05 2.79 10.789 3.72 16.528 3.26l86.537-9.77c3.903-.46 7.805 0 11.477 1.16L691 1354H259v-.23Z"/><path fill="#939CA6" d="m1804 1435 225.58-110.73c14.69-7.36 32.13-6.9 46.58.69l114.06 60.78c11.93 6.21 25.7 7.82 38.55 3.91l136.77-40.28c16.52-4.84 34.19-1.16 47.5 9.89l89.96 75.51h-699v.23Z"/><path fill="#EDEFF1" d="m4301 919.772 126.97-60.989c11-5.234 24.06-5.006 35.07.911l37.35 20.254c12.38 6.827 27.73 6.144 39.42-1.593l91.22-60.079c14.9-9.786 34.61-7.965 47.44 4.324L4780 920h-479v-.228Z"/><path fill="#939CA6" d="m4759 1018-76.99-37.751c-6.64-3.242-14.66-3.011-21.31.463l-25.2 14.128c-6.19 3.474-13.52 3.937-19.94 1.158l-60.72-25.244c-7.33-3.011-15.35-2.085-22 2.316L4468 1018h291Z"/><path fill="#6F7B89" d="m3568.36 1434.85 209.88-132.73c23.19-14.69 52.35-14.92 75.78-.69l74.85 45.7c5.51 3.44 12.4 3.9 18.14 1.38l64.99-28.25c7.11-2.98 15.15-2.75 21.81.92l216.54 113.67h-681.99Z"/><path fill="#EDEFF1" d="m4826.24 1434.85-219.75-140.53c-8.26-5.28-18.82-5.28-27.09-.23l-129.74 81.28c-11.94 7.58-26.18 10.8-40.41 9.19l-189.44-21.36c-8.5-.91-17.23-.23-25.49 2.3l-225.03 69.12h856.95v.23Z"/><g clip-path="url(#a)"><path fill="#6F7B89" d="M1669.87 996h.6c.46.098.69.38.69.848-.03 17.672-.02 35.342.03 53.012 0 .06.03.1.08.11-.05.04-.07.1-.07.16v48.6c0 .13.06.19.19.19l25.25-.01.6 2.04-259.19-.03v-2.01h87.14c.03 0 .06-.01.08-.03.02-.02.04-.05.04-.08v-48.75l2.02-.05v48.86c.01.01.01.02.02.03.01 0 .02.01.03.01.01.01.02.01.03.01h99.84c.13 0 .15-.05.06-.14-7.83-7.86-15.57-15.62-23.2-23.28-.96-.96-2.17-1.45-3.62-1.45-14.4-.02-28.84-.01-43.31.01-1.25 0-2.21-.09-2.88-.29-1.48-.42-2.63-1.29-3.47-2.61-4.43-7.01-8.88-14.07-13.34-21.15l2.4-.01c4.06 6.43 8.1 12.84 12.11 19.22.7 1.12 1.39 2.04 2.67 2.51.44.16.95.25 1.53.25 14.44.01 28.66 0 42.66-.02.82 0 1.51.02 2.05.05 1.43.1 2.69.54 3.78 1.32.34.25 1.2 1.06 2.56 2.43 7.58 7.64 15.23 15.32 22.95 23.04.07.07.18.12.28.12h14.1c.03 0 .06-.01.08-.03.02-.02.03-.05.03-.08-.02-3.36-.02-6.68-.01-9.96.01-1.98.71-3.68 2.1-5.09 2.19-2.21 4.31-4.34 6.38-6.4 1.41-1.41 3.14-2.11 5.16-2.1 2.61.02 6.18.02 10.71 0 .06 0 .1-.03.1-.09.05-1.03.07-2.32.07-3.87-.02-6.08.03-12.01-.05-17.92-.02-1.11-.01-2.22.01-3.32 0-.02-.01-.04-.02-.06-.01-.01-.01-.02-.01-.03.01-.01.02-.02.03-.04.01-.01.01-.02.01-.04v-53.121c0-.424.23-.677.7-.759Z"/><path fill="#fff" d="M1537.49 1050c4.46 7.08 8.91 14.14 13.34 21.15.84 1.32 1.99 2.19 3.47 2.61.68.2 1.64.29 2.88.29 14.47-.02 28.91-.03 43.32-.01 1.44 0 2.65.49 3.61 1.45 7.63 7.66 15.37 15.42 23.2 23.28.09.09.07.14-.06.14h-99.84c-.01 0-.02 0-.03-.01-.01 0-.02-.01-.03-.01-.01-.01-.01-.02-.02-.03V1050h10.16Z"/><path fill="#6F7B89" d="M1559.47 1049.99c.01 1.85.01 3.68.01 5.51.01 1.47.08 2.47.24 2.98.3 1.03.89 1.88 1.78 2.56 1.42 1.08 2.67.99 4.8.99 5.52.01 10.74.01 15.67 0 .08 0 .13-.05.13-.13v-11.92l2.03.01.01 11.95c0 .02.01.05.03.07.02.01.04.02.07.02l22.4.01c.03 0 .06-.01.08-.03.02-.02.03-.05.03-.08l-.01-11.94h2.04v11.88c0 .02.01.05.03.07.01.01.04.03.06.03.32.05.67.08 1.05.08 7.08-.02 14.18-.02 21.3-.01.07 0 .11-.04.11-.11l.02-11.94h2.04l-.01 11.85c0 .14.07.2.2.2 5.13-.01 10.41-.01 15.85.01 1.24 0 2.13-.05 2.68-.16 1.04-.2 1.93-.74 2.67-1.6.77-.91 1.18-1.86 1.21-2.86.05-1.19.05-3.67.01-7.44l2.03-.01c.01 2.2.01 4.37 0 6.54 0 .89-.05 1.56-.15 2.03-.15.72-.39 1.36-.72 1.93-1.4 2.4-3.61 3.6-6.63 3.6h-85.72c-2.36 0-4.26-.83-5.69-2.49a6.68 6.68 0 0 1-1.36-2.53c-.17-.61-.25-1.54-.26-2.8 0-2.08 0-4.17.01-6.27h1.96Z"/><path fill="#fff" d="M1582.1 1049.98v11.92c0 .08-.05.13-.13.13-4.93.01-10.15.01-15.67 0-2.13 0-3.38.09-4.8-.99-.89-.68-1.48-1.53-1.78-2.56-.16-.51-.23-1.51-.24-2.98 0-1.83 0-3.66-.01-5.51l22.63-.01ZM1656 1049.99c.04 3.77.04 6.25-.01 7.44-.03 1-.44 1.95-1.21 2.86-.74.86-1.63 1.4-2.67 1.6-.55.11-1.44.16-2.68.16-5.44-.02-10.72-.02-15.85-.01-.13 0-.2-.06-.2-.2l.01-11.85H1656Z"/><path fill="#fff" d="M1669.13 1049.96c0 .01 0 .02.01.03.01.02.02.04.02.06-.02 1.1-.02 2.21-.01 3.32.08 5.91.03 11.84.05 17.92 0 1.55-.02 2.84-.07 3.87 0 .06-.04.09-.1.09-4.53.02-8.1.02-10.71 0-2.02-.01-3.75.69-5.16 2.1-2.07 2.06-4.19 4.19-6.38 6.4-1.39 1.41-2.09 3.11-2.1 5.09-.01 3.28-.01 6.6.01 9.96 0 .03-.01.06-.03.08-.02.02-.05.03-.08.03h-14.09c-.11 0-.21-.05-.29-.12-7.72-7.72-15.37-15.4-22.95-23.04-1.36-1.37-2.22-2.18-2.56-2.43-1.09-.78-2.34-1.22-3.78-1.32-.54-.03-1.23-.05-2.05-.05-14 .02-28.22.03-42.66.02-.58 0-1.09-.09-1.53-.25-1.28-.47-1.97-1.39-2.67-2.51-4.01-6.38-8.05-12.79-12.11-19.22h17.62c-.01 2.1-.01 4.19-.01 6.27.01 1.26.09 2.19.26 2.8.27.95.73 1.79 1.36 2.53 1.43 1.66 3.33 2.49 5.69 2.49h85.72c3.02 0 5.23-1.2 6.63-3.6.33-.57.57-1.21.72-1.93.1-.47.15-1.14.15-2.03.01-2.16.01-4.34 0-6.54l11.1-.02ZM1671.27 1049.97c2.08.01 4.15.02 6.22.02.86 0 1.53.08 2.03.23 1.35.41 2.44 1.22 3.28 2.43.3.43.67 1.41 1.13 2.95 4.23 14.43 8.47 28.86 12.71 43.31l-25.25.01c-.13 0-.19-.06-.19-.19v-48.6c0-.06.02-.12.07-.16Z"/><path fill="#fff" d="M1584.13 1049.99h22.61l.01 11.94c0 .03-.01.06-.03.08-.02.02-.05.03-.08.03l-22.4-.01c-.03 0-.05-.01-.07-.02a.108.108 0 0 1-.03-.07l-.01-11.95ZM1608.78 1049.99h22.57l-.02 11.94c0 .07-.04.11-.11.11-7.12-.01-14.22-.01-21.3.01-.38 0-.73-.03-1.05-.08-.02 0-.05-.02-.06-.03a.108.108 0 0 1-.03-.07v-11.88ZM1525.31 1050.05v48.75c0 .03-.02.06-.04.08-.02.02-.05.03-.08.03h-87.14c0-1.03.28-1.98.84-2.86 2.96-4.66 6.15-9.65 9.56-14.98 1.13-1.76 1.71-2.8 3.35-3.44 22.2-8.62 44.5-17.28 66.89-25.99 1.26-.49 2.32-.84 3.17-1.05a22.5 22.5 0 0 1 3.45-.54Z"/><path fill="#4B5A6B" d="M1514.14 1090.84h-27.67c-.47 0-.94-.15-1.33-.42-.39-.27-.68-.66-.85-1.11l-4.69-12.96c-.2-.57-.18-1.2.07-1.75.25-.56.71-.99 1.27-1.21l32.36-12.57c.35-.14.73-.19 1.1-.14.38.04.73.18 1.05.39.31.21.56.5.74.83.17.34.26.71.26 1.09v25.52c0 .62-.24 1.21-.67 1.65-.44.43-1.03.68-1.64.68Z"/><path fill="#6F7B89" d="M1551.43 1085.45a9.77 9.77 0 0 1-2.85 6.91 9.677 9.677 0 0 1-6.87 2.85c-1.28 0-2.54-.25-3.72-.74a9.787 9.787 0 0 1-3.16-2.11c-.9-.91-1.62-1.99-2.11-3.17a9.745 9.745 0 0 1-.74-3.74c0-1.28.25-2.55.74-3.73a9.938 9.938 0 0 1 2.11-3.17c.9-.9 1.98-1.62 3.16-2.11 1.18-.49 2.44-.74 3.72-.74 2.58 0 5.05 1.02 6.87 2.85a9.764 9.764 0 0 1 2.85 6.9Z"/><path fill="#fff" d="M1656.23 1077.7c.52-.23 1.06-.4 1.65-.4 3.72 0 7.45 0 11.19-.01.07 0 .11.04.11.11v21.32c0 .13-.06.19-.19.19h-18.79c-1.14 0-2.26.05-3.39-.02-.03 0-.06-.02-.08-.04a.114.114 0 0 1-.03-.08c-.01-3.4 0-6.76.02-10.08.01-.85.21-1.63.61-2.33.23-.41.71-.97 1.44-1.7 1.78-1.79 3.43-3.44 4.94-4.95 1.03-1.04 1.47-1.55 2.52-2.01Z"/><path fill="#4B5A6B" d="m1455.36 1083.33 15.15-5.89a2.353 2.353 0 0 1 1.81.06c.29.13.54.31.75.54.22.23.38.5.49.79l3.21 8.85c.13.36.17.74.12 1.11-.05.38-.19.74-.41 1.05-.21.31-.5.56-.83.73-.34.18-.71.27-1.09.27h-20.24c-.42 0-.83-.11-1.19-.32-.37-.22-.66-.53-.87-.9-.2-.37-.3-.79-.28-1.21.01-.42.14-.83.36-1.19l1.89-2.97c.27-.42.67-.74 1.13-.92Z"/><path fill="#fff" d="M1541.71 1093.17c4.25 0 7.69-3.46 7.69-7.72s-3.44-7.71-7.69-7.71-7.69 3.45-7.69 7.71 3.44 7.72 7.69 7.72ZM1438.05 1100.92l259.19.03 1.68 5.7h-260.87v-5.73Z"/><path fill="#6F7B89" d="M1698.92 1106.65c.65 2.24 1.3 4.47 1.95 6.69.34 1.15.5 2.01.49 2.59-.02 1.42-.55 2.68-1.59 3.77-1.72 1.81-3.44 3.62-5.17 5.43a.748.748 0 0 1-.2-.2c-1.19-2.09-2.33-4.1-3.43-6.02-.7-1.22-1.25-2.06-1.65-2.51-.67-.76-1.46-1.4-2.36-1.91-1.38-.78-2.92-1.17-4.62-1.16-12.1.02-24.37.02-36.8-.01-.79 0-1.48.05-2.08.15-1.91.32-3.9 1.46-5.16 2.9-.53.62-1.13 1.52-1.79 2.71-1.41 2.54-2.81 4.99-4.2 7.35-.01.02-.02.04-.02.06v.06c.01.01.02.03.03.05l.04.04 2.64 1.52c.02.02.05.03.08.03s.06 0 .09-.01c.02-.01.05-.03.07-.05.02-.02.04-.04.05-.07.06-.15.14-.3.22-.44 1.48-2.56 2.96-5.16 4.45-7.81 1.17-2.08 3.03-3.11 5.35-3.11 12.37.01 24.79.01 37.26.01 1.45 0 2.76.55 3.87 1.53.43.38 1.01 1.23 1.76 2.55 1.3 2.32 2.59 4.59 3.87 6.81.02.04.03.09.02.14v.07l-5.49 5.72c-.01.01-.03.01-.05.01-.04 0-.07-.01-.09-.04l-2.71-3.02c-1.09-1.07-2.11-1.94-3.06-2.61-1.8-1.33-3.63-2.41-5.47-3.23-1.25-.57-2.49-1.03-3.72-1.39-2.27-.68-4.41-1.08-6.43-1.18-1.51-.11-2.9-.11-4.16-.02-2.18.13-4.25.5-6.19 1.09-1.44.39-2.77.86-3.99 1.41-1.16.54-2.29 1.14-3.39 1.8-.74.44-1.39.88-1.95 1.32-1.16.8-2.17 1.63-3.02 2.49-1.61 1.51-3 3.15-4.18 4.92a20.77 20.77 0 0 0-2.01 3.42c-1.04 2.03-1.8 4.08-2.27 6.13-.05.19-.09.29-.13.3l-51.72.02a.276.276 0 0 1-.12-.16c-.52-2.03-1.22-3.98-2.11-5.83-.64-1.35-1.31-2.53-2.01-3.55-1.26-1.89-2.61-3.52-4.08-4.92-1.04-1.05-2.06-1.93-3.06-2.62-1.81-1.34-3.63-2.42-5.47-3.23-1.35-.62-2.62-1.09-3.82-1.42-2.21-.66-4.31-1.04-6.29-1.15-1.43-.1-2.74-.11-3.96-.03-2.38.14-4.53.51-6.44 1.11-1.44.39-2.67.82-3.7 1.29-1.83.82-3.35 1.64-4.56 2.47-.15.1-.49.34-1.03.73a24.16 24.16 0 0 0-3.09 2.56 29.122 29.122 0 0 0-4.13 4.88 28.6 28.6 0 0 0-2.05 3.46c-1.01 2.08-1.76 4.1-2.23 6.06-.04.22-.11.33-.21.33h-15.13c-.32-1.22-.63-2.26-.93-3.14-.29-.83-.69-1.77-1.19-2.82-.61-1.28-1.27-2.45-2-3.52-1.25-1.9-2.68-3.62-4.3-5.15-.94-.93-1.88-1.73-2.82-2.4a30.549 30.549 0 0 0-5.49-3.26c-1.12-.51-2.33-.97-3.64-1.37-2.21-.67-4.37-1.07-6.5-1.2-1.47-.1-2.79-.11-3.96-.04-2.35.14-4.5.51-6.46 1.12-1.41.38-2.68.83-3.81 1.35-2.04.9-3.93 2.01-5.68 3.31-1.04.72-1.98 1.51-2.82 2.37-.3.25-.57.5-.8.75-.78.83-1.54 1.69-2.28 2.57-.01.02-.03.03-.07.05l-5.2-4.74-.02-.05a.097.097 0 0 1 .01-.09c1.64-2.86 3.25-5.69 4.83-8.48.49-.88.95-1.52 1.36-1.9 1.15-1.07 2.52-1.59 4.07-1.58 12.29 0 24.63 0 37.01-.01 1.68 0 3.03.44 4.26 1.55.43.39.91 1.05 1.43 1.98 1.41 2.51 2.92 5.16 4.52 7.93.01.03.03.04.06.05.03.01.05 0 .08-.01l2.7-1.56c.08-.05.09-.12.05-.2-1.48-2.54-2.86-4.97-4.16-7.3-.72-1.3-1.34-2.24-1.86-2.8-1.84-2.01-4.23-3.01-6.92-3.01-12.94.02-25.41.02-37.4.01-2.48 0-4.85 1.13-6.55 2.91-.43.46-1.05 1.38-1.83 2.75-1.39 2.43-2.77 4.86-4.14 7.29-.03.04-.08.07-.16.07-.04-.02-.07-.05-.1-.08-2.71-2.46-5.42-4.92-8.12-7.38a5.023 5.023 0 0 1-1.43-2.23c-.17-.52-.26-1.27-.26-2.26-.01-2.58-.01-5.16 0-7.76h260.87Z"/><path fill="#262D36" d="M1450.62 1128.81c.01-.03-.01-.04-.05-.02-.02.01-.03.02-.04.04-2.06 3.59-4.11 7.19-6.15 10.79-.01.02-.03.04-.05.06a.3.3 0 0 1-.08.04c-.02 0-.05.01-.08 0-.03 0-.05-.01-.08-.02l-2.65-1.53a.068.068 0 0 1-.04-.06.11.11 0 0 1 0-.08c2.13-3.71 4.25-7.43 6.37-11.16.07-.12.15-.24.24-.35.04-.04.03-.08-.01-.12l-.04-.04c.08 0 .13-.03.16-.07 1.37-2.43 2.75-4.86 4.14-7.29.78-1.37 1.4-2.29 1.83-2.75 1.7-1.78 4.07-2.91 6.55-2.91 11.99.01 24.46.01 37.4-.01 2.69 0 5.08 1 6.92 3.01.52.56 1.14 1.5 1.86 2.8 1.3 2.33 2.68 4.76 4.16 7.3.04.08.03.15-.05.2l-2.7 1.56c-.03.01-.05.02-.08.01s-.05-.02-.06-.05c-1.6-2.77-3.11-5.42-4.52-7.93-.52-.93-1-1.59-1.43-1.98-1.23-1.11-2.58-1.55-4.26-1.55-12.38.01-24.72.01-37.01.01-1.55-.01-2.92.51-4.07 1.58-.41.38-.87 1.02-1.36 1.9-1.58 2.79-3.19 5.62-4.83 8.48-.02.03-.02.06-.01.09l.02.05ZM1583.59 1125.08c.6 1.06 1.18 2.1 1.74 3.11.05.09.14.15.19.24 1.79 3.21 3.61 6.4 5.45 9.59.01.02.02.03.02.04v.05c-.01.01-.01.02-.02.03-.01.02-.02.03-.04.03l-2.65 1.54a.22.22 0 0 1-.14.02.313.313 0 0 1-.11-.09c-3.78-6.61-7.47-13.09-11.08-19.45-.27-.46-.54-.88-.82-1.26-1.01-1.38-2.73-2.22-4.47-2.22-12.36 0-24.76 0-37.2-.01-2.29 0-4.13.92-5.33 3-1.52 2.66-3.13 5.47-4.81 8.43-.01.02-.02.04-.03.05-.02.01-.03.02-.05.02-.02.01-.04.01-.06 0-.01 0-.03 0-.05-.01l-2.72-1.58c-.04-.03-.05-.06-.03-.1 1.71-2.98 3.31-5.8 4.81-8.45 1.59-2.8 4.58-4.72 7.82-4.72 12.54.01 25.1.01 37.67 0 2.52 0 4.79 1.05 6.59 2.89.42.43.99 1.27 1.71 2.53 1.23 2.15 2.43 4.26 3.61 6.32ZM1694.6 1125.13l7.27 12.87c.01.03.02.07.01.11-.01.03-.03.06-.07.08l-2.64 1.52c-.04.03-.09.03-.13.02a.159.159 0 0 1-.1-.08l-6.74-11.81c-.01-.03-.04-.04-.06-.04-.02 0-.04 0-.05.01v-.07c.01-.05 0-.1-.02-.14-1.28-2.22-2.57-4.49-3.87-6.81-.75-1.32-1.33-2.17-1.76-2.55-1.11-.98-2.42-1.53-3.87-1.53-12.47 0-24.89 0-37.26-.01-2.32 0-4.18 1.03-5.35 3.11-1.49 2.65-2.97 5.25-4.45 7.81-.08.14-.16.29-.22.44-.01.03-.03.05-.05.07-.02.02-.05.04-.07.05-.03.01-.06.01-.09.01s-.06-.01-.08-.03l-2.64-1.52-.04-.04c-.01-.02-.02-.04-.03-.05v-.06c0-.02.01-.04.02-.06 1.39-2.36 2.79-4.81 4.2-7.35.66-1.19 1.26-2.09 1.79-2.71 1.26-1.44 3.25-2.58 5.16-2.9.6-.1 1.29-.15 2.08-.15 12.43.03 24.7.03 36.8.01 1.7-.01 3.24.38 4.62 1.16.9.51 1.69 1.15 2.36 1.91.4.45.95 1.29 1.65 2.51 1.1 1.92 2.24 3.93 3.43 6.02.04.06.1.13.2.2Z"/><path fill="#3D4147" d="M1481.7 1122.07c-1.62 2.69-2.7 4.43-3.23 5.22-.96 1.42-3.16.65-3.07-1.08.01-.29.17-.68.47-1.15.63-.98 1.25-1.99 1.87-3.03 1.17-.07 2.49-.06 3.96.04ZM1555.1 1122.07c-1.03 1.71-2.07 3.38-3.12 5.03-.7 1.09-2.1 1.33-2.86.18-.43-.63-.46-1.24-.1-1.81.69-1.11 1.4-2.25 2.12-3.43 1.22-.08 2.53-.07 3.96.03ZM1665.07 1122.07c-.98 1.65-1.95 3.23-2.92 4.76-.24.39-.47.67-.67.84-.69.58-1.7.43-2.29-.23-.47-.54-.52-1.47-.14-2.05.66-1.02 1.32-2.07 1.99-3.15.01-.02.02-.04.02-.05v-.06c-.01-.01-.01-.03-.02-.04-.01-.02-.03-.03-.04-.04h-.09c1.26-.09 2.65-.09 4.16.02Z"/><path fill="#262D36" d="M1477.74 1122.03c-.62 1.04-1.24 2.05-1.87 3.03-.3.47-.46.86-.47 1.15-.09 1.73 2.11 2.5 3.07 1.08.53-.79 1.61-2.53 3.23-5.22 2.13.13 4.29.53 6.5 1.2-.91.6-1.79 1.24-2.64 1.93-.88.71-1.44 1.09-1.24 2.19.23 1.25 1.72 1.72 2.72.94 1.61-1.25 3.21-2.48 4.8-3.69 1.93.89 3.76 1.97 5.49 3.26-1.25.45-2.46.86-3.65 1.22-.69.21-1.09.61-1.21 1.21-.11.55-.03 1.02.23 1.4.55.8 1.39.83 2.24.55 1.59-.53 3.25-1.06 4.95-1.61.08-.02.13-.07.17-.14.03-.06.06-.14.09-.23 1.62 1.53 3.05 3.25 4.3 5.15-1.33.03-2.64.01-3.92-.06-.71-.05-1.22.23-1.54.81-.59 1.08.06 2.46 1.3 2.53 1.32.08 3.37.16 6.16.24.5 1.05.9 1.99 1.19 2.82.3.88.61 1.92.93 3.14.02.03.02.06 0 .11a.893.893 0 0 1-.2-.06c-.97-.41-2.01-.83-3.12-1.26-.83-.32-1.56-.39-2.2.24-.38.37-.53.85-.44 1.43.09.62.45 1.07 1.08 1.34 1.22.54 3.07 1.28 5.55 2.24.21 2.02.19 4.17-.04 6.47-.9-.75-1.74-1.49-2.55-2.24-.75-.7-1.29-1.08-2.25-.68-.61.26-.93.74-.97 1.44-.05.87.42 1.23 1.12 1.88 1.28 1.19 2.58 2.37 3.92 3.54-.49 2.06-1.24 4.09-2.27 6.11-.62-1.2-1.24-2.37-1.85-3.52-.9-1.67-3.35-.99-3.15.95.02.24.14.56.35.96.86 1.65 1.75 3.33 2.65 5.02-1.16 1.73-2.56 3.37-4.19 4.92-.17-1.23-.35-2.44-.52-3.62-.08-.49-.18-.85-.3-1.06-.51-.85-1.7-1.01-2.46-.38-.48.4-.68.92-.6 1.55.24 2.01.52 4.02.83 6.03-1.69 1.25-3.56 2.31-5.6 3.19.19-1.08.4-2.13.62-3.14.2-.91.45-1.57-.27-2.3-.91-.92-2.56-.51-2.85.76-.31 1.33-.72 3.34-1.24 6.02-1.96.58-4.08.92-6.36 1.04.63-1.06 1.26-2.08 1.88-3.07.27-.41.42-.74.46-.99.26-1.77-2.2-2.58-3.12-1.11-1.06 1.7-2.14 3.41-3.23 5.14-2.13-.12-4.26-.51-6.37-1.16 1.09-.83 2.16-1.67 3.19-2.52.49-.4.71-.88.65-1.42-.09-.82-.85-1.59-1.75-1.54-.38.02-.68.11-.91.29-1.61 1.24-3.24 2.51-4.88 3.8-1.92-.85-3.78-1.95-5.56-3.28 1.3-.43 2.56-.85 3.81-1.26 1.32-.45 1.56-2.21.43-2.96-.46-.31-.86-.41-1.2-.3-2.01.61-4.02 1.25-6.05 1.92-1.51-1.45-2.87-3.1-4.09-4.96 1.33.01 2.65.04 3.94.1 1.28.05 2.19-1.24 1.61-2.38-.3-.59-.69-.9-1.17-.95-1.18-.12-3.3-.19-6.34-.22-.93-1.93-1.65-3.96-2.16-6.12 1.24.46 2.47.94 3.67 1.44.6.24 1.13.2 1.6-.12 1.14-.8.9-2.5-.4-3.02-.77-.31-2.61-1.06-5.53-2.27-.18-2-.17-4.13.05-6.39.93.78 1.82 1.55 2.66 2.32.72.66 1.34 1 2.22.53.98-.53 1.25-1.9.4-2.7-.98-.92-2.51-2.3-4.56-4.12.49-2.03 1.25-4.06 2.26-6.07.63 1.17 1.23 2.3 1.79 3.41.3.59.76.92 1.39 1 .76.1 1.55-.37 1.77-1.14.15-.5.08-1.02-.2-1.56-.9-1.69-1.81-3.41-2.74-5.15l1.03-1.43c.01-.02.01-.03.01-.05v-.05c.04-.02.06-.03.07-.05.74-.88 1.5-1.74 2.28-2.57.23-.25.5-.5.8-.75.17 1.2.35 2.38.52 3.54.13.84.33 1.51 1.2 1.75.8.22 1.44 0 1.91-.65.24-.34.33-.72.27-1.14-.26-1.8-.51-3.68-.76-5.66-.01-.02-.01-.04-.03-.05a.078.078 0 0 0-.04-.04c-.01-.01-.03-.01-.05-.01-.02 0-.04.01-.05.01-.09.05-.13.01-.15-.12 1.75-1.3 3.64-2.41 5.68-3.31.09.17.1.4.03.69-.2.91-.39 1.78-.57 2.61-.11.57-.15.97-.1 1.22.22 1.09 1.32 1.64 2.33 1.22.81-.35.93-1.03 1.14-1.96.38-1.66.71-3.37.98-5.13 1.96-.61 4.11-.98 6.46-1.12ZM1551.14 1122.04c-.72 1.18-1.43 2.32-2.12 3.43-.36.57-.33 1.18.1 1.81.76 1.15 2.16.91 2.86-.18 1.05-1.65 2.09-3.32 3.12-5.03 1.98.11 4.08.49 6.29 1.15a45.3 45.3 0 0 1-2.98 2.45c-.6.45-.82 1.02-.67 1.73.26 1.2 1.68 1.74 2.64.99 1.6-1.24 3.22-2.49 4.83-3.75 1.84.81 3.66 1.89 5.47 3.23-1.08.43-2.14.81-3.18 1.13-.57.17-.96.34-1.15.5-.8.65-.71 2.03.14 2.63.45.32.9.42 1.33.29 1.26-.35 3.23-1 5.92-1.93 1.47 1.4 2.82 3.03 4.08 4.92-1.16.07-2.29.07-3.4.01-1-.06-1.66-.02-2.11.89-.49 1 .17 2.33 1.29 2.41 1.37.1 3.45.18 6.23.24.89 1.85 1.59 3.8 2.11 5.83.02.07.06.12.12.16l-.08.11c-.1 0-.19-.02-.28-.07-1-.44-2.01-.87-3.05-1.27-.7-.27-1.38-.38-1.96.03-.66.47-.87 1.1-.63 1.89.14.47.36.78.67.92 1 .48 2.97 1.28 5.91 2.41.21 2.03.2 4.19-.04 6.48-1.02-.87-1.98-1.72-2.89-2.57-1.71-1.59-4.01.82-2.31 2.42 1.45 1.36 2.94 2.73 4.48 4.1-.51 2.04-1.27 4.08-2.28 6.11-.61-1.2-1.21-2.35-1.81-3.47-1.14-2.12-4.04-.56-3.03 1.44.92 1.81 1.86 3.61 2.84 5.42-1.2 1.77-2.59 3.4-4.19 4.91-.18-1.2-.35-2.4-.51-3.58-.07-.56-.2-.95-.37-1.17-.69-.88-1.89-.92-2.64-.09-.38.42-.46.99-.38 1.52.26 1.92.55 3.87.85 5.84-1.57 1.18-3.42 2.24-5.54 3.17.17-1.27.39-2.49.67-3.66.14-.61.15-1.01-.19-1.51-.79-1.16-2.68-.93-3.03.5-.22.94-.65 2.95-1.28 6.04-1.96.58-4.08.93-6.36 1.04.68-1.08 1.33-2.13 1.97-3.17.19-.31.31-.57.35-.78.28-1.46-1.22-2.43-2.48-1.78-.23.12-.5.42-.8.9-1 1.58-2 3.18-3 4.8-2.06-.11-4.18-.49-6.35-1.15 1.55-1.25 2.53-2.03 2.94-2.32.44-.32.71-.7.79-1.14.16-.84-.32-1.74-1.13-1.95-.6-.16-1.07-.1-1.42.17-1.63 1.27-3.27 2.54-4.93 3.84-1.89-.84-3.73-1.93-5.52-3.27 1.14-.4 2.25-.76 3.34-1.07.45-.13.85-.36 1.19-.69.22-.2.35-.49.4-.86.12-.93-.43-1.64-1.31-1.88-.26-.07-.63-.03-1.12.12-1.85.57-3.7 1.16-5.56 1.78a30.812 30.812 0 0 1-4.08-4.97c1.37.01 2.71.03 4.02.07.68.02 1.17-.24 1.49-.8.49-.86.16-1.88-.68-2.33-.22-.12-.56-.19-1.03-.21-1.91-.09-3.83-.16-5.75-.19-.94-1.9-1.65-3.94-2.15-6.1 1.13.42 2.23.85 3.3 1.3.43.18.75.28.96.29 1.38.07 2.2-1.51 1.45-2.63-.19-.29-.41-.49-.65-.59-1.87-.76-3.78-1.54-5.73-2.34-.2-2.09-.19-4.25.05-6.48.86.78 1.71 1.56 2.58 2.34.37.33.67.55.92.66.85.38 1.77-.09 2.16-.93.27-.6.09-1.4-.36-1.83-.72-.69-2.25-2.06-4.58-4.12.47-1.96 1.22-3.98 2.23-6.06.61 1.03 1.17 2.06 1.69 3.07.25.49.46.81.65.96 1.1.92 2.86.03 2.75-1.38-.02-.25-.16-.63-.42-1.13-.86-1.66-1.73-3.32-2.62-4.98 1.17-1.74 2.54-3.37 4.13-4.88.13.32.21.66.24 1.02.09 1.02.23 2.02.38 2.92.27 1.7 2.57 1.91 3.21.39.11-.28.14-.7.06-1.28-.23-1.85-.5-3.72-.8-5.61.54-.39.88-.63 1.03-.73 1.21-.83 2.73-1.65 4.56-2.47-.22 1.24-.45 2.45-.71 3.64-.09.45-.1.81-.02 1.07.24.81.78 1.21 1.62 1.22.93.01 1.45-.58 1.65-1.47.56-2.48.94-4.4 1.16-5.75 1.91-.6 4.06-.97 6.44-1.11ZM1660.91 1122.05h.09c.01.01.03.02.04.04.01.01.01.03.02.04v.06c0 .01-.01.03-.02.05-.67 1.08-1.33 2.13-1.99 3.15-.38.58-.33 1.51.14 2.05.59.66 1.6.81 2.29.23.2-.17.43-.45.67-.84.97-1.53 1.94-3.11 2.92-4.76 2.02.1 4.16.5 6.43 1.18a87.6 87.6 0 0 0-3.21 2.53c-.63.52-.79 1.16-.49 1.9.44 1.08 1.75 1.36 2.67.64 1.58-1.23 3.16-2.46 4.75-3.68 1.84.82 3.67 1.9 5.47 3.23-1.01.4-2.24.83-3.71 1.27-1.66.51-1.54 2.86.11 3.27.28.07.65.04 1.09-.1 1.85-.57 3.71-1.18 5.57-1.83l2.71 3.02c.02.03.05.04.09.04.02 0 .04 0 .05-.01-.02.08-.02.14.01.18.4.53.82 1.11 1.24 1.75-1.33.02-2.63-.01-3.9-.09-1.25-.08-2.02.99-1.73 2.16.17.64.78 1.16 1.41 1.21 1.34.09 3.41.17 6.19.22.9 1.77 1.62 3.8 2.15 6.08-1.2-.47-2.37-.92-3.49-1.36-.39-.15-.71-.22-.95-.2-1.31.08-1.95 1.45-1.31 2.55.17.29.55.57 1.14.82 1.71.72 3.47 1.43 5.27 2.12.24 1.99.22 4.13-.04 6.42-1.05-.83-2.02-1.68-2.94-2.55-.43-.41-.94-.55-1.51-.43-1.4.31-1.76 1.91-.79 2.88.74.74 2.24 2.1 4.52 4.08-.48 2.02-1.23 4.06-2.27 6.13-.63-1.2-1.24-2.38-1.85-3.53-.9-1.71-3.47-.92-3.17 1.02.03.2.15.49.34.86.87 1.65 1.76 3.33 2.68 5.04a30.511 30.511 0 0 1-4.23 4.97c-.17-1.35-.35-2.72-.54-4.09-.18-1.28-1.82-1.86-2.8-.93-.7.65-.53 1.37-.42 2.21.22 1.74.47 3.51.74 5.29-1.65 1.22-3.52 2.28-5.6 3.2.21-1.16.44-2.29.68-3.4.13-.55.17-.94.14-1.16-.21-1.42-2.1-1.87-2.99-.79-.16.19-.29.52-.4 1-.41 1.88-.81 3.77-1.18 5.68-1.98.58-4.09.93-6.34 1.04a81.99 81.99 0 0 1 1.84-3c.28-.43.44-.78.48-1.03.06-.42-.02-.81-.26-1.15-.4-.58-.95-.82-1.65-.73-.53.06-.93.3-1.18.7-1.06 1.69-2.13 3.42-3.23 5.18-2.06-.11-4.18-.5-6.37-1.15 1.08-.85 2.13-1.68 3.14-2.49 1.02-.8.84-2.32-.32-2.84-.66-.3-1.29-.21-1.89.26-1.52 1.21-3.07 2.44-4.65 3.67-1.88-.83-3.73-1.93-5.55-3.28 1.27-.41 2.52-.83 3.73-1.23.44-.15.79-.34 1.01-.77.48-.91.15-1.97-.79-2.4-.36-.16-.8-.16-1.32 0-1.86.57-3.74 1.17-5.64 1.81-1.49-1.42-2.85-3.07-4.09-4.96 1.38 0 2.71.02 4 .07.56.02 1-.16 1.31-.56.5-.62.53-1.63-.04-2.22-.31-.33-.61-.51-.92-.53-1.18-.12-3.28-.19-6.31-.22-.93-1.9-1.66-3.94-2.17-6.12 1.27.48 2.5.96 3.69 1.44.59.25 1.11.2 1.57-.12 1.1-.78.96-2.46-.29-2.98-1.85-.75-3.72-1.52-5.63-2.3-.22-2.08-.2-4.22.05-6.42 1.17.98 2.11 1.81 2.82 2.5.66.64 1.62.8 2.34.2.72-.6.84-1.81.2-2.45-.88-.87-2.43-2.26-4.63-4.16.47-2.05 1.23-4.1 2.27-6.13.54 1.06 1.09 2.11 1.65 3.13.43.81.88 1.41 1.87 1.31.77-.09 1.26-.54 1.47-1.36.12-.49-.07-.99-.3-1.42-.46-.84-1.35-2.54-2.68-5.08 1.18-1.77 2.57-3.41 4.18-4.92.21 1.35.4 2.68.56 4 .11.93 1.1 1.57 2.01 1.35.95-.23 1.39-.87 1.31-1.93-.09-1.03-.37-3-.86-5.91.56-.44 1.21-.88 1.95-1.32 1.1-.66 2.23-1.26 3.39-1.8.08-.01.15.02.2.07.02.02.03.04.04.07.01.02.01.05 0 .07-.22 1.06-.45 2.12-.69 3.21-.07.31-.1.62-.09.91.04.72.68 1.38 1.38 1.47.63.09 1.14-.08 1.53-.51.21-.22.39-.66.53-1.31.4-1.77.76-3.56 1.09-5.39 1.94-.59 4.01-.96 6.19-1.09Z"/><path fill="#3D4147" d="M1471.28 1123.15c-.27 1.76-.6 3.47-.98 5.13-.21.93-.33 1.61-1.14 1.96-1.01.42-2.11-.13-2.33-1.22-.05-.25-.01-.65.1-1.22.18-.83.37-1.7.57-2.61.07-.29.06-.52-.03-.69 1.13-.52 2.4-.97 3.81-1.35ZM1544.7 1123.15c-.22 1.35-.6 3.27-1.16 5.75-.2.89-.72 1.48-1.65 1.47-.84-.01-1.38-.41-1.62-1.22-.08-.26-.07-.62.02-1.06.26-1.2.49-2.41.71-3.65 1.03-.47 2.26-.9 3.7-1.29ZM1561.39 1123.22c1.2.33 2.47.8 3.82 1.42-1.61 1.26-3.23 2.51-4.83 3.75-.96.75-2.38.21-2.64-.99-.15-.71.07-1.28.67-1.73a45.3 45.3 0 0 0 2.98-2.45ZM1654.72 1123.14c-.33 1.83-.69 3.62-1.09 5.39-.14.65-.32 1.09-.53 1.31-.39.43-.9.6-1.53.51-.7-.09-1.34-.75-1.38-1.47-.01-.29.02-.6.09-.91.24-1.09.47-2.15.69-3.21.01-.02.01-.05 0-.07a.161.161 0 0 0-.04-.07.237.237 0 0 0-.2-.07c1.22-.55 2.55-1.02 3.99-1.41ZM1671.5 1123.25c1.23.36 2.47.82 3.72 1.39a857.83 857.83 0 0 0-4.75 3.68c-.92.72-2.23.44-2.67-.64-.3-.74-.14-1.38.49-1.9a87.6 87.6 0 0 1 3.21-2.53ZM1488.2 1123.27c1.31.4 2.52.86 3.64 1.37-1.59 1.21-3.19 2.44-4.8 3.69-1 .78-2.49.31-2.72-.94-.2-1.1.36-1.48 1.24-2.19.85-.69 1.73-1.33 2.64-1.93ZM1535.41 1127.64c.3 1.89.57 3.76.8 5.61.08.58.05 1-.06 1.28-.64 1.52-2.94 1.31-3.21-.39-.15-.9-.29-1.9-.38-2.92-.03-.36-.11-.7-.24-1.02.91-.9 1.94-1.75 3.09-2.56ZM1645.39 1127.67c.49 2.91.77 4.88.86 5.91.08 1.06-.36 1.7-1.31 1.93-.91.22-1.9-.42-2.01-1.35-.16-1.32-.35-2.65-.56-4 .85-.86 1.86-1.69 3.02-2.49ZM1570.68 1127.87c1 .69 2.02 1.57 3.06 2.62-2.69.93-4.66 1.58-5.92 1.93-.43.13-.88.03-1.33-.29-.85-.6-.94-1.98-.14-2.63.19-.16.58-.33 1.15-.5 1.04-.32 2.1-.7 3.18-1.13ZM1680.69 1127.87c.95.67 1.97 1.54 3.06 2.61-1.86.65-3.72 1.26-5.57 1.83-.44.14-.81.17-1.09.1-1.65-.41-1.77-2.76-.11-3.27 1.47-.44 2.7-.87 3.71-1.27ZM1461.79 1127.81c.02.13.06.17.15.13.01-.01.03-.02.05-.02.02 0 .04 0 .05.01.02.01.03.02.04.04.02.01.02.03.03.05.25 1.98.5 3.86.76 5.66.06.42-.03.8-.27 1.14-.47.65-1.11.87-1.91.65-.87-.24-1.07-.91-1.2-1.75-.17-1.16-.35-2.34-.52-3.54.84-.86 1.78-1.65 2.82-2.37ZM1497.33 1127.9c.94.67 1.88 1.47 2.82 2.4-.03.09-.06.17-.09.23-.04.07-.09.12-.17.14-1.7.55-3.36 1.08-4.95 1.61-.85.28-1.69.25-2.24-.55-.26-.38-.34-.85-.23-1.4.12-.6.52-1 1.21-1.21 1.19-.36 2.4-.77 3.65-1.22ZM1528.19 1135.08c.89 1.66 1.76 3.32 2.62 4.98.26.5.4.88.42 1.13.11 1.41-1.65 2.3-2.75 1.38-.19-.15-.4-.47-.65-.96-.52-1.01-1.08-2.04-1.69-3.07a28.6 28.6 0 0 1 2.05-3.46ZM1638.19 1135.08c1.33 2.54 2.22 4.24 2.68 5.08.23.43.42.93.3 1.42-.21.82-.7 1.27-1.47 1.36-.99.1-1.44-.5-1.87-1.31-.56-1.02-1.11-2.07-1.65-3.13.54-1.16 1.2-2.3 2.01-3.42ZM1454.78 1135.08c.93 1.74 1.84 3.46 2.74 5.15.28.54.35 1.06.2 1.56-.22.77-1.01 1.24-1.77 1.14-.63-.08-1.09-.41-1.39-.99-.56-1.12-1.16-2.25-1.79-3.42.53-1.1 1.2-2.25 2.01-3.44ZM1577.82 1135.41c.7 1.02 1.37 2.2 2.01 3.55-2.78-.06-4.86-.14-6.23-.24-1.12-.08-1.78-1.41-1.29-2.41.45-.91 1.11-.95 2.11-.89 1.11.06 2.24.06 3.4-.01ZM1504.45 1135.45c.73 1.07 1.39 2.24 2 3.52-2.79-.08-4.84-.16-6.16-.24-1.24-.07-1.89-1.45-1.3-2.53.32-.58.83-.86 1.54-.81 1.28.07 2.59.09 3.92.06ZM1687.85 1135.46a24.66 24.66 0 0 1 1.97 3.5c-2.78-.05-4.85-.12-6.19-.22-.63-.05-1.24-.57-1.41-1.21-.29-1.17.48-2.24 1.73-2.16 1.27.08 2.57.11 3.9.09ZM1508.57 1145.04c.33 1.23.55 2.54.67 3.93-2.48-.96-4.33-1.7-5.55-2.24-.63-.27-.99-.72-1.08-1.34-.09-.58.06-1.06.44-1.43.64-.63 1.37-.56 2.2-.24 1.11.43 2.15.85 3.12 1.26.07.03.14.05.2.06ZM1581.98 1145.06c.31 1.23.53 2.53.66 3.91-2.94-1.13-4.91-1.93-5.91-2.41-.31-.14-.53-.45-.67-.92-.24-.79-.03-1.42.63-1.89.58-.41 1.26-.3 1.96-.03 1.04.4 2.05.83 3.05 1.27.09.05.18.07.28.07ZM1691.97 1145.04c.29 1.13.51 2.44.66 3.93-1.8-.69-3.56-1.4-5.27-2.12-.59-.25-.97-.53-1.14-.82-.64-1.1 0-2.47 1.31-2.55.24-.02.56.05.95.2 1.12.44 2.29.89 3.49 1.36ZM1450.51 1144.59c2.05 1.82 3.58 3.2 4.56 4.12.85.8.58 2.17-.4 2.7-.88.47-1.5.13-2.22-.53-.84-.77-1.73-1.54-2.66-2.32.12-1.21.37-2.53.72-3.97ZM1523.91 1144.6c2.33 2.06 3.86 3.43 4.58 4.12.45.43.63 1.23.36 1.83-.39.84-1.31 1.31-2.16.93-.25-.11-.55-.33-.92-.66-.87-.78-1.72-1.56-2.58-2.34.12-1.14.32-2.27.6-3.39.01-.02.01-.05 0-.07a.21.21 0 0 0-.04-.06l-.05-.03c.1 0 .17-.11.21-.33ZM1633.91 1144.63c2.2 1.9 3.75 3.29 4.63 4.16.64.64.52 1.85-.2 2.45-.72.6-1.68.44-2.34-.2-.71-.69-1.65-1.52-2.82-2.5l.6-3.61c.04-.01.08-.11.13-.3ZM1509.2 1155.44c-.12 1.21-.36 2.53-.73 3.94-1.34-1.17-2.64-2.35-3.92-3.54-.7-.65-1.17-1.01-1.12-1.88.04-.7.36-1.18.97-1.44.96-.4 1.5-.02 2.25.68.81.75 1.65 1.49 2.55 2.24ZM1582.6 1155.45l-.72 3.95c-1.54-1.37-3.03-2.74-4.48-4.1-1.7-1.6.6-4.01 2.31-2.42.91.85 1.87 1.7 2.89 2.57ZM1692.59 1155.39c-.12 1.18-.36 2.5-.72 3.98-2.28-1.98-3.78-3.34-4.52-4.08-.97-.97-.61-2.57.79-2.88.57-.12 1.08.02 1.51.43.92.87 1.89 1.72 2.94 2.55ZM1449.74 1154.95c2.92 1.21 4.76 1.96 5.53 2.27 1.3.52 1.54 2.22.4 3.02-.47.32-1 .36-1.6.12-1.2-.5-2.43-.98-3.67-1.44-.3-1.25-.52-2.58-.66-3.97ZM1523.81 1158.93c-.32-1.2-.55-2.52-.67-3.97 1.95.8 3.86 1.58 5.73 2.34.24.1.46.3.65.59.75 1.12-.07 2.7-1.45 2.63-.21-.01-.53-.11-.96-.29a84.03 84.03 0 0 0-3.3-1.3ZM1633.13 1154.96c1.91.78 3.78 1.55 5.63 2.3 1.25.52 1.39 2.2.29 2.98-.46.32-.98.37-1.57.12-1.19-.48-2.42-.96-3.69-1.44-.29-1.23-.51-2.55-.66-3.96ZM1506.2 1165.49c-.54 1.11-1.21 2.25-2 3.41-.9-1.69-1.79-3.37-2.65-5.02-.21-.4-.33-.72-.35-.96-.2-1.94 2.25-2.62 3.15-.95.61 1.15 1.23 2.32 1.85 3.52ZM1579.6 1165.51c-.56 1.12-1.23 2.25-2 3.39-.98-1.81-1.92-3.61-2.84-5.42-1.01-2 1.89-3.56 3.03-1.44.6 1.12 1.2 2.27 1.81 3.47ZM1689.6 1165.5c-.53 1.07-1.2 2.2-2 3.39-.92-1.71-1.81-3.39-2.68-5.04-.19-.37-.31-.66-.34-.86-.3-1.94 2.27-2.73 3.17-1.02.61 1.15 1.22 2.33 1.85 3.53ZM1527.91 1168.49c-.7-1.07-1.35-2.22-1.95-3.46 1.92.03 3.84.1 5.75.19.47.02.81.09 1.03.21.84.45 1.17 1.47.68 2.33-.32.56-.81.82-1.49.8-1.31-.04-2.65-.06-4.02-.07ZM1452.56 1165.04c3.04.03 5.16.1 6.34.22.48.05.87.36 1.17.95.58 1.14-.33 2.43-1.61 2.38-1.29-.06-2.61-.09-3.94-.1-.71-1.05-1.36-2.2-1.96-3.45ZM1635.96 1165.04c3.03.03 5.13.1 6.31.22.31.03.61.2.92.53.57.59.54 1.6.04 2.22-.31.4-.75.58-1.31.56-1.29-.05-2.62-.07-4-.07a25.69 25.69 0 0 1-1.96-3.46ZM1500.01 1173.82c-.92.88-1.94 1.72-3.05 2.52-.31-2.01-.59-4.02-.83-6.03-.08-.63.12-1.15.6-1.55.76-.63 1.95-.47 2.46.38.12.21.22.57.3 1.06.17 1.19.35 2.39.52 3.62ZM1573.41 1173.81c-.9.87-1.92 1.71-3.05 2.52-.3-1.97-.59-3.92-.85-5.84-.08-.53 0-1.1.38-1.52.75-.83 1.95-.79 2.64.09.17.22.3.61.37 1.17.16 1.18.33 2.38.51 3.58ZM1683.37 1173.86c-.93.87-1.93 1.7-3.02 2.48-.27-1.78-.52-3.55-.74-5.29-.11-.84-.28-1.56.42-2.21.98-.93 2.62-.35 2.8.93.19 1.37.37 2.74.54 4.09ZM1461.62 1176.05c-1.01-.75-2.02-1.62-3.01-2.6 2.03-.67 4.04-1.31 6.05-1.92.34-.11.74-.01 1.2.3 1.13.75.89 2.51-.43 2.96-1.25.41-2.51.83-3.81 1.26ZM1535.05 1176.06c-1-.73-2.02-1.6-3.06-2.6a254.9 254.9 0 0 1 5.56-1.78c.49-.15.86-.19 1.12-.12.88.24 1.43.95 1.31 1.88-.05.37-.18.66-.4.86-.34.33-.74.56-1.19.69-1.09.31-2.2.67-3.34 1.07ZM1645.02 1176.05c-1.01-.74-2.01-1.61-3.01-2.59 1.9-.64 3.78-1.24 5.64-1.81.52-.16.96-.16 1.32 0 .94.43 1.27 1.49.79 2.4-.22.43-.57.62-1.01.77-1.21.4-2.46.82-3.73 1.23ZM1491.36 1179.53c-1.12.5-2.36.95-3.74 1.34.52-2.68.93-4.69 1.24-6.02.29-1.27 1.94-1.68 2.85-.76.72.73.47 1.39.27 2.3-.22 1.01-.43 2.06-.62 3.14ZM1564.82 1179.5c-1.06.48-2.33.94-3.83 1.37.63-3.09 1.06-5.1 1.28-6.04.35-1.43 2.24-1.66 3.03-.5.34.5.33.9.19 1.51-.28 1.17-.5 2.39-.67 3.66ZM1674.75 1179.54c-1.14.5-2.39.94-3.75 1.33.37-1.91.77-3.8 1.18-5.68.11-.48.24-.81.4-1 .89-1.08 2.78-.63 2.99.79.03.22-.01.61-.14 1.16-.24 1.11-.47 2.24-.68 3.4ZM1470.88 1180.72a26.52 26.52 0 0 1-3.7-1.39c1.64-1.29 3.27-2.56 4.88-3.8.23-.18.53-.27.91-.29.9-.05 1.66.72 1.75 1.54.06.55-.16 1.02-.65 1.42-1.03.85-2.1 1.69-3.19 2.52ZM1544.32 1180.73c-1.19-.34-2.44-.8-3.75-1.4 1.66-1.3 3.3-2.57 4.93-3.84.35-.27.82-.33 1.42-.17.81.21 1.29 1.11 1.13 1.95-.08.44-.35.82-.79 1.14-.41.29-1.39 1.07-2.94 2.32ZM1654.29 1180.73c-1.16-.34-2.41-.8-3.72-1.4 1.58-1.23 3.13-2.46 4.65-3.67.6-.47 1.23-.56 1.89-.26 1.16.52 1.34 2.04.32 2.84-1.01.81-2.06 1.64-3.14 2.49ZM1481.26 1181.91l-4.01-.03c1.09-1.73 2.17-3.44 3.23-5.14.92-1.47 3.38-.66 3.12 1.11-.04.25-.19.58-.46.99-.62.99-1.25 2.01-1.88 3.07ZM1554.63 1181.91l-3.96-.03c1-1.62 2-3.22 3-4.8.3-.48.57-.78.8-.9 1.26-.65 2.76.32 2.48 1.78-.04.21-.16.47-.35.78-.64 1.04-1.29 2.09-1.97 3.17ZM1664.66 1181.91l-4-.03c1.1-1.76 2.17-3.49 3.23-5.18.25-.4.65-.64 1.18-.7.7-.09 1.25.15 1.65.73.24.34.32.73.26 1.15-.04.25-.2.6-.48 1.03-.62.96-1.23 1.96-1.84 3Z"/><circle cx="1663" cy="1152" r="21" fill="url(#b)"/><path fill="#7F7346" fill-rule="evenodd" d="M1663 1155.13c1.73 0 3.13-1.4 3.13-3.13s-1.4-3.13-3.13-3.13-3.13 1.4-3.13 3.13 1.4 3.13 3.13 3.13Zm0 2.76c3.26 0 5.89-2.63 5.89-5.89s-2.63-5.89-5.89-5.89-5.89 2.63-5.89 5.89 2.63 5.89 5.89 5.89Z" clip-rule="evenodd"/><circle cx="1479" cy="1152" r="21" fill="url(#c)"/><path fill="#7F7346" fill-rule="evenodd" d="M1479 1155.13c1.73 0 3.13-1.4 3.13-3.13s-1.4-3.13-3.13-3.13-3.13 1.4-3.13 3.13 1.4 3.13 3.13 3.13Zm0 2.76c3.26 0 5.89-2.63 5.89-5.89s-2.63-5.89-5.89-5.89-5.89 2.63-5.89 5.89 2.63 5.89 5.89 5.89Z" clip-rule="evenodd"/><circle cx="1553" cy="1152" r="21" fill="url(#d)"/><path fill="#7F7346" fill-rule="evenodd" d="M1553 1155.13c1.73 0 3.13-1.4 3.13-3.13s-1.4-3.13-3.13-3.13-3.13 1.4-3.13 3.13 1.4 3.13 3.13 3.13Zm0 2.76c3.26 0 5.89-2.63 5.89-5.89s-2.63-5.89-5.89-5.89-5.89 2.63-5.89 5.89 2.63 5.89 5.89 5.89Z" clip-rule="evenodd"/></g><path fill="#fff" d="M503.093 1122.22H357.569V541.791c0-50.173 17.358-99.632 50.648-145.048l6.182-8.323c2.854-3.804 9.036-6.42 15.932-6.42 6.896 0 13.078 2.616 15.931 6.42l6.183 8.323c33.29 45.416 50.648 94.875 50.648 145.048v580.429Z"/><path fill="url(#e)" d="M503.093 548.687H395.852v17.12h107.241v-17.12Z"/><path fill="url(#f)" d="M503.093 581.501H395.852v17.12h107.241v-17.12Z"/><path fill="url(#g)" d="M358.282 524.908h144.335c-2.853-35.43-14.267-70.622-34.003-103.674h-76.566c-19.498 33.052-31.15 68.007-33.766 103.674Z"/><path fill="#7F7346" d="M490.49 693.735h-35.429v63.726h35.429v-63.726Z"/><path fill="#6F7B89" d="M490.49 693.735h-35.429v63.726h35.429v-63.726Z"/><path fill="#262D36" d="M484.308 699.917h-29.247v57.544h29.247v-57.544Z"/><path fill="#E6E6E6" d="M357.569 1122.22v12.84h-44.465l-6.896-60.16c-.476-4.75.475-9.51 2.616-13.55l48.745-87.744v148.614ZM503.093 1122.22v12.84h44.466l6.895-60.16c.476-4.75-.475-9.51-2.615-13.55l-48.746-87.744v148.614Z"/><path fill="#fff" d="M307.635 1086.08h15.693c2.14 0 3.567 1.66 3.567 3.56v63.97h-11.651l-7.609-67.53ZM534.005 1089.64c0-2.14 1.664-3.56 3.567-3.56h15.693l-7.846 67.53h-11.652v-63.97h.238Z"/><path fill="#E6E6E6" d="M404.175 1122.22v12.84h52.074v-60.4c0-4.75-.713-9.27-1.902-13.79l-24.254-87.502-24.254 87.502c-1.189 4.52-1.902 9.04-1.902 13.79v47.56h.238Z"/><path fill="#fff" d="M414.875 1090.12c0-.95.238-2.14.951-2.85a3.915 3.915 0 0 1 2.854-1.19h23.302c.952 0 2.141.47 2.854 1.19.713.71.951 1.9.951 2.85l-7.133 63.49h-16.408l-7.371-63.49Z"/><path fill="#E6E6E6" d="M519.976 757.698h-64.915v7.134h64.915v-7.134Z"/><path fill="#939CA6" d="M565.868 757.698h-57.306v7.134h57.306v-7.134Z"/><path fill="#E6E6E6" d="M519.976 686.601h-64.915v7.134h64.915v-7.134Z"/><path fill="#939CA6" d="M574.191 686.601h-57.306v7.134h57.306v-7.134Z"/><path fill="#E6E6E6" d="M541.377 942.457h-32.815v7.133h32.815v-7.133Z"/><path fill="#939CA6" d="M598.683 942.457h-57.306v7.133h57.306v-7.133Z"/><path fill="#6F7B89" d="M527.11 686.601h-3.567v7.134h3.567v-7.134ZM567.533 686.601h-3.567v7.134h3.567v-7.134Z"/><path fill="#fff" d="M613.663 1153.37H247v36.62h366.663v-36.62Z"/><path fill="#E6E6E6" d="M622.698 1175.72H510.226l-46.843-22.35h112.709l46.606 22.35Z"/><path fill="#fff" d="M1874.19 1190.32h1819.28v-36.62H1874.19v36.62Z"/><path fill="#E6E6E6" d="M1864.88 1175.72h112.71l46.61-22.35h-112.71l-46.61 22.35Z"/><path fill="#fff" d="M527.11 693.735h-3.567v248.722h3.567V693.735ZM567.533 693.735h-3.567v248.722h3.567V693.735Z"/><path fill="#EDEFF1" d="M4032.04 548.687h-78.94v46.13h78.94v-46.13Z"/><path fill="#fff" d="M4149.03 845.678h-126.5V520.866h31.39l95.11 324.812Z"/><path fill="#EDEFF1" d="M4194.69 889.431h-337.66l23.78-54.215h290.1l23.78 54.215Z"/><path fill="#E5743C" d="M4213.71 862.323c0-2.615-2.14-4.755-4.76-4.755-2.61 0-4.75 2.14-4.75 4.755v4.756h9.51v-4.756ZM3847.52 862.323c0-2.615-2.14-4.755-4.75-4.755-2.62 0-4.76 2.14-4.76 4.755v4.756h9.51v-4.756ZM4030.62 862.323c0-2.615-2.14-4.755-4.76-4.755-2.61 0-4.75 2.14-4.75 4.755v4.756h9.51v-4.756Z"/><path fill="#fff" d="M3638.12 1190.32h608.73v-36.62h-608.73v36.62ZM4213.71 867.079h-375.7v286.291h375.7V867.079ZM3954.05 649.983l-154.08-62.3V555.82l154.08-62.299v156.462Zm-149.33-65.629 144.57 58.495V500.654l-144.57 58.495v25.205Z"/><path fill="#fff" d="M3934.55 383.665v376.174c41.61-51.362 66.58-116.752 66.58-188.087 0-71.336-24.97-136.726-66.58-188.087ZM3934.55 569.374h-146.71v4.755h146.71v-4.755Z"/><path fill="#fff" d="M3833.97 566.282h-16.88v11.176h16.88v-11.176Z"/><path fill="#fff" d="M3824.7 559.149h-22.59v25.205h22.59v-25.205Z"/><path fill="#EDEFF1" d="M3987.82 1153.61h-4.76v-54.22c0-32.33-26.16-58.49-58.49-58.49h-28.3c-32.34 0-58.5 26.16-58.5 58.49v54.22h-4.75v-54.22c0-34.95 28.29-63.25 63.25-63.25h28.3c34.95 0 63.25 28.3 63.25 63.25v54.22Z"/><path fill="#DCDFE2" d="M3508.44 1153.85h465.35v-57.31c0-26.16-21.4-47.56-47.56-47.56h-405.9c-6.66 0-11.89 5.24-11.89 11.89v92.98Z"/><path fill="#fff" d="M2156.4 1032.1h-189.51v121.51h-68.96c63.02-110.1 146.24-207.111 244.45-286.293h1275.47c98.2 79.182 181.19 176.433 244.44 286.293H2156.4V1032.1Z"/><mask id="h" width="466" height="105" x="3509" y="1049" maskUnits="userSpaceOnUse" style="mask-type:alpha"><path fill="#DCDFE2" d="M3509 1153.86h465.34v-57.3c0-26.16-21.4-47.56-47.55-47.56h-405.9c-6.66 0-11.89 5.23-11.89 11.89v92.97Z"/></mask><g fill="#fff" fill-rule="evenodd" clip-rule="evenodd" mask="url(#h)"><path d="M3797 1040.9h14.55c32.34 0 58.49 26.16 58.49 58.49v54.22h4.76v-54.22c0-34.95-28.3-63.25-63.25-63.25H3797v4.76ZM3693 1040.9h14.55c32.34 0 58.49 26.16 58.49 58.49v54.22h4.76v-54.22c0-34.95-28.3-63.25-63.25-63.25H3693v4.76ZM3589 1040.9h14.55c32.34 0 58.49 26.16 58.49 58.49v54.22h4.76v-54.22c0-34.95-28.3-63.25-63.25-63.25H3589v4.76Z"/></g><path fill="#5C6B7A" d="M3418 867H2142c174.37-140.744 396.31-225 638-225 241.93 0 463.63 84.256 638 225Z"/><path fill="#DCDFE2" d="M2141.19 1153.37h180v-121.51c0-6.65-5.23-11.89-11.89-11.89h-156.22c-6.66 0-11.89 5.24-11.89 11.89v121.51Z"/><path fill="#EDEFF1" d="M1942.16 1032.1c0-6.66 5.23-11.89 11.89-11.89h274.88c6.66 0 11.89 5.23 11.89 11.89v121.51h-133.87v-100.35h-90.6v100.35h-74.19V1032.1Z"/><path fill="#4B5A6B" d="m2393 851.623 26.87 15.456h32.58v-49.697L2393 851.623ZM2321.66 750.803c-18.07 9.036-35.66 18.785-53.02 29.009l53.02 30.674v-59.683ZM2391.1 867.079h20.68l-20.68-12.127v12.127ZM2456.25 817.382v49.697h32.58l26.87-15.456-59.45-34.241ZM2325.71 817.382v49.697h32.34l26.87-15.456-59.21-34.241ZM2496.91 867.079h20.69v-12.127l-20.69 12.127ZM2319.76 813.815l-54.93-31.863c-1.42.952-2.85 1.665-4.28 2.616v63.488l59.21-34.241ZM2202.77 821.9c-2.61 1.902-5.23 3.567-7.84 5.469v39.71h32.57l26.87-15.456-51.6-29.723ZM2256.27 787.184a1114.397 1114.397 0 0 0-49.93 32.101l49.93 28.772v-60.873ZM2521.64 867.079h20.93l-20.93-12.127v12.127ZM2260.32 867.079h20.92l-20.92-12.127v12.127ZM2262.22 851.623l26.87 15.456h32.57v-49.697l-59.44 34.241ZM2235.59 867.079h20.68v-12.127l-20.68 12.127ZM2366.13 867.079h20.92v-12.127l-20.92 12.127ZM2782.96 867.079h20.93l-20.93-12.127v12.127ZM2848.36 817.382v49.697h32.57l26.87-15.456-59.44-34.241ZM2523.78 851.623l26.87 15.456h32.34v-49.697l-59.21 34.241ZM2889.02 867.079h20.68v-12.127l-20.68 12.127ZM2913.75 867.079h20.92l-20.92-12.127v12.127ZM2979.14 817.382v49.697h32.34l26.87-15.456-59.21-34.241ZM2915.65 851.623l26.87 15.456h32.57v-49.697l-59.44 34.241ZM2785.11 851.623l26.86 15.456h32.34v-49.697l-59.2 34.241ZM2652.42 867.079h20.69l-20.69-12.127v12.127ZM2627.45 867.079h20.93v-12.127l-20.93 12.127ZM2587.03 817.382v49.697h32.58l26.87-15.456-59.45-34.241ZM3019.56 867.079h20.93v-12.127l-20.93 12.127ZM2717.81 817.382v49.697h32.34l26.87-15.456-59.21-34.241ZM2758.24 867.079h20.92v-12.127l-20.92 12.127ZM2654.32 851.623l26.87 15.456h32.58v-49.697l-59.45 34.241ZM3150.34 711.568a1023.35 1023.35 0 0 0-40.66-14.98v38.283l40.66-23.303ZM2384.91 776.246l-52.78-30.437c-2.14 1.189-4.28 2.14-6.66 3.329v61.586l59.44-34.478ZM3171.03 772.679v-52.788c-5.23-2.14-10.7-4.28-15.93-6.42l-43.28 24.967 59.21 34.241ZM2909.7 697.301v-47.319c-10.22-1.426-20.45-2.378-30.91-3.329l-28.53 16.407 59.44 34.241ZM3068.54 683.272c-7.84-2.378-15.93-4.755-24.01-6.896v20.688l24.01-13.792ZM2973.19 663.061l-7.37-4.281c-17.12-3.091-34.48-5.944-52.07-8.322v46.843l59.44-34.24ZM3040.48 697.301v-21.638a1135.09 1135.09 0 0 0-57.78-13.554l-1.66.951 59.44 34.241ZM3105.88 734.871v-39.71c-10.7-3.566-21.4-6.895-32.11-10.224l-27.34 15.694 59.45 34.24ZM3354.6 819.998c-15.93-10.938-32.1-21.401-48.75-31.388v59.446l48.75-28.058ZM2149.03 861.61l9.51 5.469h32.58v-37.094c-14.5 10.225-28.3 20.687-42.09 31.625ZM3236.42 810.487v-60.398c-2.62-1.188-4.99-2.615-7.61-3.804l-51.84 29.961 59.45 34.241ZM2142.14 867.079h8.32l-4.76-2.853c-1.18.951-2.37 1.902-3.56 2.853ZM3292.3 780.526c-16.88-9.987-34.24-19.499-51.84-28.534v58.495l51.84-29.961ZM3301.81 848.056v-62.061c-1.9-1.189-3.57-2.14-5.47-3.329l-53.98 31.149 59.45 34.241ZM3224.53 744.145a1162.378 1162.378 0 0 0-49.46-22.59v51.124l49.46-28.534ZM2648.38 697.301V650.22c-17.12 2.14-34.24 4.994-50.89 7.847l-8.32 4.756 59.21 34.478ZM2515.7 700.63l-28.06-16.169a797.462 797.462 0 0 0-31.39 9.987v40.423l59.45-34.241ZM2581.09 663.061l-2.14-1.189c-19.26 3.804-38.29 8.322-57.07 13.315v22.352l59.21-34.478ZM2517.6 675.901c-8.32 2.14-16.65 4.518-24.73 6.896l24.73 14.267v-21.163ZM2387.06 720.604c-17.13 7.134-34.01 14.743-50.41 22.828l50.41 29.247v-52.075ZM2450.31 738.438l-44.23-25.681c-5 1.903-9.99 4.043-15.22 6.183v53.739l59.45-34.241ZM2872.13 645.94c-7.84-.713-15.69-1.427-23.54-1.902v15.456l23.54-13.554ZM2452.45 695.875c-14.03 4.755-27.83 9.749-41.62 15.218l41.62 24.016v-39.234ZM2842.41 663.06l-36.14-20.925c-7.61-.237-15.46-.237-23.07-.237v55.403l59.21-34.241ZM2779.16 697.301v-55.403c-7.61 0-15.46 0-23.06.237l-36.39 20.925 59.45 34.241ZM2711.63 663.06l-28.77-16.644c-10.23.951-20.45 2.14-30.68 3.329v47.556l59.45-34.241ZM2844.31 643.8c-9.75-.713-19.73-.951-29.72-1.427l29.72 17.121V643.8ZM2747.54 642.373c-9.99.238-19.98.714-29.73 1.427v15.932l29.73-17.359ZM2713.77 643.8c-8.08.476-15.93 1.189-24.02 1.902l24.02 13.792V643.8ZM2713.77 734.871v-68.482l-59.45 34.241 59.45 34.241ZM2909.7 772.679v-68.482l-59.2 34.241 59.2 34.241ZM2909.7 848.056v-68.482l-59.2 34.241 59.2 34.241ZM2848.36 741.767v68.719l59.44-34.24-59.44-34.479ZM2913.75 704.197v68.482l59.44-34.241-59.44-34.241ZM2975.09 810.486v-68.719l-59.44 34.479 59.44 34.24ZM2913.75 848.056l59.44-34.241-59.44-34.241v68.482ZM2844.31 810.486v-68.719l-59.2 34.479 59.2 34.24ZM2782.96 704.197v68.482l59.45-34.241-59.45-34.241ZM2782.96 848.056l59.45-34.241-59.45-34.241v68.482ZM2779.16 772.679v-68.482l-59.45 34.241 59.45 34.241ZM2844.31 734.871v-68.482l-59.2 34.241 59.2 34.241ZM2848.36 666.389v68.482l59.44-34.241-59.44-34.241ZM2975.09 734.871v-68.482l-59.44 34.241 59.44 34.241ZM3171.03 848.056v-68.482l-59.21 34.241 59.21 34.241ZM3358.16 822.614l-50.41 29.009 26.87 15.456h32.58v-38.283c-3.09-2.14-5.94-4.28-9.04-6.182ZM3175.07 848.056l59.45-34.241-59.45-34.241v68.482ZM2779.16 848.056v-68.482l-59.45 34.241 59.45 34.241ZM3417.85 867.079c-.95-.713-1.67-1.427-2.62-2.14l-3.56 2.14h6.18ZM3403.58 867.079l8.09-4.755c-13.32-10.463-26.87-20.925-40.67-30.675v35.43h32.58ZM3109.68 741.767v68.719l59.45-34.24-59.45-34.479ZM2979.14 666.389v68.482l59.21-34.241-59.21-34.241ZM3040.48 848.056v-68.482l-59.44 34.241 59.44 34.241ZM2979.14 741.767v68.719l59.21-34.24-59.21-34.479ZM3105.88 810.486v-68.719l-59.45 34.479 59.45 34.24ZM3040.48 772.679v-68.482l-59.44 34.241 59.44 34.241ZM3044.53 848.056l59.21-34.241-59.21-34.241v68.482ZM3044.53 704.197v68.482l59.21-34.241-59.21-34.241ZM3044.53 867.079h20.68l-20.68-12.127v12.127ZM2387.06 848.056v-68.482l-59.45 34.241 59.45 34.241ZM2717.81 741.767v68.719l59.21-34.24-59.21-34.479ZM2391.1 848.056l59.21-34.241-59.21-34.241v68.482ZM2452.45 810.486v-68.719L2393 776.246l59.45 34.24ZM2456.25 741.767v68.719l59.45-34.24-59.45-34.479ZM2517.6 848.056v-68.482l-59.21 34.241 59.21 34.241ZM3280.88 867.079h20.93v-12.127l-20.93 12.127ZM3109.68 817.382v49.697h32.58l26.87-15.456-59.45-34.241ZM3150.34 867.079h20.69v-12.127l-20.69 12.127ZM3046.43 851.623l26.87 15.456h32.58v-49.697l-59.45 34.241ZM3240.46 817.382v49.697h32.58l26.87-15.456-59.45-34.241ZM3177.21 851.623l26.87 15.456h32.34v-49.697l-59.21 34.241ZM3175.07 867.079H3196l-20.93-12.127v12.127ZM3305.85 867.079h20.69l-20.69-12.127v12.127ZM2648.38 848.056v-68.482l-59.45 34.241 59.45 34.241ZM2652.42 848.056l59.21-34.241-59.21-34.241v68.482ZM2648.38 772.679v-68.482l-59.45 34.241 59.45 34.241ZM2652.42 704.197v68.482l59.21-34.241-59.21-34.241ZM2517.6 772.679v-68.482l-59.21 34.241 59.21 34.241ZM2713.77 810.486v-68.719l-59.45 34.479 59.45 34.24ZM2717.81 666.389v68.482l59.21-34.241-59.21-34.241ZM2582.99 810.486v-68.719l-59.21 34.479 59.21 34.24ZM2587.03 741.767v68.719l59.45-34.24-59.45-34.479ZM2521.64 704.197v68.482l59.45-34.241-59.45-34.241ZM2521.64 848.056l59.45-34.241-59.45-34.241v68.482ZM2582.99 734.871v-68.482l-59.21 34.241 59.21 34.241ZM2587.03 666.389v68.482l59.45-34.241-59.45-34.241Z"/><path fill="#fff" d="M2192.79 1077.04h11.41c6.66 0 11.89 5.23 11.89 11.89v40.9c0 6.66-5.23 11.89-11.89 11.89h-11.41c-6.66 0-11.89-5.23-11.89-11.89v-40.9c0-6.66 5.23-11.89 11.89-11.89ZM2106.95 1053.26h37.57c6.65 0 11.88 5.24 11.88 11.89v88.46h-49.45v-100.35ZM1978.78 1053.26h37.57v100.35h-49.46v-88.46c0-6.65 5.23-11.89 11.89-11.89Z"/><path fill="#262D36" d="M2198.49 1103.44c4.47 0 8.09-3.62 8.09-8.09 0-4.46-3.62-8.08-8.09-8.08-4.46 0-8.08 3.62-8.08 8.08 0 4.47 3.62 8.09 8.08 8.09Z"/><path fill="url(#i)" d="M2016.35 1153.37h90.6v-100.11h-90.6v100.11Z"/><path fill="#658F61" d="M2073.89 1041.61c0 1.67-1.42 3.09-3.09 3.09h-18.55c-1.66 0-3.09-1.42-3.09-3.09v-2.38c0-1.66 1.43-3.09 3.09-3.09h18.55c1.67 0 3.09 1.43 3.09 3.09v2.38Z"/><path fill="#EDEFF1" d="M2604.68 1153.4h124.6v-44.23h-124.6v44.23ZM3013.41 1153.4H3138v-44.23h-124.59v44.23ZM3422.13 1153.4h124.6v-44.23h-124.6v44.23Z"/><path fill="#DCDFE2" d="M4165.2 1088.93c0-6.66 5.23-11.89 11.89-11.89h11.42c6.65 0 11.88 5.23 11.88 11.89v40.9c0 6.66-5.23 11.89-11.88 11.89h-11.42c-6.66 0-11.89-5.23-11.89-11.89v-40.9Z"/><path fill="#262D36" d="M4182.8 1103.44c4.46 0 8.08-3.62 8.08-8.09 0-4.46-3.62-8.08-8.08-8.08-4.47 0-8.09 3.62-8.09 8.08 0 4.47 3.62 8.09 8.09 8.09Z"/><path fill="#4B5A6B" d="M4213.71 900.131h-375.7v35.43h375.7v-35.43Z"/><path fill="#5C6B7A" d="M4213.71 897.753h-375.7v4.756h375.7v-4.756ZM4213.71 934.61h-375.7v4.756h375.7v-4.756Z"/><path fill="#5C6B7A" d="M3890.56 898.229h-4.75v38.996h4.75v-38.996ZM4000.66 898.229h-4.76v38.996h4.76v-38.996ZM3945.73 898.229h-4.76v38.996h4.76v-38.996ZM4055.58 898.229h-4.75v38.996h4.75v-38.996ZM4110.75 898.229h-4.76v38.996h4.76v-38.996ZM4165.68 898.229h-4.76v38.996h4.76v-38.996Z"/><path fill="#fff" d="M4164.96 1095.35h-6.89v8.09h6.89v-8.09Z"/><path fill="#E5743C" d="M4158.07 1097.97c1.44 0 2.61-1.17 2.61-2.62 0-1.44-1.17-2.61-2.61-2.61a2.614 2.614 0 1 0 0 5.23Z"/><path fill="#658F61" d="M4158.07 1106.05c1.44 0 2.61-1.17 2.61-2.61a2.614 2.614 0 1 0-5.23 0c0 1.44 1.17 2.61 2.62 2.61Z"/><path fill="#EDEFF1" d="M2180.9 1095.35h-6.9v8.09h6.9v-8.09Z"/><path fill="#E5743C" d="M2174 1097.97c1.44 0 2.62-1.17 2.62-2.62a2.62 2.62 0 0 0-5.24 0c0 1.45 1.18 2.62 2.62 2.62Z"/><path fill="#658F61" d="M2174 1106.05a2.62 2.62 0 0 0 2.62-2.61c0-1.45-1.18-2.62-2.62-2.62-1.44 0-2.62 1.17-2.62 2.62a2.62 2.62 0 0 0 2.62 2.61Z"/><path fill="#E5743C" d="M1548.63 1171.92c0-2.62-2.14-4.76-4.76-4.76-2.61 0-4.75 2.14-4.75 4.76v4.75h9.51v-4.75ZM1251.4 1171.92c0-2.62-2.14-4.76-4.76-4.76-2.61 0-4.75 2.14-4.75 4.76v4.75h9.51v-4.75ZM954.407 1171.92c0-2.62-2.14-4.76-4.756-4.76-2.615 0-4.755 2.14-4.755 4.76v4.75h9.511v-4.75ZM657.177 1171.92c0-2.62-2.14-4.76-4.755-4.76-2.616 0-4.756 2.14-4.756 4.76v4.75h9.511v-4.75ZM477.65 1171.92c0-2.62-2.14-4.76-4.756-4.76-2.615 0-4.755 2.14-4.755 4.76v4.75h9.511v-4.75ZM2025.39 1171.92c0-2.62-2.14-4.76-4.76-4.76-2.62 0-4.76 2.14-4.76 4.76v4.75h9.52v-4.75Z"/><path fill="#658F61" d="M2307.63 1070.62c2.62 0 4.76-2.14 4.76-4.75 0-2.62-2.14-4.76-4.76-4.76h-4.75v9.51h4.75Z"/><path fill="#E5743C" d="M2307.63 1056.36c2.62 0 4.76-2.14 4.76-4.76 0-2.62-2.14-4.76-4.76-4.76h-4.75v9.52h4.75ZM1845.86 1171.92c0-2.62-2.14-4.76-4.76-4.76-2.61 0-4.75 2.14-4.75 4.76v4.75h9.51v-4.75Z"/><path fill="#fff" d="M2240.58 1175.72H492.155v14.51H2240.58v-14.51Z"/><path fill="#EDEFF1" d="M2674.77 1109.38h-4.75v-101.77c0-5.95-4.76-10.701-10.7-10.701h-193.8a15.42 15.42 0 0 1-15.45-15.456V867.317h4.75v114.136c0 5.945 4.76 10.7 10.7 10.7h193.8a15.42 15.42 0 0 1 15.45 15.457v101.77Z"/><path fill="#EDEFF1" d="M3054.28 1118.18h-4.76v-38.28c0-5.95-4.75-10.7-10.7-10.7h-416.36v-4.76h416.36c8.56 0 15.46 6.9 15.46 15.46v38.28ZM3101.83 1118.18h-4.75v-38.28c0-8.56 6.89-15.46 15.45-15.46h121.04V956.961a15.42 15.42 0 0 1 15.45-15.456h52.08v-74.426h4.75v79.182h-56.83c-5.94 0-10.7 4.756-10.7 10.7V1069.2h-125.79c-5.94 0-10.7 4.75-10.7 10.7v38.28Z"/><path fill="#EDEFF1" d="M3462.79 1118.18h-4.76v-38.28c0-5.95-4.75-10.7-10.7-10.7h-211.39v-4.76h211.39c8.56 0 15.46 6.9 15.46 15.46v38.28ZM3475.87 1016.41h-44.94c-8.56 0-15.46-6.9-15.46-15.46v-43.751c0-5.944-4.76-10.7-10.7-10.7h-110.09v-4.756h110.09c8.56 0 15.46 6.896 15.46 15.456v43.751c0 5.95 4.75 10.7 10.7 10.7h44.94v4.76Z"/><path fill="#EDEFF1" d="M3493.22 996.434h-35.19v35.196h35.19v-35.196ZM2865.95 914.874h-35.19v35.191h35.19v-35.191ZM2206.81 1020.21h-4.75v-89.881a15.42 15.42 0 0 1 15.45-15.455h234.7v4.755h-234.7c-5.94 0-10.7 4.756-10.7 10.7v89.881Z"/><path fill="#EDEFF1" d="M3054.28 1097.97h-4.76v-92.03a10.65 10.65 0 0 0-10.7-10.695h-177.15a15.42 15.42 0 0 1-15.45-15.456v-47.081h4.75v47.081c0 5.944 4.76 10.7 10.7 10.7h177.15c8.56 0 15.46 6.896 15.46 15.451v92.03Z"/><path fill="#658F61" d="M2848.36 940.554c4.46 0 8.08-3.619 8.08-8.084s-3.62-8.085-8.08-8.085a8.086 8.086 0 1 0 0 16.169Z"/><path fill="#187BBC" d="M3475.87 1022.11c4.46 0 8.08-3.62 8.08-8.08 0-4.47-3.62-8.09-8.08-8.09-4.47 0-8.09 3.62-8.09 8.09 0 4.46 3.62 8.08 8.09 8.08Z"/><path fill="#EDEFF1" d="M2640.06 1049.46h-35.2v35.19h35.2v-35.19Z"/><path fill="#E5743C" d="M2622.46 1075.14c4.47 0 8.09-3.62 8.09-8.08 0-4.47-3.62-8.09-8.09-8.09-4.46 0-8.08 3.62-8.08 8.09 0 4.46 3.62 8.08 8.08 8.08Z"/><path fill="#EDEFF1" d="M2204.44 955.772h-56.12v4.756h56.12v-4.756Z"/><path fill="#EDEFF1" d="M2156.4 940.554h-35.19v35.192h35.19v-35.192Z"/><path fill="#187BBC" d="M2138.81 966.235c4.46 0 8.08-3.62 8.08-8.085a8.083 8.083 0 0 0-8.08-8.084 8.086 8.086 0 1 0 0 16.169Z"/><path fill="#DCDFE2" d="M3075.68 1124.6c-3.81 0-6.9 3.09-6.9 6.89v22.12h13.56v-22.12c.23-3.8-2.86-6.89-6.66-6.89ZM3051.9 1124.6c-3.81 0-6.9 3.09-6.9 6.89v22.12h13.56v-22.12c.23-3.8-2.86-6.89-6.66-6.89ZM3099.46 1124.6c-3.81 0-6.9 3.09-6.9 6.89v22.12h13.55v-22.12c.24-3.8-2.85-6.89-6.65-6.89ZM3530.32 1124.84c-3.8 0-6.9 3.09-6.9 6.89v22.12h13.56v-22.12c0-3.8-3.09-6.89-6.66-6.89ZM3506.54 1124.84c-3.8 0-6.89 3.09-6.89 6.89v22.12h13.55v-22.12c0-3.8-3.09-6.89-6.66-6.89Z"/><path fill="#EDEFF1" d="M2835.28 1133.87h-73.72v-4.75h73.72c5.94 0 10.7-4.76 10.7-10.7v-51.36h4.75v51.36c0 8.32-6.89 15.45-15.45 15.45Z"/><path fill="#EDEFF1" d="M2758.71 1153.61c12.21 0 22.11-9.9 22.11-22.12 0-12.21-9.9-22.11-22.11-22.11-12.21 0-22.11 9.9-22.11 22.11 0 12.22 9.9 22.12 22.11 22.12Z"/><path fill="#EDEFF1" d="M2765.37 1099.16h-13.32v13.31h13.32v-13.31Z"/><path fill="#EDEFF1" d="M2714.96 1121.27h-4.76v-26.63c0-3.81 3.09-6.66 6.66-6.66h37.57c3.81 0 6.66 3.09 6.66 6.66v15.93h-4.76v-15.93c0-1.19-.95-1.9-1.9-1.9h-37.57c-1.19 0-1.9.95-1.9 1.9v26.63ZM3576.69 1153.61c12.21 0 22.11-9.9 22.11-22.12 0-12.21-9.9-22.11-22.11-22.11-12.22 0-22.12 9.9-22.12 22.11 0 12.22 9.9 22.12 22.12 22.12Z"/><path fill="#EDEFF1" d="M3583.34 1099.16h-13.31v13.31h13.31v-13.31Z"/><path fill="#EDEFF1" d="M3532.94 1121.27h-4.76v-26.63c0-3.81 3.09-6.66 6.66-6.66h37.57c3.8 0 6.66 3.09 6.66 6.66v15.93h-4.76v-15.93c0-1.19-.95-1.9-1.9-1.9h-37.57c-1.19 0-1.9.95-1.9 1.9v26.63Z"/><path fill="#DCDFE2" d="M2604.86 1125.07h-14.98c-7.37 0-13.31 5.95-13.31 13.32v14.98h13.31v-14.98h14.98v-13.32ZM3422.13 1125.07h-14.98c-7.37 0-13.32 5.95-13.32 13.32v14.98h13.32v-14.98h14.98v-13.32Z"/><path fill="#EDEFF1" d="M2439.37 1153.61h-4.76v-14.98c0-5.95-4.99-10.94-10.94-10.94h-132.2c-8.56 0-15.7-7.13-15.7-15.69v-52.79h4.76V1112c0 5.94 4.99 10.93 10.94 10.93h132.2c8.56 0 15.7 7.14 15.7 15.7v14.98Z"/><path fill="#A7AFB7" d="M2321.19 1127.45h-29.72c-8.56 0-15.7-7.13-15.7-15.69v-52.79h4.76v52.79c0 5.94 4.99 10.94 10.94 10.94h29.72v4.75Z" opacity=".6"/><path fill="#EDEFF1" d="M2302.88 1041.14h-35.19v35.19h35.19v-35.19Z"/><path fill="#fff" d="M2267.69 1041.14h-8.33v35.19h8.33v-35.19Z"/><path fill="#EDEFF1" d="M2979.85 867.079h-4.76v125.55h4.76v-125.55Z"/><path fill="#E6E6E6" d="m539.95 939.841 2.853.713c.714.238 1.427.952 1.427 1.665v.238h-4.28v-2.616Z"/><path fill="#fff" d="M538.285 942.456v-25.442l11.414 1.189 5.707 24.253h-3.567l-7.133-20.211-3.329 20.211h-3.092ZM539.95 901.796c-1.189 0-2.14.475-2.854 1.189l-4.042 4.28c-.951.951-.951 2.377 0 3.329l5.231 6.182 11.652-1.189.713-9.749 7.609-1.665c.238 0 .476-.237.714-.475l6.42-6.183-.714-3.566-6.658 5.707-7.846 1.188-10.225.952Z"/><path fill="#fff" d="M544.23 893.949c-2.378 0-4.042 1.902-4.042 4.042v4.042l7.133-1.426c.714-.238 1.189-.714 1.189-1.427v-1.189c-.238-2.378-2.14-4.042-4.28-4.042Z"/><path fill="#fff" d="M547.083 899.656h-7.133v3.804h7.133v-3.804Z"/><path fill="#E6E6E6" d="M547.321 915.349c0 .951-.713 1.665-1.664 1.665h-7.134c-.951 0-1.664-.714-1.664-1.665v-11.414c0-.951.713-1.664 1.664-1.664h7.134c.951 0 1.664.713 1.664 1.664v11.414Z"/><path fill="#E6E6E6" d="M545.181 916.062v.952h-6.896v1.189h11.414v-2.141h-4.518ZM541.377 942.457l1.426-20.212h1.903l-3.329 20.212Z"/><path fill="#fff" d="M545.181 915.349c0 .951-.713 1.665-1.664 1.665h-7.134c-.951 0-1.664-.714-1.664-1.665v-11.414c0-.951.713-1.664 1.664-1.664h7.134c.951 0 1.664.713 1.664 1.664v11.414ZM553.741 939.841l2.854.713c.713.238 1.426.952 1.426 1.665v.238h-4.28v-2.616Z"/><path fill="#E6E6E6" d="M545.657 898.942a.951.951 0 1 0 0-1.903.951.951 0 0 0 0 1.903ZM542.09 905.838h-4.043v1.189h4.043v-1.189Z"/><path fill="#fff" d="m567.771 892.522-3.805.951v1.427l1.189 3.091 2.616-2.378v-3.091ZM2181.61 1062.06c-1.19-1.19-1.9-2.85-1.9-4.75v-7.61c0-1.91.71-3.57 1.9-4.76s2.85-1.66 4.99-1.66 3.81.47 5 1.66 1.9 2.62 1.9 4.76v7.61c0 1.9-.71 3.56-1.9 4.75s-2.86 1.67-5 1.67-3.8-.48-4.99-1.67Zm7.13-2.38c.48-.47.72-1.18.72-2.14v-7.84c0-.95-.24-1.67-.72-2.14-.47-.48-1.19-.72-2.14-.72-.95 0-1.42.24-1.9.72-.47.47-.71 1.19-.71 2.14v7.84c0 .96.24 1.67.71 2.14.48.48 1.19.72 1.9.72.95 0 1.67-.24 2.14-.72ZM2198.02 1062.06c-1.19-1.19-1.91-2.85-1.91-4.75v-7.61c0-1.91.72-3.57 1.91-4.76s2.85-1.66 4.99-1.66 3.8.47 4.99 1.66c1.19 1.19 1.91 2.62 1.91 4.76v7.61c0 1.9-.72 3.56-1.91 4.75s-2.85 1.67-4.99 1.67-3.8-.48-4.99-1.67Zm6.89-2.38c.48-.47.72-1.18.72-2.14v-7.84c0-.95-.24-1.67-.72-2.14-.47-.48-1.19-.72-2.14-.72-.95 0-1.42.24-1.9.72-.48.47-.71 1.19-.71 2.14v7.84c0 .96.23 1.67.71 2.14.48.48 1.19.72 1.9.72.95 0 1.67-.24 2.14-.72ZM2215.37 1043.51H2219.18v19.74H2215.37v-15.93l-2.85.71c-.24 0-.24 0-.24-.24v-2.37c0-.24 0-.24.24-.48l3.09-1.43c-.47.24-.47 0-.24 0Z"/><defs><linearGradient id="b" x1="1649.46" x2="1675.99" y1="1136.25" y2="1169.87" gradientUnits="userSpaceOnUse"><stop stop-color="#D9C393"/><stop offset="1" stop-color="#AA995E"/></linearGradient><linearGradient id="c" x1="1465.46" x2="1491.99" y1="1136.25" y2="1169.87" gradientUnits="userSpaceOnUse"><stop stop-color="#D9C393"/><stop offset="1" stop-color="#AA995E"/></linearGradient><linearGradient id="d" x1="1539.46" x2="1565.99" y1="1136.25" y2="1169.87" gradientUnits="userSpaceOnUse"><stop stop-color="#D9C393"/><stop offset="1" stop-color="#AA995E"/></linearGradient><linearGradient id="e" x1="395.897" x2="503.108" y1="557.163" y2="557.163" gradientUnits="userSpaceOnUse"><stop stop-color="#D9C393"/><stop offset=".638" stop-color="#A9995D"/></linearGradient><linearGradient id="f" x1="395.897" x2="503.108" y1="590.009" y2="590.009" gradientUnits="userSpaceOnUse"><stop stop-color="#D9C393"/><stop offset=".638" stop-color="#A9995D"/></linearGradient><linearGradient id="g" x1="358.196" x2="502.415" y1="472.959" y2="472.959" gradientUnits="userSpaceOnUse"><stop stop-color="#D9C393"/><stop offset=".638" stop-color="#A9995D"/></linearGradient><linearGradient id="i" x1="2061.56" x2="2061.56" y1="1153.49" y2="1053.23" gradientUnits="userSpaceOnUse"><stop stop-color="#4B5A6B"/><stop offset="1" stop-color="#262D36"/></linearGradient><clipPath id="a"><path fill="#fff" d="M1438 996h264v186h-264z"/></clipPath></defs></svg>